G04 #@! TF.GenerationSoftware,KiCad,Pcbnew,(6.0.9-0)*
G04 #@! TF.CreationDate,2023-02-07T08:35:36+01:00*
G04 #@! TF.ProjectId,fp_da20_panel,66705f64-6132-4305-9f70-616e656c2e6b,A*
G04 #@! TF.SameCoordinates,Original*
G04 #@! TF.FileFunction,Legend,Top*
G04 #@! TF.FilePolarity,Positive*
%FSLAX46Y46*%
G04 Gerber Fmt 4.6, Leading zero omitted, Abs format (unit mm)*
G04 Created by KiCad (PCBNEW (6.0.9-0)) date 2023-02-07 08:35:36*
%MOMM*%
%LPD*%
G01*
G04 APERTURE LIST*
%ADD10C,0.150000*%
%ADD11C,0.300000*%
%ADD12C,0.500000*%
%ADD13C,0.400000*%
%ADD14C,5.600000*%
%ADD15C,5.000000*%
G04 APERTURE END LIST*
D10*
X102870000Y-81280000D02*
X105410000Y-81280000D01*
X105410000Y-81280000D02*
X105410000Y-83820000D01*
X105410000Y-83820000D02*
X102870000Y-83820000D01*
X102870000Y-83820000D02*
X102870000Y-81280000D01*
G36*
X102870000Y-81280000D02*
G01*
X105410000Y-81280000D01*
X105410000Y-83820000D01*
X102870000Y-83820000D01*
X102870000Y-81280000D01*
G37*
X102870000Y-77470000D02*
X105410000Y-77470000D01*
X105410000Y-77470000D02*
X105410000Y-80010000D01*
X105410000Y-80010000D02*
X102870000Y-80010000D01*
X102870000Y-80010000D02*
X102870000Y-77470000D01*
G36*
X102870000Y-77470000D02*
G01*
X105410000Y-77470000D01*
X105410000Y-80010000D01*
X102870000Y-80010000D01*
X102870000Y-77470000D01*
G37*
D11*
X107981904Y-83454761D02*
X106839047Y-83454761D01*
X107410476Y-83454761D02*
X107410476Y-81454761D01*
X107220000Y-81740476D01*
X107029523Y-81930952D01*
X106839047Y-82026190D01*
X108743809Y-81645238D02*
X108839047Y-81550000D01*
X109029523Y-81454761D01*
X109505714Y-81454761D01*
X109696190Y-81550000D01*
X109791428Y-81645238D01*
X109886666Y-81835714D01*
X109886666Y-82026190D01*
X109791428Y-82311904D01*
X108648571Y-83454761D01*
X109886666Y-83454761D01*
X110458095Y-81454761D02*
X111124761Y-83454761D01*
X111791428Y-81454761D01*
D12*
X60931428Y-48347142D02*
X60931428Y-45347142D01*
X61645714Y-45347142D01*
X62074285Y-45490000D01*
X62359999Y-45775714D01*
X62502857Y-46061428D01*
X62645714Y-46632857D01*
X62645714Y-47061428D01*
X62502857Y-47632857D01*
X62359999Y-47918571D01*
X62074285Y-48204285D01*
X61645714Y-48347142D01*
X60931428Y-48347142D01*
X63788571Y-47490000D02*
X65217142Y-47490000D01*
X63502857Y-48347142D02*
X64502857Y-45347142D01*
X65502857Y-48347142D01*
X66359999Y-45632857D02*
X66502857Y-45490000D01*
X66788571Y-45347142D01*
X67502857Y-45347142D01*
X67788571Y-45490000D01*
X67931428Y-45632857D01*
X68074285Y-45918571D01*
X68074285Y-46204285D01*
X67931428Y-46632857D01*
X66217142Y-48347142D01*
X68074285Y-48347142D01*
X69931428Y-45347142D02*
X70217142Y-45347142D01*
X70502857Y-45490000D01*
X70645714Y-45632857D01*
X70788571Y-45918571D01*
X70931428Y-46490000D01*
X70931428Y-47204285D01*
X70788571Y-47775714D01*
X70645714Y-48061428D01*
X70502857Y-48204285D01*
X70217142Y-48347142D01*
X69931428Y-48347142D01*
X69645714Y-48204285D01*
X69502857Y-48061428D01*
X69360000Y-47775714D01*
X69217142Y-47204285D01*
X69217142Y-46490000D01*
X69360000Y-45918571D01*
X69502857Y-45632857D01*
X69645714Y-45490000D01*
X69931428Y-45347142D01*
X74502857Y-48347142D02*
X74502857Y-45347142D01*
X75931428Y-46347142D02*
X75931428Y-48347142D01*
X75931428Y-46632857D02*
X76074285Y-46490000D01*
X76360000Y-46347142D01*
X76788571Y-46347142D01*
X77074285Y-46490000D01*
X77217142Y-46775714D01*
X77217142Y-48347142D01*
X78502857Y-48204285D02*
X78788571Y-48347142D01*
X79360000Y-48347142D01*
X79645714Y-48204285D01*
X79788571Y-47918571D01*
X79788571Y-47775714D01*
X79645714Y-47490000D01*
X79360000Y-47347142D01*
X78931428Y-47347142D01*
X78645714Y-47204285D01*
X78502857Y-46918571D01*
X78502857Y-46775714D01*
X78645714Y-46490000D01*
X78931428Y-46347142D01*
X79360000Y-46347142D01*
X79645714Y-46490000D01*
X80645714Y-46347142D02*
X81788571Y-46347142D01*
X81074285Y-45347142D02*
X81074285Y-47918571D01*
X81217142Y-48204285D01*
X81502857Y-48347142D01*
X81788571Y-48347142D01*
X82788571Y-48347142D02*
X82788571Y-46347142D01*
X82788571Y-46918571D02*
X82931428Y-46632857D01*
X83074285Y-46490000D01*
X83360000Y-46347142D01*
X83645714Y-46347142D01*
X85931428Y-46347142D02*
X85931428Y-48347142D01*
X84645714Y-46347142D02*
X84645714Y-47918571D01*
X84788571Y-48204285D01*
X85074285Y-48347142D01*
X85502857Y-48347142D01*
X85788571Y-48204285D01*
X85931428Y-48061428D01*
X87359999Y-48347142D02*
X87359999Y-46347142D01*
X87359999Y-46632857D02*
X87502857Y-46490000D01*
X87788571Y-46347142D01*
X88217142Y-46347142D01*
X88502857Y-46490000D01*
X88645714Y-46775714D01*
X88645714Y-48347142D01*
X88645714Y-46775714D02*
X88788571Y-46490000D01*
X89074285Y-46347142D01*
X89502857Y-46347142D01*
X89788571Y-46490000D01*
X89931428Y-46775714D01*
X89931428Y-48347142D01*
X92502857Y-48204285D02*
X92217142Y-48347142D01*
X91645714Y-48347142D01*
X91359999Y-48204285D01*
X91217142Y-47918571D01*
X91217142Y-46775714D01*
X91359999Y-46490000D01*
X91645714Y-46347142D01*
X92217142Y-46347142D01*
X92502857Y-46490000D01*
X92645714Y-46775714D01*
X92645714Y-47061428D01*
X91217142Y-47347142D01*
X93931428Y-46347142D02*
X93931428Y-48347142D01*
X93931428Y-46632857D02*
X94074285Y-46490000D01*
X94360000Y-46347142D01*
X94788571Y-46347142D01*
X95074285Y-46490000D01*
X95217142Y-46775714D01*
X95217142Y-48347142D01*
X96217142Y-46347142D02*
X97359999Y-46347142D01*
X96645714Y-45347142D02*
X96645714Y-47918571D01*
X96788571Y-48204285D01*
X97074285Y-48347142D01*
X97359999Y-48347142D01*
X100645714Y-48347142D02*
X100645714Y-45347142D01*
X101788571Y-45347142D01*
X102074285Y-45490000D01*
X102217142Y-45632857D01*
X102359999Y-45918571D01*
X102359999Y-46347142D01*
X102217142Y-46632857D01*
X102074285Y-46775714D01*
X101788571Y-46918571D01*
X100645714Y-46918571D01*
X104931428Y-48347142D02*
X104931428Y-46775714D01*
X104788571Y-46490000D01*
X104502857Y-46347142D01*
X103931428Y-46347142D01*
X103645714Y-46490000D01*
X104931428Y-48204285D02*
X104645714Y-48347142D01*
X103931428Y-48347142D01*
X103645714Y-48204285D01*
X103502857Y-47918571D01*
X103502857Y-47632857D01*
X103645714Y-47347142D01*
X103931428Y-47204285D01*
X104645714Y-47204285D01*
X104931428Y-47061428D01*
X106360000Y-46347142D02*
X106360000Y-48347142D01*
X106360000Y-46632857D02*
X106502857Y-46490000D01*
X106788571Y-46347142D01*
X107217142Y-46347142D01*
X107502857Y-46490000D01*
X107645714Y-46775714D01*
X107645714Y-48347142D01*
X110217142Y-48204285D02*
X109931428Y-48347142D01*
X109360000Y-48347142D01*
X109074285Y-48204285D01*
X108931428Y-47918571D01*
X108931428Y-46775714D01*
X109074285Y-46490000D01*
X109360000Y-46347142D01*
X109931428Y-46347142D01*
X110217142Y-46490000D01*
X110360000Y-46775714D01*
X110360000Y-47061428D01*
X108931428Y-47347142D01*
X112074285Y-48347142D02*
X111788571Y-48204285D01*
X111645714Y-47918571D01*
X111645714Y-45347142D01*
D13*
X59897142Y-54149523D02*
X60182857Y-54244761D01*
X60659047Y-54244761D01*
X60849523Y-54149523D01*
X60944761Y-54054285D01*
X61040000Y-53863809D01*
X61040000Y-53673333D01*
X60944761Y-53482857D01*
X60849523Y-53387619D01*
X60659047Y-53292380D01*
X60278095Y-53197142D01*
X60087619Y-53101904D01*
X59992380Y-53006666D01*
X59897142Y-52816190D01*
X59897142Y-52625714D01*
X59992380Y-52435238D01*
X60087619Y-52340000D01*
X60278095Y-52244761D01*
X60754285Y-52244761D01*
X61040000Y-52340000D01*
X61611428Y-52244761D02*
X62754285Y-52244761D01*
X62182857Y-54244761D02*
X62182857Y-52244761D01*
X63420952Y-53197142D02*
X64087619Y-53197142D01*
X64373333Y-54244761D02*
X63420952Y-54244761D01*
X63420952Y-52244761D01*
X64373333Y-52244761D01*
X65230476Y-54244761D02*
X65230476Y-52244761D01*
X65992380Y-52244761D01*
X66182857Y-52340000D01*
X66278095Y-52435238D01*
X66373333Y-52625714D01*
X66373333Y-52911428D01*
X66278095Y-53101904D01*
X66182857Y-53197142D01*
X65992380Y-53292380D01*
X65230476Y-53292380D01*
X67230476Y-54244761D02*
X67230476Y-52244761D01*
X67992380Y-52244761D01*
X68182857Y-52340000D01*
X68278095Y-52435238D01*
X68373333Y-52625714D01*
X68373333Y-52911428D01*
X68278095Y-53101904D01*
X68182857Y-53197142D01*
X67992380Y-53292380D01*
X67230476Y-53292380D01*
X69230476Y-53197142D02*
X69897142Y-53197142D01*
X70182857Y-54244761D02*
X69230476Y-54244761D01*
X69230476Y-52244761D01*
X70182857Y-52244761D01*
X72182857Y-54244761D02*
X71516190Y-53292380D01*
X71040000Y-54244761D02*
X71040000Y-52244761D01*
X71801904Y-52244761D01*
X71992380Y-52340000D01*
X72087619Y-52435238D01*
X72182857Y-52625714D01*
X72182857Y-52911428D01*
X72087619Y-53101904D01*
X71992380Y-53197142D01*
X71801904Y-53292380D01*
X71040000Y-53292380D01*
X61754285Y-91710000D02*
X61563809Y-91614761D01*
X61278095Y-91614761D01*
X60992380Y-91710000D01*
X60801904Y-91900476D01*
X60706666Y-92090952D01*
X60611428Y-92471904D01*
X60611428Y-92757619D01*
X60706666Y-93138571D01*
X60801904Y-93329047D01*
X60992380Y-93519523D01*
X61278095Y-93614761D01*
X61468571Y-93614761D01*
X61754285Y-93519523D01*
X61849523Y-93424285D01*
X61849523Y-92757619D01*
X61468571Y-92757619D01*
X62706666Y-93614761D02*
X62706666Y-91614761D01*
X63468571Y-91614761D01*
X63659047Y-91710000D01*
X63754285Y-91805238D01*
X63849523Y-91995714D01*
X63849523Y-92281428D01*
X63754285Y-92471904D01*
X63659047Y-92567142D01*
X63468571Y-92662380D01*
X62706666Y-92662380D01*
X64706666Y-93614761D02*
X64706666Y-91614761D01*
X66040000Y-91614761D02*
X66420952Y-91614761D01*
X66611428Y-91710000D01*
X66801904Y-91900476D01*
X66897142Y-92281428D01*
X66897142Y-92948095D01*
X66801904Y-93329047D01*
X66611428Y-93519523D01*
X66420952Y-93614761D01*
X66040000Y-93614761D01*
X65849523Y-93519523D01*
X65659047Y-93329047D01*
X65563809Y-92948095D01*
X65563809Y-92281428D01*
X65659047Y-91900476D01*
X65849523Y-91710000D01*
X66040000Y-91614761D01*
X69278095Y-93614761D02*
X69278095Y-91614761D01*
X70230476Y-93614761D02*
X70230476Y-91614761D01*
X71373333Y-93614761D01*
X71373333Y-91614761D01*
D11*
X109600952Y-77644761D02*
X108648571Y-77644761D01*
X108553333Y-78597142D01*
X108648571Y-78501904D01*
X108839047Y-78406666D01*
X109315238Y-78406666D01*
X109505714Y-78501904D01*
X109600952Y-78597142D01*
X109696190Y-78787619D01*
X109696190Y-79263809D01*
X109600952Y-79454285D01*
X109505714Y-79549523D01*
X109315238Y-79644761D01*
X108839047Y-79644761D01*
X108648571Y-79549523D01*
X108553333Y-79454285D01*
X110267619Y-77644761D02*
X110934285Y-79644761D01*
X111600952Y-77644761D01*
D13*
X80740952Y-91710000D02*
X80550476Y-91614761D01*
X80264761Y-91614761D01*
X79979047Y-91710000D01*
X79788571Y-91900476D01*
X79693333Y-92090952D01*
X79598095Y-92471904D01*
X79598095Y-92757619D01*
X79693333Y-93138571D01*
X79788571Y-93329047D01*
X79979047Y-93519523D01*
X80264761Y-93614761D01*
X80455238Y-93614761D01*
X80740952Y-93519523D01*
X80836190Y-93424285D01*
X80836190Y-92757619D01*
X80455238Y-92757619D01*
X81693333Y-93614761D02*
X81693333Y-91614761D01*
X82455238Y-91614761D01*
X82645714Y-91710000D01*
X82740952Y-91805238D01*
X82836190Y-91995714D01*
X82836190Y-92281428D01*
X82740952Y-92471904D01*
X82645714Y-92567142D01*
X82455238Y-92662380D01*
X81693333Y-92662380D01*
X83693333Y-93614761D02*
X83693333Y-91614761D01*
X85026666Y-91614761D02*
X85407619Y-91614761D01*
X85598095Y-91710000D01*
X85788571Y-91900476D01*
X85883809Y-92281428D01*
X85883809Y-92948095D01*
X85788571Y-93329047D01*
X85598095Y-93519523D01*
X85407619Y-93614761D01*
X85026666Y-93614761D01*
X84836190Y-93519523D01*
X84645714Y-93329047D01*
X84550476Y-92948095D01*
X84550476Y-92281428D01*
X84645714Y-91900476D01*
X84836190Y-91710000D01*
X85026666Y-91614761D01*
X88645714Y-91614761D02*
X89026666Y-91614761D01*
X89217142Y-91710000D01*
X89407619Y-91900476D01*
X89502857Y-92281428D01*
X89502857Y-92948095D01*
X89407619Y-93329047D01*
X89217142Y-93519523D01*
X89026666Y-93614761D01*
X88645714Y-93614761D01*
X88455238Y-93519523D01*
X88264761Y-93329047D01*
X88169523Y-92948095D01*
X88169523Y-92281428D01*
X88264761Y-91900476D01*
X88455238Y-91710000D01*
X88645714Y-91614761D01*
X90360000Y-91614761D02*
X90360000Y-93233809D01*
X90455238Y-93424285D01*
X90550476Y-93519523D01*
X90740952Y-93614761D01*
X91121904Y-93614761D01*
X91312380Y-93519523D01*
X91407619Y-93424285D01*
X91502857Y-93233809D01*
X91502857Y-91614761D01*
X92169523Y-91614761D02*
X93312380Y-91614761D01*
X92740952Y-93614761D02*
X92740952Y-91614761D01*
X99632380Y-96513333D02*
X100584761Y-96513333D01*
X99441904Y-97084761D02*
X100108571Y-95084761D01*
X100775238Y-97084761D01*
X101441904Y-97084761D02*
X101441904Y-95084761D01*
X102584761Y-97084761D01*
X102584761Y-95084761D01*
X103441904Y-96513333D02*
X104394285Y-96513333D01*
X103251428Y-97084761D02*
X103918095Y-95084761D01*
X104584761Y-97084761D01*
X106203809Y-97084761D02*
X105251428Y-97084761D01*
X105251428Y-95084761D01*
X107251428Y-95084761D02*
X107632380Y-95084761D01*
X107822857Y-95180000D01*
X108013333Y-95370476D01*
X108108571Y-95751428D01*
X108108571Y-96418095D01*
X108013333Y-96799047D01*
X107822857Y-96989523D01*
X107632380Y-97084761D01*
X107251428Y-97084761D01*
X107060952Y-96989523D01*
X106870476Y-96799047D01*
X106775238Y-96418095D01*
X106775238Y-95751428D01*
X106870476Y-95370476D01*
X107060952Y-95180000D01*
X107251428Y-95084761D01*
X110013333Y-95180000D02*
X109822857Y-95084761D01*
X109537142Y-95084761D01*
X109251428Y-95180000D01*
X109060952Y-95370476D01*
X108965714Y-95560952D01*
X108870476Y-95941904D01*
X108870476Y-96227619D01*
X108965714Y-96608571D01*
X109060952Y-96799047D01*
X109251428Y-96989523D01*
X109537142Y-97084761D01*
X109727619Y-97084761D01*
X110013333Y-96989523D01*
X110108571Y-96894285D01*
X110108571Y-96227619D01*
X109727619Y-96227619D01*
X113918095Y-94989523D02*
X112203809Y-97560952D01*
X104680000Y-98400000D02*
X104489523Y-98304761D01*
X104203809Y-98304761D01*
X103918095Y-98400000D01*
X103727619Y-98590476D01*
X103632380Y-98780952D01*
X103537142Y-99161904D01*
X103537142Y-99447619D01*
X103632380Y-99828571D01*
X103727619Y-100019047D01*
X103918095Y-100209523D01*
X104203809Y-100304761D01*
X104394285Y-100304761D01*
X104680000Y-100209523D01*
X104775238Y-100114285D01*
X104775238Y-99447619D01*
X104394285Y-99447619D01*
X105632380Y-100304761D02*
X105632380Y-98304761D01*
X106394285Y-98304761D01*
X106584761Y-98400000D01*
X106680000Y-98495238D01*
X106775238Y-98685714D01*
X106775238Y-98971428D01*
X106680000Y-99161904D01*
X106584761Y-99257142D01*
X106394285Y-99352380D01*
X105632380Y-99352380D01*
X107632380Y-100304761D02*
X107632380Y-98304761D01*
X108965714Y-98304761D02*
X109346666Y-98304761D01*
X109537142Y-98400000D01*
X109727619Y-98590476D01*
X109822857Y-98971428D01*
X109822857Y-99638095D01*
X109727619Y-100019047D01*
X109537142Y-100209523D01*
X109346666Y-100304761D01*
X108965714Y-100304761D01*
X108775238Y-100209523D01*
X108584761Y-100019047D01*
X108489523Y-99638095D01*
X108489523Y-98971428D01*
X108584761Y-98590476D01*
X108775238Y-98400000D01*
X108965714Y-98304761D01*
X80217142Y-54149523D02*
X80502857Y-54244761D01*
X80979047Y-54244761D01*
X81169523Y-54149523D01*
X81264761Y-54054285D01*
X81360000Y-53863809D01*
X81360000Y-53673333D01*
X81264761Y-53482857D01*
X81169523Y-53387619D01*
X80979047Y-53292380D01*
X80598095Y-53197142D01*
X80407619Y-53101904D01*
X80312380Y-53006666D01*
X80217142Y-52816190D01*
X80217142Y-52625714D01*
X80312380Y-52435238D01*
X80407619Y-52340000D01*
X80598095Y-52244761D01*
X81074285Y-52244761D01*
X81360000Y-52340000D01*
X81931428Y-52244761D02*
X83074285Y-52244761D01*
X82502857Y-54244761D02*
X82502857Y-52244761D01*
X83740952Y-53197142D02*
X84407619Y-53197142D01*
X84693333Y-54244761D02*
X83740952Y-54244761D01*
X83740952Y-52244761D01*
X84693333Y-52244761D01*
X85550476Y-54244761D02*
X85550476Y-52244761D01*
X86312380Y-52244761D01*
X86502857Y-52340000D01*
X86598095Y-52435238D01*
X86693333Y-52625714D01*
X86693333Y-52911428D01*
X86598095Y-53101904D01*
X86502857Y-53197142D01*
X86312380Y-53292380D01*
X85550476Y-53292380D01*
X87550476Y-54244761D02*
X87550476Y-52244761D01*
X88312380Y-52244761D01*
X88502857Y-52340000D01*
X88598095Y-52435238D01*
X88693333Y-52625714D01*
X88693333Y-52911428D01*
X88598095Y-53101904D01*
X88502857Y-53197142D01*
X88312380Y-53292380D01*
X87550476Y-53292380D01*
X89550476Y-53197142D02*
X90217142Y-53197142D01*
X90502857Y-54244761D02*
X89550476Y-54244761D01*
X89550476Y-52244761D01*
X90502857Y-52244761D01*
X92502857Y-54244761D02*
X91836190Y-53292380D01*
X91360000Y-54244761D02*
X91360000Y-52244761D01*
X92121904Y-52244761D01*
X92312380Y-52340000D01*
X92407619Y-52435238D01*
X92502857Y-52625714D01*
X92502857Y-52911428D01*
X92407619Y-53101904D01*
X92312380Y-53197142D01*
X92121904Y-53292380D01*
X91360000Y-53292380D01*
X100632380Y-63357142D02*
X101299047Y-63357142D01*
X101584761Y-64404761D02*
X100632380Y-64404761D01*
X100632380Y-62404761D01*
X101584761Y-62404761D01*
X102251428Y-62404761D02*
X103584761Y-64404761D01*
X103584761Y-62404761D02*
X102251428Y-64404761D01*
X104060952Y-62404761D02*
X105203809Y-62404761D01*
X104632380Y-64404761D02*
X104632380Y-62404761D01*
X107394285Y-64404761D02*
X107394285Y-62404761D01*
X108156190Y-62404761D01*
X108346666Y-62500000D01*
X108441904Y-62595238D01*
X108537142Y-62785714D01*
X108537142Y-63071428D01*
X108441904Y-63261904D01*
X108346666Y-63357142D01*
X108156190Y-63452380D01*
X107394285Y-63452380D01*
X109203809Y-62404761D02*
X109680000Y-64404761D01*
X110060952Y-62976190D01*
X110441904Y-64404761D01*
X110918095Y-62404761D01*
X112822857Y-64404761D02*
X112156190Y-63452380D01*
X111680000Y-64404761D02*
X111680000Y-62404761D01*
X112441904Y-62404761D01*
X112632380Y-62500000D01*
X112727619Y-62595238D01*
X112822857Y-62785714D01*
X112822857Y-63071428D01*
X112727619Y-63261904D01*
X112632380Y-63357142D01*
X112441904Y-63452380D01*
X111680000Y-63452380D01*
%LPC*%
D14*
X109220000Y-40350000D03*
X63500000Y-40350000D03*
X109220000Y-162850000D03*
D15*
X86360000Y-83620000D03*
X86360000Y-58620000D03*
D14*
X63500000Y-162850000D03*
D15*
X66040000Y-145420000D03*
X66040000Y-98420000D03*
X106680000Y-138520000D03*
X106680000Y-105320000D03*
X86360000Y-145420000D03*
X86360000Y-98420000D03*
X66040000Y-58620000D03*
X66040000Y-83620000D03*
M02*
