%TF.GenerationSoftware,KiCad,Pcbnew,(6.0.9-0)*%
%TF.CreationDate,2023-02-07T08:35:39+01:00*%
%TF.ProjectId,fp_da20_panel,66705f64-6132-4305-9f70-616e656c2e6b,A*%
%TF.SameCoordinates,Original*%
%TF.FileFunction,Drillmap*%
%TF.FilePolarity,Positive*%
%FSLAX45Y45*%
G04 Gerber Fmt 4.5, Leading zero omitted, Abs format (unit mm)*
G04 Created by KiCad (PCBNEW (6.0.9-0)) date 2023-02-07 08:35:39*
%MOMM*%
%LPD*%
G01*
G04 APERTURE LIST*
%ADD10C,0.100000*%
%ADD11C,0.200000*%
G04 APERTURE END LIST*
D10*
X11093000Y-7112000D02*
G75*
G03*
X11093000Y-7112000I-425000J0D01*
G01*
X5588000Y-3732500D02*
X11684000Y-3732500D01*
X11684000Y-3732500D02*
X11684000Y-16587500D01*
X11684000Y-16587500D02*
X5588000Y-16587500D01*
X5588000Y-16587500D02*
X5588000Y-3732500D01*
D11*
X5840619Y-16902976D02*
X5840619Y-16702976D01*
X5888238Y-16702976D01*
X5916809Y-16712500D01*
X5935857Y-16731548D01*
X5945381Y-16750595D01*
X5954905Y-16788690D01*
X5954905Y-16817262D01*
X5945381Y-16855357D01*
X5935857Y-16874405D01*
X5916809Y-16893452D01*
X5888238Y-16902976D01*
X5840619Y-16902976D01*
X6040619Y-16902976D02*
X6040619Y-16769643D01*
X6040619Y-16807738D02*
X6050143Y-16788690D01*
X6059667Y-16779167D01*
X6078714Y-16769643D01*
X6097762Y-16769643D01*
X6164428Y-16902976D02*
X6164428Y-16769643D01*
X6164428Y-16702976D02*
X6154905Y-16712500D01*
X6164428Y-16722024D01*
X6173952Y-16712500D01*
X6164428Y-16702976D01*
X6164428Y-16722024D01*
X6288238Y-16902976D02*
X6269190Y-16893452D01*
X6259667Y-16874405D01*
X6259667Y-16702976D01*
X6393000Y-16902976D02*
X6373952Y-16893452D01*
X6364428Y-16874405D01*
X6364428Y-16702976D01*
X6621571Y-16902976D02*
X6621571Y-16702976D01*
X6688238Y-16845833D01*
X6754905Y-16702976D01*
X6754905Y-16902976D01*
X6935857Y-16902976D02*
X6935857Y-16798214D01*
X6926333Y-16779167D01*
X6907286Y-16769643D01*
X6869190Y-16769643D01*
X6850143Y-16779167D01*
X6935857Y-16893452D02*
X6916809Y-16902976D01*
X6869190Y-16902976D01*
X6850143Y-16893452D01*
X6840619Y-16874405D01*
X6840619Y-16855357D01*
X6850143Y-16836310D01*
X6869190Y-16826786D01*
X6916809Y-16826786D01*
X6935857Y-16817262D01*
X7031095Y-16769643D02*
X7031095Y-16969643D01*
X7031095Y-16779167D02*
X7050143Y-16769643D01*
X7088238Y-16769643D01*
X7107286Y-16779167D01*
X7116809Y-16788690D01*
X7126333Y-16807738D01*
X7126333Y-16864881D01*
X7116809Y-16883929D01*
X7107286Y-16893452D01*
X7088238Y-16902976D01*
X7050143Y-16902976D01*
X7031095Y-16893452D01*
X7212048Y-16883929D02*
X7221571Y-16893452D01*
X7212048Y-16902976D01*
X7202524Y-16893452D01*
X7212048Y-16883929D01*
X7212048Y-16902976D01*
X7212048Y-16779167D02*
X7221571Y-16788690D01*
X7212048Y-16798214D01*
X7202524Y-16788690D01*
X7212048Y-16779167D01*
X7212048Y-16798214D01*
M02*
