G04 #@! TF.GenerationSoftware,KiCad,Pcbnew,(6.0.9-0)*
G04 #@! TF.CreationDate,2023-02-07T08:37:19+01:00*
G04 #@! TF.ProjectId,fp_SDN650Xi_SMA340,66705f53-444e-4363-9530-58695f534d41,A*
G04 #@! TF.SameCoordinates,Original*
G04 #@! TF.FileFunction,Profile,NP*
%FSLAX46Y46*%
G04 Gerber Fmt 4.6, Leading zero omitted, Abs format (unit mm)*
G04 Created by KiCad (PCBNEW (6.0.9-0)) date 2023-02-07 08:37:19*
%MOMM*%
%LPD*%
G01*
G04 APERTURE LIST*
G04 #@! TA.AperFunction,Profile*
%ADD10C,0.100000*%
G04 #@! TD*
G04 #@! TA.AperFunction,Profile*
%ADD11C,0.120000*%
G04 #@! TD*
G04 APERTURE END LIST*
D10*
X116010000Y-72885000D02*
G75*
G03*
X116010000Y-72885000I-4250000J0D01*
G01*
X60960000Y-39090000D02*
X121920000Y-39090000D01*
X121920000Y-39090000D02*
X121920000Y-167640000D01*
X121920000Y-167640000D02*
X60960000Y-167640000D01*
X60960000Y-167640000D02*
X60960000Y-39090000D01*
D11*
X65620000Y-80885000D02*
X65620000Y-64885000D01*
X68120000Y-83385000D02*
X74120000Y-82385000D01*
X68120000Y-62385000D02*
X74120000Y-63385000D01*
X76620000Y-79885000D02*
X76620000Y-65885000D01*
X68120000Y-62385000D02*
G75*
G03*
X65620000Y-64885000I0J-2500000D01*
G01*
X74120000Y-82385000D02*
G75*
G03*
X76620000Y-79885000I0J2500000D01*
G01*
X76620000Y-65885000D02*
G75*
G03*
X74120000Y-63385000I-2500000J0D01*
G01*
X65620000Y-80885000D02*
G75*
G03*
X68120000Y-83385000I2500000J0D01*
G01*
X96940000Y-141685000D02*
X96940000Y-105685000D01*
X88440000Y-145185000D02*
X94440000Y-144185000D01*
X88440000Y-102185000D02*
X94440000Y-103185000D01*
X85940000Y-104685000D02*
X85940000Y-142685000D01*
X96940000Y-105685000D02*
G75*
G03*
X94440000Y-103185000I-2500000J0D01*
G01*
X94440000Y-144185000D02*
G75*
G03*
X96940000Y-141685000I0J2500000D01*
G01*
X88440000Y-102185000D02*
G75*
G03*
X85940000Y-104685000I0J-2500000D01*
G01*
X85940000Y-142685000D02*
G75*
G03*
X88440000Y-145185000I2500000J0D01*
G01*
X88440000Y-83385000D02*
X94440000Y-82385000D01*
X96940000Y-79885000D02*
X96940000Y-65885000D01*
X88440000Y-62385000D02*
X94440000Y-63385000D01*
X85940000Y-80885000D02*
X85940000Y-64885000D01*
X96940000Y-65885000D02*
G75*
G03*
X94440000Y-63385000I-2500000J0D01*
G01*
X88440000Y-62385000D02*
G75*
G03*
X85940000Y-64885000I0J-2500000D01*
G01*
X85940000Y-80885000D02*
G75*
G03*
X88440000Y-83385000I2500000J0D01*
G01*
X94440000Y-82385000D02*
G75*
G03*
X96940000Y-79885000I0J2500000D01*
G01*
X68120000Y-145185000D02*
X74120000Y-144185000D01*
X65620000Y-104685000D02*
X65620000Y-142685000D01*
X68120000Y-102185000D02*
X74120000Y-103185000D01*
X76620000Y-141685000D02*
X76620000Y-105685000D01*
X65620000Y-142685000D02*
G75*
G03*
X68120000Y-145185000I2500000J0D01*
G01*
X74120000Y-144185000D02*
G75*
G03*
X76620000Y-141685000I0J2500000D01*
G01*
X68120000Y-102185000D02*
G75*
G03*
X65620000Y-104685000I0J-2500000D01*
G01*
X76620000Y-105685000D02*
G75*
G03*
X74120000Y-103185000I-2500000J0D01*
G01*
X117260000Y-134685000D02*
X117260000Y-112685000D01*
X108760000Y-109185000D02*
X114760000Y-110185000D01*
X106260000Y-135685000D02*
X106260000Y-111685000D01*
X108760000Y-138185000D02*
X114760000Y-137185000D01*
X106260000Y-135685000D02*
G75*
G03*
X108760000Y-138185000I2500000J0D01*
G01*
X114760000Y-137185000D02*
G75*
G03*
X117260000Y-134685000I0J2500000D01*
G01*
X108760000Y-109185000D02*
G75*
G03*
X106260000Y-111685000I0J-2500000D01*
G01*
X117260000Y-112685000D02*
G75*
G03*
X114760000Y-110185000I-2500000J0D01*
G01*
M02*
