G04 #@! TF.GenerationSoftware,KiCad,Pcbnew,(6.0.9-0)*
G04 #@! TF.CreationDate,2023-02-07T08:37:18+01:00*
G04 #@! TF.ProjectId,fp_SDN650Xi_SMA340,66705f53-444e-4363-9530-58695f534d41,A*
G04 #@! TF.SameCoordinates,Original*
G04 #@! TF.FileFunction,Legend,Top*
G04 #@! TF.FilePolarity,Positive*
%FSLAX46Y46*%
G04 Gerber Fmt 4.6, Leading zero omitted, Abs format (unit mm)*
G04 Created by KiCad (PCBNEW (6.0.9-0)) date 2023-02-07 08:37:18*
%MOMM*%
%LPD*%
G01*
G04 APERTURE LIST*
%ADD10C,0.150000*%
%ADD11C,0.300000*%
%ADD12C,0.400000*%
%ADD13C,0.500000*%
%ADD14C,5.600000*%
%ADD15C,5.000000*%
G04 APERTURE END LIST*
D10*
X107950000Y-79235000D02*
X110490000Y-79235000D01*
X110490000Y-79235000D02*
X110490000Y-81775000D01*
X110490000Y-81775000D02*
X107950000Y-81775000D01*
X107950000Y-81775000D02*
X107950000Y-79235000D01*
G36*
X107950000Y-79235000D02*
G01*
X110490000Y-79235000D01*
X110490000Y-81775000D01*
X107950000Y-81775000D01*
X107950000Y-79235000D01*
G37*
X107950000Y-83045000D02*
X110490000Y-83045000D01*
X110490000Y-83045000D02*
X110490000Y-85585000D01*
X110490000Y-85585000D02*
X107950000Y-85585000D01*
X107950000Y-85585000D02*
X107950000Y-83045000D01*
G36*
X107950000Y-83045000D02*
G01*
X110490000Y-83045000D01*
X110490000Y-85585000D01*
X107950000Y-85585000D01*
X107950000Y-83045000D01*
G37*
D11*
X114680952Y-79409761D02*
X113728571Y-79409761D01*
X113633333Y-80362142D01*
X113728571Y-80266904D01*
X113919047Y-80171666D01*
X114395238Y-80171666D01*
X114585714Y-80266904D01*
X114680952Y-80362142D01*
X114776190Y-80552619D01*
X114776190Y-81028809D01*
X114680952Y-81219285D01*
X114585714Y-81314523D01*
X114395238Y-81409761D01*
X113919047Y-81409761D01*
X113728571Y-81314523D01*
X113633333Y-81219285D01*
X115347619Y-79409761D02*
X116014285Y-81409761D01*
X116680952Y-79409761D01*
D12*
X105712380Y-65122142D02*
X106379047Y-65122142D01*
X106664761Y-66169761D02*
X105712380Y-66169761D01*
X105712380Y-64169761D01*
X106664761Y-64169761D01*
X107331428Y-64169761D02*
X108664761Y-66169761D01*
X108664761Y-64169761D02*
X107331428Y-66169761D01*
X109140952Y-64169761D02*
X110283809Y-64169761D01*
X109712380Y-66169761D02*
X109712380Y-64169761D01*
X112474285Y-66169761D02*
X112474285Y-64169761D01*
X113236190Y-64169761D01*
X113426666Y-64265000D01*
X113521904Y-64360238D01*
X113617142Y-64550714D01*
X113617142Y-64836428D01*
X113521904Y-65026904D01*
X113426666Y-65122142D01*
X113236190Y-65217380D01*
X112474285Y-65217380D01*
X114283809Y-64169761D02*
X114760000Y-66169761D01*
X115140952Y-64741190D01*
X115521904Y-66169761D01*
X115998095Y-64169761D01*
X117902857Y-66169761D02*
X117236190Y-65217380D01*
X116760000Y-66169761D02*
X116760000Y-64169761D01*
X117521904Y-64169761D01*
X117712380Y-64265000D01*
X117807619Y-64360238D01*
X117902857Y-64550714D01*
X117902857Y-64836428D01*
X117807619Y-65026904D01*
X117712380Y-65122142D01*
X117521904Y-65217380D01*
X116760000Y-65217380D01*
X85820952Y-93475000D02*
X85630476Y-93379761D01*
X85344761Y-93379761D01*
X85059047Y-93475000D01*
X84868571Y-93665476D01*
X84773333Y-93855952D01*
X84678095Y-94236904D01*
X84678095Y-94522619D01*
X84773333Y-94903571D01*
X84868571Y-95094047D01*
X85059047Y-95284523D01*
X85344761Y-95379761D01*
X85535238Y-95379761D01*
X85820952Y-95284523D01*
X85916190Y-95189285D01*
X85916190Y-94522619D01*
X85535238Y-94522619D01*
X86773333Y-95379761D02*
X86773333Y-93379761D01*
X87535238Y-93379761D01*
X87725714Y-93475000D01*
X87820952Y-93570238D01*
X87916190Y-93760714D01*
X87916190Y-94046428D01*
X87820952Y-94236904D01*
X87725714Y-94332142D01*
X87535238Y-94427380D01*
X86773333Y-94427380D01*
X88773333Y-95379761D02*
X88773333Y-93379761D01*
X90106666Y-93379761D02*
X90487619Y-93379761D01*
X90678095Y-93475000D01*
X90868571Y-93665476D01*
X90963809Y-94046428D01*
X90963809Y-94713095D01*
X90868571Y-95094047D01*
X90678095Y-95284523D01*
X90487619Y-95379761D01*
X90106666Y-95379761D01*
X89916190Y-95284523D01*
X89725714Y-95094047D01*
X89630476Y-94713095D01*
X89630476Y-94046428D01*
X89725714Y-93665476D01*
X89916190Y-93475000D01*
X90106666Y-93379761D01*
X93725714Y-93379761D02*
X94106666Y-93379761D01*
X94297142Y-93475000D01*
X94487619Y-93665476D01*
X94582857Y-94046428D01*
X94582857Y-94713095D01*
X94487619Y-95094047D01*
X94297142Y-95284523D01*
X94106666Y-95379761D01*
X93725714Y-95379761D01*
X93535238Y-95284523D01*
X93344761Y-95094047D01*
X93249523Y-94713095D01*
X93249523Y-94046428D01*
X93344761Y-93665476D01*
X93535238Y-93475000D01*
X93725714Y-93379761D01*
X95440000Y-93379761D02*
X95440000Y-94998809D01*
X95535238Y-95189285D01*
X95630476Y-95284523D01*
X95820952Y-95379761D01*
X96201904Y-95379761D01*
X96392380Y-95284523D01*
X96487619Y-95189285D01*
X96582857Y-94998809D01*
X96582857Y-93379761D01*
X97249523Y-93379761D02*
X98392380Y-93379761D01*
X97820952Y-95379761D02*
X97820952Y-93379761D01*
X104712380Y-98278333D02*
X105664761Y-98278333D01*
X104521904Y-98849761D02*
X105188571Y-96849761D01*
X105855238Y-98849761D01*
X106521904Y-98849761D02*
X106521904Y-96849761D01*
X107664761Y-98849761D01*
X107664761Y-96849761D01*
X108521904Y-98278333D02*
X109474285Y-98278333D01*
X108331428Y-98849761D02*
X108998095Y-96849761D01*
X109664761Y-98849761D01*
X111283809Y-98849761D02*
X110331428Y-98849761D01*
X110331428Y-96849761D01*
X112331428Y-96849761D02*
X112712380Y-96849761D01*
X112902857Y-96945000D01*
X113093333Y-97135476D01*
X113188571Y-97516428D01*
X113188571Y-98183095D01*
X113093333Y-98564047D01*
X112902857Y-98754523D01*
X112712380Y-98849761D01*
X112331428Y-98849761D01*
X112140952Y-98754523D01*
X111950476Y-98564047D01*
X111855238Y-98183095D01*
X111855238Y-97516428D01*
X111950476Y-97135476D01*
X112140952Y-96945000D01*
X112331428Y-96849761D01*
X115093333Y-96945000D02*
X114902857Y-96849761D01*
X114617142Y-96849761D01*
X114331428Y-96945000D01*
X114140952Y-97135476D01*
X114045714Y-97325952D01*
X113950476Y-97706904D01*
X113950476Y-97992619D01*
X114045714Y-98373571D01*
X114140952Y-98564047D01*
X114331428Y-98754523D01*
X114617142Y-98849761D01*
X114807619Y-98849761D01*
X115093333Y-98754523D01*
X115188571Y-98659285D01*
X115188571Y-97992619D01*
X114807619Y-97992619D01*
X118998095Y-96754523D02*
X117283809Y-99325952D01*
X109760000Y-100165000D02*
X109569523Y-100069761D01*
X109283809Y-100069761D01*
X108998095Y-100165000D01*
X108807619Y-100355476D01*
X108712380Y-100545952D01*
X108617142Y-100926904D01*
X108617142Y-101212619D01*
X108712380Y-101593571D01*
X108807619Y-101784047D01*
X108998095Y-101974523D01*
X109283809Y-102069761D01*
X109474285Y-102069761D01*
X109760000Y-101974523D01*
X109855238Y-101879285D01*
X109855238Y-101212619D01*
X109474285Y-101212619D01*
X110712380Y-102069761D02*
X110712380Y-100069761D01*
X111474285Y-100069761D01*
X111664761Y-100165000D01*
X111760000Y-100260238D01*
X111855238Y-100450714D01*
X111855238Y-100736428D01*
X111760000Y-100926904D01*
X111664761Y-101022142D01*
X111474285Y-101117380D01*
X110712380Y-101117380D01*
X112712380Y-102069761D02*
X112712380Y-100069761D01*
X114045714Y-100069761D02*
X114426666Y-100069761D01*
X114617142Y-100165000D01*
X114807619Y-100355476D01*
X114902857Y-100736428D01*
X114902857Y-101403095D01*
X114807619Y-101784047D01*
X114617142Y-101974523D01*
X114426666Y-102069761D01*
X114045714Y-102069761D01*
X113855238Y-101974523D01*
X113664761Y-101784047D01*
X113569523Y-101403095D01*
X113569523Y-100736428D01*
X113664761Y-100355476D01*
X113855238Y-100165000D01*
X114045714Y-100069761D01*
D13*
X68868571Y-49969285D02*
X69297142Y-50112142D01*
X70011428Y-50112142D01*
X70297142Y-49969285D01*
X70440000Y-49826428D01*
X70582857Y-49540714D01*
X70582857Y-49255000D01*
X70440000Y-48969285D01*
X70297142Y-48826428D01*
X70011428Y-48683571D01*
X69440000Y-48540714D01*
X69154285Y-48397857D01*
X69011428Y-48255000D01*
X68868571Y-47969285D01*
X68868571Y-47683571D01*
X69011428Y-47397857D01*
X69154285Y-47255000D01*
X69440000Y-47112142D01*
X70154285Y-47112142D01*
X70582857Y-47255000D01*
X71440000Y-47112142D02*
X73154285Y-47112142D01*
X72297142Y-50112142D02*
X72297142Y-47112142D01*
X74154285Y-50112142D02*
X74154285Y-47112142D01*
X75868571Y-50112142D01*
X75868571Y-47112142D01*
X78582857Y-47112142D02*
X78011428Y-47112142D01*
X77725714Y-47255000D01*
X77582857Y-47397857D01*
X77297142Y-47826428D01*
X77154285Y-48397857D01*
X77154285Y-49540714D01*
X77297142Y-49826428D01*
X77439999Y-49969285D01*
X77725714Y-50112142D01*
X78297142Y-50112142D01*
X78582857Y-49969285D01*
X78725714Y-49826428D01*
X78868571Y-49540714D01*
X78868571Y-48826428D01*
X78725714Y-48540714D01*
X78582857Y-48397857D01*
X78297142Y-48255000D01*
X77725714Y-48255000D01*
X77439999Y-48397857D01*
X77297142Y-48540714D01*
X77154285Y-48826428D01*
X81582857Y-47112142D02*
X80154285Y-47112142D01*
X80011428Y-48540714D01*
X80154285Y-48397857D01*
X80439999Y-48255000D01*
X81154285Y-48255000D01*
X81439999Y-48397857D01*
X81582857Y-48540714D01*
X81725714Y-48826428D01*
X81725714Y-49540714D01*
X81582857Y-49826428D01*
X81439999Y-49969285D01*
X81154285Y-50112142D01*
X80439999Y-50112142D01*
X80154285Y-49969285D01*
X80011428Y-49826428D01*
X83582857Y-47112142D02*
X83868571Y-47112142D01*
X84154285Y-47255000D01*
X84297142Y-47397857D01*
X84439999Y-47683571D01*
X84582857Y-48255000D01*
X84582857Y-48969285D01*
X84439999Y-49540714D01*
X84297142Y-49826428D01*
X84154285Y-49969285D01*
X83868571Y-50112142D01*
X83582857Y-50112142D01*
X83297142Y-49969285D01*
X83154285Y-49826428D01*
X83011428Y-49540714D01*
X82868571Y-48969285D01*
X82868571Y-48255000D01*
X83011428Y-47683571D01*
X83154285Y-47397857D01*
X83297142Y-47255000D01*
X83582857Y-47112142D01*
X85582857Y-47112142D02*
X87582857Y-50112142D01*
X87582857Y-47112142D02*
X85582857Y-50112142D01*
X88725714Y-50112142D02*
X88725714Y-48112142D01*
X88725714Y-47112142D02*
X88582857Y-47255000D01*
X88725714Y-47397857D01*
X88868571Y-47255000D01*
X88725714Y-47112142D01*
X88725714Y-47397857D01*
X94582857Y-46969285D02*
X92011428Y-50826428D01*
X97725714Y-49969285D02*
X98154285Y-50112142D01*
X98868571Y-50112142D01*
X99154285Y-49969285D01*
X99297142Y-49826428D01*
X99439999Y-49540714D01*
X99439999Y-49255000D01*
X99297142Y-48969285D01*
X99154285Y-48826428D01*
X98868571Y-48683571D01*
X98297142Y-48540714D01*
X98011428Y-48397857D01*
X97868571Y-48255000D01*
X97725714Y-47969285D01*
X97725714Y-47683571D01*
X97868571Y-47397857D01*
X98011428Y-47255000D01*
X98297142Y-47112142D01*
X99011428Y-47112142D01*
X99439999Y-47255000D01*
X100725714Y-50112142D02*
X100725714Y-47112142D01*
X101725714Y-49255000D01*
X102725714Y-47112142D01*
X102725714Y-50112142D01*
X104011428Y-49255000D02*
X105439999Y-49255000D01*
X103725714Y-50112142D02*
X104725714Y-47112142D01*
X105725714Y-50112142D01*
X106439999Y-47112142D02*
X108297142Y-47112142D01*
X107297142Y-48255000D01*
X107725714Y-48255000D01*
X108011428Y-48397857D01*
X108154285Y-48540714D01*
X108297142Y-48826428D01*
X108297142Y-49540714D01*
X108154285Y-49826428D01*
X108011428Y-49969285D01*
X107725714Y-50112142D01*
X106868571Y-50112142D01*
X106582857Y-49969285D01*
X106439999Y-49826428D01*
X110868571Y-48112142D02*
X110868571Y-50112142D01*
X110154285Y-46969285D02*
X109440000Y-49112142D01*
X111297142Y-49112142D01*
X113011428Y-47112142D02*
X113297142Y-47112142D01*
X113582857Y-47255000D01*
X113725714Y-47397857D01*
X113868571Y-47683571D01*
X114011428Y-48255000D01*
X114011428Y-48969285D01*
X113868571Y-49540714D01*
X113725714Y-49826428D01*
X113582857Y-49969285D01*
X113297142Y-50112142D01*
X113011428Y-50112142D01*
X112725714Y-49969285D01*
X112582857Y-49826428D01*
X112440000Y-49540714D01*
X112297142Y-48969285D01*
X112297142Y-48255000D01*
X112440000Y-47683571D01*
X112582857Y-47397857D01*
X112725714Y-47255000D01*
X113011428Y-47112142D01*
D12*
X85011428Y-54962142D02*
X85678095Y-54962142D01*
X85963809Y-56009761D02*
X85011428Y-56009761D01*
X85011428Y-54009761D01*
X85963809Y-54009761D01*
X86820952Y-56009761D02*
X86820952Y-54009761D01*
X87963809Y-56009761D01*
X87963809Y-54009761D01*
X90059047Y-55819285D02*
X89963809Y-55914523D01*
X89678095Y-56009761D01*
X89487619Y-56009761D01*
X89201904Y-55914523D01*
X89011428Y-55724047D01*
X88916190Y-55533571D01*
X88820952Y-55152619D01*
X88820952Y-54866904D01*
X88916190Y-54485952D01*
X89011428Y-54295476D01*
X89201904Y-54105000D01*
X89487619Y-54009761D01*
X89678095Y-54009761D01*
X89963809Y-54105000D01*
X90059047Y-54200238D01*
X91297142Y-54009761D02*
X91678095Y-54009761D01*
X91868571Y-54105000D01*
X92059047Y-54295476D01*
X92154285Y-54676428D01*
X92154285Y-55343095D01*
X92059047Y-55724047D01*
X91868571Y-55914523D01*
X91678095Y-56009761D01*
X91297142Y-56009761D01*
X91106666Y-55914523D01*
X90916190Y-55724047D01*
X90820952Y-55343095D01*
X90820952Y-54676428D01*
X90916190Y-54295476D01*
X91106666Y-54105000D01*
X91297142Y-54009761D01*
X93011428Y-56009761D02*
X93011428Y-54009761D01*
X93487619Y-54009761D01*
X93773333Y-54105000D01*
X93963809Y-54295476D01*
X94059047Y-54485952D01*
X94154285Y-54866904D01*
X94154285Y-55152619D01*
X94059047Y-55533571D01*
X93963809Y-55724047D01*
X93773333Y-55914523D01*
X93487619Y-56009761D01*
X93011428Y-56009761D01*
X95011428Y-54962142D02*
X95678095Y-54962142D01*
X95963809Y-56009761D02*
X95011428Y-56009761D01*
X95011428Y-54009761D01*
X95963809Y-54009761D01*
X97963809Y-56009761D02*
X97297142Y-55057380D01*
X96820952Y-56009761D02*
X96820952Y-54009761D01*
X97582857Y-54009761D01*
X97773333Y-54105000D01*
X97868571Y-54200238D01*
X97963809Y-54390714D01*
X97963809Y-54676428D01*
X97868571Y-54866904D01*
X97773333Y-54962142D01*
X97582857Y-55057380D01*
X96820952Y-55057380D01*
X66834285Y-93475000D02*
X66643809Y-93379761D01*
X66358095Y-93379761D01*
X66072380Y-93475000D01*
X65881904Y-93665476D01*
X65786666Y-93855952D01*
X65691428Y-94236904D01*
X65691428Y-94522619D01*
X65786666Y-94903571D01*
X65881904Y-95094047D01*
X66072380Y-95284523D01*
X66358095Y-95379761D01*
X66548571Y-95379761D01*
X66834285Y-95284523D01*
X66929523Y-95189285D01*
X66929523Y-94522619D01*
X66548571Y-94522619D01*
X67786666Y-95379761D02*
X67786666Y-93379761D01*
X68548571Y-93379761D01*
X68739047Y-93475000D01*
X68834285Y-93570238D01*
X68929523Y-93760714D01*
X68929523Y-94046428D01*
X68834285Y-94236904D01*
X68739047Y-94332142D01*
X68548571Y-94427380D01*
X67786666Y-94427380D01*
X69786666Y-95379761D02*
X69786666Y-93379761D01*
X71120000Y-93379761D02*
X71500952Y-93379761D01*
X71691428Y-93475000D01*
X71881904Y-93665476D01*
X71977142Y-94046428D01*
X71977142Y-94713095D01*
X71881904Y-95094047D01*
X71691428Y-95284523D01*
X71500952Y-95379761D01*
X71120000Y-95379761D01*
X70929523Y-95284523D01*
X70739047Y-95094047D01*
X70643809Y-94713095D01*
X70643809Y-94046428D01*
X70739047Y-93665476D01*
X70929523Y-93475000D01*
X71120000Y-93379761D01*
X74358095Y-95379761D02*
X74358095Y-93379761D01*
X75310476Y-95379761D02*
X75310476Y-93379761D01*
X76453333Y-95379761D01*
X76453333Y-93379761D01*
X64691428Y-54962142D02*
X65358095Y-54962142D01*
X65643809Y-56009761D02*
X64691428Y-56009761D01*
X64691428Y-54009761D01*
X65643809Y-54009761D01*
X66500952Y-56009761D02*
X66500952Y-54009761D01*
X67643809Y-56009761D01*
X67643809Y-54009761D01*
X69739047Y-55819285D02*
X69643809Y-55914523D01*
X69358095Y-56009761D01*
X69167619Y-56009761D01*
X68881904Y-55914523D01*
X68691428Y-55724047D01*
X68596190Y-55533571D01*
X68500952Y-55152619D01*
X68500952Y-54866904D01*
X68596190Y-54485952D01*
X68691428Y-54295476D01*
X68881904Y-54105000D01*
X69167619Y-54009761D01*
X69358095Y-54009761D01*
X69643809Y-54105000D01*
X69739047Y-54200238D01*
X70977142Y-54009761D02*
X71358095Y-54009761D01*
X71548571Y-54105000D01*
X71739047Y-54295476D01*
X71834285Y-54676428D01*
X71834285Y-55343095D01*
X71739047Y-55724047D01*
X71548571Y-55914523D01*
X71358095Y-56009761D01*
X70977142Y-56009761D01*
X70786666Y-55914523D01*
X70596190Y-55724047D01*
X70500952Y-55343095D01*
X70500952Y-54676428D01*
X70596190Y-54295476D01*
X70786666Y-54105000D01*
X70977142Y-54009761D01*
X72691428Y-56009761D02*
X72691428Y-54009761D01*
X73167619Y-54009761D01*
X73453333Y-54105000D01*
X73643809Y-54295476D01*
X73739047Y-54485952D01*
X73834285Y-54866904D01*
X73834285Y-55152619D01*
X73739047Y-55533571D01*
X73643809Y-55724047D01*
X73453333Y-55914523D01*
X73167619Y-56009761D01*
X72691428Y-56009761D01*
X74691428Y-54962142D02*
X75358095Y-54962142D01*
X75643809Y-56009761D02*
X74691428Y-56009761D01*
X74691428Y-54009761D01*
X75643809Y-54009761D01*
X77643809Y-56009761D02*
X76977142Y-55057380D01*
X76500952Y-56009761D02*
X76500952Y-54009761D01*
X77262857Y-54009761D01*
X77453333Y-54105000D01*
X77548571Y-54200238D01*
X77643809Y-54390714D01*
X77643809Y-54676428D01*
X77548571Y-54866904D01*
X77453333Y-54962142D01*
X77262857Y-55057380D01*
X76500952Y-55057380D01*
D11*
X113061904Y-85219761D02*
X111919047Y-85219761D01*
X112490476Y-85219761D02*
X112490476Y-83219761D01*
X112300000Y-83505476D01*
X112109523Y-83695952D01*
X111919047Y-83791190D01*
X113823809Y-83410238D02*
X113919047Y-83315000D01*
X114109523Y-83219761D01*
X114585714Y-83219761D01*
X114776190Y-83315000D01*
X114871428Y-83410238D01*
X114966666Y-83600714D01*
X114966666Y-83791190D01*
X114871428Y-84076904D01*
X113728571Y-85219761D01*
X114966666Y-85219761D01*
X115538095Y-83219761D02*
X116204761Y-85219761D01*
X116871428Y-83219761D01*
%LPC*%
D14*
X114300000Y-42115000D03*
D15*
X71120000Y-85385000D03*
X71120000Y-60385000D03*
X91440000Y-147185000D03*
X91440000Y-100185000D03*
X91440000Y-85385000D03*
X91440000Y-60385000D03*
X71120000Y-147185000D03*
X71120000Y-100185000D03*
X111760000Y-107085000D03*
X111760000Y-140285000D03*
D14*
X68580000Y-164615000D03*
X68580000Y-42115000D03*
X114300000Y-164615000D03*
M02*
