%TF.GenerationSoftware,KiCad,Pcbnew,(6.0.9-0)*%
%TF.CreationDate,2023-02-07T08:37:22+01:00*%
%TF.ProjectId,fp_SDN650Xi_SMA340,66705f53-444e-4363-9530-58695f534d41,A*%
%TF.SameCoordinates,Original*%
%TF.FileFunction,Drillmap*%
%TF.FilePolarity,Positive*%
%FSLAX45Y45*%
G04 Gerber Fmt 4.5, Leading zero omitted, Abs format (unit mm)*
G04 Created by KiCad (PCBNEW (6.0.9-0)) date 2023-02-07 08:37:22*
%MOMM*%
%LPD*%
G01*
G04 APERTURE LIST*
%ADD10C,0.100000*%
%ADD11C,0.200000*%
G04 APERTURE END LIST*
D10*
X11601000Y-7288500D02*
G75*
G03*
X11601000Y-7288500I-425000J0D01*
G01*
X6096000Y-3909000D02*
X12192000Y-3909000D01*
X12192000Y-3909000D02*
X12192000Y-16764000D01*
X12192000Y-16764000D02*
X6096000Y-16764000D01*
X6096000Y-16764000D02*
X6096000Y-3909000D01*
D11*
X6348619Y-17079476D02*
X6348619Y-16879476D01*
X6396238Y-16879476D01*
X6424809Y-16889000D01*
X6443857Y-16908048D01*
X6453381Y-16927095D01*
X6462905Y-16965190D01*
X6462905Y-16993762D01*
X6453381Y-17031857D01*
X6443857Y-17050905D01*
X6424809Y-17069952D01*
X6396238Y-17079476D01*
X6348619Y-17079476D01*
X6548619Y-17079476D02*
X6548619Y-16946143D01*
X6548619Y-16984238D02*
X6558143Y-16965190D01*
X6567667Y-16955667D01*
X6586714Y-16946143D01*
X6605762Y-16946143D01*
X6672428Y-17079476D02*
X6672428Y-16946143D01*
X6672428Y-16879476D02*
X6662905Y-16889000D01*
X6672428Y-16898524D01*
X6681952Y-16889000D01*
X6672428Y-16879476D01*
X6672428Y-16898524D01*
X6796238Y-17079476D02*
X6777190Y-17069952D01*
X6767667Y-17050905D01*
X6767667Y-16879476D01*
X6901000Y-17079476D02*
X6881952Y-17069952D01*
X6872428Y-17050905D01*
X6872428Y-16879476D01*
X7129571Y-17079476D02*
X7129571Y-16879476D01*
X7196238Y-17022333D01*
X7262905Y-16879476D01*
X7262905Y-17079476D01*
X7443857Y-17079476D02*
X7443857Y-16974714D01*
X7434333Y-16955667D01*
X7415286Y-16946143D01*
X7377190Y-16946143D01*
X7358143Y-16955667D01*
X7443857Y-17069952D02*
X7424809Y-17079476D01*
X7377190Y-17079476D01*
X7358143Y-17069952D01*
X7348619Y-17050905D01*
X7348619Y-17031857D01*
X7358143Y-17012810D01*
X7377190Y-17003286D01*
X7424809Y-17003286D01*
X7443857Y-16993762D01*
X7539095Y-16946143D02*
X7539095Y-17146143D01*
X7539095Y-16955667D02*
X7558143Y-16946143D01*
X7596238Y-16946143D01*
X7615286Y-16955667D01*
X7624809Y-16965190D01*
X7634333Y-16984238D01*
X7634333Y-17041381D01*
X7624809Y-17060429D01*
X7615286Y-17069952D01*
X7596238Y-17079476D01*
X7558143Y-17079476D01*
X7539095Y-17069952D01*
X7720048Y-17060429D02*
X7729571Y-17069952D01*
X7720048Y-17079476D01*
X7710524Y-17069952D01*
X7720048Y-17060429D01*
X7720048Y-17079476D01*
X7720048Y-16955667D02*
X7729571Y-16965190D01*
X7720048Y-16974714D01*
X7710524Y-16965190D01*
X7720048Y-16955667D01*
X7720048Y-16974714D01*
M02*
