G04 #@! TF.GenerationSoftware,KiCad,Pcbnew,(6.0.9-0)*
G04 #@! TF.CreationDate,2023-02-07T08:37:18+01:00*
G04 #@! TF.ProjectId,fp_SDN650Xi_SMA340,66705f53-444e-4363-9530-58695f534d41,A*
G04 #@! TF.SameCoordinates,Original*
G04 #@! TF.FileFunction,Copper,L1,Top*
G04 #@! TF.FilePolarity,Positive*
%FSLAX46Y46*%
G04 Gerber Fmt 4.6, Leading zero omitted, Abs format (unit mm)*
G04 Created by KiCad (PCBNEW (6.0.9-0)) date 2023-02-07 08:37:18*
%MOMM*%
%LPD*%
G01*
G04 APERTURE LIST*
G04 #@! TA.AperFunction,ComponentPad*
%ADD10C,5.600000*%
G04 #@! TD*
G04 #@! TA.AperFunction,ComponentPad*
%ADD11C,5.000000*%
G04 #@! TD*
G04 APERTURE END LIST*
D10*
X114300000Y-42115000D03*
D11*
X71120000Y-85385000D03*
X71120000Y-60385000D03*
X91440000Y-147185000D03*
X91440000Y-100185000D03*
X91440000Y-85385000D03*
X91440000Y-60385000D03*
X71120000Y-147185000D03*
X71120000Y-100185000D03*
X111760000Y-107085000D03*
X111760000Y-140285000D03*
D10*
X68580000Y-164615000D03*
X68580000Y-42115000D03*
X114300000Y-164615000D03*
G04 #@! TA.AperFunction,Conductor*
G36*
X121353621Y-39618502D02*
G01*
X121400114Y-39672158D01*
X121411500Y-39724500D01*
X121411500Y-167005500D01*
X121391498Y-167073621D01*
X121337842Y-167120114D01*
X121285500Y-167131500D01*
X61594500Y-167131500D01*
X61526379Y-167111498D01*
X61479886Y-167057842D01*
X61468500Y-167005500D01*
X61468500Y-142678724D01*
X65106309Y-142678724D01*
X65107472Y-142687625D01*
X65107452Y-142689296D01*
X65107788Y-142692970D01*
X65123874Y-142999905D01*
X65173204Y-143311361D01*
X65254820Y-143615954D01*
X65367826Y-143910347D01*
X65369324Y-143913287D01*
X65476723Y-144124068D01*
X65510987Y-144191315D01*
X65682732Y-144455779D01*
X65881180Y-144700842D01*
X66104158Y-144923820D01*
X66349221Y-145122268D01*
X66613686Y-145294013D01*
X66894653Y-145437174D01*
X67189046Y-145550180D01*
X67493639Y-145631796D01*
X67659060Y-145657996D01*
X67801847Y-145680612D01*
X67801855Y-145680613D01*
X67805095Y-145681126D01*
X68046656Y-145693785D01*
X68051770Y-145694053D01*
X68051696Y-145695457D01*
X68055614Y-145694974D01*
X68055652Y-145694257D01*
X68057486Y-145694353D01*
X68059713Y-145694470D01*
X68059714Y-145694470D01*
X68075892Y-145695318D01*
X68086394Y-145695868D01*
X68100689Y-145697439D01*
X68107448Y-145698576D01*
X68113832Y-145698654D01*
X68115135Y-145698670D01*
X68115139Y-145698670D01*
X68120000Y-145698729D01*
X68147926Y-145694730D01*
X68154526Y-145693785D01*
X68160095Y-145693142D01*
X68164522Y-145693094D01*
X68169319Y-145692295D01*
X68169325Y-145692294D01*
X68194722Y-145688061D01*
X68197464Y-145687635D01*
X68264187Y-145678080D01*
X68268625Y-145676062D01*
X68273759Y-145674888D01*
X70619631Y-145283909D01*
X74138254Y-144697472D01*
X74152357Y-144695933D01*
X74434905Y-144681126D01*
X74438145Y-144680613D01*
X74438153Y-144680612D01*
X74580940Y-144657996D01*
X74746361Y-144631796D01*
X75050954Y-144550180D01*
X75345347Y-144437174D01*
X75399287Y-144409690D01*
X75623376Y-144295511D01*
X75623383Y-144295507D01*
X75626315Y-144294013D01*
X75890779Y-144122268D01*
X76135842Y-143923820D01*
X76358820Y-143700842D01*
X76557268Y-143455779D01*
X76729013Y-143191315D01*
X76872174Y-142910347D01*
X76961085Y-142678724D01*
X85426309Y-142678724D01*
X85427472Y-142687625D01*
X85427452Y-142689296D01*
X85427788Y-142692970D01*
X85443874Y-142999905D01*
X85493204Y-143311361D01*
X85574820Y-143615954D01*
X85687826Y-143910347D01*
X85689324Y-143913287D01*
X85796723Y-144124068D01*
X85830987Y-144191315D01*
X86002732Y-144455779D01*
X86201180Y-144700842D01*
X86424158Y-144923820D01*
X86669221Y-145122268D01*
X86933686Y-145294013D01*
X87214653Y-145437174D01*
X87509046Y-145550180D01*
X87813639Y-145631796D01*
X87979060Y-145657996D01*
X88121847Y-145680612D01*
X88121855Y-145680613D01*
X88125095Y-145681126D01*
X88366656Y-145693785D01*
X88371770Y-145694053D01*
X88371696Y-145695457D01*
X88375614Y-145694974D01*
X88375652Y-145694257D01*
X88377486Y-145694353D01*
X88379713Y-145694470D01*
X88379714Y-145694470D01*
X88395892Y-145695318D01*
X88406394Y-145695868D01*
X88420689Y-145697439D01*
X88427448Y-145698576D01*
X88433832Y-145698654D01*
X88435135Y-145698670D01*
X88435139Y-145698670D01*
X88440000Y-145698729D01*
X88467926Y-145694730D01*
X88474526Y-145693785D01*
X88480095Y-145693142D01*
X88484522Y-145693094D01*
X88489319Y-145692295D01*
X88489325Y-145692294D01*
X88514722Y-145688061D01*
X88517464Y-145687635D01*
X88584187Y-145678080D01*
X88588625Y-145676062D01*
X88593759Y-145674888D01*
X90939631Y-145283909D01*
X94458254Y-144697472D01*
X94472357Y-144695933D01*
X94754905Y-144681126D01*
X94758145Y-144680613D01*
X94758153Y-144680612D01*
X94900940Y-144657996D01*
X95066361Y-144631796D01*
X95370954Y-144550180D01*
X95665347Y-144437174D01*
X95719287Y-144409690D01*
X95943376Y-144295511D01*
X95943383Y-144295507D01*
X95946315Y-144294013D01*
X96210779Y-144122268D01*
X96455842Y-143923820D01*
X96678820Y-143700842D01*
X96877268Y-143455779D01*
X97049013Y-143191315D01*
X97192174Y-142910347D01*
X97305180Y-142615954D01*
X97386796Y-142311361D01*
X97436126Y-141999905D01*
X97450868Y-141718606D01*
X97452439Y-141704311D01*
X97453576Y-141697552D01*
X97453729Y-141685000D01*
X97449773Y-141657376D01*
X97448500Y-141639514D01*
X97448500Y-135678724D01*
X105746309Y-135678724D01*
X105747472Y-135687625D01*
X105747452Y-135689296D01*
X105747788Y-135692970D01*
X105763874Y-135999905D01*
X105813204Y-136311361D01*
X105894820Y-136615954D01*
X106007826Y-136910347D01*
X106009324Y-136913287D01*
X106116723Y-137124068D01*
X106150987Y-137191315D01*
X106322732Y-137455779D01*
X106521180Y-137700842D01*
X106744158Y-137923820D01*
X106989221Y-138122268D01*
X107253686Y-138294013D01*
X107534653Y-138437174D01*
X107829046Y-138550180D01*
X108133639Y-138631796D01*
X108299060Y-138657996D01*
X108441847Y-138680612D01*
X108441855Y-138680613D01*
X108445095Y-138681126D01*
X108686656Y-138693785D01*
X108691770Y-138694053D01*
X108691696Y-138695457D01*
X108695614Y-138694974D01*
X108695652Y-138694257D01*
X108697486Y-138694353D01*
X108699713Y-138694470D01*
X108699714Y-138694470D01*
X108715892Y-138695318D01*
X108726394Y-138695868D01*
X108740689Y-138697439D01*
X108747448Y-138698576D01*
X108753832Y-138698654D01*
X108755135Y-138698670D01*
X108755139Y-138698670D01*
X108760000Y-138698729D01*
X108787926Y-138694730D01*
X108794526Y-138693785D01*
X108800095Y-138693142D01*
X108804522Y-138693094D01*
X108809319Y-138692295D01*
X108809325Y-138692294D01*
X108834722Y-138688061D01*
X108837464Y-138687635D01*
X108904187Y-138678080D01*
X108908625Y-138676062D01*
X108913759Y-138674888D01*
X111259631Y-138283909D01*
X114778254Y-137697472D01*
X114792357Y-137695933D01*
X115074905Y-137681126D01*
X115078145Y-137680613D01*
X115078153Y-137680612D01*
X115220940Y-137657996D01*
X115386361Y-137631796D01*
X115690954Y-137550180D01*
X115985347Y-137437174D01*
X116039287Y-137409690D01*
X116263376Y-137295511D01*
X116263383Y-137295507D01*
X116266315Y-137294013D01*
X116530779Y-137122268D01*
X116775842Y-136923820D01*
X116998820Y-136700842D01*
X117197268Y-136455779D01*
X117369013Y-136191315D01*
X117512174Y-135910347D01*
X117625180Y-135615954D01*
X117706796Y-135311361D01*
X117756126Y-134999905D01*
X117770868Y-134718606D01*
X117772439Y-134704311D01*
X117773576Y-134697552D01*
X117773729Y-134685000D01*
X117769773Y-134657376D01*
X117768500Y-134639514D01*
X117768500Y-112738250D01*
X117770246Y-112717345D01*
X117772770Y-112702344D01*
X117772770Y-112702341D01*
X117773576Y-112697552D01*
X117773729Y-112685000D01*
X117772798Y-112678497D01*
X117771697Y-112667225D01*
X117756126Y-112370095D01*
X117706796Y-112058639D01*
X117625180Y-111754046D01*
X117599686Y-111687630D01*
X117513358Y-111462738D01*
X117512174Y-111459653D01*
X117369013Y-111178686D01*
X117197268Y-110914221D01*
X116998820Y-110669158D01*
X116775842Y-110446180D01*
X116530779Y-110247732D01*
X116266315Y-110075987D01*
X116263383Y-110074493D01*
X116263376Y-110074489D01*
X115988287Y-109934324D01*
X115985347Y-109932826D01*
X115690954Y-109819820D01*
X115386361Y-109738204D01*
X115211686Y-109710538D01*
X115078153Y-109689388D01*
X115078145Y-109689387D01*
X115074905Y-109688874D01*
X114914934Y-109680491D01*
X114793606Y-109674132D01*
X114779311Y-109672561D01*
X114772552Y-109671424D01*
X114771826Y-109671415D01*
X114770760Y-109671279D01*
X108870336Y-108687875D01*
X108870146Y-108687843D01*
X108777347Y-108672230D01*
X108777338Y-108672229D01*
X108772552Y-108671424D01*
X108766276Y-108671347D01*
X108764859Y-108671330D01*
X108764856Y-108671330D01*
X108760000Y-108671271D01*
X108755191Y-108671960D01*
X108755187Y-108671960D01*
X108754127Y-108672112D01*
X108753497Y-108672202D01*
X108742233Y-108673302D01*
X108712216Y-108674875D01*
X108709625Y-108674913D01*
X108708176Y-108675087D01*
X108707487Y-108675123D01*
X108698837Y-108674925D01*
X108698823Y-108674925D01*
X108698829Y-108674648D01*
X108695727Y-108674128D01*
X108695811Y-108675735D01*
X108445095Y-108688874D01*
X108441855Y-108689387D01*
X108441847Y-108689388D01*
X108299060Y-108712004D01*
X108133639Y-108738204D01*
X107829046Y-108819820D01*
X107534653Y-108932826D01*
X107253686Y-109075987D01*
X106989221Y-109247732D01*
X106744158Y-109446180D01*
X106521180Y-109669158D01*
X106322732Y-109914221D01*
X106150987Y-110178686D01*
X106007826Y-110459653D01*
X105894820Y-110754046D01*
X105813204Y-111058639D01*
X105763874Y-111370095D01*
X105763702Y-111373385D01*
X105748743Y-111658827D01*
X105747704Y-111668841D01*
X105747692Y-111669846D01*
X105746309Y-111678724D01*
X105748771Y-111697552D01*
X105750436Y-111710283D01*
X105751500Y-111726621D01*
X105751500Y-135635633D01*
X105750000Y-135655018D01*
X105746309Y-135678724D01*
X97448500Y-135678724D01*
X97448500Y-105738250D01*
X97450246Y-105717345D01*
X97452770Y-105702344D01*
X97452770Y-105702341D01*
X97453576Y-105697552D01*
X97453729Y-105685000D01*
X97452798Y-105678497D01*
X97451697Y-105667225D01*
X97436126Y-105370095D01*
X97386796Y-105058639D01*
X97305180Y-104754046D01*
X97279686Y-104687630D01*
X97193358Y-104462738D01*
X97192174Y-104459653D01*
X97049013Y-104178686D01*
X96877268Y-103914221D01*
X96678820Y-103669158D01*
X96455842Y-103446180D01*
X96210779Y-103247732D01*
X95946315Y-103075987D01*
X95943383Y-103074493D01*
X95943376Y-103074489D01*
X95668287Y-102934324D01*
X95665347Y-102932826D01*
X95370954Y-102819820D01*
X95066361Y-102738204D01*
X94891686Y-102710538D01*
X94758153Y-102689388D01*
X94758145Y-102689387D01*
X94754905Y-102688874D01*
X94594934Y-102680491D01*
X94473606Y-102674132D01*
X94459311Y-102672561D01*
X94452552Y-102671424D01*
X94451826Y-102671415D01*
X94450760Y-102671279D01*
X88550336Y-101687875D01*
X88550146Y-101687843D01*
X88457347Y-101672230D01*
X88457338Y-101672229D01*
X88452552Y-101671424D01*
X88446276Y-101671347D01*
X88444859Y-101671330D01*
X88444856Y-101671330D01*
X88440000Y-101671271D01*
X88435191Y-101671960D01*
X88435187Y-101671960D01*
X88434127Y-101672112D01*
X88433497Y-101672202D01*
X88422233Y-101673302D01*
X88392216Y-101674875D01*
X88389625Y-101674913D01*
X88388176Y-101675087D01*
X88387487Y-101675123D01*
X88378837Y-101674925D01*
X88378823Y-101674925D01*
X88378829Y-101674648D01*
X88375727Y-101674128D01*
X88375811Y-101675735D01*
X88125095Y-101688874D01*
X88121855Y-101689387D01*
X88121847Y-101689388D01*
X87979060Y-101712004D01*
X87813639Y-101738204D01*
X87509046Y-101819820D01*
X87214653Y-101932826D01*
X86933686Y-102075987D01*
X86669221Y-102247732D01*
X86424158Y-102446180D01*
X86201180Y-102669158D01*
X86002732Y-102914221D01*
X85830987Y-103178686D01*
X85687826Y-103459653D01*
X85574820Y-103754046D01*
X85493204Y-104058639D01*
X85443874Y-104370095D01*
X85443702Y-104373385D01*
X85428743Y-104658827D01*
X85427704Y-104668841D01*
X85427692Y-104669846D01*
X85426309Y-104678724D01*
X85428771Y-104697552D01*
X85430436Y-104710283D01*
X85431500Y-104726621D01*
X85431500Y-142635633D01*
X85430000Y-142655018D01*
X85426309Y-142678724D01*
X76961085Y-142678724D01*
X76985180Y-142615954D01*
X77066796Y-142311361D01*
X77116126Y-141999905D01*
X77130868Y-141718606D01*
X77132439Y-141704311D01*
X77133576Y-141697552D01*
X77133729Y-141685000D01*
X77129773Y-141657376D01*
X77128500Y-141639514D01*
X77128500Y-105738250D01*
X77130246Y-105717345D01*
X77132770Y-105702344D01*
X77132770Y-105702341D01*
X77133576Y-105697552D01*
X77133729Y-105685000D01*
X77132798Y-105678497D01*
X77131697Y-105667225D01*
X77116126Y-105370095D01*
X77066796Y-105058639D01*
X76985180Y-104754046D01*
X76959686Y-104687630D01*
X76873358Y-104462738D01*
X76872174Y-104459653D01*
X76729013Y-104178686D01*
X76557268Y-103914221D01*
X76358820Y-103669158D01*
X76135842Y-103446180D01*
X75890779Y-103247732D01*
X75626315Y-103075987D01*
X75623383Y-103074493D01*
X75623376Y-103074489D01*
X75348287Y-102934324D01*
X75345347Y-102932826D01*
X75050954Y-102819820D01*
X74746361Y-102738204D01*
X74571686Y-102710538D01*
X74438153Y-102689388D01*
X74438145Y-102689387D01*
X74434905Y-102688874D01*
X74274934Y-102680491D01*
X74153606Y-102674132D01*
X74139311Y-102672561D01*
X74132552Y-102671424D01*
X74131826Y-102671415D01*
X74130760Y-102671279D01*
X68230336Y-101687875D01*
X68230146Y-101687843D01*
X68137347Y-101672230D01*
X68137338Y-101672229D01*
X68132552Y-101671424D01*
X68126276Y-101671347D01*
X68124859Y-101671330D01*
X68124856Y-101671330D01*
X68120000Y-101671271D01*
X68115191Y-101671960D01*
X68115187Y-101671960D01*
X68114127Y-101672112D01*
X68113497Y-101672202D01*
X68102233Y-101673302D01*
X68072216Y-101674875D01*
X68069625Y-101674913D01*
X68068176Y-101675087D01*
X68067487Y-101675123D01*
X68058837Y-101674925D01*
X68058823Y-101674925D01*
X68058829Y-101674648D01*
X68055727Y-101674128D01*
X68055811Y-101675735D01*
X67805095Y-101688874D01*
X67801855Y-101689387D01*
X67801847Y-101689388D01*
X67659060Y-101712004D01*
X67493639Y-101738204D01*
X67189046Y-101819820D01*
X66894653Y-101932826D01*
X66613686Y-102075987D01*
X66349221Y-102247732D01*
X66104158Y-102446180D01*
X65881180Y-102669158D01*
X65682732Y-102914221D01*
X65510987Y-103178686D01*
X65367826Y-103459653D01*
X65254820Y-103754046D01*
X65173204Y-104058639D01*
X65123874Y-104370095D01*
X65123702Y-104373385D01*
X65108743Y-104658827D01*
X65107704Y-104668841D01*
X65107692Y-104669846D01*
X65106309Y-104678724D01*
X65108771Y-104697552D01*
X65110436Y-104710283D01*
X65111500Y-104726621D01*
X65111500Y-142635633D01*
X65110000Y-142655018D01*
X65106309Y-142678724D01*
X61468500Y-142678724D01*
X61468500Y-80878724D01*
X65106309Y-80878724D01*
X65107472Y-80887625D01*
X65107452Y-80889296D01*
X65107788Y-80892970D01*
X65123874Y-81199905D01*
X65173204Y-81511361D01*
X65254820Y-81815954D01*
X65367826Y-82110347D01*
X65369324Y-82113287D01*
X65476723Y-82324068D01*
X65510987Y-82391315D01*
X65682732Y-82655779D01*
X65881180Y-82900842D01*
X66104158Y-83123820D01*
X66349221Y-83322268D01*
X66613686Y-83494013D01*
X66894653Y-83637174D01*
X67189046Y-83750180D01*
X67493639Y-83831796D01*
X67659060Y-83857996D01*
X67801847Y-83880612D01*
X67801855Y-83880613D01*
X67805095Y-83881126D01*
X68046656Y-83893785D01*
X68051770Y-83894053D01*
X68051696Y-83895457D01*
X68055614Y-83894974D01*
X68055652Y-83894257D01*
X68057486Y-83894353D01*
X68059713Y-83894470D01*
X68059714Y-83894470D01*
X68075892Y-83895318D01*
X68086394Y-83895868D01*
X68100689Y-83897439D01*
X68107448Y-83898576D01*
X68113832Y-83898654D01*
X68115135Y-83898670D01*
X68115139Y-83898670D01*
X68120000Y-83898729D01*
X68147926Y-83894730D01*
X68154526Y-83893785D01*
X68160095Y-83893142D01*
X68164522Y-83893094D01*
X68169319Y-83892295D01*
X68169325Y-83892294D01*
X68194722Y-83888061D01*
X68197464Y-83887635D01*
X68264187Y-83878080D01*
X68268625Y-83876062D01*
X68273759Y-83874888D01*
X70619631Y-83483909D01*
X74138254Y-82897472D01*
X74152357Y-82895933D01*
X74434905Y-82881126D01*
X74438145Y-82880613D01*
X74438153Y-82880612D01*
X74580940Y-82857996D01*
X74746361Y-82831796D01*
X75050954Y-82750180D01*
X75345347Y-82637174D01*
X75399287Y-82609690D01*
X75623376Y-82495511D01*
X75623383Y-82495507D01*
X75626315Y-82494013D01*
X75890779Y-82322268D01*
X76135842Y-82123820D01*
X76358820Y-81900842D01*
X76557268Y-81655779D01*
X76729013Y-81391315D01*
X76872174Y-81110347D01*
X76961085Y-80878724D01*
X85426309Y-80878724D01*
X85427472Y-80887625D01*
X85427452Y-80889296D01*
X85427788Y-80892970D01*
X85443874Y-81199905D01*
X85493204Y-81511361D01*
X85574820Y-81815954D01*
X85687826Y-82110347D01*
X85689324Y-82113287D01*
X85796723Y-82324068D01*
X85830987Y-82391315D01*
X86002732Y-82655779D01*
X86201180Y-82900842D01*
X86424158Y-83123820D01*
X86669221Y-83322268D01*
X86933686Y-83494013D01*
X87214653Y-83637174D01*
X87509046Y-83750180D01*
X87813639Y-83831796D01*
X87979060Y-83857996D01*
X88121847Y-83880612D01*
X88121855Y-83880613D01*
X88125095Y-83881126D01*
X88366656Y-83893785D01*
X88371770Y-83894053D01*
X88371696Y-83895457D01*
X88375614Y-83894974D01*
X88375652Y-83894257D01*
X88377486Y-83894353D01*
X88379713Y-83894470D01*
X88379714Y-83894470D01*
X88395892Y-83895318D01*
X88406394Y-83895868D01*
X88420689Y-83897439D01*
X88427448Y-83898576D01*
X88433832Y-83898654D01*
X88435135Y-83898670D01*
X88435139Y-83898670D01*
X88440000Y-83898729D01*
X88467926Y-83894730D01*
X88474526Y-83893785D01*
X88480095Y-83893142D01*
X88484522Y-83893094D01*
X88489319Y-83892295D01*
X88489325Y-83892294D01*
X88514722Y-83888061D01*
X88517464Y-83887635D01*
X88584187Y-83878080D01*
X88588625Y-83876062D01*
X88593759Y-83874888D01*
X90939631Y-83483909D01*
X94458254Y-82897472D01*
X94472357Y-82895933D01*
X94754905Y-82881126D01*
X94758145Y-82880613D01*
X94758153Y-82880612D01*
X94900940Y-82857996D01*
X95066361Y-82831796D01*
X95370954Y-82750180D01*
X95665347Y-82637174D01*
X95719287Y-82609690D01*
X95943376Y-82495511D01*
X95943383Y-82495507D01*
X95946315Y-82494013D01*
X96210779Y-82322268D01*
X96455842Y-82123820D01*
X96678820Y-81900842D01*
X96877268Y-81655779D01*
X97049013Y-81391315D01*
X97192174Y-81110347D01*
X97305180Y-80815954D01*
X97386796Y-80511361D01*
X97436126Y-80199905D01*
X97450868Y-79918606D01*
X97452439Y-79904311D01*
X97453576Y-79897552D01*
X97453729Y-79885000D01*
X97449773Y-79857376D01*
X97448500Y-79839514D01*
X97448500Y-72760311D01*
X106998336Y-72760311D01*
X107000382Y-72871940D01*
X107006103Y-73184090D01*
X107051511Y-73605500D01*
X107134200Y-74021205D01*
X107253515Y-74427915D01*
X107408513Y-74822407D01*
X107409768Y-74824918D01*
X107577328Y-75160259D01*
X107597964Y-75201559D01*
X107820370Y-75562370D01*
X108073970Y-75901981D01*
X108075831Y-75904059D01*
X108075832Y-75904060D01*
X108322777Y-76179768D01*
X108356755Y-76217704D01*
X108358792Y-76219607D01*
X108358799Y-76219614D01*
X108552823Y-76400860D01*
X108666487Y-76507039D01*
X109000712Y-76767695D01*
X109356786Y-76997609D01*
X109359265Y-76998913D01*
X109359268Y-76998915D01*
X109729387Y-77193644D01*
X109729393Y-77193647D01*
X109731887Y-77194959D01*
X109734485Y-77196043D01*
X109734489Y-77196045D01*
X110120463Y-77357106D01*
X110120468Y-77357108D01*
X110123047Y-77358184D01*
X110125713Y-77359027D01*
X110125718Y-77359029D01*
X110345871Y-77428654D01*
X110527168Y-77485991D01*
X110941051Y-77577367D01*
X110943825Y-77577725D01*
X110943826Y-77577725D01*
X111358647Y-77631233D01*
X111358657Y-77631234D01*
X111361418Y-77631590D01*
X111364205Y-77631700D01*
X111364211Y-77631700D01*
X111610786Y-77641388D01*
X111784940Y-77648231D01*
X111787731Y-77648092D01*
X111787737Y-77648092D01*
X112205462Y-77627296D01*
X112205471Y-77627295D01*
X112208266Y-77627156D01*
X112211043Y-77626768D01*
X112211045Y-77626768D01*
X112284570Y-77616500D01*
X112628042Y-77568534D01*
X112630752Y-77567906D01*
X112630762Y-77567904D01*
X113038218Y-77473460D01*
X113040945Y-77472828D01*
X113252549Y-77403461D01*
X113441052Y-77341667D01*
X113441058Y-77341665D01*
X113443705Y-77340797D01*
X113833135Y-77173485D01*
X114206149Y-76972217D01*
X114559795Y-76738587D01*
X114891273Y-76474445D01*
X115197958Y-76181883D01*
X115477421Y-75863216D01*
X115481742Y-75857302D01*
X115725792Y-75523238D01*
X115725795Y-75523233D01*
X115727450Y-75520968D01*
X115728894Y-75518570D01*
X115728901Y-75518559D01*
X115944615Y-75160259D01*
X115944620Y-75160250D01*
X115946066Y-75157848D01*
X116131537Y-74776733D01*
X116282395Y-74380639D01*
X116291905Y-74346921D01*
X116396679Y-73975415D01*
X116397444Y-73972703D01*
X116462917Y-73624535D01*
X116475260Y-73558900D01*
X116475261Y-73558892D01*
X116475776Y-73556154D01*
X116483907Y-73472480D01*
X116516553Y-73136509D01*
X116516554Y-73136497D01*
X116516768Y-73134292D01*
X116523296Y-72885000D01*
X116504438Y-72461570D01*
X116448015Y-72041493D01*
X116419697Y-71916343D01*
X116355089Y-71630823D01*
X116354472Y-71628095D01*
X116224552Y-71224648D01*
X116174228Y-71105803D01*
X116060375Y-70836930D01*
X116060369Y-70836918D01*
X116059281Y-70834348D01*
X115859969Y-70460285D01*
X115628194Y-70105420D01*
X115550941Y-70007424D01*
X115367521Y-69774757D01*
X115367519Y-69774755D01*
X115365792Y-69772564D01*
X115074839Y-69464352D01*
X115072748Y-69462499D01*
X115072740Y-69462491D01*
X114759739Y-69185085D01*
X114759737Y-69185083D01*
X114757639Y-69183224D01*
X114416705Y-68931406D01*
X114225795Y-68815102D01*
X114057124Y-68712347D01*
X114057117Y-68712343D01*
X114054735Y-68710892D01*
X113933451Y-68651081D01*
X113677110Y-68524668D01*
X113674596Y-68523428D01*
X113672000Y-68522424D01*
X113671987Y-68522418D01*
X113374196Y-68407212D01*
X113279298Y-68370499D01*
X113035305Y-68300304D01*
X112874650Y-68254085D01*
X112874644Y-68254083D01*
X112871969Y-68253314D01*
X112869232Y-68252785D01*
X112869226Y-68252783D01*
X112725914Y-68225056D01*
X112455837Y-68172803D01*
X112034194Y-68129602D01*
X112031404Y-68129565D01*
X112031396Y-68129565D01*
X111766380Y-68126096D01*
X111610381Y-68124054D01*
X111187753Y-68156203D01*
X111184990Y-68156663D01*
X111184989Y-68156663D01*
X110772430Y-68225331D01*
X110772427Y-68225332D01*
X110769655Y-68225793D01*
X110766944Y-68226497D01*
X110766933Y-68226499D01*
X110362117Y-68331569D01*
X110362106Y-68331572D01*
X110359399Y-68332275D01*
X110104428Y-68423317D01*
X109962875Y-68473860D01*
X109962870Y-68473862D01*
X109960232Y-68474804D01*
X109957692Y-68475975D01*
X109957687Y-68475977D01*
X109852069Y-68524668D01*
X109575316Y-68652253D01*
X109207698Y-68863216D01*
X109205406Y-68864818D01*
X109205398Y-68864823D01*
X108862584Y-69104419D01*
X108860289Y-69106023D01*
X108535839Y-69378752D01*
X108236918Y-69679242D01*
X107965892Y-70005115D01*
X107724908Y-70353791D01*
X107515872Y-70722509D01*
X107514713Y-70725058D01*
X107514711Y-70725062D01*
X107341598Y-71105803D01*
X107341593Y-71105814D01*
X107340441Y-71108349D01*
X107339519Y-71110975D01*
X107339514Y-71110987D01*
X107259574Y-71338626D01*
X107200004Y-71508256D01*
X107095672Y-71919064D01*
X107028271Y-72337520D01*
X106998336Y-72760311D01*
X97448500Y-72760311D01*
X97448500Y-65938250D01*
X97450246Y-65917345D01*
X97452770Y-65902344D01*
X97452770Y-65902341D01*
X97453576Y-65897552D01*
X97453729Y-65885000D01*
X97452798Y-65878497D01*
X97451697Y-65867225D01*
X97436126Y-65570095D01*
X97386796Y-65258639D01*
X97305180Y-64954046D01*
X97279686Y-64887630D01*
X97193358Y-64662738D01*
X97192174Y-64659653D01*
X97049013Y-64378686D01*
X96877268Y-64114221D01*
X96678820Y-63869158D01*
X96455842Y-63646180D01*
X96210779Y-63447732D01*
X95946315Y-63275987D01*
X95943383Y-63274493D01*
X95943376Y-63274489D01*
X95668287Y-63134324D01*
X95665347Y-63132826D01*
X95370954Y-63019820D01*
X95066361Y-62938204D01*
X94891686Y-62910538D01*
X94758153Y-62889388D01*
X94758145Y-62889387D01*
X94754905Y-62888874D01*
X94594934Y-62880491D01*
X94473606Y-62874132D01*
X94459311Y-62872561D01*
X94452552Y-62871424D01*
X94451826Y-62871415D01*
X94450760Y-62871279D01*
X88550336Y-61887875D01*
X88550146Y-61887843D01*
X88457347Y-61872230D01*
X88457338Y-61872229D01*
X88452552Y-61871424D01*
X88446276Y-61871347D01*
X88444859Y-61871330D01*
X88444856Y-61871330D01*
X88440000Y-61871271D01*
X88435191Y-61871960D01*
X88435187Y-61871960D01*
X88434127Y-61872112D01*
X88433497Y-61872202D01*
X88422233Y-61873302D01*
X88392216Y-61874875D01*
X88389625Y-61874913D01*
X88388176Y-61875087D01*
X88387487Y-61875123D01*
X88378837Y-61874925D01*
X88378823Y-61874925D01*
X88378829Y-61874648D01*
X88375727Y-61874128D01*
X88375811Y-61875735D01*
X88125095Y-61888874D01*
X88121855Y-61889387D01*
X88121847Y-61889388D01*
X87979060Y-61912004D01*
X87813639Y-61938204D01*
X87509046Y-62019820D01*
X87214653Y-62132826D01*
X86933686Y-62275987D01*
X86669221Y-62447732D01*
X86424158Y-62646180D01*
X86201180Y-62869158D01*
X86002732Y-63114221D01*
X85830987Y-63378686D01*
X85687826Y-63659653D01*
X85574820Y-63954046D01*
X85493204Y-64258639D01*
X85443874Y-64570095D01*
X85443702Y-64573385D01*
X85428743Y-64858827D01*
X85427704Y-64868841D01*
X85427692Y-64869846D01*
X85426309Y-64878724D01*
X85428771Y-64897552D01*
X85430436Y-64910283D01*
X85431500Y-64926621D01*
X85431500Y-80835633D01*
X85430000Y-80855018D01*
X85426309Y-80878724D01*
X76961085Y-80878724D01*
X76985180Y-80815954D01*
X77066796Y-80511361D01*
X77116126Y-80199905D01*
X77130868Y-79918606D01*
X77132439Y-79904311D01*
X77133576Y-79897552D01*
X77133729Y-79885000D01*
X77129773Y-79857376D01*
X77128500Y-79839514D01*
X77128500Y-65938250D01*
X77130246Y-65917345D01*
X77132770Y-65902344D01*
X77132770Y-65902341D01*
X77133576Y-65897552D01*
X77133729Y-65885000D01*
X77132798Y-65878497D01*
X77131697Y-65867225D01*
X77116126Y-65570095D01*
X77066796Y-65258639D01*
X76985180Y-64954046D01*
X76959686Y-64887630D01*
X76873358Y-64662738D01*
X76872174Y-64659653D01*
X76729013Y-64378686D01*
X76557268Y-64114221D01*
X76358820Y-63869158D01*
X76135842Y-63646180D01*
X75890779Y-63447732D01*
X75626315Y-63275987D01*
X75623383Y-63274493D01*
X75623376Y-63274489D01*
X75348287Y-63134324D01*
X75345347Y-63132826D01*
X75050954Y-63019820D01*
X74746361Y-62938204D01*
X74571686Y-62910538D01*
X74438153Y-62889388D01*
X74438145Y-62889387D01*
X74434905Y-62888874D01*
X74274934Y-62880491D01*
X74153606Y-62874132D01*
X74139311Y-62872561D01*
X74132552Y-62871424D01*
X74131826Y-62871415D01*
X74130760Y-62871279D01*
X68230336Y-61887875D01*
X68230146Y-61887843D01*
X68137347Y-61872230D01*
X68137338Y-61872229D01*
X68132552Y-61871424D01*
X68126276Y-61871347D01*
X68124859Y-61871330D01*
X68124856Y-61871330D01*
X68120000Y-61871271D01*
X68115191Y-61871960D01*
X68115187Y-61871960D01*
X68114127Y-61872112D01*
X68113497Y-61872202D01*
X68102233Y-61873302D01*
X68072216Y-61874875D01*
X68069625Y-61874913D01*
X68068176Y-61875087D01*
X68067487Y-61875123D01*
X68058837Y-61874925D01*
X68058823Y-61874925D01*
X68058829Y-61874648D01*
X68055727Y-61874128D01*
X68055811Y-61875735D01*
X67805095Y-61888874D01*
X67801855Y-61889387D01*
X67801847Y-61889388D01*
X67659060Y-61912004D01*
X67493639Y-61938204D01*
X67189046Y-62019820D01*
X66894653Y-62132826D01*
X66613686Y-62275987D01*
X66349221Y-62447732D01*
X66104158Y-62646180D01*
X65881180Y-62869158D01*
X65682732Y-63114221D01*
X65510987Y-63378686D01*
X65367826Y-63659653D01*
X65254820Y-63954046D01*
X65173204Y-64258639D01*
X65123874Y-64570095D01*
X65123702Y-64573385D01*
X65108743Y-64858827D01*
X65107704Y-64868841D01*
X65107692Y-64869846D01*
X65106309Y-64878724D01*
X65108771Y-64897552D01*
X65110436Y-64910283D01*
X65111500Y-64926621D01*
X65111500Y-80835633D01*
X65110000Y-80855018D01*
X65106309Y-80878724D01*
X61468500Y-80878724D01*
X61468500Y-39724500D01*
X61488502Y-39656379D01*
X61542158Y-39609886D01*
X61594500Y-39598500D01*
X121285500Y-39598500D01*
X121353621Y-39618502D01*
G37*
G04 #@! TD.AperFunction*
M02*
