%TF.GenerationSoftware,KiCad,Pcbnew,(6.0.9-0)*%
%TF.CreationDate,2023-02-07T08:36:39+01:00*%
%TF.ProjectId,fp_SDU460,66705f53-4455-4343-9630-2e6b69636164,A*%
%TF.SameCoordinates,Original*%
%TF.FileFunction,Drillmap*%
%TF.FilePolarity,Positive*%
%FSLAX45Y45*%
G04 Gerber Fmt 4.5, Leading zero omitted, Abs format (unit mm)*
G04 Created by KiCad (PCBNEW (6.0.9-0)) date 2023-02-07 08:36:39*
%MOMM*%
%LPD*%
G01*
G04 APERTURE LIST*
%ADD10C,0.100000*%
%ADD11C,0.200000*%
G04 APERTURE END LIST*
D10*
X6604000Y-4240500D02*
X10668000Y-4240500D01*
X10668000Y-4240500D02*
X10668000Y-17095500D01*
X10668000Y-17095500D02*
X6604000Y-17095500D01*
X6604000Y-17095500D02*
X6604000Y-4240500D01*
X10077000Y-7620000D02*
G75*
G03*
X10077000Y-7620000I-425000J0D01*
G01*
D11*
X6856619Y-17410976D02*
X6856619Y-17210976D01*
X6904238Y-17210976D01*
X6932809Y-17220500D01*
X6951857Y-17239548D01*
X6961381Y-17258595D01*
X6970905Y-17296690D01*
X6970905Y-17325262D01*
X6961381Y-17363357D01*
X6951857Y-17382405D01*
X6932809Y-17401452D01*
X6904238Y-17410976D01*
X6856619Y-17410976D01*
X7056619Y-17410976D02*
X7056619Y-17277643D01*
X7056619Y-17315738D02*
X7066143Y-17296690D01*
X7075667Y-17287167D01*
X7094714Y-17277643D01*
X7113762Y-17277643D01*
X7180428Y-17410976D02*
X7180428Y-17277643D01*
X7180428Y-17210976D02*
X7170905Y-17220500D01*
X7180428Y-17230024D01*
X7189952Y-17220500D01*
X7180428Y-17210976D01*
X7180428Y-17230024D01*
X7304238Y-17410976D02*
X7285190Y-17401452D01*
X7275667Y-17382405D01*
X7275667Y-17210976D01*
X7409000Y-17410976D02*
X7389952Y-17401452D01*
X7380428Y-17382405D01*
X7380428Y-17210976D01*
X7637571Y-17410976D02*
X7637571Y-17210976D01*
X7704238Y-17353833D01*
X7770905Y-17210976D01*
X7770905Y-17410976D01*
X7951857Y-17410976D02*
X7951857Y-17306214D01*
X7942333Y-17287167D01*
X7923286Y-17277643D01*
X7885190Y-17277643D01*
X7866143Y-17287167D01*
X7951857Y-17401452D02*
X7932809Y-17410976D01*
X7885190Y-17410976D01*
X7866143Y-17401452D01*
X7856619Y-17382405D01*
X7856619Y-17363357D01*
X7866143Y-17344310D01*
X7885190Y-17334786D01*
X7932809Y-17334786D01*
X7951857Y-17325262D01*
X8047095Y-17277643D02*
X8047095Y-17477643D01*
X8047095Y-17287167D02*
X8066143Y-17277643D01*
X8104238Y-17277643D01*
X8123286Y-17287167D01*
X8132809Y-17296690D01*
X8142333Y-17315738D01*
X8142333Y-17372881D01*
X8132809Y-17391929D01*
X8123286Y-17401452D01*
X8104238Y-17410976D01*
X8066143Y-17410976D01*
X8047095Y-17401452D01*
X8228048Y-17391929D02*
X8237571Y-17401452D01*
X8228048Y-17410976D01*
X8218524Y-17401452D01*
X8228048Y-17391929D01*
X8228048Y-17410976D01*
X8228048Y-17287167D02*
X8237571Y-17296690D01*
X8228048Y-17306214D01*
X8218524Y-17296690D01*
X8228048Y-17287167D01*
X8228048Y-17306214D01*
M02*
