%TF.GenerationSoftware,KiCad,Pcbnew,(6.0.9-0)*%
%TF.CreationDate,2023-02-07T08:36:39+01:00*%
%TF.ProjectId,fp_SDU460,66705f53-4455-4343-9630-2e6b69636164,A*%
%TF.SameCoordinates,Original*%
%TF.FileFunction,Drillmap*%
%TF.FilePolarity,Positive*%
%FSLAX45Y45*%
G04 Gerber Fmt 4.5, Leading zero omitted, Abs format (unit mm)*
G04 Created by KiCad (PCBNEW (6.0.9-0)) date 2023-02-07 08:36:39*
%MOMM*%
%LPD*%
G01*
G04 APERTURE LIST*
%ADD10C,0.100000*%
%ADD11C,0.200000*%
%ADD12C,0.300000*%
%ADD13C,0.320000*%
G04 APERTURE END LIST*
D10*
X6604000Y-4240500D02*
X10668000Y-4240500D01*
X10668000Y-4240500D02*
X10668000Y-17095500D01*
X10668000Y-17095500D02*
X6604000Y-17095500D01*
X6604000Y-17095500D02*
X6604000Y-4240500D01*
X10077000Y-7620000D02*
G75*
G03*
X10077000Y-7620000I-425000J0D01*
G01*
D11*
D12*
X7470000Y-6220000D02*
X7770000Y-6520000D01*
X7770000Y-6220000D02*
X7470000Y-6520000D01*
X7470000Y-8720000D02*
X7770000Y-9020000D01*
X7770000Y-8720000D02*
X7470000Y-9020000D01*
X7470000Y-11300000D02*
X7770000Y-11600000D01*
X7770000Y-11300000D02*
X7470000Y-11600000D01*
X7470000Y-13800000D02*
X7770000Y-14100000D01*
X7770000Y-13800000D02*
X7470000Y-14100000D01*
X9502000Y-10200000D02*
X9802000Y-10500000D01*
X9802000Y-10200000D02*
X9502000Y-10500000D01*
X9502000Y-14900000D02*
X9802000Y-15200000D01*
X9802000Y-14900000D02*
X9502000Y-15200000D01*
D13*
X7526000Y-4543000D02*
G75*
G03*
X7526000Y-4543000I-160000J0D01*
G01*
X7526000Y-16793000D02*
G75*
G03*
X7526000Y-16793000I-160000J0D01*
G01*
X10066000Y-4543000D02*
G75*
G03*
X10066000Y-4543000I-160000J0D01*
G01*
X10066000Y-16793000D02*
G75*
G03*
X10066000Y-16793000I-160000J0D01*
G01*
D11*
X6856619Y-17410976D02*
X6856619Y-17210976D01*
X6904238Y-17210976D01*
X6932809Y-17220500D01*
X6951857Y-17239548D01*
X6961381Y-17258595D01*
X6970905Y-17296690D01*
X6970905Y-17325262D01*
X6961381Y-17363357D01*
X6951857Y-17382405D01*
X6932809Y-17401452D01*
X6904238Y-17410976D01*
X6856619Y-17410976D01*
X7056619Y-17410976D02*
X7056619Y-17277643D01*
X7056619Y-17315738D02*
X7066143Y-17296690D01*
X7075667Y-17287167D01*
X7094714Y-17277643D01*
X7113762Y-17277643D01*
X7180428Y-17410976D02*
X7180428Y-17277643D01*
X7180428Y-17210976D02*
X7170905Y-17220500D01*
X7180428Y-17230024D01*
X7189952Y-17220500D01*
X7180428Y-17210976D01*
X7180428Y-17230024D01*
X7304238Y-17410976D02*
X7285190Y-17401452D01*
X7275667Y-17382405D01*
X7275667Y-17210976D01*
X7409000Y-17410976D02*
X7389952Y-17401452D01*
X7380428Y-17382405D01*
X7380428Y-17210976D01*
X7637571Y-17410976D02*
X7637571Y-17210976D01*
X7704238Y-17353833D01*
X7770905Y-17210976D01*
X7770905Y-17410976D01*
X7951857Y-17410976D02*
X7951857Y-17306214D01*
X7942333Y-17287167D01*
X7923286Y-17277643D01*
X7885190Y-17277643D01*
X7866143Y-17287167D01*
X7951857Y-17401452D02*
X7932809Y-17410976D01*
X7885190Y-17410976D01*
X7866143Y-17401452D01*
X7856619Y-17382405D01*
X7856619Y-17363357D01*
X7866143Y-17344310D01*
X7885190Y-17334786D01*
X7932809Y-17334786D01*
X7951857Y-17325262D01*
X8047095Y-17277643D02*
X8047095Y-17477643D01*
X8047095Y-17287167D02*
X8066143Y-17277643D01*
X8104238Y-17277643D01*
X8123286Y-17287167D01*
X8132809Y-17296690D01*
X8142333Y-17315738D01*
X8142333Y-17372881D01*
X8132809Y-17391929D01*
X8123286Y-17401452D01*
X8104238Y-17410976D01*
X8066143Y-17410976D01*
X8047095Y-17401452D01*
X8228048Y-17391929D02*
X8237571Y-17401452D01*
X8228048Y-17410976D01*
X8218524Y-17401452D01*
X8228048Y-17391929D01*
X8228048Y-17410976D01*
X8228048Y-17287167D02*
X8237571Y-17296690D01*
X8228048Y-17306214D01*
X8218524Y-17296690D01*
X8228048Y-17287167D01*
X8228048Y-17306214D01*
X6399000Y-17640500D02*
X6599000Y-17840500D01*
X6599000Y-17640500D02*
X6399000Y-17840500D01*
X6837571Y-17630976D02*
X6961381Y-17630976D01*
X6894714Y-17707167D01*
X6923286Y-17707167D01*
X6942333Y-17716690D01*
X6951857Y-17726214D01*
X6961381Y-17745262D01*
X6961381Y-17792881D01*
X6951857Y-17811929D01*
X6942333Y-17821452D01*
X6923286Y-17830976D01*
X6866143Y-17830976D01*
X6847095Y-17821452D01*
X6837571Y-17811929D01*
X7047095Y-17811929D02*
X7056619Y-17821452D01*
X7047095Y-17830976D01*
X7037571Y-17821452D01*
X7047095Y-17811929D01*
X7047095Y-17830976D01*
X7180428Y-17630976D02*
X7199476Y-17630976D01*
X7218524Y-17640500D01*
X7228048Y-17650024D01*
X7237571Y-17669071D01*
X7247095Y-17707167D01*
X7247095Y-17754786D01*
X7237571Y-17792881D01*
X7228048Y-17811929D01*
X7218524Y-17821452D01*
X7199476Y-17830976D01*
X7180428Y-17830976D01*
X7161381Y-17821452D01*
X7151857Y-17811929D01*
X7142333Y-17792881D01*
X7132809Y-17754786D01*
X7132809Y-17707167D01*
X7142333Y-17669071D01*
X7151857Y-17650024D01*
X7161381Y-17640500D01*
X7180428Y-17630976D01*
X7370905Y-17630976D02*
X7389952Y-17630976D01*
X7409000Y-17640500D01*
X7418524Y-17650024D01*
X7428048Y-17669071D01*
X7437571Y-17707167D01*
X7437571Y-17754786D01*
X7428048Y-17792881D01*
X7418524Y-17811929D01*
X7409000Y-17821452D01*
X7389952Y-17830976D01*
X7370905Y-17830976D01*
X7351857Y-17821452D01*
X7342333Y-17811929D01*
X7332809Y-17792881D01*
X7323286Y-17754786D01*
X7323286Y-17707167D01*
X7332809Y-17669071D01*
X7342333Y-17650024D01*
X7351857Y-17640500D01*
X7370905Y-17630976D01*
X7561381Y-17630976D02*
X7580428Y-17630976D01*
X7599476Y-17640500D01*
X7609000Y-17650024D01*
X7618524Y-17669071D01*
X7628048Y-17707167D01*
X7628048Y-17754786D01*
X7618524Y-17792881D01*
X7609000Y-17811929D01*
X7599476Y-17821452D01*
X7580428Y-17830976D01*
X7561381Y-17830976D01*
X7542333Y-17821452D01*
X7532809Y-17811929D01*
X7523286Y-17792881D01*
X7513762Y-17754786D01*
X7513762Y-17707167D01*
X7523286Y-17669071D01*
X7532809Y-17650024D01*
X7542333Y-17640500D01*
X7561381Y-17630976D01*
X7713762Y-17830976D02*
X7713762Y-17697643D01*
X7713762Y-17716690D02*
X7723286Y-17707167D01*
X7742333Y-17697643D01*
X7770905Y-17697643D01*
X7789952Y-17707167D01*
X7799476Y-17726214D01*
X7799476Y-17830976D01*
X7799476Y-17726214D02*
X7809000Y-17707167D01*
X7828048Y-17697643D01*
X7856619Y-17697643D01*
X7875667Y-17707167D01*
X7885190Y-17726214D01*
X7885190Y-17830976D01*
X7980428Y-17830976D02*
X7980428Y-17697643D01*
X7980428Y-17716690D02*
X7989952Y-17707167D01*
X8009000Y-17697643D01*
X8037571Y-17697643D01*
X8056619Y-17707167D01*
X8066143Y-17726214D01*
X8066143Y-17830976D01*
X8066143Y-17726214D02*
X8075667Y-17707167D01*
X8094714Y-17697643D01*
X8123286Y-17697643D01*
X8142333Y-17707167D01*
X8151857Y-17726214D01*
X8151857Y-17830976D01*
X8542333Y-17621452D02*
X8370905Y-17878595D01*
X8799476Y-17630976D02*
X8818524Y-17630976D01*
X8837571Y-17640500D01*
X8847095Y-17650024D01*
X8856619Y-17669071D01*
X8866143Y-17707167D01*
X8866143Y-17754786D01*
X8856619Y-17792881D01*
X8847095Y-17811929D01*
X8837571Y-17821452D01*
X8818524Y-17830976D01*
X8799476Y-17830976D01*
X8780429Y-17821452D01*
X8770905Y-17811929D01*
X8761381Y-17792881D01*
X8751857Y-17754786D01*
X8751857Y-17707167D01*
X8761381Y-17669071D01*
X8770905Y-17650024D01*
X8780429Y-17640500D01*
X8799476Y-17630976D01*
X8951857Y-17811929D02*
X8961381Y-17821452D01*
X8951857Y-17830976D01*
X8942333Y-17821452D01*
X8951857Y-17811929D01*
X8951857Y-17830976D01*
X9151857Y-17830976D02*
X9037571Y-17830976D01*
X9094714Y-17830976D02*
X9094714Y-17630976D01*
X9075667Y-17659548D01*
X9056619Y-17678595D01*
X9037571Y-17688119D01*
X9342333Y-17830976D02*
X9228048Y-17830976D01*
X9285190Y-17830976D02*
X9285190Y-17630976D01*
X9266143Y-17659548D01*
X9247095Y-17678595D01*
X9228048Y-17688119D01*
X9456619Y-17716690D02*
X9437571Y-17707167D01*
X9428048Y-17697643D01*
X9418524Y-17678595D01*
X9418524Y-17669071D01*
X9428048Y-17650024D01*
X9437571Y-17640500D01*
X9456619Y-17630976D01*
X9494714Y-17630976D01*
X9513762Y-17640500D01*
X9523286Y-17650024D01*
X9532810Y-17669071D01*
X9532810Y-17678595D01*
X9523286Y-17697643D01*
X9513762Y-17707167D01*
X9494714Y-17716690D01*
X9456619Y-17716690D01*
X9437571Y-17726214D01*
X9428048Y-17735738D01*
X9418524Y-17754786D01*
X9418524Y-17792881D01*
X9428048Y-17811929D01*
X9437571Y-17821452D01*
X9456619Y-17830976D01*
X9494714Y-17830976D01*
X9513762Y-17821452D01*
X9523286Y-17811929D01*
X9532810Y-17792881D01*
X9532810Y-17754786D01*
X9523286Y-17735738D01*
X9513762Y-17726214D01*
X9494714Y-17716690D01*
X9723286Y-17830976D02*
X9609000Y-17830976D01*
X9666143Y-17830976D02*
X9666143Y-17630976D01*
X9647095Y-17659548D01*
X9628048Y-17678595D01*
X9609000Y-17688119D01*
X9799476Y-17630976D02*
X9799476Y-17669071D01*
X9875667Y-17630976D02*
X9875667Y-17669071D01*
X10170905Y-17907167D02*
X10161381Y-17897643D01*
X10142333Y-17869071D01*
X10132810Y-17850024D01*
X10123286Y-17821452D01*
X10113762Y-17773833D01*
X10113762Y-17735738D01*
X10123286Y-17688119D01*
X10132810Y-17659548D01*
X10142333Y-17640500D01*
X10161381Y-17611929D01*
X10170905Y-17602405D01*
X10332810Y-17630976D02*
X10294714Y-17630976D01*
X10275667Y-17640500D01*
X10266143Y-17650024D01*
X10247095Y-17678595D01*
X10237571Y-17716690D01*
X10237571Y-17792881D01*
X10247095Y-17811929D01*
X10256619Y-17821452D01*
X10275667Y-17830976D01*
X10313762Y-17830976D01*
X10332810Y-17821452D01*
X10342333Y-17811929D01*
X10351857Y-17792881D01*
X10351857Y-17745262D01*
X10342333Y-17726214D01*
X10332810Y-17716690D01*
X10313762Y-17707167D01*
X10275667Y-17707167D01*
X10256619Y-17716690D01*
X10247095Y-17726214D01*
X10237571Y-17745262D01*
X10589952Y-17830976D02*
X10589952Y-17630976D01*
X10675667Y-17830976D02*
X10675667Y-17726214D01*
X10666143Y-17707167D01*
X10647095Y-17697643D01*
X10618524Y-17697643D01*
X10599476Y-17707167D01*
X10589952Y-17716690D01*
X10799476Y-17830976D02*
X10780429Y-17821452D01*
X10770905Y-17811929D01*
X10761381Y-17792881D01*
X10761381Y-17735738D01*
X10770905Y-17716690D01*
X10780429Y-17707167D01*
X10799476Y-17697643D01*
X10828048Y-17697643D01*
X10847095Y-17707167D01*
X10856619Y-17716690D01*
X10866143Y-17735738D01*
X10866143Y-17792881D01*
X10856619Y-17811929D01*
X10847095Y-17821452D01*
X10828048Y-17830976D01*
X10799476Y-17830976D01*
X10980429Y-17830976D02*
X10961381Y-17821452D01*
X10951857Y-17802405D01*
X10951857Y-17630976D01*
X11132810Y-17821452D02*
X11113762Y-17830976D01*
X11075667Y-17830976D01*
X11056619Y-17821452D01*
X11047095Y-17802405D01*
X11047095Y-17726214D01*
X11056619Y-17707167D01*
X11075667Y-17697643D01*
X11113762Y-17697643D01*
X11132810Y-17707167D01*
X11142333Y-17726214D01*
X11142333Y-17745262D01*
X11047095Y-17764310D01*
X11218524Y-17821452D02*
X11237571Y-17830976D01*
X11275667Y-17830976D01*
X11294714Y-17821452D01*
X11304238Y-17802405D01*
X11304238Y-17792881D01*
X11294714Y-17773833D01*
X11275667Y-17764310D01*
X11247095Y-17764310D01*
X11228048Y-17754786D01*
X11218524Y-17735738D01*
X11218524Y-17726214D01*
X11228048Y-17707167D01*
X11247095Y-17697643D01*
X11275667Y-17697643D01*
X11294714Y-17707167D01*
X11370905Y-17907167D02*
X11380428Y-17897643D01*
X11399476Y-17869071D01*
X11409000Y-17850024D01*
X11418524Y-17821452D01*
X11428048Y-17773833D01*
X11428048Y-17735738D01*
X11418524Y-17688119D01*
X11409000Y-17659548D01*
X11399476Y-17640500D01*
X11380428Y-17611929D01*
X11370905Y-17602405D01*
X6599000Y-18060500D02*
G75*
G03*
X6599000Y-18060500I-100000J0D01*
G01*
X6837571Y-17950976D02*
X6961381Y-17950976D01*
X6894714Y-18027167D01*
X6923286Y-18027167D01*
X6942333Y-18036690D01*
X6951857Y-18046214D01*
X6961381Y-18065262D01*
X6961381Y-18112881D01*
X6951857Y-18131929D01*
X6942333Y-18141452D01*
X6923286Y-18150976D01*
X6866143Y-18150976D01*
X6847095Y-18141452D01*
X6837571Y-18131929D01*
X7047095Y-18131929D02*
X7056619Y-18141452D01*
X7047095Y-18150976D01*
X7037571Y-18141452D01*
X7047095Y-18131929D01*
X7047095Y-18150976D01*
X7132809Y-17970024D02*
X7142333Y-17960500D01*
X7161381Y-17950976D01*
X7209000Y-17950976D01*
X7228048Y-17960500D01*
X7237571Y-17970024D01*
X7247095Y-17989071D01*
X7247095Y-18008119D01*
X7237571Y-18036690D01*
X7123286Y-18150976D01*
X7247095Y-18150976D01*
X7370905Y-17950976D02*
X7389952Y-17950976D01*
X7409000Y-17960500D01*
X7418524Y-17970024D01*
X7428048Y-17989071D01*
X7437571Y-18027167D01*
X7437571Y-18074786D01*
X7428048Y-18112881D01*
X7418524Y-18131929D01*
X7409000Y-18141452D01*
X7389952Y-18150976D01*
X7370905Y-18150976D01*
X7351857Y-18141452D01*
X7342333Y-18131929D01*
X7332809Y-18112881D01*
X7323286Y-18074786D01*
X7323286Y-18027167D01*
X7332809Y-17989071D01*
X7342333Y-17970024D01*
X7351857Y-17960500D01*
X7370905Y-17950976D01*
X7561381Y-17950976D02*
X7580428Y-17950976D01*
X7599476Y-17960500D01*
X7609000Y-17970024D01*
X7618524Y-17989071D01*
X7628048Y-18027167D01*
X7628048Y-18074786D01*
X7618524Y-18112881D01*
X7609000Y-18131929D01*
X7599476Y-18141452D01*
X7580428Y-18150976D01*
X7561381Y-18150976D01*
X7542333Y-18141452D01*
X7532809Y-18131929D01*
X7523286Y-18112881D01*
X7513762Y-18074786D01*
X7513762Y-18027167D01*
X7523286Y-17989071D01*
X7532809Y-17970024D01*
X7542333Y-17960500D01*
X7561381Y-17950976D01*
X7713762Y-18150976D02*
X7713762Y-18017643D01*
X7713762Y-18036690D02*
X7723286Y-18027167D01*
X7742333Y-18017643D01*
X7770905Y-18017643D01*
X7789952Y-18027167D01*
X7799476Y-18046214D01*
X7799476Y-18150976D01*
X7799476Y-18046214D02*
X7809000Y-18027167D01*
X7828048Y-18017643D01*
X7856619Y-18017643D01*
X7875667Y-18027167D01*
X7885190Y-18046214D01*
X7885190Y-18150976D01*
X7980428Y-18150976D02*
X7980428Y-18017643D01*
X7980428Y-18036690D02*
X7989952Y-18027167D01*
X8009000Y-18017643D01*
X8037571Y-18017643D01*
X8056619Y-18027167D01*
X8066143Y-18046214D01*
X8066143Y-18150976D01*
X8066143Y-18046214D02*
X8075667Y-18027167D01*
X8094714Y-18017643D01*
X8123286Y-18017643D01*
X8142333Y-18027167D01*
X8151857Y-18046214D01*
X8151857Y-18150976D01*
X8542333Y-17941452D02*
X8370905Y-18198595D01*
X8799476Y-17950976D02*
X8818524Y-17950976D01*
X8837571Y-17960500D01*
X8847095Y-17970024D01*
X8856619Y-17989071D01*
X8866143Y-18027167D01*
X8866143Y-18074786D01*
X8856619Y-18112881D01*
X8847095Y-18131929D01*
X8837571Y-18141452D01*
X8818524Y-18150976D01*
X8799476Y-18150976D01*
X8780429Y-18141452D01*
X8770905Y-18131929D01*
X8761381Y-18112881D01*
X8751857Y-18074786D01*
X8751857Y-18027167D01*
X8761381Y-17989071D01*
X8770905Y-17970024D01*
X8780429Y-17960500D01*
X8799476Y-17950976D01*
X8951857Y-18131929D02*
X8961381Y-18141452D01*
X8951857Y-18150976D01*
X8942333Y-18141452D01*
X8951857Y-18131929D01*
X8951857Y-18150976D01*
X9151857Y-18150976D02*
X9037571Y-18150976D01*
X9094714Y-18150976D02*
X9094714Y-17950976D01*
X9075667Y-17979548D01*
X9056619Y-17998595D01*
X9037571Y-18008119D01*
X9228048Y-17970024D02*
X9237571Y-17960500D01*
X9256619Y-17950976D01*
X9304238Y-17950976D01*
X9323286Y-17960500D01*
X9332810Y-17970024D01*
X9342333Y-17989071D01*
X9342333Y-18008119D01*
X9332810Y-18036690D01*
X9218524Y-18150976D01*
X9342333Y-18150976D01*
X9513762Y-17950976D02*
X9475667Y-17950976D01*
X9456619Y-17960500D01*
X9447095Y-17970024D01*
X9428048Y-17998595D01*
X9418524Y-18036690D01*
X9418524Y-18112881D01*
X9428048Y-18131929D01*
X9437571Y-18141452D01*
X9456619Y-18150976D01*
X9494714Y-18150976D01*
X9513762Y-18141452D01*
X9523286Y-18131929D01*
X9532810Y-18112881D01*
X9532810Y-18065262D01*
X9523286Y-18046214D01*
X9513762Y-18036690D01*
X9494714Y-18027167D01*
X9456619Y-18027167D01*
X9437571Y-18036690D01*
X9428048Y-18046214D01*
X9418524Y-18065262D01*
X9656619Y-17950976D02*
X9675667Y-17950976D01*
X9694714Y-17960500D01*
X9704238Y-17970024D01*
X9713762Y-17989071D01*
X9723286Y-18027167D01*
X9723286Y-18074786D01*
X9713762Y-18112881D01*
X9704238Y-18131929D01*
X9694714Y-18141452D01*
X9675667Y-18150976D01*
X9656619Y-18150976D01*
X9637571Y-18141452D01*
X9628048Y-18131929D01*
X9618524Y-18112881D01*
X9609000Y-18074786D01*
X9609000Y-18027167D01*
X9618524Y-17989071D01*
X9628048Y-17970024D01*
X9637571Y-17960500D01*
X9656619Y-17950976D01*
X9799476Y-17950976D02*
X9799476Y-17989071D01*
X9875667Y-17950976D02*
X9875667Y-17989071D01*
X10170905Y-18227167D02*
X10161381Y-18217643D01*
X10142333Y-18189071D01*
X10132810Y-18170024D01*
X10123286Y-18141452D01*
X10113762Y-18093833D01*
X10113762Y-18055738D01*
X10123286Y-18008119D01*
X10132810Y-17979548D01*
X10142333Y-17960500D01*
X10161381Y-17931929D01*
X10170905Y-17922405D01*
X10332810Y-18017643D02*
X10332810Y-18150976D01*
X10285190Y-17941452D02*
X10237571Y-18084310D01*
X10361381Y-18084310D01*
X10589952Y-18150976D02*
X10589952Y-17950976D01*
X10675667Y-18150976D02*
X10675667Y-18046214D01*
X10666143Y-18027167D01*
X10647095Y-18017643D01*
X10618524Y-18017643D01*
X10599476Y-18027167D01*
X10589952Y-18036690D01*
X10799476Y-18150976D02*
X10780429Y-18141452D01*
X10770905Y-18131929D01*
X10761381Y-18112881D01*
X10761381Y-18055738D01*
X10770905Y-18036690D01*
X10780429Y-18027167D01*
X10799476Y-18017643D01*
X10828048Y-18017643D01*
X10847095Y-18027167D01*
X10856619Y-18036690D01*
X10866143Y-18055738D01*
X10866143Y-18112881D01*
X10856619Y-18131929D01*
X10847095Y-18141452D01*
X10828048Y-18150976D01*
X10799476Y-18150976D01*
X10980429Y-18150976D02*
X10961381Y-18141452D01*
X10951857Y-18122405D01*
X10951857Y-17950976D01*
X11132810Y-18141452D02*
X11113762Y-18150976D01*
X11075667Y-18150976D01*
X11056619Y-18141452D01*
X11047095Y-18122405D01*
X11047095Y-18046214D01*
X11056619Y-18027167D01*
X11075667Y-18017643D01*
X11113762Y-18017643D01*
X11132810Y-18027167D01*
X11142333Y-18046214D01*
X11142333Y-18065262D01*
X11047095Y-18084310D01*
X11218524Y-18141452D02*
X11237571Y-18150976D01*
X11275667Y-18150976D01*
X11294714Y-18141452D01*
X11304238Y-18122405D01*
X11304238Y-18112881D01*
X11294714Y-18093833D01*
X11275667Y-18084310D01*
X11247095Y-18084310D01*
X11228048Y-18074786D01*
X11218524Y-18055738D01*
X11218524Y-18046214D01*
X11228048Y-18027167D01*
X11247095Y-18017643D01*
X11275667Y-18017643D01*
X11294714Y-18027167D01*
X11370905Y-18227167D02*
X11380428Y-18217643D01*
X11399476Y-18189071D01*
X11409000Y-18170024D01*
X11418524Y-18141452D01*
X11428048Y-18093833D01*
X11428048Y-18055738D01*
X11418524Y-18008119D01*
X11409000Y-17979548D01*
X11399476Y-17960500D01*
X11380428Y-17931929D01*
X11370905Y-17922405D01*
M02*
