G04 #@! TF.GenerationSoftware,KiCad,Pcbnew,(6.0.9-0)*
G04 #@! TF.CreationDate,2023-02-07T08:36:36+01:00*
G04 #@! TF.ProjectId,fp_SDU460,66705f53-4455-4343-9630-2e6b69636164,A*
G04 #@! TF.SameCoordinates,Original*
G04 #@! TF.FileFunction,Copper,L1,Top*
G04 #@! TF.FilePolarity,Positive*
%FSLAX46Y46*%
G04 Gerber Fmt 4.6, Leading zero omitted, Abs format (unit mm)*
G04 Created by KiCad (PCBNEW (6.0.9-0)) date 2023-02-07 08:36:36*
%MOMM*%
%LPD*%
G01*
G04 APERTURE LIST*
G04 #@! TA.AperFunction,ComponentPad*
%ADD10C,5.600000*%
G04 #@! TD*
G04 #@! TA.AperFunction,ComponentPad*
%ADD11C,5.000000*%
G04 #@! TD*
G04 APERTURE END LIST*
D10*
X99060000Y-167930000D03*
D11*
X76200000Y-63700000D03*
X76200000Y-88700000D03*
D10*
X73660000Y-45430000D03*
X73660000Y-167930000D03*
X99060000Y-45430000D03*
D11*
X96520000Y-150500000D03*
X96520000Y-103500000D03*
X76200000Y-114500000D03*
X76200000Y-139500000D03*
G04 #@! TA.AperFunction,Conductor*
G36*
X106113621Y-42933502D02*
G01*
X106160114Y-42987158D01*
X106171500Y-43039500D01*
X106171500Y-170320500D01*
X106151498Y-170388621D01*
X106097842Y-170435114D01*
X106045500Y-170446500D01*
X66674500Y-170446500D01*
X66606379Y-170426498D01*
X66559886Y-170372842D01*
X66548500Y-170320500D01*
X66548500Y-145993724D01*
X90506309Y-145993724D01*
X90507472Y-146002625D01*
X90507452Y-146004296D01*
X90507788Y-146007970D01*
X90523874Y-146314905D01*
X90573204Y-146626361D01*
X90654820Y-146930954D01*
X90767826Y-147225347D01*
X90769324Y-147228287D01*
X90876723Y-147439068D01*
X90910987Y-147506315D01*
X91082732Y-147770779D01*
X91281180Y-148015842D01*
X91504158Y-148238820D01*
X91749221Y-148437268D01*
X92013686Y-148609013D01*
X92294653Y-148752174D01*
X92589046Y-148865180D01*
X92893639Y-148946796D01*
X93059060Y-148972996D01*
X93201847Y-148995612D01*
X93201855Y-148995613D01*
X93205095Y-148996126D01*
X93446656Y-149008785D01*
X93451770Y-149009053D01*
X93451696Y-149010457D01*
X93455614Y-149009974D01*
X93455652Y-149009257D01*
X93457486Y-149009353D01*
X93459713Y-149009470D01*
X93459714Y-149009470D01*
X93475892Y-149010318D01*
X93486394Y-149010868D01*
X93500689Y-149012439D01*
X93507448Y-149013576D01*
X93513832Y-149013654D01*
X93515135Y-149013670D01*
X93515139Y-149013670D01*
X93520000Y-149013729D01*
X93547926Y-149009730D01*
X93554526Y-149008785D01*
X93560095Y-149008142D01*
X93564522Y-149008094D01*
X93569319Y-149007295D01*
X93569325Y-149007294D01*
X93594722Y-149003061D01*
X93597464Y-149002635D01*
X93664187Y-148993080D01*
X93668625Y-148991062D01*
X93673759Y-148989888D01*
X96019631Y-148598909D01*
X99538254Y-148012472D01*
X99552357Y-148010933D01*
X99834905Y-147996126D01*
X99838145Y-147995613D01*
X99838153Y-147995612D01*
X99980940Y-147972996D01*
X100146361Y-147946796D01*
X100450954Y-147865180D01*
X100745347Y-147752174D01*
X100799287Y-147724690D01*
X101023376Y-147610511D01*
X101023383Y-147610507D01*
X101026315Y-147609013D01*
X101290779Y-147437268D01*
X101535842Y-147238820D01*
X101758820Y-147015842D01*
X101957268Y-146770779D01*
X102129013Y-146506315D01*
X102272174Y-146225347D01*
X102385180Y-145930954D01*
X102466796Y-145626361D01*
X102516126Y-145314905D01*
X102530868Y-145033606D01*
X102532439Y-145019311D01*
X102533576Y-145012552D01*
X102533729Y-145000000D01*
X102529773Y-144972376D01*
X102528500Y-144954514D01*
X102528500Y-109053250D01*
X102530246Y-109032345D01*
X102532770Y-109017344D01*
X102532770Y-109017341D01*
X102533576Y-109012552D01*
X102533729Y-109000000D01*
X102532798Y-108993497D01*
X102531697Y-108982225D01*
X102516126Y-108685095D01*
X102466796Y-108373639D01*
X102385180Y-108069046D01*
X102359686Y-108002630D01*
X102273358Y-107777738D01*
X102272174Y-107774653D01*
X102129013Y-107493686D01*
X101957268Y-107229221D01*
X101758820Y-106984158D01*
X101535842Y-106761180D01*
X101290779Y-106562732D01*
X101026315Y-106390987D01*
X101023383Y-106389493D01*
X101023376Y-106389489D01*
X100748287Y-106249324D01*
X100745347Y-106247826D01*
X100450954Y-106134820D01*
X100146361Y-106053204D01*
X99971686Y-106025538D01*
X99838153Y-106004388D01*
X99838145Y-106004387D01*
X99834905Y-106003874D01*
X99674934Y-105995491D01*
X99553606Y-105989132D01*
X99539311Y-105987561D01*
X99532552Y-105986424D01*
X99531826Y-105986415D01*
X99530760Y-105986279D01*
X93630336Y-105002875D01*
X93630146Y-105002843D01*
X93537347Y-104987230D01*
X93537338Y-104987229D01*
X93532552Y-104986424D01*
X93526276Y-104986348D01*
X93524859Y-104986330D01*
X93524856Y-104986330D01*
X93520000Y-104986271D01*
X93515191Y-104986960D01*
X93515187Y-104986960D01*
X93514127Y-104987112D01*
X93513497Y-104987202D01*
X93502233Y-104988302D01*
X93472216Y-104989875D01*
X93469625Y-104989913D01*
X93468176Y-104990087D01*
X93467487Y-104990123D01*
X93458837Y-104989925D01*
X93458823Y-104989925D01*
X93458829Y-104989648D01*
X93455727Y-104989128D01*
X93455811Y-104990735D01*
X93205095Y-105003874D01*
X93201855Y-105004387D01*
X93201847Y-105004388D01*
X93059060Y-105027004D01*
X92893639Y-105053204D01*
X92589046Y-105134820D01*
X92294653Y-105247826D01*
X92013686Y-105390987D01*
X91749221Y-105562732D01*
X91504158Y-105761180D01*
X91281180Y-105984158D01*
X91082732Y-106229221D01*
X90910987Y-106493686D01*
X90767826Y-106774653D01*
X90654820Y-107069046D01*
X90573204Y-107373639D01*
X90523874Y-107685095D01*
X90523702Y-107688385D01*
X90508743Y-107973827D01*
X90507704Y-107983841D01*
X90507692Y-107984846D01*
X90506309Y-107993724D01*
X90508771Y-108012552D01*
X90510436Y-108025283D01*
X90511500Y-108041621D01*
X90511500Y-145950633D01*
X90510000Y-145970018D01*
X90506309Y-145993724D01*
X66548500Y-145993724D01*
X66548500Y-134993724D01*
X70186309Y-134993724D01*
X70187472Y-135002625D01*
X70187452Y-135004296D01*
X70187788Y-135007970D01*
X70203874Y-135314905D01*
X70253204Y-135626361D01*
X70334820Y-135930954D01*
X70447826Y-136225347D01*
X70449324Y-136228287D01*
X70556723Y-136439068D01*
X70590987Y-136506315D01*
X70762732Y-136770779D01*
X70961180Y-137015842D01*
X71184158Y-137238820D01*
X71429221Y-137437268D01*
X71693686Y-137609013D01*
X71974653Y-137752174D01*
X72269046Y-137865180D01*
X72573639Y-137946796D01*
X72739060Y-137972996D01*
X72881847Y-137995612D01*
X72881855Y-137995613D01*
X72885095Y-137996126D01*
X73126656Y-138008785D01*
X73131770Y-138009053D01*
X73131696Y-138010457D01*
X73135614Y-138009974D01*
X73135652Y-138009257D01*
X73137486Y-138009353D01*
X73139713Y-138009470D01*
X73139714Y-138009470D01*
X73155892Y-138010318D01*
X73166394Y-138010868D01*
X73180689Y-138012439D01*
X73187448Y-138013576D01*
X73193832Y-138013654D01*
X73195135Y-138013670D01*
X73195139Y-138013670D01*
X73200000Y-138013729D01*
X73227926Y-138009730D01*
X73234526Y-138008785D01*
X73240095Y-138008142D01*
X73244522Y-138008094D01*
X73249319Y-138007295D01*
X73249325Y-138007294D01*
X73274722Y-138003061D01*
X73277464Y-138002635D01*
X73344187Y-137993080D01*
X73348625Y-137991062D01*
X73353759Y-137989888D01*
X75699631Y-137598909D01*
X79218254Y-137012472D01*
X79232357Y-137010933D01*
X79514905Y-136996126D01*
X79518145Y-136995613D01*
X79518153Y-136995612D01*
X79660940Y-136972996D01*
X79826361Y-136946796D01*
X80130954Y-136865180D01*
X80425347Y-136752174D01*
X80479287Y-136724690D01*
X80703376Y-136610511D01*
X80703383Y-136610507D01*
X80706315Y-136609013D01*
X80970779Y-136437268D01*
X81215842Y-136238820D01*
X81438820Y-136015842D01*
X81637268Y-135770779D01*
X81809013Y-135506315D01*
X81952174Y-135225347D01*
X82065180Y-134930954D01*
X82146796Y-134626361D01*
X82196126Y-134314905D01*
X82210868Y-134033606D01*
X82212439Y-134019311D01*
X82213576Y-134012552D01*
X82213729Y-134000000D01*
X82209773Y-133972376D01*
X82208500Y-133954514D01*
X82208500Y-120053250D01*
X82210246Y-120032345D01*
X82212770Y-120017344D01*
X82212770Y-120017341D01*
X82213576Y-120012552D01*
X82213729Y-120000000D01*
X82212798Y-119993497D01*
X82211697Y-119982225D01*
X82196126Y-119685095D01*
X82146796Y-119373639D01*
X82065180Y-119069046D01*
X82039686Y-119002630D01*
X81953358Y-118777738D01*
X81952174Y-118774653D01*
X81809013Y-118493686D01*
X81637268Y-118229221D01*
X81438820Y-117984158D01*
X81215842Y-117761180D01*
X80970779Y-117562732D01*
X80706315Y-117390987D01*
X80703383Y-117389493D01*
X80703376Y-117389489D01*
X80428287Y-117249324D01*
X80425347Y-117247826D01*
X80130954Y-117134820D01*
X79826361Y-117053204D01*
X79651686Y-117025538D01*
X79518153Y-117004388D01*
X79518145Y-117004387D01*
X79514905Y-117003874D01*
X79354934Y-116995491D01*
X79233606Y-116989132D01*
X79219311Y-116987561D01*
X79212552Y-116986424D01*
X79211826Y-116986415D01*
X79210760Y-116986279D01*
X73310336Y-116002875D01*
X73310146Y-116002843D01*
X73217347Y-115987230D01*
X73217338Y-115987229D01*
X73212552Y-115986424D01*
X73206276Y-115986347D01*
X73204859Y-115986330D01*
X73204856Y-115986330D01*
X73200000Y-115986271D01*
X73195191Y-115986960D01*
X73195187Y-115986960D01*
X73194127Y-115987112D01*
X73193497Y-115987202D01*
X73182233Y-115988302D01*
X73152216Y-115989875D01*
X73149625Y-115989913D01*
X73148176Y-115990087D01*
X73147487Y-115990123D01*
X73138837Y-115989925D01*
X73138823Y-115989925D01*
X73138829Y-115989648D01*
X73135727Y-115989128D01*
X73135811Y-115990735D01*
X72885095Y-116003874D01*
X72881855Y-116004387D01*
X72881847Y-116004388D01*
X72739060Y-116027004D01*
X72573639Y-116053204D01*
X72269046Y-116134820D01*
X71974653Y-116247826D01*
X71693686Y-116390987D01*
X71429221Y-116562732D01*
X71184158Y-116761180D01*
X70961180Y-116984158D01*
X70762732Y-117229221D01*
X70590987Y-117493686D01*
X70447826Y-117774653D01*
X70334820Y-118069046D01*
X70253204Y-118373639D01*
X70203874Y-118685095D01*
X70203702Y-118688385D01*
X70188743Y-118973827D01*
X70187704Y-118983841D01*
X70187692Y-118984846D01*
X70186309Y-118993724D01*
X70188771Y-119012552D01*
X70190436Y-119025283D01*
X70191500Y-119041621D01*
X70191500Y-134950633D01*
X70190000Y-134970018D01*
X70186309Y-134993724D01*
X66548500Y-134993724D01*
X66548500Y-84193724D01*
X70186309Y-84193724D01*
X70187472Y-84202625D01*
X70187452Y-84204296D01*
X70187788Y-84207970D01*
X70203874Y-84514905D01*
X70253204Y-84826361D01*
X70334820Y-85130954D01*
X70447826Y-85425347D01*
X70449324Y-85428287D01*
X70556723Y-85639068D01*
X70590987Y-85706315D01*
X70762732Y-85970779D01*
X70961180Y-86215842D01*
X71184158Y-86438820D01*
X71429221Y-86637268D01*
X71693686Y-86809013D01*
X71974653Y-86952174D01*
X72269046Y-87065180D01*
X72573639Y-87146796D01*
X72739060Y-87172996D01*
X72881847Y-87195612D01*
X72881855Y-87195613D01*
X72885095Y-87196126D01*
X73126656Y-87208785D01*
X73131770Y-87209053D01*
X73131696Y-87210457D01*
X73135614Y-87209974D01*
X73135652Y-87209257D01*
X73137486Y-87209353D01*
X73139713Y-87209470D01*
X73139714Y-87209470D01*
X73155892Y-87210318D01*
X73166394Y-87210868D01*
X73180689Y-87212439D01*
X73187448Y-87213576D01*
X73193832Y-87213654D01*
X73195135Y-87213670D01*
X73195139Y-87213670D01*
X73200000Y-87213729D01*
X73227926Y-87209730D01*
X73234526Y-87208785D01*
X73240095Y-87208142D01*
X73244522Y-87208094D01*
X73249319Y-87207295D01*
X73249325Y-87207294D01*
X73274722Y-87203061D01*
X73277464Y-87202635D01*
X73344187Y-87193080D01*
X73348625Y-87191062D01*
X73353759Y-87189888D01*
X75699631Y-86798909D01*
X79218254Y-86212472D01*
X79232357Y-86210933D01*
X79514905Y-86196126D01*
X79518145Y-86195613D01*
X79518153Y-86195612D01*
X79660940Y-86172996D01*
X79826361Y-86146796D01*
X80130954Y-86065180D01*
X80425347Y-85952174D01*
X80479287Y-85924690D01*
X80703376Y-85810511D01*
X80703383Y-85810507D01*
X80706315Y-85809013D01*
X80970779Y-85637268D01*
X81215842Y-85438820D01*
X81438820Y-85215842D01*
X81637268Y-84970779D01*
X81809013Y-84706315D01*
X81952174Y-84425347D01*
X82065180Y-84130954D01*
X82146796Y-83826361D01*
X82196126Y-83514905D01*
X82210868Y-83233606D01*
X82212439Y-83219311D01*
X82213576Y-83212552D01*
X82213729Y-83200000D01*
X82209773Y-83172376D01*
X82208500Y-83154514D01*
X82208500Y-76075311D01*
X91758336Y-76075311D01*
X91760382Y-76186940D01*
X91766103Y-76499090D01*
X91811511Y-76920500D01*
X91894200Y-77336205D01*
X92013515Y-77742915D01*
X92168513Y-78137407D01*
X92169768Y-78139918D01*
X92337328Y-78475259D01*
X92357964Y-78516559D01*
X92580370Y-78877370D01*
X92833970Y-79216981D01*
X92835831Y-79219059D01*
X92835832Y-79219060D01*
X93082777Y-79494768D01*
X93116755Y-79532704D01*
X93118792Y-79534607D01*
X93118799Y-79534614D01*
X93312823Y-79715860D01*
X93426487Y-79822039D01*
X93760712Y-80082695D01*
X94116786Y-80312609D01*
X94119265Y-80313913D01*
X94119268Y-80313915D01*
X94489387Y-80508644D01*
X94489393Y-80508647D01*
X94491887Y-80509959D01*
X94494485Y-80511043D01*
X94494489Y-80511045D01*
X94880463Y-80672106D01*
X94880468Y-80672108D01*
X94883047Y-80673184D01*
X94885713Y-80674027D01*
X94885718Y-80674029D01*
X95105871Y-80743654D01*
X95287168Y-80800991D01*
X95701051Y-80892367D01*
X95703825Y-80892725D01*
X95703826Y-80892725D01*
X96118647Y-80946233D01*
X96118657Y-80946234D01*
X96121418Y-80946590D01*
X96124205Y-80946700D01*
X96124211Y-80946700D01*
X96370786Y-80956388D01*
X96544940Y-80963231D01*
X96547731Y-80963092D01*
X96547737Y-80963092D01*
X96965462Y-80942296D01*
X96965471Y-80942295D01*
X96968266Y-80942156D01*
X96971043Y-80941768D01*
X96971045Y-80941768D01*
X97044570Y-80931500D01*
X97388042Y-80883534D01*
X97390752Y-80882906D01*
X97390762Y-80882904D01*
X97798218Y-80788460D01*
X97800945Y-80787828D01*
X98012549Y-80718461D01*
X98201052Y-80656667D01*
X98201058Y-80656665D01*
X98203705Y-80655797D01*
X98593135Y-80488485D01*
X98966149Y-80287217D01*
X99319795Y-80053587D01*
X99651273Y-79789445D01*
X99957958Y-79496883D01*
X100237421Y-79178216D01*
X100241742Y-79172302D01*
X100485792Y-78838238D01*
X100485795Y-78838233D01*
X100487450Y-78835968D01*
X100488894Y-78833570D01*
X100488901Y-78833559D01*
X100704615Y-78475259D01*
X100704620Y-78475250D01*
X100706066Y-78472848D01*
X100891537Y-78091733D01*
X101042395Y-77695639D01*
X101051905Y-77661921D01*
X101156679Y-77290415D01*
X101157444Y-77287703D01*
X101222917Y-76939535D01*
X101235260Y-76873900D01*
X101235261Y-76873892D01*
X101235776Y-76871154D01*
X101243907Y-76787480D01*
X101276553Y-76451509D01*
X101276554Y-76451497D01*
X101276768Y-76449292D01*
X101283296Y-76200000D01*
X101264438Y-75776570D01*
X101208015Y-75356493D01*
X101179697Y-75231343D01*
X101115089Y-74945823D01*
X101114472Y-74943095D01*
X100984552Y-74539648D01*
X100934228Y-74420803D01*
X100820375Y-74151930D01*
X100820369Y-74151918D01*
X100819281Y-74149348D01*
X100619969Y-73775285D01*
X100388194Y-73420420D01*
X100310941Y-73322424D01*
X100127521Y-73089757D01*
X100127519Y-73089755D01*
X100125792Y-73087564D01*
X99834839Y-72779352D01*
X99832748Y-72777499D01*
X99832740Y-72777491D01*
X99519739Y-72500085D01*
X99519737Y-72500083D01*
X99517639Y-72498224D01*
X99176705Y-72246406D01*
X98985795Y-72130102D01*
X98817124Y-72027347D01*
X98817117Y-72027343D01*
X98814735Y-72025892D01*
X98693451Y-71966081D01*
X98437110Y-71839668D01*
X98434596Y-71838428D01*
X98432000Y-71837424D01*
X98431987Y-71837418D01*
X98134196Y-71722212D01*
X98039298Y-71685499D01*
X97795305Y-71615304D01*
X97634650Y-71569085D01*
X97634644Y-71569083D01*
X97631969Y-71568314D01*
X97629232Y-71567785D01*
X97629226Y-71567783D01*
X97485914Y-71540056D01*
X97215837Y-71487803D01*
X96794194Y-71444602D01*
X96791404Y-71444565D01*
X96791396Y-71444565D01*
X96526380Y-71441096D01*
X96370381Y-71439054D01*
X95947753Y-71471203D01*
X95944990Y-71471663D01*
X95944989Y-71471663D01*
X95532430Y-71540331D01*
X95532427Y-71540332D01*
X95529655Y-71540793D01*
X95526944Y-71541497D01*
X95526933Y-71541499D01*
X95122117Y-71646569D01*
X95122106Y-71646572D01*
X95119399Y-71647275D01*
X94864428Y-71738317D01*
X94722875Y-71788860D01*
X94722870Y-71788862D01*
X94720232Y-71789804D01*
X94717692Y-71790975D01*
X94717687Y-71790977D01*
X94612069Y-71839668D01*
X94335316Y-71967253D01*
X93967698Y-72178216D01*
X93965406Y-72179818D01*
X93965398Y-72179823D01*
X93622584Y-72419419D01*
X93620289Y-72421023D01*
X93295839Y-72693752D01*
X92996918Y-72994242D01*
X92725892Y-73320115D01*
X92484908Y-73668791D01*
X92275872Y-74037509D01*
X92274713Y-74040058D01*
X92274711Y-74040062D01*
X92101598Y-74420803D01*
X92101593Y-74420814D01*
X92100441Y-74423349D01*
X92099519Y-74425975D01*
X92099514Y-74425987D01*
X92019574Y-74653626D01*
X91960004Y-74823256D01*
X91855672Y-75234064D01*
X91788271Y-75652520D01*
X91758336Y-76075311D01*
X82208500Y-76075311D01*
X82208500Y-69253250D01*
X82210246Y-69232345D01*
X82212770Y-69217344D01*
X82212770Y-69217341D01*
X82213576Y-69212552D01*
X82213729Y-69200000D01*
X82212798Y-69193497D01*
X82211697Y-69182225D01*
X82196126Y-68885095D01*
X82146796Y-68573639D01*
X82065180Y-68269046D01*
X82039686Y-68202630D01*
X81953358Y-67977738D01*
X81952174Y-67974653D01*
X81809013Y-67693686D01*
X81637268Y-67429221D01*
X81438820Y-67184158D01*
X81215842Y-66961180D01*
X80970779Y-66762732D01*
X80706315Y-66590987D01*
X80703383Y-66589493D01*
X80703376Y-66589489D01*
X80428287Y-66449324D01*
X80425347Y-66447826D01*
X80130954Y-66334820D01*
X79826361Y-66253204D01*
X79651686Y-66225538D01*
X79518153Y-66204388D01*
X79518145Y-66204387D01*
X79514905Y-66203874D01*
X79354934Y-66195491D01*
X79233606Y-66189132D01*
X79219311Y-66187561D01*
X79212552Y-66186424D01*
X79211826Y-66186415D01*
X79210760Y-66186279D01*
X73310336Y-65202875D01*
X73310146Y-65202843D01*
X73217347Y-65187230D01*
X73217338Y-65187229D01*
X73212552Y-65186424D01*
X73206276Y-65186347D01*
X73204859Y-65186330D01*
X73204856Y-65186330D01*
X73200000Y-65186271D01*
X73195191Y-65186960D01*
X73195187Y-65186960D01*
X73194127Y-65187112D01*
X73193497Y-65187202D01*
X73182233Y-65188302D01*
X73152216Y-65189875D01*
X73149625Y-65189913D01*
X73148176Y-65190087D01*
X73147487Y-65190123D01*
X73138837Y-65189925D01*
X73138823Y-65189925D01*
X73138829Y-65189648D01*
X73135727Y-65189128D01*
X73135811Y-65190735D01*
X72885095Y-65203874D01*
X72881855Y-65204387D01*
X72881847Y-65204388D01*
X72739060Y-65227004D01*
X72573639Y-65253204D01*
X72269046Y-65334820D01*
X71974653Y-65447826D01*
X71693686Y-65590987D01*
X71429221Y-65762732D01*
X71184158Y-65961180D01*
X70961180Y-66184158D01*
X70762732Y-66429221D01*
X70590987Y-66693686D01*
X70447826Y-66974653D01*
X70334820Y-67269046D01*
X70253204Y-67573639D01*
X70203874Y-67885095D01*
X70203702Y-67888385D01*
X70188743Y-68173827D01*
X70187704Y-68183841D01*
X70187692Y-68184846D01*
X70186309Y-68193724D01*
X70188771Y-68212552D01*
X70190436Y-68225283D01*
X70191500Y-68241621D01*
X70191500Y-84150633D01*
X70190000Y-84170018D01*
X70186309Y-84193724D01*
X66548500Y-84193724D01*
X66548500Y-43039500D01*
X66568502Y-42971379D01*
X66622158Y-42924886D01*
X66674500Y-42913500D01*
X106045500Y-42913500D01*
X106113621Y-42933502D01*
G37*
G04 #@! TD.AperFunction*
M02*
