G04 #@! TF.GenerationSoftware,KiCad,Pcbnew,(6.0.9-0)*
G04 #@! TF.CreationDate,2023-02-07T08:36:36+01:00*
G04 #@! TF.ProjectId,fp_SDU460,66705f53-4455-4343-9630-2e6b69636164,A*
G04 #@! TF.SameCoordinates,Original*
G04 #@! TF.FileFunction,Profile,NP*
%FSLAX46Y46*%
G04 Gerber Fmt 4.6, Leading zero omitted, Abs format (unit mm)*
G04 Created by KiCad (PCBNEW (6.0.9-0)) date 2023-02-07 08:36:36*
%MOMM*%
%LPD*%
G01*
G04 APERTURE LIST*
G04 #@! TA.AperFunction,Profile*
%ADD10C,0.100000*%
G04 #@! TD*
G04 #@! TA.AperFunction,Profile*
%ADD11C,0.120000*%
G04 #@! TD*
G04 APERTURE END LIST*
D10*
X66040000Y-42405000D02*
X106680000Y-42405000D01*
X106680000Y-42405000D02*
X106680000Y-170955000D01*
X106680000Y-170955000D02*
X66040000Y-170955000D01*
X66040000Y-170955000D02*
X66040000Y-42405000D01*
X100770000Y-76200000D02*
G75*
G03*
X100770000Y-76200000I-4250000J0D01*
G01*
D11*
X73200000Y-65700000D02*
X79200000Y-66700000D01*
X70700000Y-84200000D02*
X70700000Y-68200000D01*
X81700000Y-83200000D02*
X81700000Y-69200000D01*
X73200000Y-86700000D02*
X79200000Y-85700000D01*
X73200000Y-65700000D02*
G75*
G03*
X70700000Y-68200000I0J-2500000D01*
G01*
X70700000Y-84200000D02*
G75*
G03*
X73200000Y-86700000I2500000J0D01*
G01*
X81700000Y-69200000D02*
G75*
G03*
X79200000Y-66700000I-2500000J0D01*
G01*
X79200000Y-85700000D02*
G75*
G03*
X81700000Y-83200000I0J2500000D01*
G01*
X102020000Y-145000000D02*
X102020000Y-109000000D01*
X93520000Y-105500000D02*
X99520000Y-106500000D01*
X91020000Y-108000000D02*
X91020000Y-146000000D01*
X93520000Y-148500000D02*
X99520000Y-147500000D01*
X102020000Y-109000000D02*
G75*
G03*
X99520000Y-106500000I-2500000J0D01*
G01*
X99520000Y-147500000D02*
G75*
G03*
X102020000Y-145000000I0J2500000D01*
G01*
X93520000Y-105500000D02*
G75*
G03*
X91020000Y-108000000I0J-2500000D01*
G01*
X91020000Y-146000000D02*
G75*
G03*
X93520000Y-148500000I2500000J0D01*
G01*
X81700000Y-134000000D02*
X81700000Y-120000000D01*
X73200000Y-137500000D02*
X79200000Y-136500000D01*
X73200000Y-116500000D02*
X79200000Y-117500000D01*
X70700000Y-135000000D02*
X70700000Y-119000000D01*
X70700000Y-135000000D02*
G75*
G03*
X73200000Y-137500000I2500000J0D01*
G01*
X79200000Y-136500000D02*
G75*
G03*
X81700000Y-134000000I0J2500000D01*
G01*
X73200000Y-116500000D02*
G75*
G03*
X70700000Y-119000000I0J-2500000D01*
G01*
X81700000Y-120000000D02*
G75*
G03*
X79200000Y-117500000I-2500000J0D01*
G01*
M02*
