G04 #@! TF.GenerationSoftware,KiCad,Pcbnew,(6.0.9-0)*
G04 #@! TF.CreationDate,2023-02-07T08:36:36+01:00*
G04 #@! TF.ProjectId,fp_SDU460,66705f53-4455-4343-9630-2e6b69636164,A*
G04 #@! TF.SameCoordinates,Original*
G04 #@! TF.FileFunction,Legend,Top*
G04 #@! TF.FilePolarity,Positive*
%FSLAX46Y46*%
G04 Gerber Fmt 4.6, Leading zero omitted, Abs format (unit mm)*
G04 Created by KiCad (PCBNEW (6.0.9-0)) date 2023-02-07 08:36:36*
%MOMM*%
%LPD*%
G01*
G04 APERTURE LIST*
%ADD10C,0.150000*%
%ADD11C,0.400000*%
%ADD12C,0.300000*%
%ADD13C,0.500000*%
%ADD14C,5.600000*%
%ADD15C,5.000000*%
G04 APERTURE END LIST*
D10*
X92710000Y-86360000D02*
X95250000Y-86360000D01*
X95250000Y-86360000D02*
X95250000Y-88900000D01*
X95250000Y-88900000D02*
X92710000Y-88900000D01*
X92710000Y-88900000D02*
X92710000Y-86360000D01*
G36*
X92710000Y-86360000D02*
G01*
X95250000Y-86360000D01*
X95250000Y-88900000D01*
X92710000Y-88900000D01*
X92710000Y-86360000D01*
G37*
X92710000Y-82550000D02*
X95250000Y-82550000D01*
X95250000Y-82550000D02*
X95250000Y-85090000D01*
X95250000Y-85090000D02*
X92710000Y-85090000D01*
X92710000Y-85090000D02*
X92710000Y-82550000D01*
G36*
X92710000Y-82550000D02*
G01*
X95250000Y-82550000D01*
X95250000Y-85090000D01*
X92710000Y-85090000D01*
X92710000Y-82550000D01*
G37*
D11*
X92234285Y-95520000D02*
X92043809Y-95424761D01*
X91758095Y-95424761D01*
X91472380Y-95520000D01*
X91281904Y-95710476D01*
X91186666Y-95900952D01*
X91091428Y-96281904D01*
X91091428Y-96567619D01*
X91186666Y-96948571D01*
X91281904Y-97139047D01*
X91472380Y-97329523D01*
X91758095Y-97424761D01*
X91948571Y-97424761D01*
X92234285Y-97329523D01*
X92329523Y-97234285D01*
X92329523Y-96567619D01*
X91948571Y-96567619D01*
X93186666Y-97424761D02*
X93186666Y-95424761D01*
X93948571Y-95424761D01*
X94139047Y-95520000D01*
X94234285Y-95615238D01*
X94329523Y-95805714D01*
X94329523Y-96091428D01*
X94234285Y-96281904D01*
X94139047Y-96377142D01*
X93948571Y-96472380D01*
X93186666Y-96472380D01*
X95186666Y-97424761D02*
X95186666Y-95424761D01*
X96520000Y-95424761D02*
X96900952Y-95424761D01*
X97091428Y-95520000D01*
X97281904Y-95710476D01*
X97377142Y-96091428D01*
X97377142Y-96758095D01*
X97281904Y-97139047D01*
X97091428Y-97329523D01*
X96900952Y-97424761D01*
X96520000Y-97424761D01*
X96329523Y-97329523D01*
X96139047Y-97139047D01*
X96043809Y-96758095D01*
X96043809Y-96091428D01*
X96139047Y-95710476D01*
X96329523Y-95520000D01*
X96520000Y-95424761D01*
X99758095Y-97424761D02*
X99758095Y-95424761D01*
X100710476Y-97424761D02*
X100710476Y-95424761D01*
X101853333Y-97424761D01*
X101853333Y-95424761D01*
D12*
X97821904Y-88534761D02*
X96679047Y-88534761D01*
X97250476Y-88534761D02*
X97250476Y-86534761D01*
X97060000Y-86820476D01*
X96869523Y-87010952D01*
X96679047Y-87106190D01*
X98583809Y-86725238D02*
X98679047Y-86630000D01*
X98869523Y-86534761D01*
X99345714Y-86534761D01*
X99536190Y-86630000D01*
X99631428Y-86725238D01*
X99726666Y-86915714D01*
X99726666Y-87106190D01*
X99631428Y-87391904D01*
X98488571Y-88534761D01*
X99726666Y-88534761D01*
X100298095Y-86534761D02*
X100964761Y-88534761D01*
X101631428Y-86534761D01*
D11*
X69771428Y-109077142D02*
X70438095Y-109077142D01*
X70723809Y-110124761D02*
X69771428Y-110124761D01*
X69771428Y-108124761D01*
X70723809Y-108124761D01*
X71580952Y-110124761D02*
X71580952Y-108124761D01*
X72723809Y-110124761D01*
X72723809Y-108124761D01*
X74819047Y-109934285D02*
X74723809Y-110029523D01*
X74438095Y-110124761D01*
X74247619Y-110124761D01*
X73961904Y-110029523D01*
X73771428Y-109839047D01*
X73676190Y-109648571D01*
X73580952Y-109267619D01*
X73580952Y-108981904D01*
X73676190Y-108600952D01*
X73771428Y-108410476D01*
X73961904Y-108220000D01*
X74247619Y-108124761D01*
X74438095Y-108124761D01*
X74723809Y-108220000D01*
X74819047Y-108315238D01*
X76057142Y-108124761D02*
X76438095Y-108124761D01*
X76628571Y-108220000D01*
X76819047Y-108410476D01*
X76914285Y-108791428D01*
X76914285Y-109458095D01*
X76819047Y-109839047D01*
X76628571Y-110029523D01*
X76438095Y-110124761D01*
X76057142Y-110124761D01*
X75866666Y-110029523D01*
X75676190Y-109839047D01*
X75580952Y-109458095D01*
X75580952Y-108791428D01*
X75676190Y-108410476D01*
X75866666Y-108220000D01*
X76057142Y-108124761D01*
X77771428Y-110124761D02*
X77771428Y-108124761D01*
X78247619Y-108124761D01*
X78533333Y-108220000D01*
X78723809Y-108410476D01*
X78819047Y-108600952D01*
X78914285Y-108981904D01*
X78914285Y-109267619D01*
X78819047Y-109648571D01*
X78723809Y-109839047D01*
X78533333Y-110029523D01*
X78247619Y-110124761D01*
X77771428Y-110124761D01*
X79771428Y-109077142D02*
X80438095Y-109077142D01*
X80723809Y-110124761D02*
X79771428Y-110124761D01*
X79771428Y-108124761D01*
X80723809Y-108124761D01*
X82723809Y-110124761D02*
X82057142Y-109172380D01*
X81580952Y-110124761D02*
X81580952Y-108124761D01*
X82342857Y-108124761D01*
X82533333Y-108220000D01*
X82628571Y-108315238D01*
X82723809Y-108505714D01*
X82723809Y-108791428D01*
X82628571Y-108981904D01*
X82533333Y-109077142D01*
X82342857Y-109172380D01*
X81580952Y-109172380D01*
X90472380Y-68437142D02*
X91139047Y-68437142D01*
X91424761Y-69484761D02*
X90472380Y-69484761D01*
X90472380Y-67484761D01*
X91424761Y-67484761D01*
X92091428Y-67484761D02*
X93424761Y-69484761D01*
X93424761Y-67484761D02*
X92091428Y-69484761D01*
X93900952Y-67484761D02*
X95043809Y-67484761D01*
X94472380Y-69484761D02*
X94472380Y-67484761D01*
X97234285Y-69484761D02*
X97234285Y-67484761D01*
X97996190Y-67484761D01*
X98186666Y-67580000D01*
X98281904Y-67675238D01*
X98377142Y-67865714D01*
X98377142Y-68151428D01*
X98281904Y-68341904D01*
X98186666Y-68437142D01*
X97996190Y-68532380D01*
X97234285Y-68532380D01*
X99043809Y-67484761D02*
X99520000Y-69484761D01*
X99900952Y-68056190D01*
X100281904Y-69484761D01*
X100758095Y-67484761D01*
X102662857Y-69484761D02*
X101996190Y-68532380D01*
X101520000Y-69484761D02*
X101520000Y-67484761D01*
X102281904Y-67484761D01*
X102472380Y-67580000D01*
X102567619Y-67675238D01*
X102662857Y-67865714D01*
X102662857Y-68151428D01*
X102567619Y-68341904D01*
X102472380Y-68437142D01*
X102281904Y-68532380D01*
X101520000Y-68532380D01*
D13*
X78145714Y-53284285D02*
X78574285Y-53427142D01*
X79288571Y-53427142D01*
X79574285Y-53284285D01*
X79717142Y-53141428D01*
X79860000Y-52855714D01*
X79860000Y-52570000D01*
X79717142Y-52284285D01*
X79574285Y-52141428D01*
X79288571Y-51998571D01*
X78717142Y-51855714D01*
X78431428Y-51712857D01*
X78288571Y-51570000D01*
X78145714Y-51284285D01*
X78145714Y-50998571D01*
X78288571Y-50712857D01*
X78431428Y-50570000D01*
X78717142Y-50427142D01*
X79431428Y-50427142D01*
X79860000Y-50570000D01*
X81145714Y-53427142D02*
X81145714Y-50427142D01*
X81860000Y-50427142D01*
X82288571Y-50570000D01*
X82574285Y-50855714D01*
X82717142Y-51141428D01*
X82860000Y-51712857D01*
X82860000Y-52141428D01*
X82717142Y-52712857D01*
X82574285Y-52998571D01*
X82288571Y-53284285D01*
X81860000Y-53427142D01*
X81145714Y-53427142D01*
X84145714Y-50427142D02*
X84145714Y-52855714D01*
X84288571Y-53141428D01*
X84431428Y-53284285D01*
X84717142Y-53427142D01*
X85288571Y-53427142D01*
X85574285Y-53284285D01*
X85717142Y-53141428D01*
X85860000Y-52855714D01*
X85860000Y-50427142D01*
X88574285Y-51427142D02*
X88574285Y-53427142D01*
X87860000Y-50284285D02*
X87145714Y-52427142D01*
X89002857Y-52427142D01*
X91431428Y-50427142D02*
X90860000Y-50427142D01*
X90574285Y-50570000D01*
X90431428Y-50712857D01*
X90145714Y-51141428D01*
X90002857Y-51712857D01*
X90002857Y-52855714D01*
X90145714Y-53141428D01*
X90288571Y-53284285D01*
X90574285Y-53427142D01*
X91145714Y-53427142D01*
X91431428Y-53284285D01*
X91574285Y-53141428D01*
X91717142Y-52855714D01*
X91717142Y-52141428D01*
X91574285Y-51855714D01*
X91431428Y-51712857D01*
X91145714Y-51570000D01*
X90574285Y-51570000D01*
X90288571Y-51712857D01*
X90145714Y-51855714D01*
X90002857Y-52141428D01*
X93574285Y-50427142D02*
X93860000Y-50427142D01*
X94145714Y-50570000D01*
X94288571Y-50712857D01*
X94431428Y-50998571D01*
X94574285Y-51570000D01*
X94574285Y-52284285D01*
X94431428Y-52855714D01*
X94288571Y-53141428D01*
X94145714Y-53284285D01*
X93860000Y-53427142D01*
X93574285Y-53427142D01*
X93288571Y-53284285D01*
X93145714Y-53141428D01*
X93002857Y-52855714D01*
X92860000Y-52284285D01*
X92860000Y-51570000D01*
X93002857Y-50998571D01*
X93145714Y-50712857D01*
X93288571Y-50570000D01*
X93574285Y-50427142D01*
D12*
X99440952Y-82724761D02*
X98488571Y-82724761D01*
X98393333Y-83677142D01*
X98488571Y-83581904D01*
X98679047Y-83486666D01*
X99155238Y-83486666D01*
X99345714Y-83581904D01*
X99440952Y-83677142D01*
X99536190Y-83867619D01*
X99536190Y-84343809D01*
X99440952Y-84534285D01*
X99345714Y-84629523D01*
X99155238Y-84724761D01*
X98679047Y-84724761D01*
X98488571Y-84629523D01*
X98393333Y-84534285D01*
X100107619Y-82724761D02*
X100774285Y-84724761D01*
X101440952Y-82724761D01*
D11*
X69771428Y-58277142D02*
X70438095Y-58277142D01*
X70723809Y-59324761D02*
X69771428Y-59324761D01*
X69771428Y-57324761D01*
X70723809Y-57324761D01*
X71580952Y-59324761D02*
X71580952Y-57324761D01*
X72723809Y-59324761D01*
X72723809Y-57324761D01*
X74819047Y-59134285D02*
X74723809Y-59229523D01*
X74438095Y-59324761D01*
X74247619Y-59324761D01*
X73961904Y-59229523D01*
X73771428Y-59039047D01*
X73676190Y-58848571D01*
X73580952Y-58467619D01*
X73580952Y-58181904D01*
X73676190Y-57800952D01*
X73771428Y-57610476D01*
X73961904Y-57420000D01*
X74247619Y-57324761D01*
X74438095Y-57324761D01*
X74723809Y-57420000D01*
X74819047Y-57515238D01*
X76057142Y-57324761D02*
X76438095Y-57324761D01*
X76628571Y-57420000D01*
X76819047Y-57610476D01*
X76914285Y-57991428D01*
X76914285Y-58658095D01*
X76819047Y-59039047D01*
X76628571Y-59229523D01*
X76438095Y-59324761D01*
X76057142Y-59324761D01*
X75866666Y-59229523D01*
X75676190Y-59039047D01*
X75580952Y-58658095D01*
X75580952Y-57991428D01*
X75676190Y-57610476D01*
X75866666Y-57420000D01*
X76057142Y-57324761D01*
X77771428Y-59324761D02*
X77771428Y-57324761D01*
X78247619Y-57324761D01*
X78533333Y-57420000D01*
X78723809Y-57610476D01*
X78819047Y-57800952D01*
X78914285Y-58181904D01*
X78914285Y-58467619D01*
X78819047Y-58848571D01*
X78723809Y-59039047D01*
X78533333Y-59229523D01*
X78247619Y-59324761D01*
X77771428Y-59324761D01*
X79771428Y-58277142D02*
X80438095Y-58277142D01*
X80723809Y-59324761D02*
X79771428Y-59324761D01*
X79771428Y-57324761D01*
X80723809Y-57324761D01*
X82723809Y-59324761D02*
X82057142Y-58372380D01*
X81580952Y-59324761D02*
X81580952Y-57324761D01*
X82342857Y-57324761D01*
X82533333Y-57420000D01*
X82628571Y-57515238D01*
X82723809Y-57705714D01*
X82723809Y-57991428D01*
X82628571Y-58181904D01*
X82533333Y-58277142D01*
X82342857Y-58372380D01*
X81580952Y-58372380D01*
%LPC*%
D14*
X99060000Y-167930000D03*
D15*
X76200000Y-63700000D03*
X76200000Y-88700000D03*
D14*
X73660000Y-45430000D03*
X73660000Y-167930000D03*
X99060000Y-45430000D03*
D15*
X96520000Y-150500000D03*
X96520000Y-103500000D03*
X76200000Y-114500000D03*
X76200000Y-139500000D03*
M02*
