%TF.GenerationSoftware,KiCad,Pcbnew,(6.0.9-0)*%
%TF.CreationDate,2023-02-07T08:35:18+01:00*%
%TF.ProjectId,fp_da20_controls,66705f64-6132-4305-9f63-6f6e74726f6c,A*%
%TF.SameCoordinates,Original*%
%TF.FileFunction,Drillmap*%
%TF.FilePolarity,Positive*%
%FSLAX45Y45*%
G04 Gerber Fmt 4.5, Leading zero omitted, Abs format (unit mm)*
G04 Created by KiCad (PCBNEW (6.0.9-0)) date 2023-02-07 08:35:18*
%MOMM*%
%LPD*%
G01*
G04 APERTURE LIST*
%ADD10C,0.100000*%
%ADD11C,0.200000*%
%ADD12C,0.300000*%
%ADD13C,0.320000*%
G04 APERTURE END LIST*
D10*
X9061000Y-7112000D02*
G75*
G03*
X9061000Y-7112000I-425000J0D01*
G01*
X5588000Y-3732500D02*
X9652000Y-3732500D01*
X9652000Y-3732500D02*
X9652000Y-16587500D01*
X9652000Y-16587500D02*
X5588000Y-16587500D01*
X5588000Y-16587500D02*
X5588000Y-3732500D01*
D11*
D12*
X6454000Y-10200000D02*
X6754000Y-10500000D01*
X6754000Y-10200000D02*
X6454000Y-10500000D01*
X6454000Y-14900000D02*
X6754000Y-15200000D01*
X6754000Y-14900000D02*
X6454000Y-15200000D01*
X8486000Y-10890000D02*
X8786000Y-11190000D01*
X8786000Y-10890000D02*
X8486000Y-11190000D01*
X8486000Y-14210000D02*
X8786000Y-14510000D01*
X8786000Y-14210000D02*
X8486000Y-14510000D01*
D13*
X6510000Y-4035000D02*
G75*
G03*
X6510000Y-4035000I-160000J0D01*
G01*
X6510000Y-16285000D02*
G75*
G03*
X6510000Y-16285000I-160000J0D01*
G01*
X9050000Y-4035000D02*
G75*
G03*
X9050000Y-4035000I-160000J0D01*
G01*
X9050000Y-16285000D02*
G75*
G03*
X9050000Y-16285000I-160000J0D01*
G01*
D11*
X5840619Y-16902976D02*
X5840619Y-16702976D01*
X5888238Y-16702976D01*
X5916809Y-16712500D01*
X5935857Y-16731548D01*
X5945381Y-16750595D01*
X5954905Y-16788690D01*
X5954905Y-16817262D01*
X5945381Y-16855357D01*
X5935857Y-16874405D01*
X5916809Y-16893452D01*
X5888238Y-16902976D01*
X5840619Y-16902976D01*
X6040619Y-16902976D02*
X6040619Y-16769643D01*
X6040619Y-16807738D02*
X6050143Y-16788690D01*
X6059667Y-16779167D01*
X6078714Y-16769643D01*
X6097762Y-16769643D01*
X6164428Y-16902976D02*
X6164428Y-16769643D01*
X6164428Y-16702976D02*
X6154905Y-16712500D01*
X6164428Y-16722024D01*
X6173952Y-16712500D01*
X6164428Y-16702976D01*
X6164428Y-16722024D01*
X6288238Y-16902976D02*
X6269190Y-16893452D01*
X6259667Y-16874405D01*
X6259667Y-16702976D01*
X6393000Y-16902976D02*
X6373952Y-16893452D01*
X6364428Y-16874405D01*
X6364428Y-16702976D01*
X6621571Y-16902976D02*
X6621571Y-16702976D01*
X6688238Y-16845833D01*
X6754905Y-16702976D01*
X6754905Y-16902976D01*
X6935857Y-16902976D02*
X6935857Y-16798214D01*
X6926333Y-16779167D01*
X6907286Y-16769643D01*
X6869190Y-16769643D01*
X6850143Y-16779167D01*
X6935857Y-16893452D02*
X6916809Y-16902976D01*
X6869190Y-16902976D01*
X6850143Y-16893452D01*
X6840619Y-16874405D01*
X6840619Y-16855357D01*
X6850143Y-16836310D01*
X6869190Y-16826786D01*
X6916809Y-16826786D01*
X6935857Y-16817262D01*
X7031095Y-16769643D02*
X7031095Y-16969643D01*
X7031095Y-16779167D02*
X7050143Y-16769643D01*
X7088238Y-16769643D01*
X7107286Y-16779167D01*
X7116809Y-16788690D01*
X7126333Y-16807738D01*
X7126333Y-16864881D01*
X7116809Y-16883929D01*
X7107286Y-16893452D01*
X7088238Y-16902976D01*
X7050143Y-16902976D01*
X7031095Y-16893452D01*
X7212048Y-16883929D02*
X7221571Y-16893452D01*
X7212048Y-16902976D01*
X7202524Y-16893452D01*
X7212048Y-16883929D01*
X7212048Y-16902976D01*
X7212048Y-16779167D02*
X7221571Y-16788690D01*
X7212048Y-16798214D01*
X7202524Y-16788690D01*
X7212048Y-16779167D01*
X7212048Y-16798214D01*
X5383000Y-17132500D02*
X5583000Y-17332500D01*
X5583000Y-17132500D02*
X5383000Y-17332500D01*
X5821571Y-17122976D02*
X5945381Y-17122976D01*
X5878714Y-17199167D01*
X5907286Y-17199167D01*
X5926333Y-17208690D01*
X5935857Y-17218214D01*
X5945381Y-17237262D01*
X5945381Y-17284881D01*
X5935857Y-17303929D01*
X5926333Y-17313452D01*
X5907286Y-17322976D01*
X5850143Y-17322976D01*
X5831095Y-17313452D01*
X5821571Y-17303929D01*
X6031095Y-17303929D02*
X6040619Y-17313452D01*
X6031095Y-17322976D01*
X6021571Y-17313452D01*
X6031095Y-17303929D01*
X6031095Y-17322976D01*
X6164428Y-17122976D02*
X6183476Y-17122976D01*
X6202524Y-17132500D01*
X6212048Y-17142024D01*
X6221571Y-17161071D01*
X6231095Y-17199167D01*
X6231095Y-17246786D01*
X6221571Y-17284881D01*
X6212048Y-17303929D01*
X6202524Y-17313452D01*
X6183476Y-17322976D01*
X6164428Y-17322976D01*
X6145381Y-17313452D01*
X6135857Y-17303929D01*
X6126333Y-17284881D01*
X6116809Y-17246786D01*
X6116809Y-17199167D01*
X6126333Y-17161071D01*
X6135857Y-17142024D01*
X6145381Y-17132500D01*
X6164428Y-17122976D01*
X6354905Y-17122976D02*
X6373952Y-17122976D01*
X6393000Y-17132500D01*
X6402524Y-17142024D01*
X6412048Y-17161071D01*
X6421571Y-17199167D01*
X6421571Y-17246786D01*
X6412048Y-17284881D01*
X6402524Y-17303929D01*
X6393000Y-17313452D01*
X6373952Y-17322976D01*
X6354905Y-17322976D01*
X6335857Y-17313452D01*
X6326333Y-17303929D01*
X6316809Y-17284881D01*
X6307286Y-17246786D01*
X6307286Y-17199167D01*
X6316809Y-17161071D01*
X6326333Y-17142024D01*
X6335857Y-17132500D01*
X6354905Y-17122976D01*
X6545381Y-17122976D02*
X6564428Y-17122976D01*
X6583476Y-17132500D01*
X6593000Y-17142024D01*
X6602524Y-17161071D01*
X6612048Y-17199167D01*
X6612048Y-17246786D01*
X6602524Y-17284881D01*
X6593000Y-17303929D01*
X6583476Y-17313452D01*
X6564428Y-17322976D01*
X6545381Y-17322976D01*
X6526333Y-17313452D01*
X6516809Y-17303929D01*
X6507286Y-17284881D01*
X6497762Y-17246786D01*
X6497762Y-17199167D01*
X6507286Y-17161071D01*
X6516809Y-17142024D01*
X6526333Y-17132500D01*
X6545381Y-17122976D01*
X6697762Y-17322976D02*
X6697762Y-17189643D01*
X6697762Y-17208690D02*
X6707286Y-17199167D01*
X6726333Y-17189643D01*
X6754905Y-17189643D01*
X6773952Y-17199167D01*
X6783476Y-17218214D01*
X6783476Y-17322976D01*
X6783476Y-17218214D02*
X6793000Y-17199167D01*
X6812048Y-17189643D01*
X6840619Y-17189643D01*
X6859667Y-17199167D01*
X6869190Y-17218214D01*
X6869190Y-17322976D01*
X6964428Y-17322976D02*
X6964428Y-17189643D01*
X6964428Y-17208690D02*
X6973952Y-17199167D01*
X6993000Y-17189643D01*
X7021571Y-17189643D01*
X7040619Y-17199167D01*
X7050143Y-17218214D01*
X7050143Y-17322976D01*
X7050143Y-17218214D02*
X7059667Y-17199167D01*
X7078714Y-17189643D01*
X7107286Y-17189643D01*
X7126333Y-17199167D01*
X7135857Y-17218214D01*
X7135857Y-17322976D01*
X7526333Y-17113452D02*
X7354905Y-17370595D01*
X7783476Y-17122976D02*
X7802524Y-17122976D01*
X7821571Y-17132500D01*
X7831095Y-17142024D01*
X7840619Y-17161071D01*
X7850143Y-17199167D01*
X7850143Y-17246786D01*
X7840619Y-17284881D01*
X7831095Y-17303929D01*
X7821571Y-17313452D01*
X7802524Y-17322976D01*
X7783476Y-17322976D01*
X7764428Y-17313452D01*
X7754905Y-17303929D01*
X7745381Y-17284881D01*
X7735857Y-17246786D01*
X7735857Y-17199167D01*
X7745381Y-17161071D01*
X7754905Y-17142024D01*
X7764428Y-17132500D01*
X7783476Y-17122976D01*
X7935857Y-17303929D02*
X7945381Y-17313452D01*
X7935857Y-17322976D01*
X7926333Y-17313452D01*
X7935857Y-17303929D01*
X7935857Y-17322976D01*
X8135857Y-17322976D02*
X8021571Y-17322976D01*
X8078714Y-17322976D02*
X8078714Y-17122976D01*
X8059667Y-17151548D01*
X8040619Y-17170595D01*
X8021571Y-17180119D01*
X8326333Y-17322976D02*
X8212048Y-17322976D01*
X8269190Y-17322976D02*
X8269190Y-17122976D01*
X8250143Y-17151548D01*
X8231095Y-17170595D01*
X8212048Y-17180119D01*
X8440619Y-17208690D02*
X8421571Y-17199167D01*
X8412048Y-17189643D01*
X8402524Y-17170595D01*
X8402524Y-17161071D01*
X8412048Y-17142024D01*
X8421571Y-17132500D01*
X8440619Y-17122976D01*
X8478714Y-17122976D01*
X8497762Y-17132500D01*
X8507286Y-17142024D01*
X8516810Y-17161071D01*
X8516810Y-17170595D01*
X8507286Y-17189643D01*
X8497762Y-17199167D01*
X8478714Y-17208690D01*
X8440619Y-17208690D01*
X8421571Y-17218214D01*
X8412048Y-17227738D01*
X8402524Y-17246786D01*
X8402524Y-17284881D01*
X8412048Y-17303929D01*
X8421571Y-17313452D01*
X8440619Y-17322976D01*
X8478714Y-17322976D01*
X8497762Y-17313452D01*
X8507286Y-17303929D01*
X8516810Y-17284881D01*
X8516810Y-17246786D01*
X8507286Y-17227738D01*
X8497762Y-17218214D01*
X8478714Y-17208690D01*
X8707286Y-17322976D02*
X8593000Y-17322976D01*
X8650143Y-17322976D02*
X8650143Y-17122976D01*
X8631095Y-17151548D01*
X8612048Y-17170595D01*
X8593000Y-17180119D01*
X8783476Y-17122976D02*
X8783476Y-17161071D01*
X8859667Y-17122976D02*
X8859667Y-17161071D01*
X9154905Y-17399167D02*
X9145381Y-17389643D01*
X9126333Y-17361071D01*
X9116810Y-17342024D01*
X9107286Y-17313452D01*
X9097762Y-17265833D01*
X9097762Y-17227738D01*
X9107286Y-17180119D01*
X9116810Y-17151548D01*
X9126333Y-17132500D01*
X9145381Y-17103929D01*
X9154905Y-17094405D01*
X9316810Y-17189643D02*
X9316810Y-17322976D01*
X9269190Y-17113452D02*
X9221571Y-17256310D01*
X9345381Y-17256310D01*
X9573952Y-17322976D02*
X9573952Y-17122976D01*
X9659667Y-17322976D02*
X9659667Y-17218214D01*
X9650143Y-17199167D01*
X9631095Y-17189643D01*
X9602524Y-17189643D01*
X9583476Y-17199167D01*
X9573952Y-17208690D01*
X9783476Y-17322976D02*
X9764429Y-17313452D01*
X9754905Y-17303929D01*
X9745381Y-17284881D01*
X9745381Y-17227738D01*
X9754905Y-17208690D01*
X9764429Y-17199167D01*
X9783476Y-17189643D01*
X9812048Y-17189643D01*
X9831095Y-17199167D01*
X9840619Y-17208690D01*
X9850143Y-17227738D01*
X9850143Y-17284881D01*
X9840619Y-17303929D01*
X9831095Y-17313452D01*
X9812048Y-17322976D01*
X9783476Y-17322976D01*
X9964429Y-17322976D02*
X9945381Y-17313452D01*
X9935857Y-17294405D01*
X9935857Y-17122976D01*
X10116810Y-17313452D02*
X10097762Y-17322976D01*
X10059667Y-17322976D01*
X10040619Y-17313452D01*
X10031095Y-17294405D01*
X10031095Y-17218214D01*
X10040619Y-17199167D01*
X10059667Y-17189643D01*
X10097762Y-17189643D01*
X10116810Y-17199167D01*
X10126333Y-17218214D01*
X10126333Y-17237262D01*
X10031095Y-17256310D01*
X10202524Y-17313452D02*
X10221571Y-17322976D01*
X10259667Y-17322976D01*
X10278714Y-17313452D01*
X10288238Y-17294405D01*
X10288238Y-17284881D01*
X10278714Y-17265833D01*
X10259667Y-17256310D01*
X10231095Y-17256310D01*
X10212048Y-17246786D01*
X10202524Y-17227738D01*
X10202524Y-17218214D01*
X10212048Y-17199167D01*
X10231095Y-17189643D01*
X10259667Y-17189643D01*
X10278714Y-17199167D01*
X10354905Y-17399167D02*
X10364429Y-17389643D01*
X10383476Y-17361071D01*
X10393000Y-17342024D01*
X10402524Y-17313452D01*
X10412048Y-17265833D01*
X10412048Y-17227738D01*
X10402524Y-17180119D01*
X10393000Y-17151548D01*
X10383476Y-17132500D01*
X10364429Y-17103929D01*
X10354905Y-17094405D01*
X5583000Y-17552500D02*
G75*
G03*
X5583000Y-17552500I-100000J0D01*
G01*
X5821571Y-17442976D02*
X5945381Y-17442976D01*
X5878714Y-17519167D01*
X5907286Y-17519167D01*
X5926333Y-17528690D01*
X5935857Y-17538214D01*
X5945381Y-17557262D01*
X5945381Y-17604881D01*
X5935857Y-17623929D01*
X5926333Y-17633452D01*
X5907286Y-17642976D01*
X5850143Y-17642976D01*
X5831095Y-17633452D01*
X5821571Y-17623929D01*
X6031095Y-17623929D02*
X6040619Y-17633452D01*
X6031095Y-17642976D01*
X6021571Y-17633452D01*
X6031095Y-17623929D01*
X6031095Y-17642976D01*
X6116809Y-17462024D02*
X6126333Y-17452500D01*
X6145381Y-17442976D01*
X6193000Y-17442976D01*
X6212048Y-17452500D01*
X6221571Y-17462024D01*
X6231095Y-17481071D01*
X6231095Y-17500119D01*
X6221571Y-17528690D01*
X6107286Y-17642976D01*
X6231095Y-17642976D01*
X6354905Y-17442976D02*
X6373952Y-17442976D01*
X6393000Y-17452500D01*
X6402524Y-17462024D01*
X6412048Y-17481071D01*
X6421571Y-17519167D01*
X6421571Y-17566786D01*
X6412048Y-17604881D01*
X6402524Y-17623929D01*
X6393000Y-17633452D01*
X6373952Y-17642976D01*
X6354905Y-17642976D01*
X6335857Y-17633452D01*
X6326333Y-17623929D01*
X6316809Y-17604881D01*
X6307286Y-17566786D01*
X6307286Y-17519167D01*
X6316809Y-17481071D01*
X6326333Y-17462024D01*
X6335857Y-17452500D01*
X6354905Y-17442976D01*
X6545381Y-17442976D02*
X6564428Y-17442976D01*
X6583476Y-17452500D01*
X6593000Y-17462024D01*
X6602524Y-17481071D01*
X6612048Y-17519167D01*
X6612048Y-17566786D01*
X6602524Y-17604881D01*
X6593000Y-17623929D01*
X6583476Y-17633452D01*
X6564428Y-17642976D01*
X6545381Y-17642976D01*
X6526333Y-17633452D01*
X6516809Y-17623929D01*
X6507286Y-17604881D01*
X6497762Y-17566786D01*
X6497762Y-17519167D01*
X6507286Y-17481071D01*
X6516809Y-17462024D01*
X6526333Y-17452500D01*
X6545381Y-17442976D01*
X6697762Y-17642976D02*
X6697762Y-17509643D01*
X6697762Y-17528690D02*
X6707286Y-17519167D01*
X6726333Y-17509643D01*
X6754905Y-17509643D01*
X6773952Y-17519167D01*
X6783476Y-17538214D01*
X6783476Y-17642976D01*
X6783476Y-17538214D02*
X6793000Y-17519167D01*
X6812048Y-17509643D01*
X6840619Y-17509643D01*
X6859667Y-17519167D01*
X6869190Y-17538214D01*
X6869190Y-17642976D01*
X6964428Y-17642976D02*
X6964428Y-17509643D01*
X6964428Y-17528690D02*
X6973952Y-17519167D01*
X6993000Y-17509643D01*
X7021571Y-17509643D01*
X7040619Y-17519167D01*
X7050143Y-17538214D01*
X7050143Y-17642976D01*
X7050143Y-17538214D02*
X7059667Y-17519167D01*
X7078714Y-17509643D01*
X7107286Y-17509643D01*
X7126333Y-17519167D01*
X7135857Y-17538214D01*
X7135857Y-17642976D01*
X7526333Y-17433452D02*
X7354905Y-17690595D01*
X7783476Y-17442976D02*
X7802524Y-17442976D01*
X7821571Y-17452500D01*
X7831095Y-17462024D01*
X7840619Y-17481071D01*
X7850143Y-17519167D01*
X7850143Y-17566786D01*
X7840619Y-17604881D01*
X7831095Y-17623929D01*
X7821571Y-17633452D01*
X7802524Y-17642976D01*
X7783476Y-17642976D01*
X7764428Y-17633452D01*
X7754905Y-17623929D01*
X7745381Y-17604881D01*
X7735857Y-17566786D01*
X7735857Y-17519167D01*
X7745381Y-17481071D01*
X7754905Y-17462024D01*
X7764428Y-17452500D01*
X7783476Y-17442976D01*
X7935857Y-17623929D02*
X7945381Y-17633452D01*
X7935857Y-17642976D01*
X7926333Y-17633452D01*
X7935857Y-17623929D01*
X7935857Y-17642976D01*
X8135857Y-17642976D02*
X8021571Y-17642976D01*
X8078714Y-17642976D02*
X8078714Y-17442976D01*
X8059667Y-17471548D01*
X8040619Y-17490595D01*
X8021571Y-17500119D01*
X8212048Y-17462024D02*
X8221571Y-17452500D01*
X8240619Y-17442976D01*
X8288238Y-17442976D01*
X8307286Y-17452500D01*
X8316809Y-17462024D01*
X8326333Y-17481071D01*
X8326333Y-17500119D01*
X8316809Y-17528690D01*
X8202524Y-17642976D01*
X8326333Y-17642976D01*
X8497762Y-17442976D02*
X8459667Y-17442976D01*
X8440619Y-17452500D01*
X8431095Y-17462024D01*
X8412048Y-17490595D01*
X8402524Y-17528690D01*
X8402524Y-17604881D01*
X8412048Y-17623929D01*
X8421571Y-17633452D01*
X8440619Y-17642976D01*
X8478714Y-17642976D01*
X8497762Y-17633452D01*
X8507286Y-17623929D01*
X8516810Y-17604881D01*
X8516810Y-17557262D01*
X8507286Y-17538214D01*
X8497762Y-17528690D01*
X8478714Y-17519167D01*
X8440619Y-17519167D01*
X8421571Y-17528690D01*
X8412048Y-17538214D01*
X8402524Y-17557262D01*
X8640619Y-17442976D02*
X8659667Y-17442976D01*
X8678714Y-17452500D01*
X8688238Y-17462024D01*
X8697762Y-17481071D01*
X8707286Y-17519167D01*
X8707286Y-17566786D01*
X8697762Y-17604881D01*
X8688238Y-17623929D01*
X8678714Y-17633452D01*
X8659667Y-17642976D01*
X8640619Y-17642976D01*
X8621571Y-17633452D01*
X8612048Y-17623929D01*
X8602524Y-17604881D01*
X8593000Y-17566786D01*
X8593000Y-17519167D01*
X8602524Y-17481071D01*
X8612048Y-17462024D01*
X8621571Y-17452500D01*
X8640619Y-17442976D01*
X8783476Y-17442976D02*
X8783476Y-17481071D01*
X8859667Y-17442976D02*
X8859667Y-17481071D01*
X9154905Y-17719167D02*
X9145381Y-17709643D01*
X9126333Y-17681071D01*
X9116810Y-17662024D01*
X9107286Y-17633452D01*
X9097762Y-17585833D01*
X9097762Y-17547738D01*
X9107286Y-17500119D01*
X9116810Y-17471548D01*
X9126333Y-17452500D01*
X9145381Y-17423929D01*
X9154905Y-17414405D01*
X9316810Y-17509643D02*
X9316810Y-17642976D01*
X9269190Y-17433452D02*
X9221571Y-17576310D01*
X9345381Y-17576310D01*
X9573952Y-17642976D02*
X9573952Y-17442976D01*
X9659667Y-17642976D02*
X9659667Y-17538214D01*
X9650143Y-17519167D01*
X9631095Y-17509643D01*
X9602524Y-17509643D01*
X9583476Y-17519167D01*
X9573952Y-17528690D01*
X9783476Y-17642976D02*
X9764429Y-17633452D01*
X9754905Y-17623929D01*
X9745381Y-17604881D01*
X9745381Y-17547738D01*
X9754905Y-17528690D01*
X9764429Y-17519167D01*
X9783476Y-17509643D01*
X9812048Y-17509643D01*
X9831095Y-17519167D01*
X9840619Y-17528690D01*
X9850143Y-17547738D01*
X9850143Y-17604881D01*
X9840619Y-17623929D01*
X9831095Y-17633452D01*
X9812048Y-17642976D01*
X9783476Y-17642976D01*
X9964429Y-17642976D02*
X9945381Y-17633452D01*
X9935857Y-17614405D01*
X9935857Y-17442976D01*
X10116810Y-17633452D02*
X10097762Y-17642976D01*
X10059667Y-17642976D01*
X10040619Y-17633452D01*
X10031095Y-17614405D01*
X10031095Y-17538214D01*
X10040619Y-17519167D01*
X10059667Y-17509643D01*
X10097762Y-17509643D01*
X10116810Y-17519167D01*
X10126333Y-17538214D01*
X10126333Y-17557262D01*
X10031095Y-17576310D01*
X10202524Y-17633452D02*
X10221571Y-17642976D01*
X10259667Y-17642976D01*
X10278714Y-17633452D01*
X10288238Y-17614405D01*
X10288238Y-17604881D01*
X10278714Y-17585833D01*
X10259667Y-17576310D01*
X10231095Y-17576310D01*
X10212048Y-17566786D01*
X10202524Y-17547738D01*
X10202524Y-17538214D01*
X10212048Y-17519167D01*
X10231095Y-17509643D01*
X10259667Y-17509643D01*
X10278714Y-17519167D01*
X10354905Y-17719167D02*
X10364429Y-17709643D01*
X10383476Y-17681071D01*
X10393000Y-17662024D01*
X10402524Y-17633452D01*
X10412048Y-17585833D01*
X10412048Y-17547738D01*
X10402524Y-17500119D01*
X10393000Y-17471548D01*
X10383476Y-17452500D01*
X10364429Y-17423929D01*
X10354905Y-17414405D01*
M02*
