G04 #@! TF.GenerationSoftware,KiCad,Pcbnew,(6.0.9-0)*
G04 #@! TF.CreationDate,2023-02-07T08:34:20+01:00*
G04 #@! TF.ProjectId,Cockpit-CPU-Card,436f636b-7069-4742-9d43-50552d436172,A*
G04 #@! TF.SameCoordinates,Original*
G04 #@! TF.FileFunction,Paste,Top*
G04 #@! TF.FilePolarity,Positive*
%FSLAX46Y46*%
G04 Gerber Fmt 4.6, Leading zero omitted, Abs format (unit mm)*
G04 Created by KiCad (PCBNEW (6.0.9-0)) date 2023-02-07 08:34:20*
%MOMM*%
%LPD*%
G01*
G04 APERTURE LIST*
G04 Aperture macros list*
%AMRoundRect*
0 Rectangle with rounded corners*
0 $1 Rounding radius*
0 $2 $3 $4 $5 $6 $7 $8 $9 X,Y pos of 4 corners*
0 Add a 4 corners polygon primitive as box body*
4,1,4,$2,$3,$4,$5,$6,$7,$8,$9,$2,$3,0*
0 Add four circle primitives for the rounded corners*
1,1,$1+$1,$2,$3*
1,1,$1+$1,$4,$5*
1,1,$1+$1,$6,$7*
1,1,$1+$1,$8,$9*
0 Add four rect primitives between the rounded corners*
20,1,$1+$1,$2,$3,$4,$5,0*
20,1,$1+$1,$4,$5,$6,$7,0*
20,1,$1+$1,$6,$7,$8,$9,0*
20,1,$1+$1,$8,$9,$2,$3,0*%
G04 Aperture macros list end*
%ADD10RoundRect,0.200000X-0.200000X-0.275000X0.200000X-0.275000X0.200000X0.275000X-0.200000X0.275000X0*%
%ADD11R,1.000000X2.800000*%
%ADD12RoundRect,0.225000X-0.225000X-0.250000X0.225000X-0.250000X0.225000X0.250000X-0.225000X0.250000X0*%
%ADD13RoundRect,0.200000X0.200000X0.275000X-0.200000X0.275000X-0.200000X-0.275000X0.200000X-0.275000X0*%
%ADD14RoundRect,0.200000X-0.275000X0.200000X-0.275000X-0.200000X0.275000X-0.200000X0.275000X0.200000X0*%
%ADD15RoundRect,0.019000X0.256000X-0.076000X0.256000X0.076000X-0.256000X0.076000X-0.256000X-0.076000X0*%
%ADD16RoundRect,0.040000X0.235000X-0.160000X0.235000X0.160000X-0.235000X0.160000X-0.235000X-0.160000X0*%
%ADD17RoundRect,0.250000X-0.262500X-0.450000X0.262500X-0.450000X0.262500X0.450000X-0.262500X0.450000X0*%
%ADD18RoundRect,0.150000X0.825000X0.150000X-0.825000X0.150000X-0.825000X-0.150000X0.825000X-0.150000X0*%
%ADD19RoundRect,0.249999X0.395001X0.395001X-0.395001X0.395001X-0.395001X-0.395001X0.395001X-0.395001X0*%
%ADD20RoundRect,0.050000X0.387500X0.050000X-0.387500X0.050000X-0.387500X-0.050000X0.387500X-0.050000X0*%
%ADD21RoundRect,0.050000X0.050000X0.387500X-0.050000X0.387500X-0.050000X-0.387500X0.050000X-0.387500X0*%
%ADD22RoundRect,0.250000X0.325000X0.650000X-0.325000X0.650000X-0.325000X-0.650000X0.325000X-0.650000X0*%
%ADD23RoundRect,0.225000X0.225000X0.250000X-0.225000X0.250000X-0.225000X-0.250000X0.225000X-0.250000X0*%
%ADD24RoundRect,0.019000X-0.256000X0.076000X-0.256000X-0.076000X0.256000X-0.076000X0.256000X0.076000X0*%
%ADD25RoundRect,0.040000X-0.235000X0.160000X-0.235000X-0.160000X0.235000X-0.160000X0.235000X0.160000X0*%
%ADD26R,2.800000X1.000000*%
%ADD27RoundRect,0.250000X0.475000X-0.250000X0.475000X0.250000X-0.475000X0.250000X-0.475000X-0.250000X0*%
%ADD28RoundRect,0.250000X0.262500X0.450000X-0.262500X0.450000X-0.262500X-0.450000X0.262500X-0.450000X0*%
%ADD29RoundRect,0.250000X1.075000X-0.375000X1.075000X0.375000X-1.075000X0.375000X-1.075000X-0.375000X0*%
%ADD30RoundRect,0.200000X0.275000X-0.200000X0.275000X0.200000X-0.275000X0.200000X-0.275000X-0.200000X0*%
%ADD31RoundRect,0.225000X0.250000X-0.225000X0.250000X0.225000X-0.250000X0.225000X-0.250000X-0.225000X0*%
%ADD32RoundRect,0.250000X-0.712500X-2.475000X0.712500X-2.475000X0.712500X2.475000X-0.712500X2.475000X0*%
%ADD33R,1.200000X1.400000*%
%ADD34RoundRect,0.225000X-0.250000X0.225000X-0.250000X-0.225000X0.250000X-0.225000X0.250000X0.225000X0*%
%ADD35RoundRect,0.150000X0.650000X0.150000X-0.650000X0.150000X-0.650000X-0.150000X0.650000X-0.150000X0*%
%ADD36RoundRect,0.250000X-0.650000X0.325000X-0.650000X-0.325000X0.650000X-0.325000X0.650000X0.325000X0*%
%ADD37RoundRect,0.100000X-0.637500X-0.100000X0.637500X-0.100000X0.637500X0.100000X-0.637500X0.100000X0*%
%ADD38R,1.310000X0.650000*%
%ADD39R,1.310000X0.600000*%
%ADD40R,0.795000X0.900000*%
%ADD41RoundRect,0.250000X-0.475000X0.250000X-0.475000X-0.250000X0.475000X-0.250000X0.475000X0.250000X0*%
%ADD42R,0.700000X0.200000*%
%ADD43RoundRect,0.218750X-0.381250X0.218750X-0.381250X-0.218750X0.381250X-0.218750X0.381250X0.218750X0*%
%ADD44RoundRect,0.237500X-0.287500X-0.237500X0.287500X-0.237500X0.287500X0.237500X-0.287500X0.237500X0*%
%ADD45RoundRect,0.150000X0.150000X-0.825000X0.150000X0.825000X-0.150000X0.825000X-0.150000X-0.825000X0*%
%ADD46R,2.600000X0.300000*%
G04 APERTURE END LIST*
D10*
X143700000Y-66990000D03*
X145350000Y-66990000D03*
X107925000Y-144705000D03*
X109575000Y-144705000D03*
D11*
X200850000Y-84500000D03*
X198150000Y-84500000D03*
D12*
X127225000Y-138000000D03*
X128775000Y-138000000D03*
X189475000Y-112750000D03*
X191025000Y-112750000D03*
D13*
X169825000Y-66980000D03*
X168175000Y-66980000D03*
D14*
X138250000Y-133675000D03*
X138250000Y-135325000D03*
D15*
X87900000Y-93000000D03*
X87900000Y-92500000D03*
D16*
X87900000Y-92000000D03*
D15*
X87900000Y-91500000D03*
X87900000Y-91000000D03*
X87100000Y-91000000D03*
X87100000Y-91500000D03*
D16*
X87100000Y-92000000D03*
D15*
X87100000Y-92500000D03*
X87100000Y-93000000D03*
D12*
X202725000Y-117750000D03*
X204275000Y-117750000D03*
D10*
X157675000Y-92750000D03*
X159325000Y-92750000D03*
D12*
X202725000Y-108250000D03*
X204275000Y-108250000D03*
D10*
X135425000Y-118250000D03*
X137075000Y-118250000D03*
D17*
X134587500Y-141750000D03*
X136412500Y-141750000D03*
D18*
X154975000Y-111195000D03*
X154975000Y-109925000D03*
X154975000Y-108655000D03*
X154975000Y-107385000D03*
X154975000Y-106115000D03*
X154975000Y-104845000D03*
X154975000Y-103575000D03*
X154975000Y-102305000D03*
X150025000Y-102305000D03*
X150025000Y-103575000D03*
X150025000Y-104845000D03*
X150025000Y-106115000D03*
X150025000Y-107385000D03*
X150025000Y-108655000D03*
X150025000Y-109925000D03*
X150025000Y-111195000D03*
D13*
X145350000Y-65495000D03*
X143700000Y-65495000D03*
D12*
X202725000Y-103750000D03*
X204275000Y-103750000D03*
X149975000Y-100250000D03*
X151525000Y-100250000D03*
D19*
X125200000Y-125050000D03*
X126800000Y-123450000D03*
X125200000Y-123450000D03*
X126800000Y-125050000D03*
D20*
X129437500Y-126850000D03*
X129437500Y-126450000D03*
X129437500Y-126050000D03*
X129437500Y-125650000D03*
X129437500Y-125250000D03*
X129437500Y-124850000D03*
X129437500Y-124450000D03*
X129437500Y-124050000D03*
X129437500Y-123650000D03*
X129437500Y-123250000D03*
X129437500Y-122850000D03*
X129437500Y-122450000D03*
X129437500Y-122050000D03*
X129437500Y-121650000D03*
D21*
X128600000Y-120812500D03*
X128200000Y-120812500D03*
X127800000Y-120812500D03*
X127400000Y-120812500D03*
X127000000Y-120812500D03*
X126600000Y-120812500D03*
X126200000Y-120812500D03*
X125800000Y-120812500D03*
X125400000Y-120812500D03*
X125000000Y-120812500D03*
X124600000Y-120812500D03*
X124200000Y-120812500D03*
X123800000Y-120812500D03*
X123400000Y-120812500D03*
D20*
X122562500Y-121650000D03*
X122562500Y-122050000D03*
X122562500Y-122450000D03*
X122562500Y-122850000D03*
X122562500Y-123250000D03*
X122562500Y-123650000D03*
X122562500Y-124050000D03*
X122562500Y-124450000D03*
X122562500Y-124850000D03*
X122562500Y-125250000D03*
X122562500Y-125650000D03*
X122562500Y-126050000D03*
X122562500Y-126450000D03*
X122562500Y-126850000D03*
D21*
X123400000Y-127687500D03*
X123800000Y-127687500D03*
X124200000Y-127687500D03*
X124600000Y-127687500D03*
X125000000Y-127687500D03*
X125400000Y-127687500D03*
X125800000Y-127687500D03*
X126200000Y-127687500D03*
X126600000Y-127687500D03*
X127000000Y-127687500D03*
X127400000Y-127687500D03*
X127800000Y-127687500D03*
X128200000Y-127687500D03*
X128600000Y-127687500D03*
D10*
X170425000Y-108250000D03*
X172075000Y-108250000D03*
D13*
X106575000Y-143205000D03*
X104925000Y-143205000D03*
D22*
X204975000Y-77500000D03*
X202025000Y-77500000D03*
D23*
X169025000Y-92750000D03*
X167475000Y-92750000D03*
D24*
X93100000Y-112000000D03*
X93100000Y-112500000D03*
D25*
X93100000Y-113000000D03*
D24*
X93100000Y-113500000D03*
X93100000Y-114000000D03*
X93900000Y-114000000D03*
X93900000Y-113500000D03*
D25*
X93900000Y-113000000D03*
D24*
X93900000Y-112500000D03*
X93900000Y-112000000D03*
D12*
X132475000Y-122750000D03*
X134025000Y-122750000D03*
D26*
X190750000Y-134850000D03*
X190750000Y-132150000D03*
D23*
X169025000Y-105250000D03*
X167475000Y-105250000D03*
D13*
X201325000Y-114750000D03*
X199675000Y-114750000D03*
D23*
X169025000Y-114750000D03*
X167475000Y-114750000D03*
D27*
X161500000Y-141950000D03*
X161500000Y-140050000D03*
D11*
X88000000Y-139350000D03*
X88000000Y-145150000D03*
X92000000Y-139350000D03*
X92000000Y-145150000D03*
D28*
X159162500Y-130000000D03*
X157337500Y-130000000D03*
D12*
X189475000Y-125275000D03*
X191025000Y-125275000D03*
D10*
X104910000Y-131500000D03*
X106560000Y-131500000D03*
D23*
X169025000Y-89750000D03*
X167475000Y-89750000D03*
D12*
X110975000Y-138750000D03*
X112525000Y-138750000D03*
D29*
X88000000Y-57400000D03*
X88000000Y-54600000D03*
D23*
X169025000Y-112750000D03*
X167475000Y-112750000D03*
D10*
X157675000Y-103750000D03*
X159325000Y-103750000D03*
X199675000Y-125250000D03*
X201325000Y-125250000D03*
D13*
X201325000Y-95750000D03*
X199675000Y-95750000D03*
D10*
X135425000Y-116750000D03*
X137075000Y-116750000D03*
X157675000Y-102250000D03*
X159325000Y-102250000D03*
D23*
X169025000Y-123750000D03*
X167475000Y-123750000D03*
D11*
X117750000Y-139350000D03*
X117750000Y-145150000D03*
X121750000Y-145150000D03*
X121750000Y-139350000D03*
D10*
X132425000Y-124250000D03*
X134075000Y-124250000D03*
D12*
X132475000Y-128750000D03*
X134025000Y-128750000D03*
D30*
X119500000Y-118325000D03*
X119500000Y-116675000D03*
D10*
X170425000Y-123750000D03*
X172075000Y-123750000D03*
D13*
X119075000Y-121250000D03*
X117425000Y-121250000D03*
D12*
X164475000Y-68480000D03*
X166025000Y-68480000D03*
D10*
X143675000Y-62500000D03*
X145325000Y-62500000D03*
D12*
X202725000Y-102250000D03*
X204275000Y-102250000D03*
X164475000Y-63990000D03*
X166025000Y-63990000D03*
D13*
X106575000Y-144705000D03*
X104925000Y-144705000D03*
D17*
X83087500Y-129000000D03*
X84912500Y-129000000D03*
D23*
X133275000Y-70750000D03*
X131725000Y-70750000D03*
D14*
X126250000Y-116175000D03*
X126250000Y-117825000D03*
D12*
X202725000Y-125250000D03*
X204275000Y-125250000D03*
D23*
X169025000Y-108250000D03*
X167475000Y-108250000D03*
D11*
X200850000Y-61500000D03*
X198150000Y-61500000D03*
D10*
X170425000Y-95750000D03*
X172075000Y-95750000D03*
X104910000Y-125750000D03*
X106560000Y-125750000D03*
D12*
X202725000Y-123750000D03*
X204275000Y-123750000D03*
X164475000Y-62500000D03*
X166025000Y-62500000D03*
D14*
X74500000Y-131425000D03*
X74500000Y-133075000D03*
D22*
X195975000Y-63000000D03*
X193025000Y-63000000D03*
D13*
X172075000Y-103750000D03*
X170425000Y-103750000D03*
D31*
X122500000Y-118275000D03*
X122500000Y-116725000D03*
D18*
X154975000Y-123695000D03*
X154975000Y-122425000D03*
X154975000Y-121155000D03*
X154975000Y-119885000D03*
X154975000Y-118615000D03*
X154975000Y-117345000D03*
X154975000Y-116075000D03*
X154975000Y-114805000D03*
X150025000Y-114805000D03*
X150025000Y-116075000D03*
X150025000Y-117345000D03*
X150025000Y-118615000D03*
X150025000Y-119885000D03*
X150025000Y-121155000D03*
X150025000Y-122425000D03*
X150025000Y-123695000D03*
D13*
X201325000Y-105250000D03*
X199675000Y-105250000D03*
D32*
X208612500Y-62750000D03*
X215387500Y-62750000D03*
D10*
X199675000Y-116250000D03*
X201325000Y-116250000D03*
D14*
X189000000Y-69425000D03*
X189000000Y-71075000D03*
D31*
X87000000Y-85025000D03*
X87000000Y-83475000D03*
D12*
X147475000Y-65500000D03*
X149025000Y-65500000D03*
X202725000Y-109750000D03*
X204275000Y-109750000D03*
D13*
X172075000Y-125250000D03*
X170425000Y-125250000D03*
D23*
X119025000Y-123250000D03*
X117475000Y-123250000D03*
D33*
X127600000Y-114100000D03*
X127600000Y-111900000D03*
X125900000Y-111900000D03*
X125900000Y-114100000D03*
D10*
X199675000Y-103750000D03*
X201325000Y-103750000D03*
D18*
X154975000Y-98695000D03*
X154975000Y-97425000D03*
X154975000Y-96155000D03*
X154975000Y-94885000D03*
X154975000Y-93615000D03*
X154975000Y-92345000D03*
X154975000Y-91075000D03*
X154975000Y-89805000D03*
X150025000Y-89805000D03*
X150025000Y-91075000D03*
X150025000Y-92345000D03*
X150025000Y-93615000D03*
X150025000Y-94885000D03*
X150025000Y-96155000D03*
X150025000Y-97425000D03*
X150025000Y-98695000D03*
D22*
X204975000Y-57000000D03*
X202025000Y-57000000D03*
D10*
X107910000Y-137250000D03*
X109560000Y-137250000D03*
D23*
X169025000Y-97250000D03*
X167475000Y-97250000D03*
D13*
X162325000Y-62500000D03*
X160675000Y-62500000D03*
X201325000Y-117750000D03*
X199675000Y-117750000D03*
D10*
X157675000Y-116250000D03*
X159325000Y-116250000D03*
X160675000Y-66990000D03*
X162325000Y-66990000D03*
D34*
X123250000Y-131225000D03*
X123250000Y-132775000D03*
D10*
X104910000Y-127250000D03*
X106560000Y-127250000D03*
X199675000Y-100250000D03*
X201325000Y-100250000D03*
D13*
X169825000Y-68480000D03*
X168175000Y-68480000D03*
D12*
X202725000Y-89750000D03*
X204275000Y-89750000D03*
D35*
X136100000Y-135405000D03*
X136100000Y-134135000D03*
X136100000Y-132865000D03*
X136100000Y-131595000D03*
X128900000Y-131595000D03*
X128900000Y-132865000D03*
X128900000Y-134135000D03*
X128900000Y-135405000D03*
D10*
X170425000Y-92750000D03*
X172075000Y-92750000D03*
D23*
X82775000Y-101000000D03*
X81225000Y-101000000D03*
D22*
X204975000Y-68500000D03*
X202025000Y-68500000D03*
D23*
X169025000Y-122250000D03*
X167475000Y-122250000D03*
D10*
X157675000Y-108250000D03*
X159325000Y-108250000D03*
D13*
X90575000Y-133750000D03*
X88925000Y-133750000D03*
X152825000Y-62500000D03*
X151175000Y-62500000D03*
D10*
X157675000Y-117750000D03*
X159325000Y-117750000D03*
D22*
X204975000Y-66000000D03*
X202025000Y-66000000D03*
D12*
X110960000Y-137250000D03*
X112510000Y-137250000D03*
D23*
X169025000Y-94250000D03*
X167475000Y-94250000D03*
D10*
X157675000Y-109750000D03*
X159325000Y-109750000D03*
X143700000Y-63995000D03*
X145350000Y-63995000D03*
D13*
X172075000Y-106750000D03*
X170425000Y-106750000D03*
D10*
X132425000Y-119750000D03*
X134075000Y-119750000D03*
X157675000Y-119250000D03*
X159325000Y-119250000D03*
D23*
X169025000Y-98750000D03*
X167475000Y-98750000D03*
D14*
X189000000Y-80925000D03*
X189000000Y-82575000D03*
D23*
X84775000Y-127000000D03*
X83225000Y-127000000D03*
X82775000Y-82500000D03*
X81225000Y-82500000D03*
D10*
X157675000Y-125250000D03*
X159325000Y-125250000D03*
D12*
X202725000Y-111250000D03*
X204275000Y-111250000D03*
D36*
X213500000Y-83275000D03*
X213500000Y-86225000D03*
D12*
X189475000Y-100275000D03*
X191025000Y-100275000D03*
D37*
X165887500Y-138475000D03*
X165887500Y-139125000D03*
X165887500Y-139775000D03*
X165887500Y-140425000D03*
X165887500Y-141075000D03*
X165887500Y-141725000D03*
X165887500Y-142375000D03*
X165887500Y-143025000D03*
X171612500Y-143025000D03*
X171612500Y-142375000D03*
X171612500Y-141725000D03*
X171612500Y-141075000D03*
X171612500Y-140425000D03*
X171612500Y-139775000D03*
X171612500Y-139125000D03*
X171612500Y-138475000D03*
D26*
X158250000Y-142350000D03*
X158250000Y-139650000D03*
D13*
X169825000Y-63990000D03*
X168175000Y-63990000D03*
D10*
X170425000Y-102250000D03*
X172075000Y-102250000D03*
D38*
X199095000Y-57905000D03*
X199095000Y-56635000D03*
X199095000Y-55365000D03*
D39*
X199095000Y-54095000D03*
D38*
X193405000Y-54095000D03*
X193405000Y-55365000D03*
X193405000Y-56635000D03*
X193405000Y-57905000D03*
D40*
X195587500Y-56750000D03*
X196912500Y-55250000D03*
X195587500Y-55250000D03*
X196912500Y-56750000D03*
D22*
X195975000Y-60500000D03*
X193025000Y-60500000D03*
D23*
X119025000Y-127250000D03*
X117475000Y-127250000D03*
D13*
X106560000Y-133000000D03*
X104910000Y-133000000D03*
D41*
X154750000Y-132550000D03*
X154750000Y-134450000D03*
D10*
X157675000Y-91250000D03*
X159325000Y-91250000D03*
D29*
X88000000Y-81150000D03*
X88000000Y-78350000D03*
D13*
X162325000Y-68490000D03*
X160675000Y-68490000D03*
X152825000Y-65500000D03*
X151175000Y-65500000D03*
D22*
X204975000Y-80000000D03*
X202025000Y-80000000D03*
D28*
X191662500Y-137250000D03*
X189837500Y-137250000D03*
D12*
X202725000Y-116250000D03*
X204275000Y-116250000D03*
D23*
X198275000Y-136250000D03*
X196725000Y-136250000D03*
D10*
X199675000Y-122250000D03*
X201325000Y-122250000D03*
D12*
X202725000Y-94250000D03*
X204275000Y-94250000D03*
X110975000Y-143205000D03*
X112525000Y-143205000D03*
D42*
X129000000Y-87550000D03*
X125920000Y-87550000D03*
X129000000Y-87150000D03*
X125920000Y-87150000D03*
X129000000Y-86750000D03*
X125920000Y-86750000D03*
X129000000Y-86350000D03*
X125920000Y-86350000D03*
X129000000Y-85950000D03*
X125920000Y-85950000D03*
X129000000Y-85550000D03*
X125920000Y-85550000D03*
X129000000Y-85150000D03*
X125920000Y-85150000D03*
X129000000Y-84750000D03*
X125920000Y-84750000D03*
X129000000Y-84350000D03*
X125920000Y-84350000D03*
X129000000Y-83950000D03*
X125920000Y-83950000D03*
X129000000Y-83550000D03*
X125920000Y-83550000D03*
X129000000Y-83150000D03*
X125920000Y-83150000D03*
X129000000Y-82750000D03*
X125920000Y-82750000D03*
X129000000Y-82350000D03*
X125920000Y-82350000D03*
X129000000Y-81950000D03*
X125920000Y-81950000D03*
X129000000Y-81550000D03*
X125920000Y-81550000D03*
X129000000Y-81150000D03*
X125920000Y-81150000D03*
X129000000Y-80750000D03*
X125920000Y-80750000D03*
X129000000Y-80350000D03*
X125920000Y-80350000D03*
X129000000Y-79950000D03*
X125920000Y-79950000D03*
X129000000Y-79550000D03*
X125920000Y-79550000D03*
X129000000Y-79150000D03*
X125920000Y-79150000D03*
X129000000Y-78750000D03*
X125920000Y-78750000D03*
X129000000Y-78350000D03*
X125920000Y-78350000D03*
X129000000Y-77950000D03*
X125920000Y-77950000D03*
X129000000Y-77550000D03*
X125920000Y-77550000D03*
X129000000Y-77150000D03*
X125920000Y-77150000D03*
X129000000Y-76750000D03*
X125920000Y-76750000D03*
X129000000Y-76350000D03*
X125920000Y-76350000D03*
X129000000Y-75950000D03*
X125920000Y-75950000D03*
X129000000Y-75550000D03*
X125920000Y-75550000D03*
X129000000Y-75150000D03*
X125920000Y-75150000D03*
X129000000Y-74750000D03*
X125920000Y-74750000D03*
X129000000Y-74350000D03*
X125920000Y-74350000D03*
X129000000Y-73950000D03*
X125920000Y-73950000D03*
X129000000Y-73550000D03*
X125920000Y-73550000D03*
X129000000Y-73150000D03*
X125920000Y-73150000D03*
X129000000Y-72750000D03*
X125920000Y-72750000D03*
X129000000Y-72350000D03*
X125920000Y-72350000D03*
X129000000Y-71950000D03*
X125920000Y-71950000D03*
X129000000Y-71550000D03*
X125920000Y-71550000D03*
X129000000Y-71150000D03*
X125920000Y-71150000D03*
X129000000Y-70750000D03*
X125920000Y-70750000D03*
X129000000Y-70350000D03*
X125920000Y-70350000D03*
X129000000Y-69950000D03*
X125920000Y-69950000D03*
X129000000Y-69550000D03*
X125920000Y-69550000D03*
X129000000Y-69150000D03*
X125920000Y-69150000D03*
X129000000Y-68750000D03*
X125920000Y-68750000D03*
X129000000Y-68350000D03*
X125920000Y-68350000D03*
X129000000Y-67950000D03*
X125920000Y-67950000D03*
X95080000Y-87550000D03*
X92000000Y-87550000D03*
X95080000Y-87150000D03*
X92000000Y-87150000D03*
X95080000Y-86750000D03*
X92000000Y-86750000D03*
X95080000Y-86350000D03*
X92000000Y-86350000D03*
X95080000Y-85950000D03*
X92000000Y-85950000D03*
X95080000Y-85550000D03*
X92000000Y-85550000D03*
X95080000Y-85150000D03*
X92000000Y-85150000D03*
X95080000Y-84750000D03*
X92000000Y-84750000D03*
X95080000Y-84350000D03*
X92000000Y-84350000D03*
X95080000Y-83950000D03*
X92000000Y-83950000D03*
X95080000Y-83550000D03*
X92000000Y-83550000D03*
X95080000Y-83150000D03*
X92000000Y-83150000D03*
X95080000Y-82750000D03*
X92000000Y-82750000D03*
X95080000Y-82350000D03*
X92000000Y-82350000D03*
X95080000Y-81950000D03*
X92000000Y-81950000D03*
X95080000Y-81550000D03*
X92000000Y-81550000D03*
X95080000Y-81150000D03*
X92000000Y-81150000D03*
X95080000Y-80750000D03*
X92000000Y-80750000D03*
X95080000Y-80350000D03*
X92000000Y-80350000D03*
X95080000Y-79950000D03*
X92000000Y-79950000D03*
X95080000Y-79550000D03*
X92000000Y-79550000D03*
X95080000Y-79150000D03*
X92000000Y-79150000D03*
X95080000Y-78750000D03*
X92000000Y-78750000D03*
X95080000Y-78350000D03*
X92000000Y-78350000D03*
X95080000Y-77950000D03*
X92000000Y-77950000D03*
X95080000Y-77550000D03*
X92000000Y-77550000D03*
X95080000Y-77150000D03*
X92000000Y-77150000D03*
X95080000Y-76750000D03*
X92000000Y-76750000D03*
X95080000Y-76350000D03*
X92000000Y-76350000D03*
X95080000Y-75950000D03*
X92000000Y-75950000D03*
X95080000Y-75550000D03*
X92000000Y-75550000D03*
X95080000Y-75150000D03*
X92000000Y-75150000D03*
X95080000Y-74750000D03*
X92000000Y-74750000D03*
X95080000Y-74350000D03*
X92000000Y-74350000D03*
X95080000Y-73950000D03*
X92000000Y-73950000D03*
X95080000Y-73550000D03*
X92000000Y-73550000D03*
X95080000Y-73150000D03*
X92000000Y-73150000D03*
X95080000Y-72750000D03*
X92000000Y-72750000D03*
X95080000Y-72350000D03*
X92000000Y-72350000D03*
X95080000Y-71950000D03*
X92000000Y-71950000D03*
X95080000Y-71550000D03*
X92000000Y-71550000D03*
X95080000Y-71150000D03*
X92000000Y-71150000D03*
X95080000Y-70750000D03*
X92000000Y-70750000D03*
X95080000Y-70350000D03*
X92000000Y-70350000D03*
X95080000Y-69950000D03*
X92000000Y-69950000D03*
X95080000Y-69550000D03*
X92000000Y-69550000D03*
X95080000Y-69150000D03*
X92000000Y-69150000D03*
X95080000Y-68750000D03*
X92000000Y-68750000D03*
X95080000Y-68350000D03*
X92000000Y-68350000D03*
X95080000Y-67950000D03*
X92000000Y-67950000D03*
D23*
X169025000Y-102250000D03*
X167475000Y-102250000D03*
D22*
X204975000Y-54500000D03*
X202025000Y-54500000D03*
D13*
X96575000Y-144750000D03*
X94925000Y-144750000D03*
D10*
X170425000Y-120750000D03*
X172075000Y-120750000D03*
D11*
X200850000Y-73000000D03*
X198150000Y-73000000D03*
D10*
X157675000Y-95750000D03*
X159325000Y-95750000D03*
D14*
X79250000Y-131425000D03*
X79250000Y-133075000D03*
D10*
X157675000Y-123750000D03*
X159325000Y-123750000D03*
X157675000Y-112750000D03*
X159325000Y-112750000D03*
X107910000Y-133000000D03*
X109560000Y-133000000D03*
D23*
X165525000Y-136250000D03*
X163975000Y-136250000D03*
D26*
X190750000Y-142350000D03*
X190750000Y-139650000D03*
D13*
X128825000Y-141000000D03*
X127175000Y-141000000D03*
D22*
X195975000Y-72000000D03*
X193025000Y-72000000D03*
D10*
X199675000Y-97250000D03*
X201325000Y-97250000D03*
D12*
X147475000Y-62500000D03*
X149025000Y-62500000D03*
D13*
X172075000Y-97250000D03*
X170425000Y-97250000D03*
X162325000Y-65500000D03*
X160675000Y-65500000D03*
X201325000Y-120750000D03*
X199675000Y-120750000D03*
D12*
X202725000Y-119250000D03*
X204275000Y-119250000D03*
D22*
X207225000Y-86250000D03*
X204275000Y-86250000D03*
D10*
X157675000Y-111250000D03*
X159325000Y-111250000D03*
X132425000Y-118250000D03*
X134075000Y-118250000D03*
D13*
X172075000Y-109750000D03*
X170425000Y-109750000D03*
X172075000Y-94250000D03*
X170425000Y-94250000D03*
D12*
X127225000Y-145250000D03*
X128775000Y-145250000D03*
D13*
X152825000Y-68495000D03*
X151175000Y-68495000D03*
D34*
X146750000Y-79225000D03*
X146750000Y-80775000D03*
D12*
X110975000Y-144705000D03*
X112525000Y-144705000D03*
D23*
X169025000Y-125250000D03*
X167475000Y-125250000D03*
X169025000Y-120750000D03*
X167475000Y-120750000D03*
D13*
X145350000Y-68490000D03*
X143700000Y-68490000D03*
D23*
X169025000Y-91250000D03*
X167475000Y-91250000D03*
D10*
X132425000Y-121250000D03*
X134075000Y-121250000D03*
D27*
X161500000Y-134450000D03*
X161500000Y-132550000D03*
D36*
X216000000Y-83275000D03*
X216000000Y-86225000D03*
D13*
X201325000Y-108250000D03*
X199675000Y-108250000D03*
D18*
X194475000Y-98695000D03*
X194475000Y-97425000D03*
X194475000Y-96155000D03*
X194475000Y-94885000D03*
X194475000Y-93615000D03*
X194475000Y-92345000D03*
X194475000Y-91075000D03*
X194475000Y-89805000D03*
X189525000Y-89805000D03*
X189525000Y-91075000D03*
X189525000Y-92345000D03*
X189525000Y-93615000D03*
X189525000Y-94885000D03*
X189525000Y-96155000D03*
X189525000Y-97425000D03*
X189525000Y-98695000D03*
D15*
X84900000Y-69500000D03*
X84900000Y-69000000D03*
D16*
X84900000Y-68500000D03*
D15*
X84900000Y-68000000D03*
X84900000Y-67500000D03*
X84100000Y-67500000D03*
X84100000Y-68000000D03*
D16*
X84100000Y-68500000D03*
D15*
X84100000Y-69000000D03*
X84100000Y-69500000D03*
D43*
X88750000Y-83187500D03*
X88750000Y-85312500D03*
D31*
X124000000Y-113775000D03*
X124000000Y-112225000D03*
D12*
X202725000Y-97250000D03*
X204275000Y-97250000D03*
D23*
X82775000Y-104000000D03*
X81225000Y-104000000D03*
D12*
X110960000Y-131500000D03*
X112510000Y-131500000D03*
D10*
X157675000Y-120750000D03*
X159325000Y-120750000D03*
D12*
X202725000Y-114750000D03*
X204275000Y-114750000D03*
D41*
X174000000Y-135050000D03*
X174000000Y-136950000D03*
D13*
X128825000Y-142500000D03*
X127175000Y-142500000D03*
D36*
X191000000Y-57275000D03*
X191000000Y-60225000D03*
D17*
X186337500Y-130000000D03*
X188162500Y-130000000D03*
D12*
X94975000Y-143000000D03*
X96525000Y-143000000D03*
X132475000Y-127250000D03*
X134025000Y-127250000D03*
D13*
X172075000Y-100250000D03*
X170425000Y-100250000D03*
D12*
X202725000Y-105250000D03*
X204275000Y-105250000D03*
D23*
X169025000Y-119250000D03*
X167475000Y-119250000D03*
D12*
X110960000Y-125750000D03*
X112510000Y-125750000D03*
X202725000Y-122250000D03*
X204275000Y-122250000D03*
D13*
X169825000Y-62500000D03*
X168175000Y-62500000D03*
D10*
X157675000Y-106750000D03*
X159325000Y-106750000D03*
D38*
X199095000Y-69405000D03*
X199095000Y-68135000D03*
X199095000Y-66865000D03*
D39*
X199095000Y-65595000D03*
D38*
X193405000Y-65595000D03*
X193405000Y-66865000D03*
X193405000Y-68135000D03*
X193405000Y-69405000D03*
D40*
X195587500Y-66750000D03*
X196912500Y-66750000D03*
X195587500Y-68250000D03*
X196912500Y-68250000D03*
D34*
X121750000Y-131225000D03*
X121750000Y-132775000D03*
D13*
X172075000Y-122250000D03*
X170425000Y-122250000D03*
D12*
X149975000Y-112750000D03*
X151525000Y-112750000D03*
D41*
X187250000Y-140050000D03*
X187250000Y-141950000D03*
D10*
X157675000Y-97250000D03*
X159325000Y-97250000D03*
D12*
X147475000Y-64000000D03*
X149025000Y-64000000D03*
D23*
X169025000Y-109750000D03*
X167475000Y-109750000D03*
D10*
X199675000Y-94250000D03*
X201325000Y-94250000D03*
D36*
X191000000Y-68775000D03*
X191000000Y-71725000D03*
D44*
X114125000Y-121250000D03*
X115875000Y-121250000D03*
D45*
X148555000Y-84225000D03*
X149825000Y-84225000D03*
X151095000Y-84225000D03*
X152365000Y-84225000D03*
X153635000Y-84225000D03*
X154905000Y-84225000D03*
X156175000Y-84225000D03*
X157445000Y-84225000D03*
X157445000Y-79275000D03*
X156175000Y-79275000D03*
X154905000Y-79275000D03*
X153635000Y-79275000D03*
X152365000Y-79275000D03*
X151095000Y-79275000D03*
X149825000Y-79275000D03*
X148555000Y-79275000D03*
D17*
X186337500Y-137250000D03*
X188162500Y-137250000D03*
D18*
X146725000Y-141695000D03*
X146725000Y-140425000D03*
X146725000Y-139155000D03*
X146725000Y-137885000D03*
X146725000Y-136615000D03*
X146725000Y-135345000D03*
X146725000Y-134075000D03*
X146725000Y-132805000D03*
X141775000Y-132805000D03*
X141775000Y-134075000D03*
X141775000Y-135345000D03*
X141775000Y-136615000D03*
X141775000Y-137885000D03*
X141775000Y-139155000D03*
X141775000Y-140425000D03*
X141775000Y-141695000D03*
D15*
X84900000Y-72500000D03*
X84900000Y-72000000D03*
D16*
X84900000Y-71500000D03*
D15*
X84900000Y-71000000D03*
X84900000Y-70500000D03*
X84100000Y-70500000D03*
X84100000Y-71000000D03*
D16*
X84100000Y-71500000D03*
D15*
X84100000Y-72000000D03*
X84100000Y-72500000D03*
D12*
X202725000Y-100250000D03*
X204275000Y-100250000D03*
D13*
X201325000Y-102250000D03*
X199675000Y-102250000D03*
D34*
X118750000Y-131225000D03*
X118750000Y-132775000D03*
D37*
X198637500Y-138475000D03*
X198637500Y-139125000D03*
X198637500Y-139775000D03*
X198637500Y-140425000D03*
X198637500Y-141075000D03*
X198637500Y-141725000D03*
X198637500Y-142375000D03*
X198637500Y-143025000D03*
X204362500Y-143025000D03*
X204362500Y-142375000D03*
X204362500Y-141725000D03*
X204362500Y-141075000D03*
X204362500Y-140425000D03*
X204362500Y-139775000D03*
X204362500Y-139125000D03*
X204362500Y-138475000D03*
D10*
X104910000Y-137250000D03*
X106560000Y-137250000D03*
D22*
X195975000Y-86000000D03*
X193025000Y-86000000D03*
D12*
X202725000Y-112750000D03*
X204275000Y-112750000D03*
D10*
X157675000Y-100250000D03*
X159325000Y-100250000D03*
D23*
X169025000Y-95750000D03*
X167475000Y-95750000D03*
D46*
X80255000Y-72750000D03*
X80255000Y-72250000D03*
X80255000Y-71750000D03*
X80255000Y-71250000D03*
X80255000Y-70750000D03*
X80255000Y-70250000D03*
X80255000Y-69750000D03*
X80255000Y-69250000D03*
X80255000Y-68750000D03*
X80255000Y-68250000D03*
X80255000Y-67750000D03*
X80255000Y-67250000D03*
X80255000Y-66750000D03*
X80255000Y-66250000D03*
X80255000Y-65750000D03*
X80255000Y-65250000D03*
X80255000Y-64750000D03*
X80255000Y-64250000D03*
X80255000Y-63750000D03*
D10*
X170425000Y-117750000D03*
X172075000Y-117750000D03*
D22*
X207225000Y-83500000D03*
X204275000Y-83500000D03*
D12*
X202725000Y-91250000D03*
X204275000Y-91250000D03*
D10*
X132425000Y-125750000D03*
X134075000Y-125750000D03*
D32*
X208612500Y-79000000D03*
X215387500Y-79000000D03*
D17*
X153837500Y-130000000D03*
X155662500Y-130000000D03*
D23*
X169025000Y-103750000D03*
X167475000Y-103750000D03*
D12*
X149975000Y-125250000D03*
X151525000Y-125250000D03*
D13*
X106575000Y-138750000D03*
X104925000Y-138750000D03*
D22*
X195975000Y-83500000D03*
X193025000Y-83500000D03*
D13*
X201325000Y-98750000D03*
X199675000Y-98750000D03*
D10*
X157675000Y-105250000D03*
X159325000Y-105250000D03*
X199675000Y-109750000D03*
X201325000Y-109750000D03*
D13*
X172075000Y-91250000D03*
X170425000Y-91250000D03*
D38*
X199095000Y-80905000D03*
X199095000Y-79635000D03*
X199095000Y-78365000D03*
D39*
X199095000Y-77095000D03*
D38*
X193405000Y-77095000D03*
X193405000Y-78365000D03*
X193405000Y-79635000D03*
X193405000Y-80905000D03*
D40*
X196912500Y-78250000D03*
X196912500Y-79750000D03*
X195587500Y-78250000D03*
X195587500Y-79750000D03*
D12*
X147475000Y-68495000D03*
X149025000Y-68495000D03*
D27*
X194000000Y-141950000D03*
X194000000Y-140050000D03*
D10*
X170425000Y-89750000D03*
X172075000Y-89750000D03*
X132425000Y-116750000D03*
X134075000Y-116750000D03*
D41*
X187250000Y-132550000D03*
X187250000Y-134450000D03*
X154750000Y-140050000D03*
X154750000Y-141950000D03*
D13*
X201325000Y-111250000D03*
X199675000Y-111250000D03*
X201325000Y-92750000D03*
X199675000Y-92750000D03*
X172075000Y-119250000D03*
X170425000Y-119250000D03*
D34*
X87250000Y-104475000D03*
X87250000Y-106025000D03*
D10*
X157675000Y-94250000D03*
X159325000Y-94250000D03*
D23*
X82775000Y-58500000D03*
X81225000Y-58500000D03*
D17*
X81087500Y-80500000D03*
X82912500Y-80500000D03*
D10*
X157675000Y-114750000D03*
X159325000Y-114750000D03*
D12*
X110960000Y-127250000D03*
X112510000Y-127250000D03*
D10*
X170425000Y-111250000D03*
X172075000Y-111250000D03*
D13*
X152825000Y-64000000D03*
X151175000Y-64000000D03*
D10*
X157675000Y-89750000D03*
X159325000Y-89750000D03*
D23*
X136275000Y-138000000D03*
X134725000Y-138000000D03*
D13*
X90575000Y-132250000D03*
X88925000Y-132250000D03*
X152825000Y-66995000D03*
X151175000Y-66995000D03*
D37*
X165887500Y-130225000D03*
X165887500Y-130875000D03*
X165887500Y-131525000D03*
X165887500Y-132175000D03*
X165887500Y-132825000D03*
X165887500Y-133475000D03*
X165887500Y-134125000D03*
X165887500Y-134775000D03*
X171612500Y-134775000D03*
X171612500Y-134125000D03*
X171612500Y-133475000D03*
X171612500Y-132825000D03*
X171612500Y-132175000D03*
X171612500Y-131525000D03*
X171612500Y-130875000D03*
X171612500Y-130225000D03*
D23*
X169025000Y-111250000D03*
X167475000Y-111250000D03*
D37*
X198637500Y-130225000D03*
X198637500Y-130875000D03*
X198637500Y-131525000D03*
X198637500Y-132175000D03*
X198637500Y-132825000D03*
X198637500Y-133475000D03*
X198637500Y-134125000D03*
X198637500Y-134775000D03*
X204362500Y-134775000D03*
X204362500Y-134125000D03*
X204362500Y-133475000D03*
X204362500Y-132825000D03*
X204362500Y-132175000D03*
X204362500Y-131525000D03*
X204362500Y-130875000D03*
X204362500Y-130225000D03*
D12*
X164475000Y-65490000D03*
X166025000Y-65490000D03*
D30*
X121000000Y-118325000D03*
X121000000Y-116675000D03*
D10*
X170425000Y-105250000D03*
X172075000Y-105250000D03*
D41*
X206750000Y-135050000D03*
X206750000Y-136950000D03*
D23*
X169025000Y-117750000D03*
X167475000Y-117750000D03*
D13*
X172075000Y-116250000D03*
X170425000Y-116250000D03*
D12*
X202725000Y-95750000D03*
X204275000Y-95750000D03*
D10*
X157675000Y-98750000D03*
X159325000Y-98750000D03*
D13*
X172075000Y-112750000D03*
X170425000Y-112750000D03*
D28*
X191662500Y-130000000D03*
X189837500Y-130000000D03*
D17*
X81087500Y-56500000D03*
X82912500Y-56500000D03*
D24*
X93100000Y-118000000D03*
X93100000Y-118500000D03*
D25*
X93100000Y-119000000D03*
D24*
X93100000Y-119500000D03*
X93100000Y-120000000D03*
X93900000Y-120000000D03*
X93900000Y-119500000D03*
D25*
X93900000Y-119000000D03*
D24*
X93900000Y-118500000D03*
X93900000Y-118000000D03*
D32*
X208612500Y-69500000D03*
X215387500Y-69500000D03*
D23*
X169025000Y-106750000D03*
X167475000Y-106750000D03*
D14*
X189000000Y-57925000D03*
X189000000Y-59575000D03*
D36*
X191000000Y-80275000D03*
X191000000Y-83225000D03*
D10*
X170425000Y-114750000D03*
X172075000Y-114750000D03*
D34*
X120250000Y-131225000D03*
X120250000Y-132775000D03*
D12*
X202725000Y-106750000D03*
X204275000Y-106750000D03*
D13*
X201325000Y-89750000D03*
X199675000Y-89750000D03*
D10*
X160675000Y-64000000D03*
X162325000Y-64000000D03*
D23*
X198275000Y-144500000D03*
X196725000Y-144500000D03*
X165525000Y-144500000D03*
X163975000Y-144500000D03*
X82775000Y-78500000D03*
X81225000Y-78500000D03*
D41*
X206750000Y-143300000D03*
X206750000Y-145200000D03*
D43*
X88750000Y-59437500D03*
X88750000Y-61562500D03*
D12*
X147475000Y-66995000D03*
X149025000Y-66995000D03*
D28*
X159162500Y-137250000D03*
X157337500Y-137250000D03*
D23*
X169025000Y-100250000D03*
X167475000Y-100250000D03*
D10*
X170425000Y-98750000D03*
X172075000Y-98750000D03*
X199675000Y-112750000D03*
X201325000Y-112750000D03*
D17*
X153837500Y-137250000D03*
X155662500Y-137250000D03*
D10*
X199675000Y-91250000D03*
X201325000Y-91250000D03*
D18*
X194475000Y-111195000D03*
X194475000Y-109925000D03*
X194475000Y-108655000D03*
X194475000Y-107385000D03*
X194475000Y-106115000D03*
X194475000Y-104845000D03*
X194475000Y-103575000D03*
X194475000Y-102305000D03*
X189525000Y-102305000D03*
X189525000Y-103575000D03*
X189525000Y-104845000D03*
X189525000Y-106115000D03*
X189525000Y-107385000D03*
X189525000Y-108655000D03*
X189525000Y-109925000D03*
X189525000Y-111195000D03*
D22*
X195975000Y-74500000D03*
X193025000Y-74500000D03*
D26*
X158250000Y-134850000D03*
X158250000Y-132150000D03*
D10*
X107910000Y-125750000D03*
X109560000Y-125750000D03*
D27*
X194000000Y-134450000D03*
X194000000Y-132550000D03*
D18*
X194475000Y-123695000D03*
X194475000Y-122425000D03*
X194475000Y-121155000D03*
X194475000Y-119885000D03*
X194475000Y-118615000D03*
X194475000Y-117345000D03*
X194475000Y-116075000D03*
X194475000Y-114805000D03*
X189525000Y-114805000D03*
X189525000Y-116075000D03*
X189525000Y-117345000D03*
X189525000Y-118615000D03*
X189525000Y-119885000D03*
X189525000Y-121155000D03*
X189525000Y-122425000D03*
X189525000Y-123695000D03*
D26*
X210250000Y-83400000D03*
X210250000Y-86100000D03*
D12*
X202725000Y-92750000D03*
X204275000Y-92750000D03*
D23*
X169025000Y-116250000D03*
X167475000Y-116250000D03*
D12*
X202725000Y-98750000D03*
X204275000Y-98750000D03*
X164475000Y-66980000D03*
X166025000Y-66980000D03*
D10*
X199675000Y-106750000D03*
X201325000Y-106750000D03*
D23*
X136275000Y-145250000D03*
X134725000Y-145250000D03*
D10*
X135425000Y-119750000D03*
X137075000Y-119750000D03*
D34*
X129500000Y-112225000D03*
X129500000Y-113775000D03*
D32*
X208612500Y-56000000D03*
X215387500Y-56000000D03*
D12*
X141725000Y-143250000D03*
X143275000Y-143250000D03*
D13*
X169825000Y-65490000D03*
X168175000Y-65490000D03*
D41*
X174000000Y-143300000D03*
X174000000Y-145200000D03*
D12*
X110960000Y-133000000D03*
X112510000Y-133000000D03*
D10*
X199675000Y-119250000D03*
X201325000Y-119250000D03*
D34*
X126000000Y-131225000D03*
X126000000Y-132775000D03*
D10*
X157675000Y-122250000D03*
X159325000Y-122250000D03*
D13*
X201325000Y-123750000D03*
X199675000Y-123750000D03*
D12*
X202725000Y-120750000D03*
X204275000Y-120750000D03*
D31*
X124000000Y-118275000D03*
X124000000Y-116725000D03*
X87000000Y-61275000D03*
X87000000Y-59725000D03*
M02*
