G04 #@! TF.GenerationSoftware,KiCad,Pcbnew,(6.0.9-0)*
G04 #@! TF.CreationDate,2023-02-07T08:34:20+01:00*
G04 #@! TF.ProjectId,Cockpit-CPU-Card,436f636b-7069-4742-9d43-50552d436172,A*
G04 #@! TF.SameCoordinates,Original*
G04 #@! TF.FileFunction,Soldermask,Bot*
G04 #@! TF.FilePolarity,Negative*
%FSLAX46Y46*%
G04 Gerber Fmt 4.6, Leading zero omitted, Abs format (unit mm)*
G04 Created by KiCad (PCBNEW (6.0.9-0)) date 2023-02-07 08:34:20*
%MOMM*%
%LPD*%
G01*
G04 APERTURE LIST*
G04 Aperture macros list*
%AMRoundRect*
0 Rectangle with rounded corners*
0 $1 Rounding radius*
0 $2 $3 $4 $5 $6 $7 $8 $9 X,Y pos of 4 corners*
0 Add a 4 corners polygon primitive as box body*
4,1,4,$2,$3,$4,$5,$6,$7,$8,$9,$2,$3,0*
0 Add four circle primitives for the rounded corners*
1,1,$1+$1,$2,$3*
1,1,$1+$1,$4,$5*
1,1,$1+$1,$6,$7*
1,1,$1+$1,$8,$9*
0 Add four rect primitives between the rounded corners*
20,1,$1+$1,$2,$3,$4,$5,0*
20,1,$1+$1,$4,$5,$6,$7,0*
20,1,$1+$1,$6,$7,$8,$9,0*
20,1,$1+$1,$8,$9,$2,$3,0*%
G04 Aperture macros list end*
%ADD10R,1.700000X1.700000*%
%ADD11O,1.700000X1.700000*%
%ADD12C,0.440000*%
%ADD13C,0.840000*%
%ADD14C,1.850000*%
%ADD15R,1.500000X1.600000*%
%ADD16C,1.600000*%
%ADD17C,3.000000*%
%ADD18C,3.250000*%
%ADD19R,1.524000X1.524000*%
%ADD20C,1.524000*%
%ADD21C,3.500000*%
%ADD22C,6.100000*%
%ADD23C,2.850000*%
%ADD24RoundRect,0.249999X-0.525001X0.525001X-0.525001X-0.525001X0.525001X-0.525001X0.525001X0.525001X0*%
%ADD25C,1.550000*%
%ADD26R,2.600000X2.600000*%
%ADD27C,2.600000*%
%ADD28O,3.300000X1.500000*%
%ADD29O,2.300000X1.500000*%
%ADD30R,1.800000X1.800000*%
%ADD31C,1.800000*%
G04 APERTURE END LIST*
D10*
X158025000Y-69825000D03*
D11*
X155485000Y-69825000D03*
X158025000Y-67285000D03*
X155485000Y-67285000D03*
X158025000Y-64745000D03*
X155485000Y-64745000D03*
X158025000Y-62205000D03*
X155485000Y-62205000D03*
X158025000Y-59665000D03*
X155485000Y-59665000D03*
D10*
X212775000Y-121725000D03*
D11*
X210235000Y-121725000D03*
X212775000Y-119185000D03*
X210235000Y-119185000D03*
X212775000Y-116645000D03*
X210235000Y-116645000D03*
X212775000Y-114105000D03*
X210235000Y-114105000D03*
X212775000Y-111565000D03*
X210235000Y-111565000D03*
X212775000Y-109025000D03*
X210235000Y-109025000D03*
X212775000Y-106485000D03*
X210235000Y-106485000D03*
X212775000Y-103945000D03*
X210235000Y-103945000D03*
X212775000Y-101405000D03*
X210235000Y-101405000D03*
X212775000Y-98865000D03*
X210235000Y-98865000D03*
X212775000Y-96325000D03*
X210235000Y-96325000D03*
X212775000Y-93785000D03*
X210235000Y-93785000D03*
X212775000Y-91245000D03*
X210235000Y-91245000D03*
D10*
X210210000Y-132170000D03*
D11*
X212750000Y-132170000D03*
X210210000Y-134710000D03*
X212750000Y-134710000D03*
X210210000Y-137250000D03*
X212750000Y-137250000D03*
X210210000Y-139790000D03*
X212750000Y-139790000D03*
X210210000Y-142330000D03*
X212750000Y-142330000D03*
D10*
X141025000Y-69820000D03*
D11*
X138485000Y-69820000D03*
X141025000Y-67280000D03*
X138485000Y-67280000D03*
X141025000Y-64740000D03*
X138485000Y-64740000D03*
X141025000Y-62200000D03*
X138485000Y-62200000D03*
X141025000Y-59660000D03*
X138485000Y-59660000D03*
D12*
X131530000Y-143050000D03*
X132530000Y-141100000D03*
D13*
X132530000Y-142400000D03*
X131530000Y-141750000D03*
X131530000Y-140450000D03*
D14*
X131750000Y-145325000D03*
X131750000Y-138175000D03*
D10*
X177460000Y-132125000D03*
D11*
X180000000Y-132125000D03*
X177460000Y-134665000D03*
X180000000Y-134665000D03*
X177460000Y-137205000D03*
X180000000Y-137205000D03*
X177460000Y-139745000D03*
X180000000Y-139745000D03*
X177460000Y-142285000D03*
X180000000Y-142285000D03*
D15*
X80610000Y-88000000D03*
D16*
X80610000Y-90500000D03*
X80610000Y-92500000D03*
X80610000Y-95000000D03*
D17*
X77900000Y-98070000D03*
X77900000Y-84930000D03*
D18*
X78250000Y-121715000D03*
X78250000Y-110285000D03*
D19*
X87140000Y-110285000D03*
D20*
X84600000Y-111555000D03*
X87140000Y-112825000D03*
X84600000Y-114095000D03*
X87140000Y-115365000D03*
X84600000Y-116635000D03*
X87140000Y-117905000D03*
X84600000Y-119175000D03*
X87140000Y-120445000D03*
X84600000Y-121715000D03*
X74186000Y-109370600D03*
X74186000Y-111910600D03*
X74186000Y-120089400D03*
X74186000Y-122629400D03*
D21*
X81298000Y-123747000D03*
X81298000Y-108253000D03*
D22*
X94000000Y-104250000D03*
X94000000Y-56250000D03*
X127000000Y-56250000D03*
X127000000Y-104250000D03*
D23*
X72794000Y-144450000D03*
X72794000Y-55550000D03*
X227206000Y-55550000D03*
X227206000Y-144450000D03*
D24*
X224666000Y-63170000D03*
D25*
X224666000Y-68250000D03*
X224666000Y-73330000D03*
X224666000Y-78410000D03*
X224666000Y-83490000D03*
X224666000Y-88570000D03*
X224666000Y-93650000D03*
X224666000Y-98730000D03*
X224666000Y-103810000D03*
X224666000Y-108890000D03*
X224666000Y-113970000D03*
X224666000Y-119050000D03*
X224666000Y-124130000D03*
X224666000Y-129210000D03*
X224666000Y-134290000D03*
X224666000Y-139370000D03*
X219586000Y-63170000D03*
X219586000Y-68250000D03*
X219586000Y-73330000D03*
X219586000Y-78410000D03*
X219586000Y-83490000D03*
X219586000Y-88570000D03*
X219586000Y-93650000D03*
X219586000Y-98730000D03*
X219586000Y-103810000D03*
X219586000Y-108890000D03*
X219586000Y-113970000D03*
X219586000Y-119050000D03*
X219586000Y-124130000D03*
X219586000Y-129210000D03*
X219586000Y-134290000D03*
X219586000Y-139370000D03*
D10*
X137225000Y-125500000D03*
D11*
X139765000Y-125500000D03*
X142305000Y-125500000D03*
D10*
X99460000Y-126420000D03*
D11*
X102000000Y-126420000D03*
X99460000Y-128960000D03*
X102000000Y-128960000D03*
X99460000Y-131500000D03*
X102000000Y-131500000D03*
X99460000Y-134040000D03*
X102000000Y-134040000D03*
X99460000Y-136580000D03*
X102000000Y-136580000D03*
X99460000Y-139120000D03*
X102000000Y-139120000D03*
X99460000Y-141660000D03*
X102000000Y-141660000D03*
X99460000Y-144200000D03*
X102000000Y-144200000D03*
D26*
X180945000Y-59410000D03*
D27*
X180945000Y-64490000D03*
X180945000Y-69570000D03*
D28*
X79495000Y-75500000D03*
D29*
X73535000Y-61000000D03*
D28*
X79495000Y-61000000D03*
D29*
X73535000Y-75500000D03*
D30*
X74500000Y-137775000D03*
D31*
X74500000Y-135235000D03*
D10*
X180025000Y-121975000D03*
D11*
X177485000Y-121975000D03*
X180025000Y-119435000D03*
X177485000Y-119435000D03*
X180025000Y-116895000D03*
X177485000Y-116895000D03*
X180025000Y-114355000D03*
X177485000Y-114355000D03*
X180025000Y-111815000D03*
X177485000Y-111815000D03*
X180025000Y-109275000D03*
X177485000Y-109275000D03*
X180025000Y-106735000D03*
X177485000Y-106735000D03*
X180025000Y-104195000D03*
X177485000Y-104195000D03*
X180025000Y-101655000D03*
X177485000Y-101655000D03*
X180025000Y-99115000D03*
X177485000Y-99115000D03*
X180025000Y-96575000D03*
X177485000Y-96575000D03*
X180025000Y-94035000D03*
X177485000Y-94035000D03*
X180025000Y-91495000D03*
X177485000Y-91495000D03*
D30*
X79250000Y-137775000D03*
D31*
X79250000Y-135235000D03*
M02*
