M48
; DRILL file {KiCad (6.0.9-0)} date 2023 February 07, Tuesday 08:34:23
; FORMAT={-:-/ absolute / metric / decimal}
; #@! TF.CreationDate,2023-02-07T08:34:23+01:00
; #@! TF.GenerationSoftware,Kicad,Pcbnew,(6.0.9-0)
; #@! TF.FileFunction,Plated,1,4,PTH
FMAT,2
METRIC
; #@! TA.AperFunction,Plated,PTH,ViaDrill
T1C0.200
; #@! TA.AperFunction,Plated,PTH,ViaDrill
T2C0.400
; #@! TA.AperFunction,Plated,PTH,ComponentDrill
T3C0.440
; #@! TA.AperFunction,Plated,PTH,ComponentDrill
T4C0.900
; #@! TA.AperFunction,Plated,PTH,ComponentDrill
T5C0.950
; #@! TA.AperFunction,Plated,PTH,ComponentDrill
T6C1.000
; #@! TA.AperFunction,Plated,PTH,ComponentDrill
T7C1.300
; #@! TA.AperFunction,Plated,PTH,ComponentDrill
T8C1.350
; #@! TA.AperFunction,Plated,PTH,ComponentDrill
T9C1.600
; #@! TA.AperFunction,Plated,PTH,ComponentDrill
T10C2.300
%
G90
G05
T1
X73.0Y-131.75
X73.5Y-132.5
X75.825Y-131.425
X81.75Y-64.75
X81.75Y-67.75
X81.75Y-69.25
X81.75Y-70.75
X81.75Y-72.25
X82.75Y-57.75
X82.75Y-59.25
X82.75Y-77.75
X82.75Y-79.25
X82.75Y-81.75
X82.75Y-83.5
X83.0Y-131.0
X83.5Y-58.5
X83.5Y-68.5
X83.5Y-71.5
X83.5Y-78.5
X83.5Y-82.5
X83.75Y-56.5
X83.75Y-80.5
X83.75Y-101.0
X83.75Y-104.0
X85.0Y-131.0
X85.5Y-68.5
X85.5Y-71.5
X85.5Y-127.0
X85.75Y-129.0
X86.0Y-63.0
X86.0Y-64.5
X86.25Y-59.75
X86.25Y-83.5
X86.5Y-92.0
X86.5Y-104.5
X86.5Y-139.25
X86.5Y-145.0
X87.0Y-59.0
X87.0Y-82.75
X87.25Y-103.75
X87.5Y-130.0
X88.0Y-53.25
X88.0Y-76.75
X88.0Y-104.5
X88.0Y-137.25
X88.0Y-147.25
X88.25Y-130.75
X88.5Y-92.0
X88.75Y-129.75
X89.0Y-66.75
X89.25Y-63.75
X89.25Y-139.25
X91.75Y-132.25
X91.75Y-133.75
X92.25Y-67.0
X92.25Y-88.75
X92.5Y-113.0
X92.5Y-119.0
X93.5Y-68.5
X93.5Y-69.75
X93.5Y-70.75
X93.5Y-72.0
X93.5Y-73.25
X93.5Y-74.5
X93.5Y-76.75
X93.5Y-78.0
X93.5Y-79.25
X93.5Y-80.5
X93.5Y-81.5
X93.5Y-82.75
X93.5Y-84.0
X93.5Y-85.25
X93.5Y-86.5
X93.5Y-87.75
X93.5Y-88.75
X94.5Y-113.0
X94.5Y-119.0
X94.975Y-140.775
X95.0Y-67.0
X95.0Y-88.75
X96.5Y-142.25
X97.25Y-143.0
X97.25Y-144.75
X97.75Y-74.5
X98.5Y-73.5
X108.0Y-126.75
X108.0Y-131.5
X108.0Y-134.0
X108.0Y-138.25
X108.5Y-136.5
X108.75Y-144.0
X108.75Y-145.25
X109.75Y-143.25
X110.174Y-124.892
X111.0Y-128.5
X111.0Y-130.5
X111.0Y-140.0
X112.5Y-124.25
X113.25Y-121.25
X113.25Y-127.25
X113.25Y-131.5
X113.25Y-133.0
X113.25Y-137.25
X113.25Y-138.75
X113.25Y-143.25
X113.25Y-144.75
X116.25Y-139.25
X116.25Y-145.0
X116.75Y-123.25
X116.75Y-127.25
X116.897Y-122.249
X117.5Y-124.0
X117.5Y-126.548
X117.506Y-127.952
X117.75Y-137.25
X117.75Y-147.25
X118.0Y-131.25
X118.0Y-132.75
X118.75Y-130.5
X118.75Y-133.5
X118.996Y-126.548
X119.0Y-122.5
X119.0Y-124.0
X119.0Y-127.952
X119.25Y-139.25
X119.25Y-145.0
X119.75Y-123.25
X119.75Y-127.25
X120.25Y-130.5
X120.25Y-133.5
X120.647Y-124.603
X121.0Y-126.5
X121.0Y-122.75
X121.5Y-123.75
X121.5Y-125.25
X121.75Y-130.5
X121.75Y-133.5
X122.5Y-110.5
X122.5Y-111.5
X122.5Y-112.5
X122.5Y-113.5
X122.5Y-114.5
X122.5Y-115.5
X122.5Y-127.5
X123.0Y-116.25
X123.25Y-128.75
X123.25Y-130.5
X123.25Y-133.5
X123.25Y-136.75
X123.5Y-110.5
X123.5Y-115.5
X123.5Y-123.0
X123.5Y-126.75
X123.75Y-124.25
X123.75Y-125.5
X123.9Y-118.971
X124.0Y-77.25
X124.25Y-74.25
X124.25Y-76.5
X124.25Y-121.75
X124.5Y-110.5
X124.5Y-115.5
X124.5Y-116.25
X124.65Y-126.77
X124.75Y-120.0
X125.0Y-71.0
X125.0Y-74.25
X125.0Y-76.5
X125.0Y-85.0
X125.0Y-86.5
X125.0Y-87.5
X125.0Y-117.5
X125.5Y-110.5
X125.5Y-115.5
X125.5Y-118.5
X125.5Y-119.5
X125.849Y-128.795
X126.0Y-67.0
X126.0Y-122.5
X126.0Y-126.0
X126.0Y-130.5
X126.0Y-133.5
X126.0Y-136.75
X126.036Y-126.732
X126.5Y-110.5
X126.5Y-121.75
X126.5Y-138.0
X126.5Y-145.25
X126.75Y-132.75
X127.25Y-137.25
X127.25Y-138.75
X127.25Y-144.5
X127.25Y-146.0
X127.5Y-67.5
X127.5Y-68.75
X127.5Y-70.75
X127.5Y-72.0
X127.5Y-73.25
X127.5Y-74.5
X127.5Y-76.5
X127.5Y-77.5
X127.5Y-78.5
X127.5Y-79.5
X127.5Y-80.5
X127.5Y-81.5
X127.5Y-82.5
X127.5Y-83.5
X127.5Y-110.5
X127.5Y-115.5
X127.5Y-116.5
X127.5Y-117.5
X127.5Y-118.5
X127.5Y-121.75
X127.5Y-135.25
X127.75Y-124.25
X128.0Y-85.0
X128.5Y-110.5
X128.5Y-115.5
X128.5Y-123.25
X129.0Y-67.0
X129.5Y-110.5
X129.5Y-115.5
X129.75Y-86.25
X129.75Y-87.75
X130.0Y-71.25
X130.5Y-70.75
X130.5Y-84.75
X130.5Y-110.5
X130.5Y-111.5
X130.5Y-112.5
X130.5Y-113.5
X130.5Y-114.5
X130.5Y-115.5
X130.5Y-126.51
X130.5Y-127.25
X130.75Y-123.75
X131.0Y-84.0
X131.0Y-133.0
X131.0Y-135.0
X131.25Y-72.75
X131.25Y-77.0
X131.368Y-126.03
X131.75Y-70.0
X131.75Y-127.25
X131.75Y-128.75
X132.0Y-72.75
X132.5Y-77.75
X132.75Y-72.75
X132.75Y-131.75
X133.0Y-135.0
X133.25Y-70.0
X133.25Y-122.0
X133.25Y-123.5
X133.5Y-72.75
X134.0Y-70.75
X134.0Y-129.5
X134.5Y-131.75
X134.75Y-121.25
X134.75Y-122.0
X134.75Y-123.5
X134.75Y-127.25
X134.75Y-128.75
X136.25Y-137.25
X136.25Y-138.75
X136.25Y-140.75
X136.25Y-142.75
X136.25Y-144.5
X136.25Y-146.0
X137.0Y-138.0
X137.0Y-145.25
X137.25Y-141.75
X141.0Y-143.25
X141.25Y-76.75
X141.75Y-77.25
X141.75Y-142.5
X141.75Y-144.0
X142.0Y-88.0
X142.5Y-64.0
X142.5Y-68.5
X143.25Y-142.5
X143.25Y-144.0
X143.5Y-134.0
X143.5Y-137.25
X144.0Y-143.25
X144.5Y-140.5
X146.0Y-79.25
X146.0Y-80.75
X146.75Y-78.5
X146.75Y-81.5
X146.75Y-99.0
X146.75Y-123.0
X146.75Y-132.25
X147.0Y-82.25
X147.0Y-111.5
X147.25Y-122.5
X147.5Y-79.25
X147.5Y-80.75
X147.5Y-98.5
X147.5Y-111.0
X148.0Y-82.25
X148.0Y-97.75
X148.0Y-110.5
X148.0Y-122.02
X148.5Y-96.25
X148.5Y-108.75
X148.5Y-121.25
X148.5Y-141.75
X149.25Y-100.25
X149.25Y-112.75
X149.25Y-125.25
X149.25Y-140.5
X149.75Y-62.5
X149.75Y-64.0
X149.75Y-65.5
X149.75Y-67.0
X149.75Y-68.5
X149.75Y-80.5
X150.0Y-99.5
X150.0Y-101.0
X150.0Y-112.0
X150.0Y-113.5
X150.0Y-124.5
X150.0Y-142.0
X150.5Y-70.0
X150.5Y-144.75
X151.0Y-145.5
X151.414Y-99.586
X151.5Y-101.0
X151.5Y-112.0
X151.5Y-113.5
X151.5Y-116.0
X151.5Y-124.5
X151.5Y-146.25
X151.75Y-64.75
X151.75Y-66.25
X151.75Y-67.75
X151.75Y-70.0
X151.75Y-97.0
X151.75Y-109.5
X152.0Y-63.25
X152.0Y-147.0
X152.25Y-70.5
X152.25Y-100.25
X152.25Y-112.75
X152.25Y-125.25
X152.735Y-98.181
X152.75Y-71.0
X152.75Y-111.25
X153.0Y-130.0
X153.0Y-137.25
X153.5Y-62.5
X153.5Y-64.0
X153.5Y-65.5
X153.5Y-67.0
X153.5Y-68.5
X153.75Y-88.0
X153.75Y-131.0
X153.75Y-134.5
X153.75Y-136.25
X153.75Y-138.25
X153.75Y-142.0
X154.75Y-135.25
X154.75Y-142.75
X155.0Y-89.0
X155.0Y-99.5
X155.0Y-101.5
X155.0Y-112.0
X155.0Y-114.0
X155.75Y-134.5
X155.75Y-142.0
X157.0Y-89.75
X157.0Y-91.25
X157.0Y-92.75
X157.0Y-94.25
X157.0Y-95.75
X157.0Y-97.02
X157.0Y-98.75
X157.0Y-100.25
X157.0Y-102.25
X157.0Y-103.75
X157.0Y-105.25
X157.0Y-106.75
X157.0Y-108.25
X157.0Y-109.75
X157.0Y-111.25
X157.0Y-112.75
X157.0Y-114.75
X157.0Y-116.25
X157.0Y-117.75
X157.0Y-119.25
X157.0Y-120.75
X157.0Y-122.25
X157.0Y-123.75
X157.0Y-125.25
X157.5Y-85.5
X158.25Y-112.0
X158.5Y-96.5
X158.5Y-98.0
X158.5Y-99.5
X158.5Y-101.0
X158.5Y-109.0
X158.5Y-110.5
X158.5Y-113.25
X158.5Y-121.5
X158.5Y-123.0
X158.5Y-124.5
X158.5Y-126.0
X159.5Y-64.0
X159.5Y-68.5
X160.25Y-130.0
X160.25Y-137.25
X160.5Y-132.5
X160.5Y-140.0
X161.36Y-131.749
X161.5Y-139.25
X162.5Y-131.25
X162.5Y-132.5
X162.5Y-140.0
X163.0Y-133.75
X163.25Y-136.25
X163.25Y-144.5
X164.0Y-135.5
X164.0Y-137.0
X164.0Y-139.75
X164.0Y-142.5
X164.0Y-143.75
X164.0Y-145.102
X164.525Y-133.475
X164.525Y-141.775
X165.0Y-129.446
X165.5Y-135.5
X165.5Y-137.0
X165.5Y-143.75
X165.5Y-145.0
X165.84Y-126.003
X166.25Y-136.25
X166.25Y-144.5
X166.5Y-129.249
X166.75Y-62.5
X166.75Y-64.0
X166.75Y-65.5
X166.75Y-67.0
X166.75Y-68.5
X166.75Y-89.75
X166.75Y-91.25
X166.75Y-92.75
X166.75Y-94.25
X166.75Y-95.75
X166.75Y-97.25
X166.75Y-98.75
X166.75Y-100.25
X166.75Y-102.25
X166.75Y-103.75
X166.75Y-105.25
X166.75Y-106.75
X166.75Y-108.25
X166.75Y-109.75
X166.75Y-111.25
X166.75Y-112.75
X166.75Y-114.75
X166.75Y-116.25
X166.75Y-117.75
X166.75Y-119.25
X166.75Y-120.75
X166.75Y-122.25
X166.75Y-123.75
X166.75Y-125.25
X167.25Y-132.0
X167.25Y-133.25
X167.25Y-140.25
X167.25Y-141.5
X167.5Y-70.0
X167.75Y-71.25
X168.75Y-67.61
X168.75Y-69.11
X169.0Y-63.25
X169.0Y-64.75
X169.0Y-66.25
X169.25Y-71.75
X169.75Y-72.25
X170.0Y-140.5
X170.249Y-72.86
X170.5Y-62.5
X170.5Y-64.0
X170.5Y-138.5
X170.599Y-65.479
X170.631Y-66.96
X170.699Y-68.5
X172.75Y-130.25
X172.75Y-131.5
X172.75Y-133.5
X172.981Y-145.0
X173.0Y-137.0
X173.0Y-139.75
X173.0Y-141.5
X174.0Y-137.75
X175.0Y-137.0
X175.0Y-145.0
X177.5Y-77.75
X181.0Y-74.25
X183.75Y-129.25
X183.869Y-125.905
X184.124Y-127.342
X184.5Y-126.75
X184.693Y-129.35
X185.5Y-137.25
X186.25Y-129.099
X186.25Y-131.0
X186.25Y-134.5
X186.25Y-136.25
X186.25Y-138.25
X186.25Y-142.0
X187.25Y-135.25
X187.25Y-142.75
X188.25Y-78.25
X188.25Y-79.25
X188.25Y-134.5
X188.25Y-142.0
X188.75Y-78.75
X189.25Y-78.25
X189.25Y-79.25
X189.5Y-99.5
X189.5Y-101.0
X189.5Y-112.0
X189.5Y-113.5
X189.5Y-124.5
X189.5Y-126.0
X189.75Y-78.75
X190.25Y-78.25
X190.25Y-79.25
X191.0Y-91.0
X191.0Y-94.75
X191.0Y-103.25
X191.0Y-107.25
X191.0Y-115.75
X191.0Y-119.75
X191.5Y-94.0
X191.5Y-97.5
X191.5Y-99.75
X191.5Y-100.75
X191.5Y-106.25
X191.5Y-110.5
X191.5Y-112.25
X191.5Y-113.25
X191.5Y-118.75
X191.5Y-122.5
X191.5Y-124.75
X191.5Y-125.75
X192.5Y-94.0
X192.5Y-106.25
X192.5Y-118.75
X193.0Y-97.5
X193.0Y-110.5
X193.0Y-122.5
X193.0Y-130.0
X193.0Y-132.5
X193.0Y-140.0
X193.5Y-138.0
X194.0Y-131.5
X194.0Y-139.25
X195.0Y-82.0
X195.0Y-132.5
X195.0Y-140.0
X195.75Y-82.0
X196.0Y-89.75
X196.0Y-102.25
X196.0Y-114.75
X196.0Y-136.25
X196.0Y-144.5
X196.5Y-82.0
X196.5Y-133.5
X196.75Y-134.25
X196.75Y-137.0
X196.75Y-139.75
X196.75Y-142.25
X196.75Y-143.75
X196.75Y-145.25
X197.103Y-133.103
X197.25Y-143.0
X197.25Y-140.425
X198.25Y-56.5
X198.25Y-68.0
X198.25Y-79.75
X198.5Y-143.75
X198.5Y-145.25
X198.599Y-137.0
X199.0Y-136.25
X199.0Y-144.5
X200.0Y-132.0
X200.0Y-133.0
X200.0Y-141.0
X200.0Y-142.0
X202.75Y-140.5
X203.0Y-138.5
X205.0Y-89.75
X205.0Y-91.25
X205.0Y-92.75
X205.0Y-94.25
X205.0Y-95.75
X205.0Y-97.25
X205.0Y-98.75
X205.0Y-100.25
X205.0Y-102.25
X205.0Y-103.75
X205.0Y-105.25
X205.0Y-106.75
X205.0Y-108.25
X205.0Y-109.75
X205.0Y-111.25
X205.0Y-112.75
X205.0Y-114.75
X205.0Y-116.25
X205.0Y-117.75
X205.0Y-119.25
X205.0Y-120.75
X205.0Y-122.25
X205.0Y-123.75
X205.0Y-125.25
X205.5Y-130.0
X205.5Y-131.5
X205.5Y-133.25
X205.5Y-139.75
X205.5Y-141.5
X205.75Y-137.0
X205.75Y-145.25
X206.75Y-137.75
X206.75Y-146.0
X207.75Y-137.0
X207.75Y-145.25
T2
X71.0Y-51.0
X71.0Y-53.0
X71.0Y-57.0
X71.0Y-59.0
X71.0Y-61.0
X71.0Y-63.0
X71.0Y-65.0
X71.0Y-67.0
X71.0Y-69.0
X71.0Y-71.0
X71.0Y-73.0
X71.0Y-75.0
X71.0Y-77.0
X71.0Y-79.0
X71.0Y-81.0
X71.0Y-83.0
X71.0Y-85.0
X71.0Y-87.0
X71.0Y-89.0
X71.0Y-91.0
X71.0Y-93.0
X71.0Y-95.0
X71.0Y-97.0
X71.0Y-99.0
X71.0Y-101.0
X71.0Y-103.0
X71.0Y-105.0
X71.0Y-107.0
X71.0Y-109.0
X71.0Y-111.0
X71.0Y-113.0
X71.0Y-115.0
X71.0Y-117.0
X71.0Y-119.0
X71.0Y-121.0
X71.0Y-123.0
X71.0Y-125.0
X71.0Y-127.0
X71.0Y-129.0
X71.0Y-131.0
X71.0Y-133.0
X71.0Y-135.0
X71.0Y-137.0
X71.0Y-139.0
X71.0Y-141.0
X71.0Y-143.0
X71.0Y-147.0
X71.0Y-149.0
X73.0Y-51.0
X73.0Y-129.0
X73.0Y-149.0
X75.0Y-51.0
X75.0Y-129.0
X75.0Y-145.0
X75.0Y-149.0
X76.815Y-130.675
X77.0Y-51.0
X77.0Y-63.0
X77.0Y-65.0
X77.0Y-67.0
X77.0Y-69.0
X77.0Y-71.0
X77.0Y-73.0
X77.0Y-129.0
X77.0Y-149.0
X78.0Y-89.0
X78.0Y-91.0
X78.0Y-93.0
X78.0Y-95.0
X79.0Y-51.0
X79.0Y-55.0
X79.0Y-57.0
X79.0Y-59.0
X79.0Y-79.0
X79.0Y-81.0
X79.0Y-101.0
X79.0Y-103.0
X79.0Y-105.0
X79.0Y-129.0
X79.0Y-149.0
X80.0Y-145.0
X81.0Y-51.0
X81.0Y-53.0
X81.0Y-55.0
X81.0Y-99.0
X81.0Y-127.0
X81.0Y-129.0
X81.0Y-131.0
X81.0Y-149.0
X82.0Y-111.0
X82.0Y-113.0
X82.0Y-115.0
X82.0Y-117.0
X82.0Y-119.0
X83.0Y-51.0
X83.0Y-53.0
X83.0Y-61.0
X83.0Y-63.0
X83.0Y-75.0
X83.0Y-149.0
X85.0Y-51.0
X85.0Y-55.0
X85.0Y-57.0
X85.0Y-59.0
X85.0Y-61.0
X85.0Y-77.0
X85.0Y-79.0
X85.0Y-81.0
X85.0Y-83.0
X85.0Y-85.0
X85.0Y-87.0
X85.0Y-89.0
X85.0Y-95.0
X85.0Y-97.0
X85.0Y-99.0
X85.0Y-101.0
X85.0Y-103.0
X85.0Y-105.0
X85.0Y-107.0
X85.0Y-123.0
X85.0Y-125.0
X85.0Y-140.0
X85.0Y-145.0
X85.0Y-149.0
X87.0Y-51.0
X87.0Y-149.0
X89.0Y-51.0
X89.0Y-149.0
X90.0Y-60.0
X90.0Y-95.0
X90.0Y-100.0
X90.0Y-105.0
X90.0Y-135.0
X90.0Y-140.0
X90.0Y-145.0
X91.0Y-51.0
X91.0Y-149.0
X93.0Y-51.0
X93.0Y-149.0
X95.0Y-51.0
X95.0Y-60.0
X95.0Y-95.0
X95.0Y-100.0
X95.0Y-135.0
X95.0Y-149.0
X97.0Y-51.0
X97.0Y-149.0
X99.0Y-51.0
X99.0Y-149.0
X100.0Y-55.0
X100.0Y-60.0
X100.0Y-65.0
X100.0Y-70.0
X100.0Y-80.0
X100.0Y-85.0
X100.0Y-90.0
X100.0Y-95.0
X100.0Y-100.0
X101.0Y-51.0
X101.0Y-149.0
X103.0Y-51.0
X103.0Y-149.0
X105.0Y-51.0
X105.0Y-55.0
X105.0Y-60.0
X105.0Y-65.0
X105.0Y-70.0
X105.0Y-80.0
X105.0Y-85.0
X105.0Y-90.0
X105.0Y-95.0
X105.0Y-149.0
X107.0Y-51.0
X107.0Y-149.0
X109.0Y-51.0
X109.0Y-149.0
X110.0Y-55.0
X110.0Y-60.0
X110.0Y-65.0
X110.0Y-70.0
X110.0Y-80.0
X110.0Y-85.0
X110.0Y-90.0
X110.0Y-120.0
X111.0Y-51.0
X111.0Y-149.0
X113.0Y-51.0
X113.0Y-149.0
X115.0Y-51.0
X115.0Y-55.0
X115.0Y-60.0
X115.0Y-65.0
X115.0Y-70.0
X115.0Y-80.0
X115.0Y-85.0
X115.0Y-115.0
X115.0Y-120.0
X115.0Y-149.0
X117.0Y-51.0
X117.0Y-149.0
X119.0Y-51.0
X119.0Y-149.0
X120.0Y-55.0
X120.0Y-60.0
X120.0Y-65.0
X120.0Y-70.0
X120.0Y-80.0
X121.0Y-51.0
X121.0Y-149.0
X123.0Y-51.0
X123.0Y-149.0
X125.0Y-51.0
X125.0Y-60.0
X125.0Y-65.0
X125.0Y-145.0
X125.0Y-149.0
X127.0Y-51.0
X127.0Y-149.0
X129.0Y-51.0
X129.0Y-149.0
X130.0Y-60.0
X130.0Y-65.0
X130.0Y-100.0
X131.0Y-51.0
X131.0Y-149.0
X133.0Y-51.0
X133.0Y-149.0
X135.0Y-51.0
X135.0Y-55.0
X135.0Y-60.0
X135.0Y-65.0
X135.0Y-70.0
X135.0Y-80.0
X135.0Y-85.0
X135.0Y-90.0
X135.0Y-95.0
X135.0Y-100.0
X135.0Y-110.0
X135.0Y-115.0
X135.0Y-149.0
X137.0Y-51.0
X137.0Y-149.0
X139.0Y-51.0
X139.0Y-149.0
X140.0Y-55.0
X140.0Y-105.0
X140.0Y-110.0
X140.0Y-115.0
X140.0Y-140.0
X140.0Y-145.0
X141.0Y-51.0
X141.0Y-149.0
X143.0Y-51.0
X143.0Y-149.0
X145.0Y-51.0
X145.0Y-55.0
X145.0Y-60.0
X145.0Y-105.0
X145.0Y-110.0
X145.0Y-115.0
X145.0Y-120.0
X145.0Y-145.0
X145.0Y-149.0
X147.0Y-51.0
X147.0Y-149.0
X149.0Y-51.0
X149.0Y-149.0
X150.0Y-55.0
X150.0Y-60.0
X151.0Y-51.0
X151.0Y-149.0
X153.0Y-51.0
X153.0Y-149.0
X155.0Y-51.0
X155.0Y-55.0
X155.0Y-145.0
X155.0Y-149.0
X157.0Y-51.0
X157.0Y-149.0
X159.0Y-51.0
X159.0Y-149.0
X160.0Y-55.0
X160.0Y-60.0
X160.0Y-80.0
X160.0Y-145.0
X161.0Y-51.0
X161.0Y-149.0
X163.0Y-51.0
X163.0Y-149.0
X165.0Y-51.0
X165.0Y-55.0
X165.0Y-60.0
X165.0Y-80.0
X165.0Y-149.0
X167.0Y-51.0
X167.0Y-149.0
X169.0Y-51.0
X169.0Y-149.0
X170.0Y-55.0
X170.0Y-60.0
X170.0Y-85.0
X171.0Y-51.0
X171.0Y-149.0
X173.0Y-51.0
X173.0Y-149.0
X175.0Y-51.0
X175.0Y-55.0
X175.0Y-60.0
X175.0Y-65.0
X175.0Y-70.0
X175.0Y-80.0
X175.0Y-85.0
X175.0Y-90.0
X175.0Y-125.0
X175.0Y-149.0
X177.0Y-51.0
X177.0Y-149.0
X179.0Y-51.0
X179.0Y-149.0
X180.0Y-55.0
X180.0Y-85.0
X180.0Y-125.0
X181.0Y-51.0
X181.0Y-149.0
X183.0Y-51.0
X183.0Y-149.0
X185.0Y-51.0
X185.0Y-55.0
X185.0Y-85.0
X185.0Y-90.0
X185.0Y-95.0
X185.0Y-100.0
X185.0Y-105.0
X185.0Y-110.0
X185.0Y-115.0
X185.0Y-120.0
X185.0Y-125.0
X185.0Y-135.0
X185.0Y-140.0
X185.0Y-145.0
X185.0Y-149.0
X187.0Y-51.0
X187.0Y-149.0
X189.0Y-51.0
X189.0Y-60.75
X189.0Y-72.25
X189.0Y-83.75
X189.0Y-149.0
X190.75Y-61.5
X190.75Y-73.0
X190.75Y-84.5
X191.0Y-51.0
X191.0Y-149.0
X191.75Y-61.5
X191.75Y-62.5
X191.75Y-63.5
X191.75Y-73.0
X191.75Y-74.0
X191.75Y-75.0
X191.75Y-84.5
X191.75Y-85.5
X191.75Y-86.5
X193.0Y-51.0
X193.0Y-149.0
X195.0Y-51.0
X195.0Y-149.0
X197.0Y-51.0
X197.0Y-149.0
X199.0Y-51.0
X199.0Y-149.0
X200.5Y-54.0
X200.5Y-55.0
X200.5Y-56.5
X200.5Y-57.5
X200.5Y-65.5
X200.5Y-66.5
X200.5Y-68.0
X200.5Y-69.0
X200.5Y-77.0
X200.5Y-78.0
X200.5Y-79.5
X200.5Y-80.5
X201.0Y-51.0
X201.0Y-149.0
X203.0Y-51.0
X203.0Y-83.0
X203.0Y-84.0
X203.0Y-85.75
X203.0Y-86.75
X203.0Y-149.0
X205.0Y-51.0
X205.0Y-149.0
X207.0Y-51.0
X207.0Y-149.0
X208.25Y-87.5
X209.0Y-51.0
X209.0Y-149.0
X209.25Y-87.5
X210.0Y-125.0
X210.0Y-145.0
X210.25Y-87.5
X211.0Y-51.0
X211.0Y-149.0
X211.25Y-87.5
X213.0Y-51.0
X213.0Y-87.5
X213.0Y-149.0
X213.75Y-77.0
X213.75Y-79.0
X213.75Y-81.0
X214.0Y-87.5
X215.0Y-51.0
X215.0Y-90.0
X215.0Y-95.0
X215.0Y-100.0
X215.0Y-105.0
X215.0Y-110.0
X215.0Y-115.0
X215.0Y-120.0
X215.0Y-125.0
X215.0Y-130.0
X215.0Y-135.0
X215.0Y-140.0
X215.0Y-145.0
X215.0Y-149.0
X215.5Y-87.5
X216.5Y-87.5
X217.0Y-51.0
X217.0Y-149.0
X219.0Y-51.0
X219.0Y-149.0
X220.0Y-145.0
X221.0Y-51.0
X221.0Y-149.0
X223.0Y-51.0
X223.0Y-149.0
X225.0Y-51.0
X225.0Y-55.0
X225.0Y-145.0
X225.0Y-149.0
X227.0Y-51.0
X227.0Y-149.0
X229.0Y-51.0
X229.0Y-53.0
X229.0Y-57.0
X229.0Y-59.0
X229.0Y-61.0
X229.0Y-63.0
X229.0Y-65.0
X229.0Y-67.0
X229.0Y-69.0
X229.0Y-71.0
X229.0Y-73.0
X229.0Y-75.0
X229.0Y-77.0
X229.0Y-79.0
X229.0Y-81.0
X229.0Y-83.0
X229.0Y-85.0
X229.0Y-87.0
X229.0Y-89.0
X229.0Y-91.0
X229.0Y-93.0
X229.0Y-95.0
X229.0Y-97.0
X229.0Y-99.0
X229.0Y-101.0
X229.0Y-103.0
X229.0Y-105.0
X229.0Y-107.0
X229.0Y-109.0
X229.0Y-111.0
X229.0Y-113.0
X229.0Y-115.0
X229.0Y-117.0
X229.0Y-119.0
X229.0Y-121.0
X229.0Y-123.0
X229.0Y-125.0
X229.0Y-127.0
X229.0Y-129.0
X229.0Y-131.0
X229.0Y-133.0
X229.0Y-135.0
X229.0Y-137.0
X229.0Y-139.0
X229.0Y-141.0
X229.0Y-143.0
X229.0Y-147.0
X229.0Y-149.0
T3
X131.53Y-140.45
X131.53Y-141.75
X132.53Y-142.4
T4
X74.186Y-109.371
X74.186Y-111.911
X74.186Y-120.089
X74.186Y-122.629
X74.5Y-135.235
X74.5Y-137.775
X79.25Y-135.235
X79.25Y-137.775
X84.6Y-111.555
X84.6Y-114.095
X84.6Y-116.635
X84.6Y-119.175
X84.6Y-121.715
X87.14Y-110.285
X87.14Y-112.825
X87.14Y-115.365
X87.14Y-117.905
X87.14Y-120.445
T5
X80.61Y-88.0
X80.61Y-90.5
X80.61Y-92.5
X80.61Y-95.0
T6
X99.46Y-126.42
X99.46Y-128.96
X99.46Y-131.5
X99.46Y-134.04
X99.46Y-136.58
X99.46Y-139.12
X99.46Y-141.66
X99.46Y-144.2
X102.0Y-126.42
X102.0Y-128.96
X102.0Y-131.5
X102.0Y-134.04
X102.0Y-136.58
X102.0Y-139.12
X102.0Y-141.66
X102.0Y-144.2
X137.225Y-125.5
X138.485Y-59.66
X138.485Y-62.2
X138.485Y-64.74
X138.485Y-67.28
X138.485Y-69.82
X139.765Y-125.5
X141.025Y-59.66
X141.025Y-62.2
X141.025Y-64.74
X141.025Y-67.28
X141.025Y-69.82
X142.305Y-125.5
X155.485Y-59.665
X155.485Y-62.205
X155.485Y-64.745
X155.485Y-67.285
X155.485Y-69.825
X158.025Y-59.665
X158.025Y-62.205
X158.025Y-64.745
X158.025Y-67.285
X158.025Y-69.825
X177.46Y-132.125
X177.46Y-134.665
X177.46Y-137.205
X177.46Y-139.745
X177.46Y-142.285
X177.485Y-91.495
X177.485Y-94.035
X177.485Y-96.575
X177.485Y-99.115
X177.485Y-101.655
X177.485Y-104.195
X177.485Y-106.735
X177.485Y-109.275
X177.485Y-111.815
X177.485Y-114.355
X177.485Y-116.895
X177.485Y-119.435
X177.485Y-121.975
X180.0Y-132.125
X180.0Y-134.665
X180.0Y-137.205
X180.0Y-139.745
X180.0Y-142.285
X180.025Y-91.495
X180.025Y-94.035
X180.025Y-96.575
X180.025Y-99.115
X180.025Y-101.655
X180.025Y-104.195
X180.025Y-106.735
X180.025Y-109.275
X180.025Y-111.815
X180.025Y-114.355
X180.025Y-116.895
X180.025Y-119.435
X180.025Y-121.975
X210.21Y-132.17
X210.21Y-134.71
X210.21Y-137.25
X210.21Y-139.79
X210.21Y-142.33
X210.235Y-91.245
X210.235Y-93.785
X210.235Y-96.325
X210.235Y-98.865
X210.235Y-101.405
X210.235Y-103.945
X210.235Y-106.485
X210.235Y-109.025
X210.235Y-111.565
X210.235Y-114.105
X210.235Y-116.645
X210.235Y-119.185
X210.235Y-121.725
X212.75Y-132.17
X212.75Y-134.71
X212.75Y-137.25
X212.75Y-139.79
X212.75Y-142.33
X212.775Y-91.245
X212.775Y-93.785
X212.775Y-96.325
X212.775Y-98.865
X212.775Y-101.405
X212.775Y-103.945
X212.775Y-106.485
X212.775Y-109.025
X212.775Y-111.565
X212.775Y-114.105
X212.775Y-116.645
X212.775Y-119.185
X212.775Y-121.725
X219.586Y-63.17
X219.586Y-68.25
X219.586Y-73.33
X219.586Y-78.41
X219.586Y-83.49
X219.586Y-88.57
X219.586Y-93.65
X219.586Y-98.73
X219.586Y-103.81
X219.586Y-108.89
X219.586Y-113.97
X219.586Y-119.05
X219.586Y-124.13
X219.586Y-129.21
X219.586Y-134.29
X219.586Y-139.37
X224.666Y-63.17
X224.666Y-68.25
X224.666Y-73.33
X224.666Y-78.41
X224.666Y-83.49
X224.666Y-88.57
X224.666Y-93.65
X224.666Y-98.73
X224.666Y-103.81
X224.666Y-108.89
X224.666Y-113.97
X224.666Y-119.05
X224.666Y-124.13
X224.666Y-129.21
X224.666Y-134.29
X224.666Y-139.37
T7
X180.945Y-59.41
X180.945Y-64.49
X180.945Y-69.57
T8
X131.75Y-138.175
X131.75Y-145.325
T9
X81.298Y-108.253
X81.298Y-123.747
T10
X77.9Y-84.93
X77.9Y-98.07
T4
X73.935Y-61.0G85X73.135Y-61.0
G05
X73.935Y-75.5G85X73.135Y-75.5
G05
X80.395Y-61.0G85X78.595Y-61.0
G05
X80.395Y-75.5G85X78.595Y-75.5
G05
T0
M30
