%TF.GenerationSoftware,KiCad,Pcbnew,(6.0.9-0)*%
%TF.CreationDate,2023-02-07T08:34:23+01:00*%
%TF.ProjectId,Cockpit-CPU-Card,436f636b-7069-4742-9d43-50552d436172,A*%
%TF.SameCoordinates,Original*%
%TF.FileFunction,Drillmap*%
%TF.FilePolarity,Positive*%
%FSLAX45Y45*%
G04 Gerber Fmt 4.5, Leading zero omitted, Abs format (unit mm)*
G04 Created by KiCad (PCBNEW (6.0.9-0)) date 2023-02-07 08:34:23*
%MOMM*%
%LPD*%
G01*
G04 APERTURE LIST*
%ADD10C,0.200000*%
%ADD11C,0.044000*%
%ADD12C,0.270000*%
%ADD13C,0.285000*%
%ADD14C,0.325000*%
G04 APERTURE END LIST*
D10*
D11*
X13131000Y-14283000D02*
X13175000Y-14327000D01*
X13175000Y-14283000D02*
X13131000Y-14327000D01*
X13231000Y-14088000D02*
X13275000Y-14132000D01*
X13275000Y-14088000D02*
X13231000Y-14132000D01*
D12*
X9535000Y-5625000D02*
G75*
G03*
X9535000Y-5625000I-135000J0D01*
G01*
X9535000Y-10425000D02*
G75*
G03*
X9535000Y-10425000I-135000J0D01*
G01*
X12835000Y-5625000D02*
G75*
G03*
X12835000Y-5625000I-135000J0D01*
G01*
X12835000Y-10425000D02*
G75*
G03*
X12835000Y-10425000I-135000J0D01*
G01*
D13*
X7279400Y-5412500D02*
X7279400Y-5697500D01*
X7136900Y-5555000D02*
X7421900Y-5555000D01*
X7279400Y-14302500D02*
X7279400Y-14587500D01*
X7136900Y-14445000D02*
X7421900Y-14445000D01*
X22720600Y-5412500D02*
X22720600Y-5697500D01*
X22578100Y-5555000D02*
X22863100Y-5555000D01*
X22720600Y-14302500D02*
X22720600Y-14587500D01*
X22578100Y-14445000D02*
X22863100Y-14445000D01*
D14*
X7939906Y-11143406D02*
X7939906Y-10913594D01*
X7710094Y-10913594D01*
X7710094Y-11143406D01*
X7939906Y-11143406D01*
X7939906Y-12286406D02*
X7939906Y-12056594D01*
X7710094Y-12056594D01*
X7710094Y-12286406D01*
X7939906Y-12286406D01*
D10*
X7251619Y-15316476D02*
X7251619Y-15116476D01*
X7299238Y-15116476D01*
X7327809Y-15126000D01*
X7346857Y-15145048D01*
X7356381Y-15164095D01*
X7365905Y-15202190D01*
X7365905Y-15230762D01*
X7356381Y-15268857D01*
X7346857Y-15287905D01*
X7327809Y-15306952D01*
X7299238Y-15316476D01*
X7251619Y-15316476D01*
X7451619Y-15316476D02*
X7451619Y-15183143D01*
X7451619Y-15221238D02*
X7461143Y-15202190D01*
X7470667Y-15192667D01*
X7489714Y-15183143D01*
X7508762Y-15183143D01*
X7575428Y-15316476D02*
X7575428Y-15183143D01*
X7575428Y-15116476D02*
X7565905Y-15126000D01*
X7575428Y-15135524D01*
X7584952Y-15126000D01*
X7575428Y-15116476D01*
X7575428Y-15135524D01*
X7699238Y-15316476D02*
X7680190Y-15306952D01*
X7670667Y-15287905D01*
X7670667Y-15116476D01*
X7804000Y-15316476D02*
X7784952Y-15306952D01*
X7775428Y-15287905D01*
X7775428Y-15116476D01*
X8032571Y-15316476D02*
X8032571Y-15116476D01*
X8099238Y-15259333D01*
X8165905Y-15116476D01*
X8165905Y-15316476D01*
X8346857Y-15316476D02*
X8346857Y-15211714D01*
X8337333Y-15192667D01*
X8318286Y-15183143D01*
X8280190Y-15183143D01*
X8261143Y-15192667D01*
X8346857Y-15306952D02*
X8327809Y-15316476D01*
X8280190Y-15316476D01*
X8261143Y-15306952D01*
X8251619Y-15287905D01*
X8251619Y-15268857D01*
X8261143Y-15249809D01*
X8280190Y-15240286D01*
X8327809Y-15240286D01*
X8346857Y-15230762D01*
X8442095Y-15183143D02*
X8442095Y-15383143D01*
X8442095Y-15192667D02*
X8461143Y-15183143D01*
X8499238Y-15183143D01*
X8518286Y-15192667D01*
X8527810Y-15202190D01*
X8537333Y-15221238D01*
X8537333Y-15278381D01*
X8527810Y-15297428D01*
X8518286Y-15306952D01*
X8499238Y-15316476D01*
X8461143Y-15316476D01*
X8442095Y-15306952D01*
X8623048Y-15297428D02*
X8632571Y-15306952D01*
X8623048Y-15316476D01*
X8613524Y-15306952D01*
X8623048Y-15297428D01*
X8623048Y-15316476D01*
X8623048Y-15192667D02*
X8632571Y-15202190D01*
X8623048Y-15211714D01*
X8613524Y-15202190D01*
X8623048Y-15192667D01*
X8623048Y-15211714D01*
D11*
X6950000Y-15624000D02*
X6994000Y-15668000D01*
X6994000Y-15624000D02*
X6950000Y-15668000D01*
D10*
X7289714Y-15536476D02*
X7308762Y-15536476D01*
X7327809Y-15546000D01*
X7337333Y-15555524D01*
X7346857Y-15574571D01*
X7356381Y-15612667D01*
X7356381Y-15660286D01*
X7346857Y-15698381D01*
X7337333Y-15717428D01*
X7327809Y-15726952D01*
X7308762Y-15736476D01*
X7289714Y-15736476D01*
X7270667Y-15726952D01*
X7261143Y-15717428D01*
X7251619Y-15698381D01*
X7242095Y-15660286D01*
X7242095Y-15612667D01*
X7251619Y-15574571D01*
X7261143Y-15555524D01*
X7270667Y-15546000D01*
X7289714Y-15536476D01*
X7442095Y-15717428D02*
X7451619Y-15726952D01*
X7442095Y-15736476D01*
X7432571Y-15726952D01*
X7442095Y-15717428D01*
X7442095Y-15736476D01*
X7623048Y-15603143D02*
X7623048Y-15736476D01*
X7575428Y-15526952D02*
X7527809Y-15669809D01*
X7651619Y-15669809D01*
X7813524Y-15603143D02*
X7813524Y-15736476D01*
X7765905Y-15526952D02*
X7718286Y-15669809D01*
X7842095Y-15669809D01*
X7956381Y-15536476D02*
X7975428Y-15536476D01*
X7994476Y-15546000D01*
X8004000Y-15555524D01*
X8013524Y-15574571D01*
X8023048Y-15612667D01*
X8023048Y-15660286D01*
X8013524Y-15698381D01*
X8004000Y-15717428D01*
X7994476Y-15726952D01*
X7975428Y-15736476D01*
X7956381Y-15736476D01*
X7937333Y-15726952D01*
X7927809Y-15717428D01*
X7918286Y-15698381D01*
X7908762Y-15660286D01*
X7908762Y-15612667D01*
X7918286Y-15574571D01*
X7927809Y-15555524D01*
X7937333Y-15546000D01*
X7956381Y-15536476D01*
X8108762Y-15736476D02*
X8108762Y-15603143D01*
X8108762Y-15622190D02*
X8118286Y-15612667D01*
X8137333Y-15603143D01*
X8165905Y-15603143D01*
X8184952Y-15612667D01*
X8194476Y-15631714D01*
X8194476Y-15736476D01*
X8194476Y-15631714D02*
X8204000Y-15612667D01*
X8223048Y-15603143D01*
X8251619Y-15603143D01*
X8270667Y-15612667D01*
X8280190Y-15631714D01*
X8280190Y-15736476D01*
X8375428Y-15736476D02*
X8375428Y-15603143D01*
X8375428Y-15622190D02*
X8384952Y-15612667D01*
X8404000Y-15603143D01*
X8432571Y-15603143D01*
X8451619Y-15612667D01*
X8461143Y-15631714D01*
X8461143Y-15736476D01*
X8461143Y-15631714D02*
X8470667Y-15612667D01*
X8489714Y-15603143D01*
X8518286Y-15603143D01*
X8537333Y-15612667D01*
X8546857Y-15631714D01*
X8546857Y-15736476D01*
X8937333Y-15526952D02*
X8765905Y-15784095D01*
X9194476Y-15536476D02*
X9213524Y-15536476D01*
X9232571Y-15546000D01*
X9242095Y-15555524D01*
X9251619Y-15574571D01*
X9261143Y-15612667D01*
X9261143Y-15660286D01*
X9251619Y-15698381D01*
X9242095Y-15717428D01*
X9232571Y-15726952D01*
X9213524Y-15736476D01*
X9194476Y-15736476D01*
X9175429Y-15726952D01*
X9165905Y-15717428D01*
X9156381Y-15698381D01*
X9146857Y-15660286D01*
X9146857Y-15612667D01*
X9156381Y-15574571D01*
X9165905Y-15555524D01*
X9175429Y-15546000D01*
X9194476Y-15536476D01*
X9346857Y-15717428D02*
X9356381Y-15726952D01*
X9346857Y-15736476D01*
X9337333Y-15726952D01*
X9346857Y-15717428D01*
X9346857Y-15736476D01*
X9480190Y-15536476D02*
X9499238Y-15536476D01*
X9518286Y-15546000D01*
X9527810Y-15555524D01*
X9537333Y-15574571D01*
X9546857Y-15612667D01*
X9546857Y-15660286D01*
X9537333Y-15698381D01*
X9527810Y-15717428D01*
X9518286Y-15726952D01*
X9499238Y-15736476D01*
X9480190Y-15736476D01*
X9461143Y-15726952D01*
X9451619Y-15717428D01*
X9442095Y-15698381D01*
X9432571Y-15660286D01*
X9432571Y-15612667D01*
X9442095Y-15574571D01*
X9451619Y-15555524D01*
X9461143Y-15546000D01*
X9480190Y-15536476D01*
X9737333Y-15736476D02*
X9623048Y-15736476D01*
X9680190Y-15736476D02*
X9680190Y-15536476D01*
X9661143Y-15565048D01*
X9642095Y-15584095D01*
X9623048Y-15593619D01*
X9804000Y-15536476D02*
X9937333Y-15536476D01*
X9851619Y-15736476D01*
X9994476Y-15536476D02*
X10118286Y-15536476D01*
X10051619Y-15612667D01*
X10080190Y-15612667D01*
X10099238Y-15622190D01*
X10108762Y-15631714D01*
X10118286Y-15650762D01*
X10118286Y-15698381D01*
X10108762Y-15717428D01*
X10099238Y-15726952D01*
X10080190Y-15736476D01*
X10023048Y-15736476D01*
X10004000Y-15726952D01*
X9994476Y-15717428D01*
X10194476Y-15536476D02*
X10194476Y-15574571D01*
X10270667Y-15536476D02*
X10270667Y-15574571D01*
X10565905Y-15812667D02*
X10556381Y-15803143D01*
X10537333Y-15774571D01*
X10527810Y-15755524D01*
X10518286Y-15726952D01*
X10508762Y-15679333D01*
X10508762Y-15641238D01*
X10518286Y-15593619D01*
X10527810Y-15565048D01*
X10537333Y-15546000D01*
X10556381Y-15517428D01*
X10565905Y-15507905D01*
X10632571Y-15555524D02*
X10642095Y-15546000D01*
X10661143Y-15536476D01*
X10708762Y-15536476D01*
X10727810Y-15546000D01*
X10737333Y-15555524D01*
X10746857Y-15574571D01*
X10746857Y-15593619D01*
X10737333Y-15622190D01*
X10623048Y-15736476D01*
X10746857Y-15736476D01*
X10984952Y-15736476D02*
X10984952Y-15536476D01*
X11070667Y-15736476D02*
X11070667Y-15631714D01*
X11061143Y-15612667D01*
X11042095Y-15603143D01*
X11013524Y-15603143D01*
X10994476Y-15612667D01*
X10984952Y-15622190D01*
X11194476Y-15736476D02*
X11175429Y-15726952D01*
X11165905Y-15717428D01*
X11156381Y-15698381D01*
X11156381Y-15641238D01*
X11165905Y-15622190D01*
X11175429Y-15612667D01*
X11194476Y-15603143D01*
X11223048Y-15603143D01*
X11242095Y-15612667D01*
X11251619Y-15622190D01*
X11261143Y-15641238D01*
X11261143Y-15698381D01*
X11251619Y-15717428D01*
X11242095Y-15726952D01*
X11223048Y-15736476D01*
X11194476Y-15736476D01*
X11375428Y-15736476D02*
X11356381Y-15726952D01*
X11346857Y-15707905D01*
X11346857Y-15536476D01*
X11527809Y-15726952D02*
X11508762Y-15736476D01*
X11470667Y-15736476D01*
X11451619Y-15726952D01*
X11442095Y-15707905D01*
X11442095Y-15631714D01*
X11451619Y-15612667D01*
X11470667Y-15603143D01*
X11508762Y-15603143D01*
X11527809Y-15612667D01*
X11537333Y-15631714D01*
X11537333Y-15650762D01*
X11442095Y-15669809D01*
X11613524Y-15726952D02*
X11632571Y-15736476D01*
X11670667Y-15736476D01*
X11689714Y-15726952D01*
X11699238Y-15707905D01*
X11699238Y-15698381D01*
X11689714Y-15679333D01*
X11670667Y-15669809D01*
X11642095Y-15669809D01*
X11623048Y-15660286D01*
X11613524Y-15641238D01*
X11613524Y-15631714D01*
X11623048Y-15612667D01*
X11642095Y-15603143D01*
X11670667Y-15603143D01*
X11689714Y-15612667D01*
X11765905Y-15812667D02*
X11775428Y-15803143D01*
X11794476Y-15774571D01*
X11804000Y-15755524D01*
X11813524Y-15726952D01*
X11823048Y-15679333D01*
X11823048Y-15641238D01*
X11813524Y-15593619D01*
X11804000Y-15565048D01*
X11794476Y-15546000D01*
X11775428Y-15517428D01*
X11765905Y-15507905D01*
X12127809Y-15812667D02*
X12118286Y-15803143D01*
X12099238Y-15774571D01*
X12089714Y-15755524D01*
X12080190Y-15726952D01*
X12070667Y-15679333D01*
X12070667Y-15641238D01*
X12080190Y-15593619D01*
X12089714Y-15565048D01*
X12099238Y-15546000D01*
X12118286Y-15517428D01*
X12127809Y-15507905D01*
X12204000Y-15603143D02*
X12204000Y-15736476D01*
X12204000Y-15622190D02*
X12213524Y-15612667D01*
X12232571Y-15603143D01*
X12261143Y-15603143D01*
X12280190Y-15612667D01*
X12289714Y-15631714D01*
X12289714Y-15736476D01*
X12413524Y-15736476D02*
X12394476Y-15726952D01*
X12384952Y-15717428D01*
X12375428Y-15698381D01*
X12375428Y-15641238D01*
X12384952Y-15622190D01*
X12394476Y-15612667D01*
X12413524Y-15603143D01*
X12442095Y-15603143D01*
X12461143Y-15612667D01*
X12470667Y-15622190D01*
X12480190Y-15641238D01*
X12480190Y-15698381D01*
X12470667Y-15717428D01*
X12461143Y-15726952D01*
X12442095Y-15736476D01*
X12413524Y-15736476D01*
X12537333Y-15603143D02*
X12613524Y-15603143D01*
X12565905Y-15536476D02*
X12565905Y-15707905D01*
X12575428Y-15726952D01*
X12594476Y-15736476D01*
X12613524Y-15736476D01*
X12832571Y-15603143D02*
X12832571Y-15803143D01*
X12832571Y-15612667D02*
X12851619Y-15603143D01*
X12889714Y-15603143D01*
X12908762Y-15612667D01*
X12918286Y-15622190D01*
X12927809Y-15641238D01*
X12927809Y-15698381D01*
X12918286Y-15717428D01*
X12908762Y-15726952D01*
X12889714Y-15736476D01*
X12851619Y-15736476D01*
X12832571Y-15726952D01*
X13042095Y-15736476D02*
X13023048Y-15726952D01*
X13013524Y-15707905D01*
X13013524Y-15536476D01*
X13204000Y-15736476D02*
X13204000Y-15631714D01*
X13194476Y-15612667D01*
X13175428Y-15603143D01*
X13137333Y-15603143D01*
X13118286Y-15612667D01*
X13204000Y-15726952D02*
X13184952Y-15736476D01*
X13137333Y-15736476D01*
X13118286Y-15726952D01*
X13108762Y-15707905D01*
X13108762Y-15688857D01*
X13118286Y-15669809D01*
X13137333Y-15660286D01*
X13184952Y-15660286D01*
X13204000Y-15650762D01*
X13270667Y-15603143D02*
X13346857Y-15603143D01*
X13299238Y-15536476D02*
X13299238Y-15707905D01*
X13308762Y-15726952D01*
X13327809Y-15736476D01*
X13346857Y-15736476D01*
X13489714Y-15726952D02*
X13470667Y-15736476D01*
X13432571Y-15736476D01*
X13413524Y-15726952D01*
X13404000Y-15707905D01*
X13404000Y-15631714D01*
X13413524Y-15612667D01*
X13432571Y-15603143D01*
X13470667Y-15603143D01*
X13489714Y-15612667D01*
X13499238Y-15631714D01*
X13499238Y-15650762D01*
X13404000Y-15669809D01*
X13670667Y-15736476D02*
X13670667Y-15536476D01*
X13670667Y-15726952D02*
X13651619Y-15736476D01*
X13613524Y-15736476D01*
X13594476Y-15726952D01*
X13584952Y-15717428D01*
X13575428Y-15698381D01*
X13575428Y-15641238D01*
X13584952Y-15622190D01*
X13594476Y-15612667D01*
X13613524Y-15603143D01*
X13651619Y-15603143D01*
X13670667Y-15612667D01*
X13746857Y-15812667D02*
X13756381Y-15803143D01*
X13775428Y-15774571D01*
X13784952Y-15755524D01*
X13794476Y-15726952D01*
X13804000Y-15679333D01*
X13804000Y-15641238D01*
X13794476Y-15593619D01*
X13784952Y-15565048D01*
X13775428Y-15546000D01*
X13756381Y-15517428D01*
X13746857Y-15507905D01*
X6994000Y-15910000D02*
G75*
G03*
X6994000Y-15910000I-100000J0D01*
G01*
X7242095Y-15819524D02*
X7251619Y-15810000D01*
X7270667Y-15800476D01*
X7318286Y-15800476D01*
X7337333Y-15810000D01*
X7346857Y-15819524D01*
X7356381Y-15838571D01*
X7356381Y-15857619D01*
X7346857Y-15886190D01*
X7232571Y-16000476D01*
X7356381Y-16000476D01*
X7442095Y-15981428D02*
X7451619Y-15990952D01*
X7442095Y-16000476D01*
X7432571Y-15990952D01*
X7442095Y-15981428D01*
X7442095Y-16000476D01*
X7518286Y-15800476D02*
X7651619Y-15800476D01*
X7565905Y-16000476D01*
X7765905Y-15800476D02*
X7784952Y-15800476D01*
X7804000Y-15810000D01*
X7813524Y-15819524D01*
X7823048Y-15838571D01*
X7832571Y-15876667D01*
X7832571Y-15924286D01*
X7823048Y-15962381D01*
X7813524Y-15981428D01*
X7804000Y-15990952D01*
X7784952Y-16000476D01*
X7765905Y-16000476D01*
X7746857Y-15990952D01*
X7737333Y-15981428D01*
X7727809Y-15962381D01*
X7718286Y-15924286D01*
X7718286Y-15876667D01*
X7727809Y-15838571D01*
X7737333Y-15819524D01*
X7746857Y-15810000D01*
X7765905Y-15800476D01*
X7956381Y-15800476D02*
X7975428Y-15800476D01*
X7994476Y-15810000D01*
X8004000Y-15819524D01*
X8013524Y-15838571D01*
X8023048Y-15876667D01*
X8023048Y-15924286D01*
X8013524Y-15962381D01*
X8004000Y-15981428D01*
X7994476Y-15990952D01*
X7975428Y-16000476D01*
X7956381Y-16000476D01*
X7937333Y-15990952D01*
X7927809Y-15981428D01*
X7918286Y-15962381D01*
X7908762Y-15924286D01*
X7908762Y-15876667D01*
X7918286Y-15838571D01*
X7927809Y-15819524D01*
X7937333Y-15810000D01*
X7956381Y-15800476D01*
X8108762Y-16000476D02*
X8108762Y-15867143D01*
X8108762Y-15886190D02*
X8118286Y-15876667D01*
X8137333Y-15867143D01*
X8165905Y-15867143D01*
X8184952Y-15876667D01*
X8194476Y-15895714D01*
X8194476Y-16000476D01*
X8194476Y-15895714D02*
X8204000Y-15876667D01*
X8223048Y-15867143D01*
X8251619Y-15867143D01*
X8270667Y-15876667D01*
X8280190Y-15895714D01*
X8280190Y-16000476D01*
X8375428Y-16000476D02*
X8375428Y-15867143D01*
X8375428Y-15886190D02*
X8384952Y-15876667D01*
X8404000Y-15867143D01*
X8432571Y-15867143D01*
X8451619Y-15876667D01*
X8461143Y-15895714D01*
X8461143Y-16000476D01*
X8461143Y-15895714D02*
X8470667Y-15876667D01*
X8489714Y-15867143D01*
X8518286Y-15867143D01*
X8537333Y-15876667D01*
X8546857Y-15895714D01*
X8546857Y-16000476D01*
X8937333Y-15790952D02*
X8765905Y-16048095D01*
X9194476Y-15800476D02*
X9213524Y-15800476D01*
X9232571Y-15810000D01*
X9242095Y-15819524D01*
X9251619Y-15838571D01*
X9261143Y-15876667D01*
X9261143Y-15924286D01*
X9251619Y-15962381D01*
X9242095Y-15981428D01*
X9232571Y-15990952D01*
X9213524Y-16000476D01*
X9194476Y-16000476D01*
X9175429Y-15990952D01*
X9165905Y-15981428D01*
X9156381Y-15962381D01*
X9146857Y-15924286D01*
X9146857Y-15876667D01*
X9156381Y-15838571D01*
X9165905Y-15819524D01*
X9175429Y-15810000D01*
X9194476Y-15800476D01*
X9346857Y-15981428D02*
X9356381Y-15990952D01*
X9346857Y-16000476D01*
X9337333Y-15990952D01*
X9346857Y-15981428D01*
X9346857Y-16000476D01*
X9546857Y-16000476D02*
X9432571Y-16000476D01*
X9489714Y-16000476D02*
X9489714Y-15800476D01*
X9470667Y-15829048D01*
X9451619Y-15848095D01*
X9432571Y-15857619D01*
X9670667Y-15800476D02*
X9689714Y-15800476D01*
X9708762Y-15810000D01*
X9718286Y-15819524D01*
X9727810Y-15838571D01*
X9737333Y-15876667D01*
X9737333Y-15924286D01*
X9727810Y-15962381D01*
X9718286Y-15981428D01*
X9708762Y-15990952D01*
X9689714Y-16000476D01*
X9670667Y-16000476D01*
X9651619Y-15990952D01*
X9642095Y-15981428D01*
X9632571Y-15962381D01*
X9623048Y-15924286D01*
X9623048Y-15876667D01*
X9632571Y-15838571D01*
X9642095Y-15819524D01*
X9651619Y-15810000D01*
X9670667Y-15800476D01*
X9908762Y-15800476D02*
X9870667Y-15800476D01*
X9851619Y-15810000D01*
X9842095Y-15819524D01*
X9823048Y-15848095D01*
X9813524Y-15886190D01*
X9813524Y-15962381D01*
X9823048Y-15981428D01*
X9832571Y-15990952D01*
X9851619Y-16000476D01*
X9889714Y-16000476D01*
X9908762Y-15990952D01*
X9918286Y-15981428D01*
X9927810Y-15962381D01*
X9927810Y-15914762D01*
X9918286Y-15895714D01*
X9908762Y-15886190D01*
X9889714Y-15876667D01*
X9851619Y-15876667D01*
X9832571Y-15886190D01*
X9823048Y-15895714D01*
X9813524Y-15914762D01*
X9994476Y-15800476D02*
X10118286Y-15800476D01*
X10051619Y-15876667D01*
X10080190Y-15876667D01*
X10099238Y-15886190D01*
X10108762Y-15895714D01*
X10118286Y-15914762D01*
X10118286Y-15962381D01*
X10108762Y-15981428D01*
X10099238Y-15990952D01*
X10080190Y-16000476D01*
X10023048Y-16000476D01*
X10004000Y-15990952D01*
X9994476Y-15981428D01*
X10194476Y-15800476D02*
X10194476Y-15838571D01*
X10270667Y-15800476D02*
X10270667Y-15838571D01*
X10565905Y-16076667D02*
X10556381Y-16067143D01*
X10537333Y-16038571D01*
X10527810Y-16019524D01*
X10518286Y-15990952D01*
X10508762Y-15943333D01*
X10508762Y-15905238D01*
X10518286Y-15857619D01*
X10527810Y-15829048D01*
X10537333Y-15810000D01*
X10556381Y-15781428D01*
X10565905Y-15771905D01*
X10727810Y-15867143D02*
X10727810Y-16000476D01*
X10680190Y-15790952D02*
X10632571Y-15933809D01*
X10756381Y-15933809D01*
X10984952Y-16000476D02*
X10984952Y-15800476D01*
X11070667Y-16000476D02*
X11070667Y-15895714D01*
X11061143Y-15876667D01*
X11042095Y-15867143D01*
X11013524Y-15867143D01*
X10994476Y-15876667D01*
X10984952Y-15886190D01*
X11194476Y-16000476D02*
X11175429Y-15990952D01*
X11165905Y-15981428D01*
X11156381Y-15962381D01*
X11156381Y-15905238D01*
X11165905Y-15886190D01*
X11175429Y-15876667D01*
X11194476Y-15867143D01*
X11223048Y-15867143D01*
X11242095Y-15876667D01*
X11251619Y-15886190D01*
X11261143Y-15905238D01*
X11261143Y-15962381D01*
X11251619Y-15981428D01*
X11242095Y-15990952D01*
X11223048Y-16000476D01*
X11194476Y-16000476D01*
X11375428Y-16000476D02*
X11356381Y-15990952D01*
X11346857Y-15971905D01*
X11346857Y-15800476D01*
X11527809Y-15990952D02*
X11508762Y-16000476D01*
X11470667Y-16000476D01*
X11451619Y-15990952D01*
X11442095Y-15971905D01*
X11442095Y-15895714D01*
X11451619Y-15876667D01*
X11470667Y-15867143D01*
X11508762Y-15867143D01*
X11527809Y-15876667D01*
X11537333Y-15895714D01*
X11537333Y-15914762D01*
X11442095Y-15933809D01*
X11613524Y-15990952D02*
X11632571Y-16000476D01*
X11670667Y-16000476D01*
X11689714Y-15990952D01*
X11699238Y-15971905D01*
X11699238Y-15962381D01*
X11689714Y-15943333D01*
X11670667Y-15933809D01*
X11642095Y-15933809D01*
X11623048Y-15924286D01*
X11613524Y-15905238D01*
X11613524Y-15895714D01*
X11623048Y-15876667D01*
X11642095Y-15867143D01*
X11670667Y-15867143D01*
X11689714Y-15876667D01*
X11765905Y-16076667D02*
X11775428Y-16067143D01*
X11794476Y-16038571D01*
X11804000Y-16019524D01*
X11813524Y-15990952D01*
X11823048Y-15943333D01*
X11823048Y-15905238D01*
X11813524Y-15857619D01*
X11804000Y-15829048D01*
X11794476Y-15810000D01*
X11775428Y-15781428D01*
X11765905Y-15771905D01*
X12127809Y-16076667D02*
X12118286Y-16067143D01*
X12099238Y-16038571D01*
X12089714Y-16019524D01*
X12080190Y-15990952D01*
X12070667Y-15943333D01*
X12070667Y-15905238D01*
X12080190Y-15857619D01*
X12089714Y-15829048D01*
X12099238Y-15810000D01*
X12118286Y-15781428D01*
X12127809Y-15771905D01*
X12204000Y-15867143D02*
X12204000Y-16000476D01*
X12204000Y-15886190D02*
X12213524Y-15876667D01*
X12232571Y-15867143D01*
X12261143Y-15867143D01*
X12280190Y-15876667D01*
X12289714Y-15895714D01*
X12289714Y-16000476D01*
X12413524Y-16000476D02*
X12394476Y-15990952D01*
X12384952Y-15981428D01*
X12375428Y-15962381D01*
X12375428Y-15905238D01*
X12384952Y-15886190D01*
X12394476Y-15876667D01*
X12413524Y-15867143D01*
X12442095Y-15867143D01*
X12461143Y-15876667D01*
X12470667Y-15886190D01*
X12480190Y-15905238D01*
X12480190Y-15962381D01*
X12470667Y-15981428D01*
X12461143Y-15990952D01*
X12442095Y-16000476D01*
X12413524Y-16000476D01*
X12537333Y-15867143D02*
X12613524Y-15867143D01*
X12565905Y-15800476D02*
X12565905Y-15971905D01*
X12575428Y-15990952D01*
X12594476Y-16000476D01*
X12613524Y-16000476D01*
X12832571Y-15867143D02*
X12832571Y-16067143D01*
X12832571Y-15876667D02*
X12851619Y-15867143D01*
X12889714Y-15867143D01*
X12908762Y-15876667D01*
X12918286Y-15886190D01*
X12927809Y-15905238D01*
X12927809Y-15962381D01*
X12918286Y-15981428D01*
X12908762Y-15990952D01*
X12889714Y-16000476D01*
X12851619Y-16000476D01*
X12832571Y-15990952D01*
X13042095Y-16000476D02*
X13023048Y-15990952D01*
X13013524Y-15971905D01*
X13013524Y-15800476D01*
X13204000Y-16000476D02*
X13204000Y-15895714D01*
X13194476Y-15876667D01*
X13175428Y-15867143D01*
X13137333Y-15867143D01*
X13118286Y-15876667D01*
X13204000Y-15990952D02*
X13184952Y-16000476D01*
X13137333Y-16000476D01*
X13118286Y-15990952D01*
X13108762Y-15971905D01*
X13108762Y-15952857D01*
X13118286Y-15933809D01*
X13137333Y-15924286D01*
X13184952Y-15924286D01*
X13204000Y-15914762D01*
X13270667Y-15867143D02*
X13346857Y-15867143D01*
X13299238Y-15800476D02*
X13299238Y-15971905D01*
X13308762Y-15990952D01*
X13327809Y-16000476D01*
X13346857Y-16000476D01*
X13489714Y-15990952D02*
X13470667Y-16000476D01*
X13432571Y-16000476D01*
X13413524Y-15990952D01*
X13404000Y-15971905D01*
X13404000Y-15895714D01*
X13413524Y-15876667D01*
X13432571Y-15867143D01*
X13470667Y-15867143D01*
X13489714Y-15876667D01*
X13499238Y-15895714D01*
X13499238Y-15914762D01*
X13404000Y-15933809D01*
X13670667Y-16000476D02*
X13670667Y-15800476D01*
X13670667Y-15990952D02*
X13651619Y-16000476D01*
X13613524Y-16000476D01*
X13594476Y-15990952D01*
X13584952Y-15981428D01*
X13575428Y-15962381D01*
X13575428Y-15905238D01*
X13584952Y-15886190D01*
X13594476Y-15876667D01*
X13613524Y-15867143D01*
X13651619Y-15867143D01*
X13670667Y-15876667D01*
X13746857Y-16076667D02*
X13756381Y-16067143D01*
X13775428Y-16038571D01*
X13784952Y-16019524D01*
X13794476Y-15990952D01*
X13804000Y-15943333D01*
X13804000Y-15905238D01*
X13794476Y-15857619D01*
X13784952Y-15829048D01*
X13775428Y-15810000D01*
X13756381Y-15781428D01*
X13746857Y-15771905D01*
X6894000Y-16130000D02*
X6894000Y-16330000D01*
X6794000Y-16230000D02*
X6994000Y-16230000D01*
X7242095Y-16139524D02*
X7251619Y-16130000D01*
X7270667Y-16120476D01*
X7318286Y-16120476D01*
X7337333Y-16130000D01*
X7346857Y-16139524D01*
X7356381Y-16158571D01*
X7356381Y-16177619D01*
X7346857Y-16206190D01*
X7232571Y-16320476D01*
X7356381Y-16320476D01*
X7442095Y-16301428D02*
X7451619Y-16310952D01*
X7442095Y-16320476D01*
X7432571Y-16310952D01*
X7442095Y-16301428D01*
X7442095Y-16320476D01*
X7565905Y-16206190D02*
X7546857Y-16196667D01*
X7537333Y-16187143D01*
X7527809Y-16168095D01*
X7527809Y-16158571D01*
X7537333Y-16139524D01*
X7546857Y-16130000D01*
X7565905Y-16120476D01*
X7604000Y-16120476D01*
X7623048Y-16130000D01*
X7632571Y-16139524D01*
X7642095Y-16158571D01*
X7642095Y-16168095D01*
X7632571Y-16187143D01*
X7623048Y-16196667D01*
X7604000Y-16206190D01*
X7565905Y-16206190D01*
X7546857Y-16215714D01*
X7537333Y-16225238D01*
X7527809Y-16244286D01*
X7527809Y-16282381D01*
X7537333Y-16301428D01*
X7546857Y-16310952D01*
X7565905Y-16320476D01*
X7604000Y-16320476D01*
X7623048Y-16310952D01*
X7632571Y-16301428D01*
X7642095Y-16282381D01*
X7642095Y-16244286D01*
X7632571Y-16225238D01*
X7623048Y-16215714D01*
X7604000Y-16206190D01*
X7823048Y-16120476D02*
X7727809Y-16120476D01*
X7718286Y-16215714D01*
X7727809Y-16206190D01*
X7746857Y-16196667D01*
X7794476Y-16196667D01*
X7813524Y-16206190D01*
X7823048Y-16215714D01*
X7832571Y-16234762D01*
X7832571Y-16282381D01*
X7823048Y-16301428D01*
X7813524Y-16310952D01*
X7794476Y-16320476D01*
X7746857Y-16320476D01*
X7727809Y-16310952D01*
X7718286Y-16301428D01*
X7956381Y-16120476D02*
X7975428Y-16120476D01*
X7994476Y-16130000D01*
X8004000Y-16139524D01*
X8013524Y-16158571D01*
X8023048Y-16196667D01*
X8023048Y-16244286D01*
X8013524Y-16282381D01*
X8004000Y-16301428D01*
X7994476Y-16310952D01*
X7975428Y-16320476D01*
X7956381Y-16320476D01*
X7937333Y-16310952D01*
X7927809Y-16301428D01*
X7918286Y-16282381D01*
X7908762Y-16244286D01*
X7908762Y-16196667D01*
X7918286Y-16158571D01*
X7927809Y-16139524D01*
X7937333Y-16130000D01*
X7956381Y-16120476D01*
X8108762Y-16320476D02*
X8108762Y-16187143D01*
X8108762Y-16206190D02*
X8118286Y-16196667D01*
X8137333Y-16187143D01*
X8165905Y-16187143D01*
X8184952Y-16196667D01*
X8194476Y-16215714D01*
X8194476Y-16320476D01*
X8194476Y-16215714D02*
X8204000Y-16196667D01*
X8223048Y-16187143D01*
X8251619Y-16187143D01*
X8270667Y-16196667D01*
X8280190Y-16215714D01*
X8280190Y-16320476D01*
X8375428Y-16320476D02*
X8375428Y-16187143D01*
X8375428Y-16206190D02*
X8384952Y-16196667D01*
X8404000Y-16187143D01*
X8432571Y-16187143D01*
X8451619Y-16196667D01*
X8461143Y-16215714D01*
X8461143Y-16320476D01*
X8461143Y-16215714D02*
X8470667Y-16196667D01*
X8489714Y-16187143D01*
X8518286Y-16187143D01*
X8537333Y-16196667D01*
X8546857Y-16215714D01*
X8546857Y-16320476D01*
X8937333Y-16110952D02*
X8765905Y-16368095D01*
X9194476Y-16120476D02*
X9213524Y-16120476D01*
X9232571Y-16130000D01*
X9242095Y-16139524D01*
X9251619Y-16158571D01*
X9261143Y-16196667D01*
X9261143Y-16244286D01*
X9251619Y-16282381D01*
X9242095Y-16301428D01*
X9232571Y-16310952D01*
X9213524Y-16320476D01*
X9194476Y-16320476D01*
X9175429Y-16310952D01*
X9165905Y-16301428D01*
X9156381Y-16282381D01*
X9146857Y-16244286D01*
X9146857Y-16196667D01*
X9156381Y-16158571D01*
X9165905Y-16139524D01*
X9175429Y-16130000D01*
X9194476Y-16120476D01*
X9346857Y-16301428D02*
X9356381Y-16310952D01*
X9346857Y-16320476D01*
X9337333Y-16310952D01*
X9346857Y-16301428D01*
X9346857Y-16320476D01*
X9546857Y-16320476D02*
X9432571Y-16320476D01*
X9489714Y-16320476D02*
X9489714Y-16120476D01*
X9470667Y-16149048D01*
X9451619Y-16168095D01*
X9432571Y-16177619D01*
X9737333Y-16320476D02*
X9623048Y-16320476D01*
X9680190Y-16320476D02*
X9680190Y-16120476D01*
X9661143Y-16149048D01*
X9642095Y-16168095D01*
X9623048Y-16177619D01*
X9813524Y-16139524D02*
X9823048Y-16130000D01*
X9842095Y-16120476D01*
X9889714Y-16120476D01*
X9908762Y-16130000D01*
X9918286Y-16139524D01*
X9927810Y-16158571D01*
X9927810Y-16177619D01*
X9918286Y-16206190D01*
X9804000Y-16320476D01*
X9927810Y-16320476D01*
X10004000Y-16139524D02*
X10013524Y-16130000D01*
X10032571Y-16120476D01*
X10080190Y-16120476D01*
X10099238Y-16130000D01*
X10108762Y-16139524D01*
X10118286Y-16158571D01*
X10118286Y-16177619D01*
X10108762Y-16206190D01*
X9994476Y-16320476D01*
X10118286Y-16320476D01*
X10194476Y-16120476D02*
X10194476Y-16158571D01*
X10270667Y-16120476D02*
X10270667Y-16158571D01*
X10565905Y-16396667D02*
X10556381Y-16387143D01*
X10537333Y-16358571D01*
X10527810Y-16339524D01*
X10518286Y-16310952D01*
X10508762Y-16263333D01*
X10508762Y-16225238D01*
X10518286Y-16177619D01*
X10527810Y-16149048D01*
X10537333Y-16130000D01*
X10556381Y-16101428D01*
X10565905Y-16091905D01*
X10727810Y-16187143D02*
X10727810Y-16320476D01*
X10680190Y-16110952D02*
X10632571Y-16253809D01*
X10756381Y-16253809D01*
X10984952Y-16320476D02*
X10984952Y-16120476D01*
X11070667Y-16320476D02*
X11070667Y-16215714D01*
X11061143Y-16196667D01*
X11042095Y-16187143D01*
X11013524Y-16187143D01*
X10994476Y-16196667D01*
X10984952Y-16206190D01*
X11194476Y-16320476D02*
X11175429Y-16310952D01*
X11165905Y-16301428D01*
X11156381Y-16282381D01*
X11156381Y-16225238D01*
X11165905Y-16206190D01*
X11175429Y-16196667D01*
X11194476Y-16187143D01*
X11223048Y-16187143D01*
X11242095Y-16196667D01*
X11251619Y-16206190D01*
X11261143Y-16225238D01*
X11261143Y-16282381D01*
X11251619Y-16301428D01*
X11242095Y-16310952D01*
X11223048Y-16320476D01*
X11194476Y-16320476D01*
X11375428Y-16320476D02*
X11356381Y-16310952D01*
X11346857Y-16291905D01*
X11346857Y-16120476D01*
X11527809Y-16310952D02*
X11508762Y-16320476D01*
X11470667Y-16320476D01*
X11451619Y-16310952D01*
X11442095Y-16291905D01*
X11442095Y-16215714D01*
X11451619Y-16196667D01*
X11470667Y-16187143D01*
X11508762Y-16187143D01*
X11527809Y-16196667D01*
X11537333Y-16215714D01*
X11537333Y-16234762D01*
X11442095Y-16253809D01*
X11613524Y-16310952D02*
X11632571Y-16320476D01*
X11670667Y-16320476D01*
X11689714Y-16310952D01*
X11699238Y-16291905D01*
X11699238Y-16282381D01*
X11689714Y-16263333D01*
X11670667Y-16253809D01*
X11642095Y-16253809D01*
X11623048Y-16244286D01*
X11613524Y-16225238D01*
X11613524Y-16215714D01*
X11623048Y-16196667D01*
X11642095Y-16187143D01*
X11670667Y-16187143D01*
X11689714Y-16196667D01*
X11765905Y-16396667D02*
X11775428Y-16387143D01*
X11794476Y-16358571D01*
X11804000Y-16339524D01*
X11813524Y-16310952D01*
X11823048Y-16263333D01*
X11823048Y-16225238D01*
X11813524Y-16177619D01*
X11804000Y-16149048D01*
X11794476Y-16130000D01*
X11775428Y-16101428D01*
X11765905Y-16091905D01*
X12127809Y-16396667D02*
X12118286Y-16387143D01*
X12099238Y-16358571D01*
X12089714Y-16339524D01*
X12080190Y-16310952D01*
X12070667Y-16263333D01*
X12070667Y-16225238D01*
X12080190Y-16177619D01*
X12089714Y-16149048D01*
X12099238Y-16130000D01*
X12118286Y-16101428D01*
X12127809Y-16091905D01*
X12204000Y-16187143D02*
X12204000Y-16320476D01*
X12204000Y-16206190D02*
X12213524Y-16196667D01*
X12232571Y-16187143D01*
X12261143Y-16187143D01*
X12280190Y-16196667D01*
X12289714Y-16215714D01*
X12289714Y-16320476D01*
X12413524Y-16320476D02*
X12394476Y-16310952D01*
X12384952Y-16301428D01*
X12375428Y-16282381D01*
X12375428Y-16225238D01*
X12384952Y-16206190D01*
X12394476Y-16196667D01*
X12413524Y-16187143D01*
X12442095Y-16187143D01*
X12461143Y-16196667D01*
X12470667Y-16206190D01*
X12480190Y-16225238D01*
X12480190Y-16282381D01*
X12470667Y-16301428D01*
X12461143Y-16310952D01*
X12442095Y-16320476D01*
X12413524Y-16320476D01*
X12537333Y-16187143D02*
X12613524Y-16187143D01*
X12565905Y-16120476D02*
X12565905Y-16291905D01*
X12575428Y-16310952D01*
X12594476Y-16320476D01*
X12613524Y-16320476D01*
X12832571Y-16187143D02*
X12832571Y-16387143D01*
X12832571Y-16196667D02*
X12851619Y-16187143D01*
X12889714Y-16187143D01*
X12908762Y-16196667D01*
X12918286Y-16206190D01*
X12927809Y-16225238D01*
X12927809Y-16282381D01*
X12918286Y-16301428D01*
X12908762Y-16310952D01*
X12889714Y-16320476D01*
X12851619Y-16320476D01*
X12832571Y-16310952D01*
X13042095Y-16320476D02*
X13023048Y-16310952D01*
X13013524Y-16291905D01*
X13013524Y-16120476D01*
X13204000Y-16320476D02*
X13204000Y-16215714D01*
X13194476Y-16196667D01*
X13175428Y-16187143D01*
X13137333Y-16187143D01*
X13118286Y-16196667D01*
X13204000Y-16310952D02*
X13184952Y-16320476D01*
X13137333Y-16320476D01*
X13118286Y-16310952D01*
X13108762Y-16291905D01*
X13108762Y-16272857D01*
X13118286Y-16253809D01*
X13137333Y-16244286D01*
X13184952Y-16244286D01*
X13204000Y-16234762D01*
X13270667Y-16187143D02*
X13346857Y-16187143D01*
X13299238Y-16120476D02*
X13299238Y-16291905D01*
X13308762Y-16310952D01*
X13327809Y-16320476D01*
X13346857Y-16320476D01*
X13489714Y-16310952D02*
X13470667Y-16320476D01*
X13432571Y-16320476D01*
X13413524Y-16310952D01*
X13404000Y-16291905D01*
X13404000Y-16215714D01*
X13413524Y-16196667D01*
X13432571Y-16187143D01*
X13470667Y-16187143D01*
X13489714Y-16196667D01*
X13499238Y-16215714D01*
X13499238Y-16234762D01*
X13404000Y-16253809D01*
X13670667Y-16320476D02*
X13670667Y-16120476D01*
X13670667Y-16310952D02*
X13651619Y-16320476D01*
X13613524Y-16320476D01*
X13594476Y-16310952D01*
X13584952Y-16301428D01*
X13575428Y-16282381D01*
X13575428Y-16225238D01*
X13584952Y-16206190D01*
X13594476Y-16196667D01*
X13613524Y-16187143D01*
X13651619Y-16187143D01*
X13670667Y-16196667D01*
X13746857Y-16396667D02*
X13756381Y-16387143D01*
X13775428Y-16358571D01*
X13784952Y-16339524D01*
X13794476Y-16310952D01*
X13804000Y-16263333D01*
X13804000Y-16225238D01*
X13794476Y-16177619D01*
X13784952Y-16149048D01*
X13775428Y-16130000D01*
X13756381Y-16101428D01*
X13746857Y-16091905D01*
X6964711Y-16620711D02*
X6964711Y-16479289D01*
X6823289Y-16479289D01*
X6823289Y-16620711D01*
X6964711Y-16620711D01*
X7232571Y-16440476D02*
X7356381Y-16440476D01*
X7289714Y-16516667D01*
X7318286Y-16516667D01*
X7337333Y-16526190D01*
X7346857Y-16535714D01*
X7356381Y-16554762D01*
X7356381Y-16602381D01*
X7346857Y-16621428D01*
X7337333Y-16630952D01*
X7318286Y-16640476D01*
X7261143Y-16640476D01*
X7242095Y-16630952D01*
X7232571Y-16621428D01*
X7442095Y-16621428D02*
X7451619Y-16630952D01*
X7442095Y-16640476D01*
X7432571Y-16630952D01*
X7442095Y-16621428D01*
X7442095Y-16640476D01*
X7527809Y-16459524D02*
X7537333Y-16450000D01*
X7556381Y-16440476D01*
X7604000Y-16440476D01*
X7623048Y-16450000D01*
X7632571Y-16459524D01*
X7642095Y-16478571D01*
X7642095Y-16497619D01*
X7632571Y-16526190D01*
X7518286Y-16640476D01*
X7642095Y-16640476D01*
X7823048Y-16440476D02*
X7727809Y-16440476D01*
X7718286Y-16535714D01*
X7727809Y-16526190D01*
X7746857Y-16516667D01*
X7794476Y-16516667D01*
X7813524Y-16526190D01*
X7823048Y-16535714D01*
X7832571Y-16554762D01*
X7832571Y-16602381D01*
X7823048Y-16621428D01*
X7813524Y-16630952D01*
X7794476Y-16640476D01*
X7746857Y-16640476D01*
X7727809Y-16630952D01*
X7718286Y-16621428D01*
X7956381Y-16440476D02*
X7975428Y-16440476D01*
X7994476Y-16450000D01*
X8004000Y-16459524D01*
X8013524Y-16478571D01*
X8023048Y-16516667D01*
X8023048Y-16564286D01*
X8013524Y-16602381D01*
X8004000Y-16621428D01*
X7994476Y-16630952D01*
X7975428Y-16640476D01*
X7956381Y-16640476D01*
X7937333Y-16630952D01*
X7927809Y-16621428D01*
X7918286Y-16602381D01*
X7908762Y-16564286D01*
X7908762Y-16516667D01*
X7918286Y-16478571D01*
X7927809Y-16459524D01*
X7937333Y-16450000D01*
X7956381Y-16440476D01*
X8108762Y-16640476D02*
X8108762Y-16507143D01*
X8108762Y-16526190D02*
X8118286Y-16516667D01*
X8137333Y-16507143D01*
X8165905Y-16507143D01*
X8184952Y-16516667D01*
X8194476Y-16535714D01*
X8194476Y-16640476D01*
X8194476Y-16535714D02*
X8204000Y-16516667D01*
X8223048Y-16507143D01*
X8251619Y-16507143D01*
X8270667Y-16516667D01*
X8280190Y-16535714D01*
X8280190Y-16640476D01*
X8375428Y-16640476D02*
X8375428Y-16507143D01*
X8375428Y-16526190D02*
X8384952Y-16516667D01*
X8404000Y-16507143D01*
X8432571Y-16507143D01*
X8451619Y-16516667D01*
X8461143Y-16535714D01*
X8461143Y-16640476D01*
X8461143Y-16535714D02*
X8470667Y-16516667D01*
X8489714Y-16507143D01*
X8518286Y-16507143D01*
X8537333Y-16516667D01*
X8546857Y-16535714D01*
X8546857Y-16640476D01*
X8937333Y-16430952D02*
X8765905Y-16688095D01*
X9194476Y-16440476D02*
X9213524Y-16440476D01*
X9232571Y-16450000D01*
X9242095Y-16459524D01*
X9251619Y-16478571D01*
X9261143Y-16516667D01*
X9261143Y-16564286D01*
X9251619Y-16602381D01*
X9242095Y-16621428D01*
X9232571Y-16630952D01*
X9213524Y-16640476D01*
X9194476Y-16640476D01*
X9175429Y-16630952D01*
X9165905Y-16621428D01*
X9156381Y-16602381D01*
X9146857Y-16564286D01*
X9146857Y-16516667D01*
X9156381Y-16478571D01*
X9165905Y-16459524D01*
X9175429Y-16450000D01*
X9194476Y-16440476D01*
X9346857Y-16621428D02*
X9356381Y-16630952D01*
X9346857Y-16640476D01*
X9337333Y-16630952D01*
X9346857Y-16621428D01*
X9346857Y-16640476D01*
X9546857Y-16640476D02*
X9432571Y-16640476D01*
X9489714Y-16640476D02*
X9489714Y-16440476D01*
X9470667Y-16469048D01*
X9451619Y-16488095D01*
X9432571Y-16497619D01*
X9623048Y-16459524D02*
X9632571Y-16450000D01*
X9651619Y-16440476D01*
X9699238Y-16440476D01*
X9718286Y-16450000D01*
X9727810Y-16459524D01*
X9737333Y-16478571D01*
X9737333Y-16497619D01*
X9727810Y-16526190D01*
X9613524Y-16640476D01*
X9737333Y-16640476D01*
X9851619Y-16526190D02*
X9832571Y-16516667D01*
X9823048Y-16507143D01*
X9813524Y-16488095D01*
X9813524Y-16478571D01*
X9823048Y-16459524D01*
X9832571Y-16450000D01*
X9851619Y-16440476D01*
X9889714Y-16440476D01*
X9908762Y-16450000D01*
X9918286Y-16459524D01*
X9927810Y-16478571D01*
X9927810Y-16488095D01*
X9918286Y-16507143D01*
X9908762Y-16516667D01*
X9889714Y-16526190D01*
X9851619Y-16526190D01*
X9832571Y-16535714D01*
X9823048Y-16545238D01*
X9813524Y-16564286D01*
X9813524Y-16602381D01*
X9823048Y-16621428D01*
X9832571Y-16630952D01*
X9851619Y-16640476D01*
X9889714Y-16640476D01*
X9908762Y-16630952D01*
X9918286Y-16621428D01*
X9927810Y-16602381D01*
X9927810Y-16564286D01*
X9918286Y-16545238D01*
X9908762Y-16535714D01*
X9889714Y-16526190D01*
X10051619Y-16440476D02*
X10070667Y-16440476D01*
X10089714Y-16450000D01*
X10099238Y-16459524D01*
X10108762Y-16478571D01*
X10118286Y-16516667D01*
X10118286Y-16564286D01*
X10108762Y-16602381D01*
X10099238Y-16621428D01*
X10089714Y-16630952D01*
X10070667Y-16640476D01*
X10051619Y-16640476D01*
X10032571Y-16630952D01*
X10023048Y-16621428D01*
X10013524Y-16602381D01*
X10004000Y-16564286D01*
X10004000Y-16516667D01*
X10013524Y-16478571D01*
X10023048Y-16459524D01*
X10032571Y-16450000D01*
X10051619Y-16440476D01*
X10194476Y-16440476D02*
X10194476Y-16478571D01*
X10270667Y-16440476D02*
X10270667Y-16478571D01*
X10565905Y-16716667D02*
X10556381Y-16707143D01*
X10537333Y-16678571D01*
X10527810Y-16659524D01*
X10518286Y-16630952D01*
X10508762Y-16583333D01*
X10508762Y-16545238D01*
X10518286Y-16497619D01*
X10527810Y-16469048D01*
X10537333Y-16450000D01*
X10556381Y-16421428D01*
X10565905Y-16411905D01*
X10632571Y-16459524D02*
X10642095Y-16450000D01*
X10661143Y-16440476D01*
X10708762Y-16440476D01*
X10727810Y-16450000D01*
X10737333Y-16459524D01*
X10746857Y-16478571D01*
X10746857Y-16497619D01*
X10737333Y-16526190D01*
X10623048Y-16640476D01*
X10746857Y-16640476D01*
X10984952Y-16640476D02*
X10984952Y-16440476D01*
X11070667Y-16640476D02*
X11070667Y-16535714D01*
X11061143Y-16516667D01*
X11042095Y-16507143D01*
X11013524Y-16507143D01*
X10994476Y-16516667D01*
X10984952Y-16526190D01*
X11194476Y-16640476D02*
X11175429Y-16630952D01*
X11165905Y-16621428D01*
X11156381Y-16602381D01*
X11156381Y-16545238D01*
X11165905Y-16526190D01*
X11175429Y-16516667D01*
X11194476Y-16507143D01*
X11223048Y-16507143D01*
X11242095Y-16516667D01*
X11251619Y-16526190D01*
X11261143Y-16545238D01*
X11261143Y-16602381D01*
X11251619Y-16621428D01*
X11242095Y-16630952D01*
X11223048Y-16640476D01*
X11194476Y-16640476D01*
X11375428Y-16640476D02*
X11356381Y-16630952D01*
X11346857Y-16611905D01*
X11346857Y-16440476D01*
X11527809Y-16630952D02*
X11508762Y-16640476D01*
X11470667Y-16640476D01*
X11451619Y-16630952D01*
X11442095Y-16611905D01*
X11442095Y-16535714D01*
X11451619Y-16516667D01*
X11470667Y-16507143D01*
X11508762Y-16507143D01*
X11527809Y-16516667D01*
X11537333Y-16535714D01*
X11537333Y-16554762D01*
X11442095Y-16573809D01*
X11613524Y-16630952D02*
X11632571Y-16640476D01*
X11670667Y-16640476D01*
X11689714Y-16630952D01*
X11699238Y-16611905D01*
X11699238Y-16602381D01*
X11689714Y-16583333D01*
X11670667Y-16573809D01*
X11642095Y-16573809D01*
X11623048Y-16564286D01*
X11613524Y-16545238D01*
X11613524Y-16535714D01*
X11623048Y-16516667D01*
X11642095Y-16507143D01*
X11670667Y-16507143D01*
X11689714Y-16516667D01*
X11765905Y-16716667D02*
X11775428Y-16707143D01*
X11794476Y-16678571D01*
X11804000Y-16659524D01*
X11813524Y-16630952D01*
X11823048Y-16583333D01*
X11823048Y-16545238D01*
X11813524Y-16497619D01*
X11804000Y-16469048D01*
X11794476Y-16450000D01*
X11775428Y-16421428D01*
X11765905Y-16411905D01*
X12127809Y-16716667D02*
X12118286Y-16707143D01*
X12099238Y-16678571D01*
X12089714Y-16659524D01*
X12080190Y-16630952D01*
X12070667Y-16583333D01*
X12070667Y-16545238D01*
X12080190Y-16497619D01*
X12089714Y-16469048D01*
X12099238Y-16450000D01*
X12118286Y-16421428D01*
X12127809Y-16411905D01*
X12204000Y-16507143D02*
X12204000Y-16640476D01*
X12204000Y-16526190D02*
X12213524Y-16516667D01*
X12232571Y-16507143D01*
X12261143Y-16507143D01*
X12280190Y-16516667D01*
X12289714Y-16535714D01*
X12289714Y-16640476D01*
X12413524Y-16640476D02*
X12394476Y-16630952D01*
X12384952Y-16621428D01*
X12375428Y-16602381D01*
X12375428Y-16545238D01*
X12384952Y-16526190D01*
X12394476Y-16516667D01*
X12413524Y-16507143D01*
X12442095Y-16507143D01*
X12461143Y-16516667D01*
X12470667Y-16526190D01*
X12480190Y-16545238D01*
X12480190Y-16602381D01*
X12470667Y-16621428D01*
X12461143Y-16630952D01*
X12442095Y-16640476D01*
X12413524Y-16640476D01*
X12537333Y-16507143D02*
X12613524Y-16507143D01*
X12565905Y-16440476D02*
X12565905Y-16611905D01*
X12575428Y-16630952D01*
X12594476Y-16640476D01*
X12613524Y-16640476D01*
X12832571Y-16507143D02*
X12832571Y-16707143D01*
X12832571Y-16516667D02*
X12851619Y-16507143D01*
X12889714Y-16507143D01*
X12908762Y-16516667D01*
X12918286Y-16526190D01*
X12927809Y-16545238D01*
X12927809Y-16602381D01*
X12918286Y-16621428D01*
X12908762Y-16630952D01*
X12889714Y-16640476D01*
X12851619Y-16640476D01*
X12832571Y-16630952D01*
X13042095Y-16640476D02*
X13023048Y-16630952D01*
X13013524Y-16611905D01*
X13013524Y-16440476D01*
X13204000Y-16640476D02*
X13204000Y-16535714D01*
X13194476Y-16516667D01*
X13175428Y-16507143D01*
X13137333Y-16507143D01*
X13118286Y-16516667D01*
X13204000Y-16630952D02*
X13184952Y-16640476D01*
X13137333Y-16640476D01*
X13118286Y-16630952D01*
X13108762Y-16611905D01*
X13108762Y-16592857D01*
X13118286Y-16573809D01*
X13137333Y-16564286D01*
X13184952Y-16564286D01*
X13204000Y-16554762D01*
X13270667Y-16507143D02*
X13346857Y-16507143D01*
X13299238Y-16440476D02*
X13299238Y-16611905D01*
X13308762Y-16630952D01*
X13327809Y-16640476D01*
X13346857Y-16640476D01*
X13489714Y-16630952D02*
X13470667Y-16640476D01*
X13432571Y-16640476D01*
X13413524Y-16630952D01*
X13404000Y-16611905D01*
X13404000Y-16535714D01*
X13413524Y-16516667D01*
X13432571Y-16507143D01*
X13470667Y-16507143D01*
X13489714Y-16516667D01*
X13499238Y-16535714D01*
X13499238Y-16554762D01*
X13404000Y-16573809D01*
X13670667Y-16640476D02*
X13670667Y-16440476D01*
X13670667Y-16630952D02*
X13651619Y-16640476D01*
X13613524Y-16640476D01*
X13594476Y-16630952D01*
X13584952Y-16621428D01*
X13575428Y-16602381D01*
X13575428Y-16545238D01*
X13584952Y-16526190D01*
X13594476Y-16516667D01*
X13613524Y-16507143D01*
X13651619Y-16507143D01*
X13670667Y-16516667D01*
X13746857Y-16716667D02*
X13756381Y-16707143D01*
X13775428Y-16678571D01*
X13784952Y-16659524D01*
X13794476Y-16630952D01*
X13804000Y-16583333D01*
X13804000Y-16545238D01*
X13794476Y-16497619D01*
X13784952Y-16469048D01*
X13775428Y-16450000D01*
X13756381Y-16421428D01*
X13746857Y-16411905D01*
M02*
