M48
; DRILL file {KiCad (6.0.9-0)} date 2023 February 07, Tuesday 08:34:54
; FORMAT={-:-/ absolute / metric / decimal}
; #@! TF.CreationDate,2023-02-07T08:34:54+01:00
; #@! TF.GenerationSoftware,Kicad,Pcbnew,(6.0.9-0)
; #@! TF.FileFunction,NonPlated,1,2,NPTH
FMAT,2
METRIC
; #@! TA.AperFunction,NonPlated,NPTH,ComponentDrill
T1C2.850
; #@! TA.AperFunction,NonPlated,NPTH,ComponentDrill
T2C3.000
%
G90
G05
T1
X45.677Y-97.53
X45.677Y-187.53
X65.998Y-97.53
X65.998Y-187.53
X86.317Y-97.53
X86.317Y-187.53
X106.637Y-97.53
X106.637Y-187.53
X126.957Y-97.53
X126.957Y-187.53
X147.278Y-97.53
X147.278Y-187.53
X167.597Y-97.53
X167.597Y-187.53
X187.917Y-97.53
X187.917Y-187.53
X208.237Y-97.53
X208.237Y-187.53
X228.557Y-97.53
X228.557Y-187.53
X248.877Y-97.53
X248.877Y-187.53
X269.197Y-97.53
X269.197Y-187.53
X289.517Y-97.53
X289.517Y-187.53
X309.837Y-97.53
X309.837Y-187.53
X330.157Y-97.53
X330.157Y-187.53
T2
X362.9Y-119.765
X362.9Y-165.965
T0
M30
