M48
; DRILL file {KiCad (6.0.9-0)} date 2023 February 07, Tuesday 08:34:54
; FORMAT={-:-/ absolute / metric / decimal}
; #@! TF.CreationDate,2023-02-07T08:34:54+01:00
; #@! TF.GenerationSoftware,Kicad,Pcbnew,(6.0.9-0)
; #@! TF.FileFunction,Plated,1,2,PTH
FMAT,2
METRIC
; #@! TA.AperFunction,Plated,PTH,ComponentDrill
T1C1.000
; #@! TA.AperFunction,Plated,PTH,ComponentDrill
T2C1.800
; #@! TA.AperFunction,Plated,PTH,ComponentDrill
T3C3.200
%
G90
G05
T1
X43.438Y-105.7
X43.438Y-110.78
X43.438Y-115.86
X43.438Y-120.94
X43.438Y-126.02
X43.438Y-131.1
X43.438Y-136.18
X43.438Y-141.26
X43.438Y-146.34
X43.438Y-151.42
X43.438Y-156.5
X43.438Y-161.58
X43.438Y-166.66
X43.438Y-171.74
X43.438Y-176.82
X43.438Y-181.9
X48.517Y-105.7
X48.517Y-110.78
X48.517Y-115.86
X48.517Y-120.94
X48.517Y-126.02
X48.517Y-131.1
X48.517Y-136.18
X48.517Y-141.26
X48.517Y-146.34
X48.517Y-151.42
X48.517Y-156.5
X48.517Y-161.58
X48.517Y-166.66
X48.517Y-171.74
X48.517Y-176.82
X48.517Y-181.9
X63.758Y-105.7
X63.758Y-110.78
X63.758Y-115.86
X63.758Y-120.94
X63.758Y-126.02
X63.758Y-131.1
X63.758Y-136.18
X63.758Y-141.26
X63.758Y-146.34
X63.758Y-151.42
X63.758Y-156.5
X63.758Y-161.58
X63.758Y-166.66
X63.758Y-171.74
X63.758Y-176.82
X63.758Y-181.9
X68.837Y-105.7
X68.837Y-110.78
X68.837Y-115.86
X68.837Y-120.94
X68.837Y-126.02
X68.837Y-131.1
X68.837Y-136.18
X68.837Y-141.26
X68.837Y-146.34
X68.837Y-151.42
X68.837Y-156.5
X68.837Y-161.58
X68.837Y-166.66
X68.837Y-171.74
X68.837Y-176.82
X68.837Y-181.9
X84.078Y-105.7
X84.078Y-110.78
X84.078Y-115.86
X84.078Y-120.94
X84.078Y-126.02
X84.078Y-131.1
X84.078Y-136.18
X84.078Y-141.26
X84.078Y-146.34
X84.078Y-151.42
X84.078Y-156.5
X84.078Y-161.58
X84.078Y-166.66
X84.078Y-171.74
X84.078Y-176.82
X84.078Y-181.9
X89.157Y-105.7
X89.157Y-110.78
X89.157Y-115.86
X89.157Y-120.94
X89.157Y-126.02
X89.157Y-131.1
X89.157Y-136.18
X89.157Y-141.26
X89.157Y-146.34
X89.157Y-151.42
X89.157Y-156.5
X89.157Y-161.58
X89.157Y-166.66
X89.157Y-171.74
X89.157Y-176.82
X89.157Y-181.9
X104.397Y-105.7
X104.397Y-110.78
X104.397Y-115.86
X104.397Y-120.94
X104.397Y-126.02
X104.397Y-131.1
X104.397Y-136.18
X104.397Y-141.26
X104.397Y-146.34
X104.397Y-151.42
X104.397Y-156.5
X104.397Y-161.58
X104.397Y-166.66
X104.397Y-171.74
X104.397Y-176.82
X104.397Y-181.9
X109.477Y-105.7
X109.477Y-110.78
X109.477Y-115.86
X109.477Y-120.94
X109.477Y-126.02
X109.477Y-131.1
X109.477Y-136.18
X109.477Y-141.26
X109.477Y-146.34
X109.477Y-151.42
X109.477Y-156.5
X109.477Y-161.58
X109.477Y-166.66
X109.477Y-171.74
X109.477Y-176.82
X109.477Y-181.9
X124.718Y-105.7
X124.718Y-110.78
X124.718Y-115.86
X124.718Y-120.94
X124.718Y-126.02
X124.718Y-131.1
X124.718Y-136.18
X124.718Y-141.26
X124.718Y-146.34
X124.718Y-151.42
X124.718Y-156.5
X124.718Y-161.58
X124.718Y-166.66
X124.718Y-171.74
X124.718Y-176.82
X124.718Y-181.9
X129.797Y-105.7
X129.797Y-110.78
X129.797Y-115.86
X129.797Y-120.94
X129.797Y-126.02
X129.797Y-131.1
X129.797Y-136.18
X129.797Y-141.26
X129.797Y-146.34
X129.797Y-151.42
X129.797Y-156.5
X129.797Y-161.58
X129.797Y-166.66
X129.797Y-171.74
X129.797Y-176.82
X129.797Y-181.9
X145.037Y-105.7
X145.037Y-110.78
X145.037Y-115.86
X145.037Y-120.94
X145.037Y-126.02
X145.037Y-131.1
X145.037Y-136.18
X145.037Y-141.26
X145.037Y-146.34
X145.037Y-151.42
X145.037Y-156.5
X145.037Y-161.58
X145.037Y-166.66
X145.037Y-171.74
X145.037Y-176.82
X145.037Y-181.9
X150.118Y-105.7
X150.118Y-110.78
X150.118Y-115.86
X150.118Y-120.94
X150.118Y-126.02
X150.118Y-131.1
X150.118Y-136.18
X150.118Y-141.26
X150.118Y-146.34
X150.118Y-151.42
X150.118Y-156.5
X150.118Y-161.58
X150.118Y-166.66
X150.118Y-171.74
X150.118Y-176.82
X150.118Y-181.9
X165.357Y-105.7
X165.357Y-110.78
X165.357Y-115.86
X165.357Y-120.94
X165.357Y-126.02
X165.357Y-131.1
X165.357Y-136.18
X165.357Y-141.26
X165.357Y-146.34
X165.357Y-151.42
X165.357Y-156.5
X165.357Y-161.58
X165.357Y-166.66
X165.357Y-171.74
X165.357Y-176.82
X165.357Y-181.9
X170.438Y-105.7
X170.438Y-110.78
X170.438Y-115.86
X170.438Y-120.94
X170.438Y-126.02
X170.438Y-131.1
X170.438Y-136.18
X170.438Y-141.26
X170.438Y-146.34
X170.438Y-151.42
X170.438Y-156.5
X170.438Y-161.58
X170.438Y-166.66
X170.438Y-171.74
X170.438Y-176.82
X170.438Y-181.9
X185.677Y-105.7
X185.677Y-110.78
X185.677Y-115.86
X185.677Y-120.94
X185.677Y-126.02
X185.677Y-131.1
X185.677Y-136.18
X185.677Y-141.26
X185.677Y-146.34
X185.677Y-151.42
X185.677Y-156.5
X185.677Y-161.58
X185.677Y-166.66
X185.677Y-171.74
X185.677Y-176.82
X185.677Y-181.9
X190.757Y-105.7
X190.757Y-110.78
X190.757Y-115.86
X190.757Y-120.94
X190.757Y-126.02
X190.757Y-131.1
X190.757Y-136.18
X190.757Y-141.26
X190.757Y-146.34
X190.757Y-151.42
X190.757Y-156.5
X190.757Y-161.58
X190.757Y-166.66
X190.757Y-171.74
X190.757Y-176.82
X190.757Y-181.9
X205.998Y-105.7
X205.998Y-110.78
X205.998Y-115.86
X205.998Y-120.94
X205.998Y-126.02
X205.998Y-131.1
X205.998Y-136.18
X205.998Y-141.26
X205.998Y-146.34
X205.998Y-151.42
X205.998Y-156.5
X205.998Y-161.58
X205.998Y-166.66
X205.998Y-171.74
X205.998Y-176.82
X205.998Y-181.9
X211.077Y-105.7
X211.077Y-110.78
X211.077Y-115.86
X211.077Y-120.94
X211.077Y-126.02
X211.077Y-131.1
X211.077Y-136.18
X211.077Y-141.26
X211.077Y-146.34
X211.077Y-151.42
X211.077Y-156.5
X211.077Y-161.58
X211.077Y-166.66
X211.077Y-171.74
X211.077Y-176.82
X211.077Y-181.9
X226.317Y-105.7
X226.317Y-110.78
X226.317Y-115.86
X226.317Y-120.94
X226.317Y-126.02
X226.317Y-131.1
X226.317Y-136.18
X226.317Y-141.26
X226.317Y-146.34
X226.317Y-151.42
X226.317Y-156.5
X226.317Y-161.58
X226.317Y-166.66
X226.317Y-171.74
X226.317Y-176.82
X226.317Y-181.9
X231.397Y-105.7
X231.397Y-110.78
X231.397Y-115.86
X231.397Y-120.94
X231.397Y-126.02
X231.397Y-131.1
X231.397Y-136.18
X231.397Y-141.26
X231.397Y-146.34
X231.397Y-151.42
X231.397Y-156.5
X231.397Y-161.58
X231.397Y-166.66
X231.397Y-171.74
X231.397Y-176.82
X231.397Y-181.9
X246.637Y-105.7
X246.637Y-110.78
X246.637Y-115.86
X246.637Y-120.94
X246.637Y-126.02
X246.637Y-131.1
X246.637Y-136.18
X246.637Y-141.26
X246.637Y-146.34
X246.637Y-151.42
X246.637Y-156.5
X246.637Y-161.58
X246.637Y-166.66
X246.637Y-171.74
X246.637Y-176.82
X246.637Y-181.9
X251.718Y-105.7
X251.718Y-110.78
X251.718Y-115.86
X251.718Y-120.94
X251.718Y-126.02
X251.718Y-131.1
X251.718Y-136.18
X251.718Y-141.26
X251.718Y-146.34
X251.718Y-151.42
X251.718Y-156.5
X251.718Y-161.58
X251.718Y-166.66
X251.718Y-171.74
X251.718Y-176.82
X251.718Y-181.9
X266.957Y-105.7
X266.957Y-110.78
X266.957Y-115.86
X266.957Y-120.94
X266.957Y-126.02
X266.957Y-131.1
X266.957Y-136.18
X266.957Y-141.26
X266.957Y-146.34
X266.957Y-151.42
X266.957Y-156.5
X266.957Y-161.58
X266.957Y-166.66
X266.957Y-171.74
X266.957Y-176.82
X266.957Y-181.9
X272.037Y-105.7
X272.037Y-110.78
X272.037Y-115.86
X272.037Y-120.94
X272.037Y-126.02
X272.037Y-131.1
X272.037Y-136.18
X272.037Y-141.26
X272.037Y-146.34
X272.037Y-151.42
X272.037Y-156.5
X272.037Y-161.58
X272.037Y-166.66
X272.037Y-171.74
X272.037Y-176.82
X272.037Y-181.9
X287.277Y-105.7
X287.277Y-110.78
X287.277Y-115.86
X287.277Y-120.94
X287.277Y-126.02
X287.277Y-131.1
X287.277Y-136.18
X287.277Y-141.26
X287.277Y-146.34
X287.277Y-151.42
X287.277Y-156.5
X287.277Y-161.58
X287.277Y-166.66
X287.277Y-171.74
X287.277Y-176.82
X287.277Y-181.9
X292.357Y-105.7
X292.357Y-110.78
X292.357Y-115.86
X292.357Y-120.94
X292.357Y-126.02
X292.357Y-131.1
X292.357Y-136.18
X292.357Y-141.26
X292.357Y-146.34
X292.357Y-151.42
X292.357Y-156.5
X292.357Y-161.58
X292.357Y-166.66
X292.357Y-171.74
X292.357Y-176.82
X292.357Y-181.9
X307.597Y-105.7
X307.597Y-110.78
X307.597Y-115.86
X307.597Y-120.94
X307.597Y-126.02
X307.597Y-131.1
X307.597Y-136.18
X307.597Y-141.26
X307.597Y-146.34
X307.597Y-151.42
X307.597Y-156.5
X307.597Y-161.58
X307.597Y-166.66
X307.597Y-171.74
X307.597Y-176.82
X307.597Y-181.9
X312.678Y-105.7
X312.678Y-110.78
X312.678Y-115.86
X312.678Y-120.94
X312.678Y-126.02
X312.678Y-131.1
X312.678Y-136.18
X312.678Y-141.26
X312.678Y-146.34
X312.678Y-151.42
X312.678Y-156.5
X312.678Y-161.58
X312.678Y-166.66
X312.678Y-171.74
X312.678Y-176.82
X312.678Y-181.9
X327.917Y-105.7
X327.917Y-110.78
X327.917Y-115.86
X327.917Y-120.94
X327.917Y-126.02
X327.917Y-131.1
X327.917Y-136.18
X327.917Y-141.26
X327.917Y-146.34
X327.917Y-151.42
X327.917Y-156.5
X327.917Y-161.58
X327.917Y-166.66
X327.917Y-171.74
X327.917Y-176.82
X327.917Y-181.9
X332.998Y-105.7
X332.998Y-110.78
X332.998Y-115.86
X332.998Y-120.94
X332.998Y-126.02
X332.998Y-131.1
X332.998Y-136.18
X332.998Y-141.26
X332.998Y-146.34
X332.998Y-151.42
X332.998Y-156.5
X332.998Y-161.58
X332.998Y-166.66
X332.998Y-171.74
X332.998Y-176.82
X332.998Y-181.9
T2
X350.1Y-119.765
X350.1Y-123.965
X350.1Y-128.165
X350.1Y-132.365
X350.1Y-136.565
X350.1Y-140.765
X350.1Y-144.965
X350.1Y-149.165
X350.1Y-153.365
X350.1Y-157.565
X350.1Y-161.765
X350.1Y-165.965
X355.6Y-119.765
X355.6Y-123.965
X355.6Y-128.165
X355.6Y-132.365
X355.6Y-136.565
X355.6Y-140.765
X355.6Y-144.965
X355.6Y-149.165
X355.6Y-153.365
X355.6Y-157.565
X355.6Y-161.765
X355.6Y-165.965
T3
X45.72Y-81.28
X45.72Y-203.78
X66.04Y-81.28
X66.04Y-203.78
X86.36Y-81.28
X86.36Y-203.78
X106.68Y-81.28
X106.68Y-203.78
X127.0Y-81.28
X127.0Y-203.78
X147.32Y-81.28
X147.32Y-203.78
X167.64Y-81.28
X167.64Y-203.78
X187.96Y-81.28
X187.96Y-203.78
X208.28Y-81.28
X208.28Y-203.78
X228.6Y-81.28
X228.6Y-203.78
X248.92Y-81.28
X248.92Y-203.78
X269.24Y-81.28
X269.24Y-203.78
X289.56Y-81.28
X289.56Y-203.78
X309.88Y-81.28
X309.88Y-203.78
X330.2Y-81.28
X330.2Y-203.78
X350.52Y-81.28
X350.52Y-203.78
X370.84Y-81.28
X370.84Y-203.78
T0
M30
