G04 #@! TF.GenerationSoftware,KiCad,Pcbnew,(6.0.9-0)*
G04 #@! TF.CreationDate,2023-02-07T08:34:52+01:00*
G04 #@! TF.ProjectId,Backplane,4261636b-706c-4616-9e65-2e6b69636164,A*
G04 #@! TF.SameCoordinates,Original*
G04 #@! TF.FileFunction,Soldermask,Top*
G04 #@! TF.FilePolarity,Negative*
%FSLAX46Y46*%
G04 Gerber Fmt 4.6, Leading zero omitted, Abs format (unit mm)*
G04 Created by KiCad (PCBNEW (6.0.9-0)) date 2023-02-07 08:34:52*
%MOMM*%
%LPD*%
G01*
G04 APERTURE LIST*
G04 Aperture macros list*
%AMRoundRect*
0 Rectangle with rounded corners*
0 $1 Rounding radius*
0 $2 $3 $4 $5 $6 $7 $8 $9 X,Y pos of 4 corners*
0 Add a 4 corners polygon primitive as box body*
4,1,4,$2,$3,$4,$5,$6,$7,$8,$9,$2,$3,0*
0 Add four circle primitives for the rounded corners*
1,1,$1+$1,$2,$3*
1,1,$1+$1,$4,$5*
1,1,$1+$1,$6,$7*
1,1,$1+$1,$8,$9*
0 Add four rect primitives between the rounded corners*
20,1,$1+$1,$2,$3,$4,$5,0*
20,1,$1+$1,$4,$5,$6,$7,0*
20,1,$1+$1,$6,$7,$8,$9,0*
20,1,$1+$1,$8,$9,$2,$3,0*%
G04 Aperture macros list end*
%ADD10C,2.850000*%
%ADD11RoundRect,0.249999X-0.525001X-0.525001X0.525001X-0.525001X0.525001X0.525001X-0.525001X0.525001X0*%
%ADD12C,1.550000*%
%ADD13C,5.500000*%
%ADD14C,3.000000*%
%ADD15RoundRect,0.250001X-1.599999X1.099999X-1.599999X-1.099999X1.599999X-1.099999X1.599999X1.099999X0*%
%ADD16O,3.700000X2.700000*%
G04 APERTURE END LIST*
D10*
X65997500Y-97530000D03*
X65997500Y-187530000D03*
D11*
X63757500Y-105700000D03*
D12*
X63757500Y-110780000D03*
X63757500Y-115860000D03*
X63757500Y-120940000D03*
X63757500Y-126020000D03*
X63757500Y-131100000D03*
X63757500Y-136180000D03*
X63757500Y-141260000D03*
X63757500Y-146340000D03*
X63757500Y-151420000D03*
X63757500Y-156500000D03*
X63757500Y-161580000D03*
X63757500Y-166660000D03*
X63757500Y-171740000D03*
X63757500Y-176820000D03*
X63757500Y-181900000D03*
X68837500Y-105700000D03*
X68837500Y-110780000D03*
X68837500Y-115860000D03*
X68837500Y-120940000D03*
X68837500Y-126020000D03*
X68837500Y-131100000D03*
X68837500Y-136180000D03*
X68837500Y-141260000D03*
X68837500Y-146340000D03*
X68837500Y-151420000D03*
X68837500Y-156500000D03*
X68837500Y-161580000D03*
X68837500Y-166660000D03*
X68837500Y-171740000D03*
X68837500Y-176820000D03*
X68837500Y-181900000D03*
D10*
X45677500Y-97530000D03*
X45677500Y-187530000D03*
D11*
X43437500Y-105700000D03*
D12*
X43437500Y-110780000D03*
X43437500Y-115860000D03*
X43437500Y-120940000D03*
X43437500Y-126020000D03*
X43437500Y-131100000D03*
X43437500Y-136180000D03*
X43437500Y-141260000D03*
X43437500Y-146340000D03*
X43437500Y-151420000D03*
X43437500Y-156500000D03*
X43437500Y-161580000D03*
X43437500Y-166660000D03*
X43437500Y-171740000D03*
X43437500Y-176820000D03*
X43437500Y-181900000D03*
X48517500Y-105700000D03*
X48517500Y-110780000D03*
X48517500Y-115860000D03*
X48517500Y-120940000D03*
X48517500Y-126020000D03*
X48517500Y-131100000D03*
X48517500Y-136180000D03*
X48517500Y-141260000D03*
X48517500Y-146340000D03*
X48517500Y-151420000D03*
X48517500Y-156500000D03*
X48517500Y-161580000D03*
X48517500Y-166660000D03*
X48517500Y-171740000D03*
X48517500Y-176820000D03*
X48517500Y-181900000D03*
D10*
X167597500Y-187530000D03*
X167597500Y-97530000D03*
D11*
X165357500Y-105700000D03*
D12*
X165357500Y-110780000D03*
X165357500Y-115860000D03*
X165357500Y-120940000D03*
X165357500Y-126020000D03*
X165357500Y-131100000D03*
X165357500Y-136180000D03*
X165357500Y-141260000D03*
X165357500Y-146340000D03*
X165357500Y-151420000D03*
X165357500Y-156500000D03*
X165357500Y-161580000D03*
X165357500Y-166660000D03*
X165357500Y-171740000D03*
X165357500Y-176820000D03*
X165357500Y-181900000D03*
X170437500Y-105700000D03*
X170437500Y-110780000D03*
X170437500Y-115860000D03*
X170437500Y-120940000D03*
X170437500Y-126020000D03*
X170437500Y-131100000D03*
X170437500Y-136180000D03*
X170437500Y-141260000D03*
X170437500Y-146340000D03*
X170437500Y-151420000D03*
X170437500Y-156500000D03*
X170437500Y-161580000D03*
X170437500Y-166660000D03*
X170437500Y-171740000D03*
X170437500Y-176820000D03*
X170437500Y-181900000D03*
D10*
X86317500Y-97530000D03*
X86317500Y-187530000D03*
D11*
X84077500Y-105700000D03*
D12*
X84077500Y-110780000D03*
X84077500Y-115860000D03*
X84077500Y-120940000D03*
X84077500Y-126020000D03*
X84077500Y-131100000D03*
X84077500Y-136180000D03*
X84077500Y-141260000D03*
X84077500Y-146340000D03*
X84077500Y-151420000D03*
X84077500Y-156500000D03*
X84077500Y-161580000D03*
X84077500Y-166660000D03*
X84077500Y-171740000D03*
X84077500Y-176820000D03*
X84077500Y-181900000D03*
X89157500Y-105700000D03*
X89157500Y-110780000D03*
X89157500Y-115860000D03*
X89157500Y-120940000D03*
X89157500Y-126020000D03*
X89157500Y-131100000D03*
X89157500Y-136180000D03*
X89157500Y-141260000D03*
X89157500Y-146340000D03*
X89157500Y-151420000D03*
X89157500Y-156500000D03*
X89157500Y-161580000D03*
X89157500Y-166660000D03*
X89157500Y-171740000D03*
X89157500Y-176820000D03*
X89157500Y-181900000D03*
D13*
X330200000Y-81280000D03*
X370840000Y-81280000D03*
X106680000Y-81280000D03*
D10*
X187917500Y-97530000D03*
X187917500Y-187530000D03*
D11*
X185677500Y-105700000D03*
D12*
X185677500Y-110780000D03*
X185677500Y-115860000D03*
X185677500Y-120940000D03*
X185677500Y-126020000D03*
X185677500Y-131100000D03*
X185677500Y-136180000D03*
X185677500Y-141260000D03*
X185677500Y-146340000D03*
X185677500Y-151420000D03*
X185677500Y-156500000D03*
X185677500Y-161580000D03*
X185677500Y-166660000D03*
X185677500Y-171740000D03*
X185677500Y-176820000D03*
X185677500Y-181900000D03*
X190757500Y-105700000D03*
X190757500Y-110780000D03*
X190757500Y-115860000D03*
X190757500Y-120940000D03*
X190757500Y-126020000D03*
X190757500Y-131100000D03*
X190757500Y-136180000D03*
X190757500Y-141260000D03*
X190757500Y-146340000D03*
X190757500Y-151420000D03*
X190757500Y-156500000D03*
X190757500Y-161580000D03*
X190757500Y-166660000D03*
X190757500Y-171740000D03*
X190757500Y-176820000D03*
X190757500Y-181900000D03*
D13*
X147320000Y-81280000D03*
D10*
X147277500Y-97530000D03*
X147277500Y-187530000D03*
D11*
X145037500Y-105700000D03*
D12*
X145037500Y-110780000D03*
X145037500Y-115860000D03*
X145037500Y-120940000D03*
X145037500Y-126020000D03*
X145037500Y-131100000D03*
X145037500Y-136180000D03*
X145037500Y-141260000D03*
X145037500Y-146340000D03*
X145037500Y-151420000D03*
X145037500Y-156500000D03*
X145037500Y-161580000D03*
X145037500Y-166660000D03*
X145037500Y-171740000D03*
X145037500Y-176820000D03*
X145037500Y-181900000D03*
X150117500Y-105700000D03*
X150117500Y-110780000D03*
X150117500Y-115860000D03*
X150117500Y-120940000D03*
X150117500Y-126020000D03*
X150117500Y-131100000D03*
X150117500Y-136180000D03*
X150117500Y-141260000D03*
X150117500Y-146340000D03*
X150117500Y-151420000D03*
X150117500Y-156500000D03*
X150117500Y-161580000D03*
X150117500Y-166660000D03*
X150117500Y-171740000D03*
X150117500Y-176820000D03*
X150117500Y-181900000D03*
D13*
X167640000Y-81280000D03*
X187960000Y-81280000D03*
X248920000Y-203780000D03*
D10*
X330157500Y-187530000D03*
X330157500Y-97530000D03*
D11*
X327917500Y-105700000D03*
D12*
X327917500Y-110780000D03*
X327917500Y-115860000D03*
X327917500Y-120940000D03*
X327917500Y-126020000D03*
X327917500Y-131100000D03*
X327917500Y-136180000D03*
X327917500Y-141260000D03*
X327917500Y-146340000D03*
X327917500Y-151420000D03*
X327917500Y-156500000D03*
X327917500Y-161580000D03*
X327917500Y-166660000D03*
X327917500Y-171740000D03*
X327917500Y-176820000D03*
X327917500Y-181900000D03*
X332997500Y-105700000D03*
X332997500Y-110780000D03*
X332997500Y-115860000D03*
X332997500Y-120940000D03*
X332997500Y-126020000D03*
X332997500Y-131100000D03*
X332997500Y-136180000D03*
X332997500Y-141260000D03*
X332997500Y-146340000D03*
X332997500Y-151420000D03*
X332997500Y-156500000D03*
X332997500Y-161580000D03*
X332997500Y-166660000D03*
X332997500Y-171740000D03*
X332997500Y-176820000D03*
X332997500Y-181900000D03*
D13*
X86360000Y-203780000D03*
X208280000Y-81280000D03*
X66040000Y-203780000D03*
D14*
X362900000Y-119765000D03*
X362900000Y-165965000D03*
D15*
X355600000Y-119765000D03*
D16*
X355600000Y-123965000D03*
X355600000Y-128165000D03*
X355600000Y-132365000D03*
X355600000Y-136565000D03*
X355600000Y-140765000D03*
X355600000Y-144965000D03*
X355600000Y-149165000D03*
X355600000Y-153365000D03*
X355600000Y-157565000D03*
X355600000Y-161765000D03*
X355600000Y-165965000D03*
X350100000Y-119765000D03*
X350100000Y-123965000D03*
X350100000Y-128165000D03*
X350100000Y-132365000D03*
X350100000Y-136565000D03*
X350100000Y-140765000D03*
X350100000Y-144965000D03*
X350100000Y-149165000D03*
X350100000Y-153365000D03*
X350100000Y-157565000D03*
X350100000Y-161765000D03*
X350100000Y-165965000D03*
D13*
X248920000Y-81280000D03*
X350520000Y-81280000D03*
X147320000Y-203780000D03*
D10*
X309837500Y-97530000D03*
X309837500Y-187530000D03*
D11*
X307597500Y-105700000D03*
D12*
X307597500Y-110780000D03*
X307597500Y-115860000D03*
X307597500Y-120940000D03*
X307597500Y-126020000D03*
X307597500Y-131100000D03*
X307597500Y-136180000D03*
X307597500Y-141260000D03*
X307597500Y-146340000D03*
X307597500Y-151420000D03*
X307597500Y-156500000D03*
X307597500Y-161580000D03*
X307597500Y-166660000D03*
X307597500Y-171740000D03*
X307597500Y-176820000D03*
X307597500Y-181900000D03*
X312677500Y-105700000D03*
X312677500Y-110780000D03*
X312677500Y-115860000D03*
X312677500Y-120940000D03*
X312677500Y-126020000D03*
X312677500Y-131100000D03*
X312677500Y-136180000D03*
X312677500Y-141260000D03*
X312677500Y-146340000D03*
X312677500Y-151420000D03*
X312677500Y-156500000D03*
X312677500Y-161580000D03*
X312677500Y-166660000D03*
X312677500Y-171740000D03*
X312677500Y-176820000D03*
X312677500Y-181900000D03*
D13*
X45720000Y-81280000D03*
D10*
X228557500Y-187530000D03*
X228557500Y-97530000D03*
D11*
X226317500Y-105700000D03*
D12*
X226317500Y-110780000D03*
X226317500Y-115860000D03*
X226317500Y-120940000D03*
X226317500Y-126020000D03*
X226317500Y-131100000D03*
X226317500Y-136180000D03*
X226317500Y-141260000D03*
X226317500Y-146340000D03*
X226317500Y-151420000D03*
X226317500Y-156500000D03*
X226317500Y-161580000D03*
X226317500Y-166660000D03*
X226317500Y-171740000D03*
X226317500Y-176820000D03*
X226317500Y-181900000D03*
X231397500Y-105700000D03*
X231397500Y-110780000D03*
X231397500Y-115860000D03*
X231397500Y-120940000D03*
X231397500Y-126020000D03*
X231397500Y-131100000D03*
X231397500Y-136180000D03*
X231397500Y-141260000D03*
X231397500Y-146340000D03*
X231397500Y-151420000D03*
X231397500Y-156500000D03*
X231397500Y-161580000D03*
X231397500Y-166660000D03*
X231397500Y-171740000D03*
X231397500Y-176820000D03*
X231397500Y-181900000D03*
D13*
X289560000Y-81280000D03*
D10*
X289517500Y-187530000D03*
X289517500Y-97530000D03*
D11*
X287277500Y-105700000D03*
D12*
X287277500Y-110780000D03*
X287277500Y-115860000D03*
X287277500Y-120940000D03*
X287277500Y-126020000D03*
X287277500Y-131100000D03*
X287277500Y-136180000D03*
X287277500Y-141260000D03*
X287277500Y-146340000D03*
X287277500Y-151420000D03*
X287277500Y-156500000D03*
X287277500Y-161580000D03*
X287277500Y-166660000D03*
X287277500Y-171740000D03*
X287277500Y-176820000D03*
X287277500Y-181900000D03*
X292357500Y-105700000D03*
X292357500Y-110780000D03*
X292357500Y-115860000D03*
X292357500Y-120940000D03*
X292357500Y-126020000D03*
X292357500Y-131100000D03*
X292357500Y-136180000D03*
X292357500Y-141260000D03*
X292357500Y-146340000D03*
X292357500Y-151420000D03*
X292357500Y-156500000D03*
X292357500Y-161580000D03*
X292357500Y-166660000D03*
X292357500Y-171740000D03*
X292357500Y-176820000D03*
X292357500Y-181900000D03*
D13*
X228600000Y-203780000D03*
X309880000Y-81280000D03*
X370840000Y-203780000D03*
X330200000Y-203780000D03*
X289560000Y-203780000D03*
X187960000Y-203780000D03*
X208280000Y-203780000D03*
D10*
X126957500Y-97530000D03*
X126957500Y-187530000D03*
D11*
X124717500Y-105700000D03*
D12*
X124717500Y-110780000D03*
X124717500Y-115860000D03*
X124717500Y-120940000D03*
X124717500Y-126020000D03*
X124717500Y-131100000D03*
X124717500Y-136180000D03*
X124717500Y-141260000D03*
X124717500Y-146340000D03*
X124717500Y-151420000D03*
X124717500Y-156500000D03*
X124717500Y-161580000D03*
X124717500Y-166660000D03*
X124717500Y-171740000D03*
X124717500Y-176820000D03*
X124717500Y-181900000D03*
X129797500Y-105700000D03*
X129797500Y-110780000D03*
X129797500Y-115860000D03*
X129797500Y-120940000D03*
X129797500Y-126020000D03*
X129797500Y-131100000D03*
X129797500Y-136180000D03*
X129797500Y-141260000D03*
X129797500Y-146340000D03*
X129797500Y-151420000D03*
X129797500Y-156500000D03*
X129797500Y-161580000D03*
X129797500Y-166660000D03*
X129797500Y-171740000D03*
X129797500Y-176820000D03*
X129797500Y-181900000D03*
D13*
X269240000Y-203780000D03*
D10*
X208237500Y-187530000D03*
X208237500Y-97530000D03*
D11*
X205997500Y-105700000D03*
D12*
X205997500Y-110780000D03*
X205997500Y-115860000D03*
X205997500Y-120940000D03*
X205997500Y-126020000D03*
X205997500Y-131100000D03*
X205997500Y-136180000D03*
X205997500Y-141260000D03*
X205997500Y-146340000D03*
X205997500Y-151420000D03*
X205997500Y-156500000D03*
X205997500Y-161580000D03*
X205997500Y-166660000D03*
X205997500Y-171740000D03*
X205997500Y-176820000D03*
X205997500Y-181900000D03*
X211077500Y-105700000D03*
X211077500Y-110780000D03*
X211077500Y-115860000D03*
X211077500Y-120940000D03*
X211077500Y-126020000D03*
X211077500Y-131100000D03*
X211077500Y-136180000D03*
X211077500Y-141260000D03*
X211077500Y-146340000D03*
X211077500Y-151420000D03*
X211077500Y-156500000D03*
X211077500Y-161580000D03*
X211077500Y-166660000D03*
X211077500Y-171740000D03*
X211077500Y-176820000D03*
X211077500Y-181900000D03*
D13*
X309880000Y-203780000D03*
D10*
X269197500Y-187530000D03*
X269197500Y-97530000D03*
D11*
X266957500Y-105700000D03*
D12*
X266957500Y-110780000D03*
X266957500Y-115860000D03*
X266957500Y-120940000D03*
X266957500Y-126020000D03*
X266957500Y-131100000D03*
X266957500Y-136180000D03*
X266957500Y-141260000D03*
X266957500Y-146340000D03*
X266957500Y-151420000D03*
X266957500Y-156500000D03*
X266957500Y-161580000D03*
X266957500Y-166660000D03*
X266957500Y-171740000D03*
X266957500Y-176820000D03*
X266957500Y-181900000D03*
X272037500Y-105700000D03*
X272037500Y-110780000D03*
X272037500Y-115860000D03*
X272037500Y-120940000D03*
X272037500Y-126020000D03*
X272037500Y-131100000D03*
X272037500Y-136180000D03*
X272037500Y-141260000D03*
X272037500Y-146340000D03*
X272037500Y-151420000D03*
X272037500Y-156500000D03*
X272037500Y-161580000D03*
X272037500Y-166660000D03*
X272037500Y-171740000D03*
X272037500Y-176820000D03*
X272037500Y-181900000D03*
D13*
X228600000Y-81280000D03*
X86360000Y-81280000D03*
X66040000Y-81280000D03*
D10*
X248877500Y-97530000D03*
X248877500Y-187530000D03*
D11*
X246637500Y-105700000D03*
D12*
X246637500Y-110780000D03*
X246637500Y-115860000D03*
X246637500Y-120940000D03*
X246637500Y-126020000D03*
X246637500Y-131100000D03*
X246637500Y-136180000D03*
X246637500Y-141260000D03*
X246637500Y-146340000D03*
X246637500Y-151420000D03*
X246637500Y-156500000D03*
X246637500Y-161580000D03*
X246637500Y-166660000D03*
X246637500Y-171740000D03*
X246637500Y-176820000D03*
X246637500Y-181900000D03*
X251717500Y-105700000D03*
X251717500Y-110780000D03*
X251717500Y-115860000D03*
X251717500Y-120940000D03*
X251717500Y-126020000D03*
X251717500Y-131100000D03*
X251717500Y-136180000D03*
X251717500Y-141260000D03*
X251717500Y-146340000D03*
X251717500Y-151420000D03*
X251717500Y-156500000D03*
X251717500Y-161580000D03*
X251717500Y-166660000D03*
X251717500Y-171740000D03*
X251717500Y-176820000D03*
X251717500Y-181900000D03*
D13*
X45720000Y-203780000D03*
X127000000Y-81280000D03*
D10*
X106637500Y-97530000D03*
X106637500Y-187530000D03*
D11*
X104397500Y-105700000D03*
D12*
X104397500Y-110780000D03*
X104397500Y-115860000D03*
X104397500Y-120940000D03*
X104397500Y-126020000D03*
X104397500Y-131100000D03*
X104397500Y-136180000D03*
X104397500Y-141260000D03*
X104397500Y-146340000D03*
X104397500Y-151420000D03*
X104397500Y-156500000D03*
X104397500Y-161580000D03*
X104397500Y-166660000D03*
X104397500Y-171740000D03*
X104397500Y-176820000D03*
X104397500Y-181900000D03*
X109477500Y-105700000D03*
X109477500Y-110780000D03*
X109477500Y-115860000D03*
X109477500Y-120940000D03*
X109477500Y-126020000D03*
X109477500Y-131100000D03*
X109477500Y-136180000D03*
X109477500Y-141260000D03*
X109477500Y-146340000D03*
X109477500Y-151420000D03*
X109477500Y-156500000D03*
X109477500Y-161580000D03*
X109477500Y-166660000D03*
X109477500Y-171740000D03*
X109477500Y-176820000D03*
X109477500Y-181900000D03*
D13*
X167640000Y-203780000D03*
X269240000Y-81280000D03*
X127000000Y-203780000D03*
X106680000Y-203780000D03*
X350520000Y-203780000D03*
M02*
