%TF.GenerationSoftware,KiCad,Pcbnew,(6.0.9-0)*%
%TF.CreationDate,2023-02-07T08:34:55+01:00*%
%TF.ProjectId,Backplane,4261636b-706c-4616-9e65-2e6b69636164,A*%
%TF.SameCoordinates,Original*%
%TF.FileFunction,Drillmap*%
%TF.FilePolarity,Positive*%
%FSLAX45Y45*%
G04 Gerber Fmt 4.5, Leading zero omitted, Abs format (unit mm)*
G04 Created by KiCad (PCBNEW (6.0.9-0)) date 2023-02-07 08:34:55*
%MOMM*%
%LPD*%
G01*
G04 APERTURE LIST*
%ADD10C,0.100000*%
%ADD11C,0.200000*%
%ADD12C,0.285000*%
%ADD13C,0.300000*%
G04 APERTURE END LIST*
D10*
X3810000Y-7825500D02*
X38100000Y-7825500D01*
X38100000Y-7825500D02*
X38100000Y-20680500D01*
X38100000Y-20680500D02*
X3810000Y-20680500D01*
X3810000Y-20680500D02*
X3810000Y-7825500D01*
D11*
D12*
X4425250Y-9610500D02*
X4710250Y-9895500D01*
X4710250Y-9610500D02*
X4425250Y-9895500D01*
X4425250Y-18610500D02*
X4710250Y-18895500D01*
X4710250Y-18610500D02*
X4425250Y-18895500D01*
X6457250Y-9610500D02*
X6742250Y-9895500D01*
X6742250Y-9610500D02*
X6457250Y-9895500D01*
X6457250Y-18610500D02*
X6742250Y-18895500D01*
X6742250Y-18610500D02*
X6457250Y-18895500D01*
X8489250Y-9610500D02*
X8774250Y-9895500D01*
X8774250Y-9610500D02*
X8489250Y-9895500D01*
X8489250Y-18610500D02*
X8774250Y-18895500D01*
X8774250Y-18610500D02*
X8489250Y-18895500D01*
X10521250Y-9610500D02*
X10806250Y-9895500D01*
X10806250Y-9610500D02*
X10521250Y-9895500D01*
X10521250Y-18610500D02*
X10806250Y-18895500D01*
X10806250Y-18610500D02*
X10521250Y-18895500D01*
X12553250Y-9610500D02*
X12838250Y-9895500D01*
X12838250Y-9610500D02*
X12553250Y-9895500D01*
X12553250Y-18610500D02*
X12838250Y-18895500D01*
X12838250Y-18610500D02*
X12553250Y-18895500D01*
X14585250Y-9610500D02*
X14870250Y-9895500D01*
X14870250Y-9610500D02*
X14585250Y-9895500D01*
X14585250Y-18610500D02*
X14870250Y-18895500D01*
X14870250Y-18610500D02*
X14585250Y-18895500D01*
X16617250Y-9610500D02*
X16902250Y-9895500D01*
X16902250Y-9610500D02*
X16617250Y-9895500D01*
X16617250Y-18610500D02*
X16902250Y-18895500D01*
X16902250Y-18610500D02*
X16617250Y-18895500D01*
X18649250Y-9610500D02*
X18934250Y-9895500D01*
X18934250Y-9610500D02*
X18649250Y-9895500D01*
X18649250Y-18610500D02*
X18934250Y-18895500D01*
X18934250Y-18610500D02*
X18649250Y-18895500D01*
X20681250Y-9610500D02*
X20966250Y-9895500D01*
X20966250Y-9610500D02*
X20681250Y-9895500D01*
X20681250Y-18610500D02*
X20966250Y-18895500D01*
X20966250Y-18610500D02*
X20681250Y-18895500D01*
X22713250Y-9610500D02*
X22998250Y-9895500D01*
X22998250Y-9610500D02*
X22713250Y-9895500D01*
X22713250Y-18610500D02*
X22998250Y-18895500D01*
X22998250Y-18610500D02*
X22713250Y-18895500D01*
X24745250Y-9610500D02*
X25030250Y-9895500D01*
X25030250Y-9610500D02*
X24745250Y-9895500D01*
X24745250Y-18610500D02*
X25030250Y-18895500D01*
X25030250Y-18610500D02*
X24745250Y-18895500D01*
X26777250Y-9610500D02*
X27062250Y-9895500D01*
X27062250Y-9610500D02*
X26777250Y-9895500D01*
X26777250Y-18610500D02*
X27062250Y-18895500D01*
X27062250Y-18610500D02*
X26777250Y-18895500D01*
X28809250Y-9610500D02*
X29094250Y-9895500D01*
X29094250Y-9610500D02*
X28809250Y-9895500D01*
X28809250Y-18610500D02*
X29094250Y-18895500D01*
X29094250Y-18610500D02*
X28809250Y-18895500D01*
X30841250Y-9610500D02*
X31126250Y-9895500D01*
X31126250Y-9610500D02*
X30841250Y-9895500D01*
X30841250Y-18610500D02*
X31126250Y-18895500D01*
X31126250Y-18610500D02*
X30841250Y-18895500D01*
X32873250Y-9610500D02*
X33158250Y-9895500D01*
X33158250Y-9610500D02*
X32873250Y-9895500D01*
X32873250Y-18610500D02*
X33158250Y-18895500D01*
X33158250Y-18610500D02*
X32873250Y-18895500D01*
D13*
X36440000Y-11976500D02*
G75*
G03*
X36440000Y-11976500I-150000J0D01*
G01*
X36440000Y-16596500D02*
G75*
G03*
X36440000Y-16596500I-150000J0D01*
G01*
D11*
X4062619Y-20995976D02*
X4062619Y-20795976D01*
X4110238Y-20795976D01*
X4138809Y-20805500D01*
X4157857Y-20824548D01*
X4167381Y-20843595D01*
X4176905Y-20881690D01*
X4176905Y-20910262D01*
X4167381Y-20948357D01*
X4157857Y-20967405D01*
X4138809Y-20986452D01*
X4110238Y-20995976D01*
X4062619Y-20995976D01*
X4262619Y-20995976D02*
X4262619Y-20862643D01*
X4262619Y-20900738D02*
X4272143Y-20881690D01*
X4281667Y-20872167D01*
X4300714Y-20862643D01*
X4319762Y-20862643D01*
X4386429Y-20995976D02*
X4386429Y-20862643D01*
X4386429Y-20795976D02*
X4376905Y-20805500D01*
X4386429Y-20815024D01*
X4395952Y-20805500D01*
X4386429Y-20795976D01*
X4386429Y-20815024D01*
X4510238Y-20995976D02*
X4491190Y-20986452D01*
X4481667Y-20967405D01*
X4481667Y-20795976D01*
X4615000Y-20995976D02*
X4595952Y-20986452D01*
X4586429Y-20967405D01*
X4586429Y-20795976D01*
X4843571Y-20995976D02*
X4843571Y-20795976D01*
X4910238Y-20938833D01*
X4976905Y-20795976D01*
X4976905Y-20995976D01*
X5157857Y-20995976D02*
X5157857Y-20891214D01*
X5148333Y-20872167D01*
X5129286Y-20862643D01*
X5091190Y-20862643D01*
X5072143Y-20872167D01*
X5157857Y-20986452D02*
X5138810Y-20995976D01*
X5091190Y-20995976D01*
X5072143Y-20986452D01*
X5062619Y-20967405D01*
X5062619Y-20948357D01*
X5072143Y-20929310D01*
X5091190Y-20919786D01*
X5138810Y-20919786D01*
X5157857Y-20910262D01*
X5253095Y-20862643D02*
X5253095Y-21062643D01*
X5253095Y-20872167D02*
X5272143Y-20862643D01*
X5310238Y-20862643D01*
X5329286Y-20872167D01*
X5338810Y-20881690D01*
X5348333Y-20900738D01*
X5348333Y-20957881D01*
X5338810Y-20976929D01*
X5329286Y-20986452D01*
X5310238Y-20995976D01*
X5272143Y-20995976D01*
X5253095Y-20986452D01*
X5434048Y-20976929D02*
X5443571Y-20986452D01*
X5434048Y-20995976D01*
X5424524Y-20986452D01*
X5434048Y-20976929D01*
X5434048Y-20995976D01*
X5434048Y-20872167D02*
X5443571Y-20881690D01*
X5434048Y-20891214D01*
X5424524Y-20881690D01*
X5434048Y-20872167D01*
X5434048Y-20891214D01*
X3605000Y-21225500D02*
X3805000Y-21425500D01*
X3805000Y-21225500D02*
X3605000Y-21425500D01*
X4053095Y-21235024D02*
X4062619Y-21225500D01*
X4081667Y-21215976D01*
X4129286Y-21215976D01*
X4148333Y-21225500D01*
X4157857Y-21235024D01*
X4167381Y-21254071D01*
X4167381Y-21273119D01*
X4157857Y-21301690D01*
X4043571Y-21415976D01*
X4167381Y-21415976D01*
X4253095Y-21396929D02*
X4262619Y-21406452D01*
X4253095Y-21415976D01*
X4243571Y-21406452D01*
X4253095Y-21396929D01*
X4253095Y-21415976D01*
X4376905Y-21301690D02*
X4357857Y-21292167D01*
X4348333Y-21282643D01*
X4338810Y-21263595D01*
X4338810Y-21254071D01*
X4348333Y-21235024D01*
X4357857Y-21225500D01*
X4376905Y-21215976D01*
X4415000Y-21215976D01*
X4434048Y-21225500D01*
X4443571Y-21235024D01*
X4453095Y-21254071D01*
X4453095Y-21263595D01*
X4443571Y-21282643D01*
X4434048Y-21292167D01*
X4415000Y-21301690D01*
X4376905Y-21301690D01*
X4357857Y-21311214D01*
X4348333Y-21320738D01*
X4338810Y-21339786D01*
X4338810Y-21377881D01*
X4348333Y-21396929D01*
X4357857Y-21406452D01*
X4376905Y-21415976D01*
X4415000Y-21415976D01*
X4434048Y-21406452D01*
X4443571Y-21396929D01*
X4453095Y-21377881D01*
X4453095Y-21339786D01*
X4443571Y-21320738D01*
X4434048Y-21311214D01*
X4415000Y-21301690D01*
X4634048Y-21215976D02*
X4538810Y-21215976D01*
X4529286Y-21311214D01*
X4538810Y-21301690D01*
X4557857Y-21292167D01*
X4605476Y-21292167D01*
X4624524Y-21301690D01*
X4634048Y-21311214D01*
X4643571Y-21330262D01*
X4643571Y-21377881D01*
X4634048Y-21396929D01*
X4624524Y-21406452D01*
X4605476Y-21415976D01*
X4557857Y-21415976D01*
X4538810Y-21406452D01*
X4529286Y-21396929D01*
X4767381Y-21215976D02*
X4786429Y-21215976D01*
X4805476Y-21225500D01*
X4815000Y-21235024D01*
X4824524Y-21254071D01*
X4834048Y-21292167D01*
X4834048Y-21339786D01*
X4824524Y-21377881D01*
X4815000Y-21396929D01*
X4805476Y-21406452D01*
X4786429Y-21415976D01*
X4767381Y-21415976D01*
X4748333Y-21406452D01*
X4738810Y-21396929D01*
X4729286Y-21377881D01*
X4719762Y-21339786D01*
X4719762Y-21292167D01*
X4729286Y-21254071D01*
X4738810Y-21235024D01*
X4748333Y-21225500D01*
X4767381Y-21215976D01*
X4919762Y-21415976D02*
X4919762Y-21282643D01*
X4919762Y-21301690D02*
X4929286Y-21292167D01*
X4948333Y-21282643D01*
X4976905Y-21282643D01*
X4995952Y-21292167D01*
X5005476Y-21311214D01*
X5005476Y-21415976D01*
X5005476Y-21311214D02*
X5015000Y-21292167D01*
X5034048Y-21282643D01*
X5062619Y-21282643D01*
X5081667Y-21292167D01*
X5091190Y-21311214D01*
X5091190Y-21415976D01*
X5186429Y-21415976D02*
X5186429Y-21282643D01*
X5186429Y-21301690D02*
X5195952Y-21292167D01*
X5215000Y-21282643D01*
X5243571Y-21282643D01*
X5262619Y-21292167D01*
X5272143Y-21311214D01*
X5272143Y-21415976D01*
X5272143Y-21311214D02*
X5281667Y-21292167D01*
X5300714Y-21282643D01*
X5329286Y-21282643D01*
X5348333Y-21292167D01*
X5357857Y-21311214D01*
X5357857Y-21415976D01*
X5748333Y-21206452D02*
X5576905Y-21463595D01*
X6005476Y-21215976D02*
X6024524Y-21215976D01*
X6043571Y-21225500D01*
X6053095Y-21235024D01*
X6062619Y-21254071D01*
X6072143Y-21292167D01*
X6072143Y-21339786D01*
X6062619Y-21377881D01*
X6053095Y-21396929D01*
X6043571Y-21406452D01*
X6024524Y-21415976D01*
X6005476Y-21415976D01*
X5986428Y-21406452D01*
X5976905Y-21396929D01*
X5967381Y-21377881D01*
X5957857Y-21339786D01*
X5957857Y-21292167D01*
X5967381Y-21254071D01*
X5976905Y-21235024D01*
X5986428Y-21225500D01*
X6005476Y-21215976D01*
X6157857Y-21396929D02*
X6167381Y-21406452D01*
X6157857Y-21415976D01*
X6148333Y-21406452D01*
X6157857Y-21396929D01*
X6157857Y-21415976D01*
X6357857Y-21415976D02*
X6243571Y-21415976D01*
X6300714Y-21415976D02*
X6300714Y-21215976D01*
X6281667Y-21244548D01*
X6262619Y-21263595D01*
X6243571Y-21273119D01*
X6548333Y-21415976D02*
X6434048Y-21415976D01*
X6491190Y-21415976D02*
X6491190Y-21215976D01*
X6472143Y-21244548D01*
X6453095Y-21263595D01*
X6434048Y-21273119D01*
X6624524Y-21235024D02*
X6634048Y-21225500D01*
X6653095Y-21215976D01*
X6700714Y-21215976D01*
X6719762Y-21225500D01*
X6729286Y-21235024D01*
X6738809Y-21254071D01*
X6738809Y-21273119D01*
X6729286Y-21301690D01*
X6615000Y-21415976D01*
X6738809Y-21415976D01*
X6815000Y-21235024D02*
X6824524Y-21225500D01*
X6843571Y-21215976D01*
X6891190Y-21215976D01*
X6910238Y-21225500D01*
X6919762Y-21235024D01*
X6929286Y-21254071D01*
X6929286Y-21273119D01*
X6919762Y-21301690D01*
X6805476Y-21415976D01*
X6929286Y-21415976D01*
X7005476Y-21215976D02*
X7005476Y-21254071D01*
X7081667Y-21215976D02*
X7081667Y-21254071D01*
X7376905Y-21492167D02*
X7367381Y-21482643D01*
X7348333Y-21454071D01*
X7338809Y-21435024D01*
X7329286Y-21406452D01*
X7319762Y-21358833D01*
X7319762Y-21320738D01*
X7329286Y-21273119D01*
X7338809Y-21244548D01*
X7348333Y-21225500D01*
X7367381Y-21196929D01*
X7376905Y-21187405D01*
X7434048Y-21215976D02*
X7557857Y-21215976D01*
X7491190Y-21292167D01*
X7519762Y-21292167D01*
X7538809Y-21301690D01*
X7548333Y-21311214D01*
X7557857Y-21330262D01*
X7557857Y-21377881D01*
X7548333Y-21396929D01*
X7538809Y-21406452D01*
X7519762Y-21415976D01*
X7462619Y-21415976D01*
X7443571Y-21406452D01*
X7434048Y-21396929D01*
X7681667Y-21215976D02*
X7700714Y-21215976D01*
X7719762Y-21225500D01*
X7729286Y-21235024D01*
X7738809Y-21254071D01*
X7748333Y-21292167D01*
X7748333Y-21339786D01*
X7738809Y-21377881D01*
X7729286Y-21396929D01*
X7719762Y-21406452D01*
X7700714Y-21415976D01*
X7681667Y-21415976D01*
X7662619Y-21406452D01*
X7653095Y-21396929D01*
X7643571Y-21377881D01*
X7634048Y-21339786D01*
X7634048Y-21292167D01*
X7643571Y-21254071D01*
X7653095Y-21235024D01*
X7662619Y-21225500D01*
X7681667Y-21215976D01*
X7986428Y-21415976D02*
X7986428Y-21215976D01*
X8072143Y-21415976D02*
X8072143Y-21311214D01*
X8062619Y-21292167D01*
X8043571Y-21282643D01*
X8015000Y-21282643D01*
X7995952Y-21292167D01*
X7986428Y-21301690D01*
X8195952Y-21415976D02*
X8176905Y-21406452D01*
X8167381Y-21396929D01*
X8157857Y-21377881D01*
X8157857Y-21320738D01*
X8167381Y-21301690D01*
X8176905Y-21292167D01*
X8195952Y-21282643D01*
X8224524Y-21282643D01*
X8243571Y-21292167D01*
X8253095Y-21301690D01*
X8262619Y-21320738D01*
X8262619Y-21377881D01*
X8253095Y-21396929D01*
X8243571Y-21406452D01*
X8224524Y-21415976D01*
X8195952Y-21415976D01*
X8376905Y-21415976D02*
X8357857Y-21406452D01*
X8348333Y-21387405D01*
X8348333Y-21215976D01*
X8529286Y-21406452D02*
X8510238Y-21415976D01*
X8472143Y-21415976D01*
X8453095Y-21406452D01*
X8443571Y-21387405D01*
X8443571Y-21311214D01*
X8453095Y-21292167D01*
X8472143Y-21282643D01*
X8510238Y-21282643D01*
X8529286Y-21292167D01*
X8538810Y-21311214D01*
X8538810Y-21330262D01*
X8443571Y-21349310D01*
X8615000Y-21406452D02*
X8634048Y-21415976D01*
X8672143Y-21415976D01*
X8691190Y-21406452D01*
X8700714Y-21387405D01*
X8700714Y-21377881D01*
X8691190Y-21358833D01*
X8672143Y-21349310D01*
X8643571Y-21349310D01*
X8624524Y-21339786D01*
X8615000Y-21320738D01*
X8615000Y-21311214D01*
X8624524Y-21292167D01*
X8643571Y-21282643D01*
X8672143Y-21282643D01*
X8691190Y-21292167D01*
X8767381Y-21492167D02*
X8776905Y-21482643D01*
X8795952Y-21454071D01*
X8805476Y-21435024D01*
X8815000Y-21406452D01*
X8824524Y-21358833D01*
X8824524Y-21320738D01*
X8815000Y-21273119D01*
X8805476Y-21244548D01*
X8795952Y-21225500D01*
X8776905Y-21196929D01*
X8767381Y-21187405D01*
X9129286Y-21492167D02*
X9119762Y-21482643D01*
X9100714Y-21454071D01*
X9091190Y-21435024D01*
X9081667Y-21406452D01*
X9072143Y-21358833D01*
X9072143Y-21320738D01*
X9081667Y-21273119D01*
X9091190Y-21244548D01*
X9100714Y-21225500D01*
X9119762Y-21196929D01*
X9129286Y-21187405D01*
X9205476Y-21282643D02*
X9205476Y-21415976D01*
X9205476Y-21301690D02*
X9215000Y-21292167D01*
X9234048Y-21282643D01*
X9262619Y-21282643D01*
X9281667Y-21292167D01*
X9291190Y-21311214D01*
X9291190Y-21415976D01*
X9415000Y-21415976D02*
X9395952Y-21406452D01*
X9386429Y-21396929D01*
X9376905Y-21377881D01*
X9376905Y-21320738D01*
X9386429Y-21301690D01*
X9395952Y-21292167D01*
X9415000Y-21282643D01*
X9443571Y-21282643D01*
X9462619Y-21292167D01*
X9472143Y-21301690D01*
X9481667Y-21320738D01*
X9481667Y-21377881D01*
X9472143Y-21396929D01*
X9462619Y-21406452D01*
X9443571Y-21415976D01*
X9415000Y-21415976D01*
X9538810Y-21282643D02*
X9615000Y-21282643D01*
X9567381Y-21215976D02*
X9567381Y-21387405D01*
X9576905Y-21406452D01*
X9595952Y-21415976D01*
X9615000Y-21415976D01*
X9834048Y-21282643D02*
X9834048Y-21482643D01*
X9834048Y-21292167D02*
X9853095Y-21282643D01*
X9891190Y-21282643D01*
X9910238Y-21292167D01*
X9919762Y-21301690D01*
X9929286Y-21320738D01*
X9929286Y-21377881D01*
X9919762Y-21396929D01*
X9910238Y-21406452D01*
X9891190Y-21415976D01*
X9853095Y-21415976D01*
X9834048Y-21406452D01*
X10043571Y-21415976D02*
X10024524Y-21406452D01*
X10015000Y-21387405D01*
X10015000Y-21215976D01*
X10205476Y-21415976D02*
X10205476Y-21311214D01*
X10195952Y-21292167D01*
X10176905Y-21282643D01*
X10138810Y-21282643D01*
X10119762Y-21292167D01*
X10205476Y-21406452D02*
X10186429Y-21415976D01*
X10138810Y-21415976D01*
X10119762Y-21406452D01*
X10110238Y-21387405D01*
X10110238Y-21368357D01*
X10119762Y-21349310D01*
X10138810Y-21339786D01*
X10186429Y-21339786D01*
X10205476Y-21330262D01*
X10272143Y-21282643D02*
X10348333Y-21282643D01*
X10300714Y-21215976D02*
X10300714Y-21387405D01*
X10310238Y-21406452D01*
X10329286Y-21415976D01*
X10348333Y-21415976D01*
X10491190Y-21406452D02*
X10472143Y-21415976D01*
X10434048Y-21415976D01*
X10415000Y-21406452D01*
X10405476Y-21387405D01*
X10405476Y-21311214D01*
X10415000Y-21292167D01*
X10434048Y-21282643D01*
X10472143Y-21282643D01*
X10491190Y-21292167D01*
X10500714Y-21311214D01*
X10500714Y-21330262D01*
X10405476Y-21349310D01*
X10672143Y-21415976D02*
X10672143Y-21215976D01*
X10672143Y-21406452D02*
X10653095Y-21415976D01*
X10615000Y-21415976D01*
X10595952Y-21406452D01*
X10586429Y-21396929D01*
X10576905Y-21377881D01*
X10576905Y-21320738D01*
X10586429Y-21301690D01*
X10595952Y-21292167D01*
X10615000Y-21282643D01*
X10653095Y-21282643D01*
X10672143Y-21292167D01*
X10748333Y-21492167D02*
X10757857Y-21482643D01*
X10776905Y-21454071D01*
X10786429Y-21435024D01*
X10795952Y-21406452D01*
X10805476Y-21358833D01*
X10805476Y-21320738D01*
X10795952Y-21273119D01*
X10786429Y-21244548D01*
X10776905Y-21225500D01*
X10757857Y-21196929D01*
X10748333Y-21187405D01*
X3805000Y-21645500D02*
G75*
G03*
X3805000Y-21645500I-100000J0D01*
G01*
X4043571Y-21535976D02*
X4167381Y-21535976D01*
X4100714Y-21612167D01*
X4129286Y-21612167D01*
X4148333Y-21621690D01*
X4157857Y-21631214D01*
X4167381Y-21650262D01*
X4167381Y-21697881D01*
X4157857Y-21716929D01*
X4148333Y-21726452D01*
X4129286Y-21735976D01*
X4072143Y-21735976D01*
X4053095Y-21726452D01*
X4043571Y-21716929D01*
X4253095Y-21716929D02*
X4262619Y-21726452D01*
X4253095Y-21735976D01*
X4243571Y-21726452D01*
X4253095Y-21716929D01*
X4253095Y-21735976D01*
X4386429Y-21535976D02*
X4405476Y-21535976D01*
X4424524Y-21545500D01*
X4434048Y-21555024D01*
X4443571Y-21574071D01*
X4453095Y-21612167D01*
X4453095Y-21659786D01*
X4443571Y-21697881D01*
X4434048Y-21716929D01*
X4424524Y-21726452D01*
X4405476Y-21735976D01*
X4386429Y-21735976D01*
X4367381Y-21726452D01*
X4357857Y-21716929D01*
X4348333Y-21697881D01*
X4338810Y-21659786D01*
X4338810Y-21612167D01*
X4348333Y-21574071D01*
X4357857Y-21555024D01*
X4367381Y-21545500D01*
X4386429Y-21535976D01*
X4576905Y-21535976D02*
X4595952Y-21535976D01*
X4615000Y-21545500D01*
X4624524Y-21555024D01*
X4634048Y-21574071D01*
X4643571Y-21612167D01*
X4643571Y-21659786D01*
X4634048Y-21697881D01*
X4624524Y-21716929D01*
X4615000Y-21726452D01*
X4595952Y-21735976D01*
X4576905Y-21735976D01*
X4557857Y-21726452D01*
X4548333Y-21716929D01*
X4538810Y-21697881D01*
X4529286Y-21659786D01*
X4529286Y-21612167D01*
X4538810Y-21574071D01*
X4548333Y-21555024D01*
X4557857Y-21545500D01*
X4576905Y-21535976D01*
X4767381Y-21535976D02*
X4786429Y-21535976D01*
X4805476Y-21545500D01*
X4815000Y-21555024D01*
X4824524Y-21574071D01*
X4834048Y-21612167D01*
X4834048Y-21659786D01*
X4824524Y-21697881D01*
X4815000Y-21716929D01*
X4805476Y-21726452D01*
X4786429Y-21735976D01*
X4767381Y-21735976D01*
X4748333Y-21726452D01*
X4738810Y-21716929D01*
X4729286Y-21697881D01*
X4719762Y-21659786D01*
X4719762Y-21612167D01*
X4729286Y-21574071D01*
X4738810Y-21555024D01*
X4748333Y-21545500D01*
X4767381Y-21535976D01*
X4919762Y-21735976D02*
X4919762Y-21602643D01*
X4919762Y-21621690D02*
X4929286Y-21612167D01*
X4948333Y-21602643D01*
X4976905Y-21602643D01*
X4995952Y-21612167D01*
X5005476Y-21631214D01*
X5005476Y-21735976D01*
X5005476Y-21631214D02*
X5015000Y-21612167D01*
X5034048Y-21602643D01*
X5062619Y-21602643D01*
X5081667Y-21612167D01*
X5091190Y-21631214D01*
X5091190Y-21735976D01*
X5186429Y-21735976D02*
X5186429Y-21602643D01*
X5186429Y-21621690D02*
X5195952Y-21612167D01*
X5215000Y-21602643D01*
X5243571Y-21602643D01*
X5262619Y-21612167D01*
X5272143Y-21631214D01*
X5272143Y-21735976D01*
X5272143Y-21631214D02*
X5281667Y-21612167D01*
X5300714Y-21602643D01*
X5329286Y-21602643D01*
X5348333Y-21612167D01*
X5357857Y-21631214D01*
X5357857Y-21735976D01*
X5748333Y-21526452D02*
X5576905Y-21783595D01*
X6005476Y-21535976D02*
X6024524Y-21535976D01*
X6043571Y-21545500D01*
X6053095Y-21555024D01*
X6062619Y-21574071D01*
X6072143Y-21612167D01*
X6072143Y-21659786D01*
X6062619Y-21697881D01*
X6053095Y-21716929D01*
X6043571Y-21726452D01*
X6024524Y-21735976D01*
X6005476Y-21735976D01*
X5986428Y-21726452D01*
X5976905Y-21716929D01*
X5967381Y-21697881D01*
X5957857Y-21659786D01*
X5957857Y-21612167D01*
X5967381Y-21574071D01*
X5976905Y-21555024D01*
X5986428Y-21545500D01*
X6005476Y-21535976D01*
X6157857Y-21716929D02*
X6167381Y-21726452D01*
X6157857Y-21735976D01*
X6148333Y-21726452D01*
X6157857Y-21716929D01*
X6157857Y-21735976D01*
X6357857Y-21735976D02*
X6243571Y-21735976D01*
X6300714Y-21735976D02*
X6300714Y-21535976D01*
X6281667Y-21564548D01*
X6262619Y-21583595D01*
X6243571Y-21593119D01*
X6548333Y-21735976D02*
X6434048Y-21735976D01*
X6491190Y-21735976D02*
X6491190Y-21535976D01*
X6472143Y-21564548D01*
X6453095Y-21583595D01*
X6434048Y-21593119D01*
X6662619Y-21621690D02*
X6643571Y-21612167D01*
X6634048Y-21602643D01*
X6624524Y-21583595D01*
X6624524Y-21574071D01*
X6634048Y-21555024D01*
X6643571Y-21545500D01*
X6662619Y-21535976D01*
X6700714Y-21535976D01*
X6719762Y-21545500D01*
X6729286Y-21555024D01*
X6738809Y-21574071D01*
X6738809Y-21583595D01*
X6729286Y-21602643D01*
X6719762Y-21612167D01*
X6700714Y-21621690D01*
X6662619Y-21621690D01*
X6643571Y-21631214D01*
X6634048Y-21640738D01*
X6624524Y-21659786D01*
X6624524Y-21697881D01*
X6634048Y-21716929D01*
X6643571Y-21726452D01*
X6662619Y-21735976D01*
X6700714Y-21735976D01*
X6719762Y-21726452D01*
X6729286Y-21716929D01*
X6738809Y-21697881D01*
X6738809Y-21659786D01*
X6729286Y-21640738D01*
X6719762Y-21631214D01*
X6700714Y-21621690D01*
X6929286Y-21735976D02*
X6815000Y-21735976D01*
X6872143Y-21735976D02*
X6872143Y-21535976D01*
X6853095Y-21564548D01*
X6834048Y-21583595D01*
X6815000Y-21593119D01*
X7005476Y-21535976D02*
X7005476Y-21574071D01*
X7081667Y-21535976D02*
X7081667Y-21574071D01*
X7376905Y-21812167D02*
X7367381Y-21802643D01*
X7348333Y-21774071D01*
X7338809Y-21755024D01*
X7329286Y-21726452D01*
X7319762Y-21678833D01*
X7319762Y-21640738D01*
X7329286Y-21593119D01*
X7338809Y-21564548D01*
X7348333Y-21545500D01*
X7367381Y-21516929D01*
X7376905Y-21507405D01*
X7443571Y-21555024D02*
X7453095Y-21545500D01*
X7472143Y-21535976D01*
X7519762Y-21535976D01*
X7538809Y-21545500D01*
X7548333Y-21555024D01*
X7557857Y-21574071D01*
X7557857Y-21593119D01*
X7548333Y-21621690D01*
X7434048Y-21735976D01*
X7557857Y-21735976D01*
X7795952Y-21735976D02*
X7795952Y-21535976D01*
X7881667Y-21735976D02*
X7881667Y-21631214D01*
X7872143Y-21612167D01*
X7853095Y-21602643D01*
X7824524Y-21602643D01*
X7805476Y-21612167D01*
X7795952Y-21621690D01*
X8005476Y-21735976D02*
X7986428Y-21726452D01*
X7976905Y-21716929D01*
X7967381Y-21697881D01*
X7967381Y-21640738D01*
X7976905Y-21621690D01*
X7986428Y-21612167D01*
X8005476Y-21602643D01*
X8034048Y-21602643D01*
X8053095Y-21612167D01*
X8062619Y-21621690D01*
X8072143Y-21640738D01*
X8072143Y-21697881D01*
X8062619Y-21716929D01*
X8053095Y-21726452D01*
X8034048Y-21735976D01*
X8005476Y-21735976D01*
X8186428Y-21735976D02*
X8167381Y-21726452D01*
X8157857Y-21707405D01*
X8157857Y-21535976D01*
X8338809Y-21726452D02*
X8319762Y-21735976D01*
X8281667Y-21735976D01*
X8262619Y-21726452D01*
X8253095Y-21707405D01*
X8253095Y-21631214D01*
X8262619Y-21612167D01*
X8281667Y-21602643D01*
X8319762Y-21602643D01*
X8338809Y-21612167D01*
X8348333Y-21631214D01*
X8348333Y-21650262D01*
X8253095Y-21669310D01*
X8424524Y-21726452D02*
X8443571Y-21735976D01*
X8481667Y-21735976D01*
X8500714Y-21726452D01*
X8510238Y-21707405D01*
X8510238Y-21697881D01*
X8500714Y-21678833D01*
X8481667Y-21669310D01*
X8453095Y-21669310D01*
X8434048Y-21659786D01*
X8424524Y-21640738D01*
X8424524Y-21631214D01*
X8434048Y-21612167D01*
X8453095Y-21602643D01*
X8481667Y-21602643D01*
X8500714Y-21612167D01*
X8576905Y-21812167D02*
X8586429Y-21802643D01*
X8605476Y-21774071D01*
X8615000Y-21755024D01*
X8624524Y-21726452D01*
X8634048Y-21678833D01*
X8634048Y-21640738D01*
X8624524Y-21593119D01*
X8615000Y-21564548D01*
X8605476Y-21545500D01*
X8586429Y-21516929D01*
X8576905Y-21507405D01*
X8938810Y-21812167D02*
X8929286Y-21802643D01*
X8910238Y-21774071D01*
X8900714Y-21755024D01*
X8891190Y-21726452D01*
X8881667Y-21678833D01*
X8881667Y-21640738D01*
X8891190Y-21593119D01*
X8900714Y-21564548D01*
X8910238Y-21545500D01*
X8929286Y-21516929D01*
X8938810Y-21507405D01*
X9015000Y-21602643D02*
X9015000Y-21735976D01*
X9015000Y-21621690D02*
X9024524Y-21612167D01*
X9043571Y-21602643D01*
X9072143Y-21602643D01*
X9091190Y-21612167D01*
X9100714Y-21631214D01*
X9100714Y-21735976D01*
X9224524Y-21735976D02*
X9205476Y-21726452D01*
X9195952Y-21716929D01*
X9186429Y-21697881D01*
X9186429Y-21640738D01*
X9195952Y-21621690D01*
X9205476Y-21612167D01*
X9224524Y-21602643D01*
X9253095Y-21602643D01*
X9272143Y-21612167D01*
X9281667Y-21621690D01*
X9291190Y-21640738D01*
X9291190Y-21697881D01*
X9281667Y-21716929D01*
X9272143Y-21726452D01*
X9253095Y-21735976D01*
X9224524Y-21735976D01*
X9348333Y-21602643D02*
X9424524Y-21602643D01*
X9376905Y-21535976D02*
X9376905Y-21707405D01*
X9386429Y-21726452D01*
X9405476Y-21735976D01*
X9424524Y-21735976D01*
X9643571Y-21602643D02*
X9643571Y-21802643D01*
X9643571Y-21612167D02*
X9662619Y-21602643D01*
X9700714Y-21602643D01*
X9719762Y-21612167D01*
X9729286Y-21621690D01*
X9738810Y-21640738D01*
X9738810Y-21697881D01*
X9729286Y-21716929D01*
X9719762Y-21726452D01*
X9700714Y-21735976D01*
X9662619Y-21735976D01*
X9643571Y-21726452D01*
X9853095Y-21735976D02*
X9834048Y-21726452D01*
X9824524Y-21707405D01*
X9824524Y-21535976D01*
X10015000Y-21735976D02*
X10015000Y-21631214D01*
X10005476Y-21612167D01*
X9986429Y-21602643D01*
X9948333Y-21602643D01*
X9929286Y-21612167D01*
X10015000Y-21726452D02*
X9995952Y-21735976D01*
X9948333Y-21735976D01*
X9929286Y-21726452D01*
X9919762Y-21707405D01*
X9919762Y-21688357D01*
X9929286Y-21669310D01*
X9948333Y-21659786D01*
X9995952Y-21659786D01*
X10015000Y-21650262D01*
X10081667Y-21602643D02*
X10157857Y-21602643D01*
X10110238Y-21535976D02*
X10110238Y-21707405D01*
X10119762Y-21726452D01*
X10138810Y-21735976D01*
X10157857Y-21735976D01*
X10300714Y-21726452D02*
X10281667Y-21735976D01*
X10243571Y-21735976D01*
X10224524Y-21726452D01*
X10215000Y-21707405D01*
X10215000Y-21631214D01*
X10224524Y-21612167D01*
X10243571Y-21602643D01*
X10281667Y-21602643D01*
X10300714Y-21612167D01*
X10310238Y-21631214D01*
X10310238Y-21650262D01*
X10215000Y-21669310D01*
X10481667Y-21735976D02*
X10481667Y-21535976D01*
X10481667Y-21726452D02*
X10462619Y-21735976D01*
X10424524Y-21735976D01*
X10405476Y-21726452D01*
X10395952Y-21716929D01*
X10386429Y-21697881D01*
X10386429Y-21640738D01*
X10395952Y-21621690D01*
X10405476Y-21612167D01*
X10424524Y-21602643D01*
X10462619Y-21602643D01*
X10481667Y-21612167D01*
X10557857Y-21812167D02*
X10567381Y-21802643D01*
X10586429Y-21774071D01*
X10595952Y-21755024D01*
X10605476Y-21726452D01*
X10615000Y-21678833D01*
X10615000Y-21640738D01*
X10605476Y-21593119D01*
X10595952Y-21564548D01*
X10586429Y-21545500D01*
X10567381Y-21516929D01*
X10557857Y-21507405D01*
M02*
