G04 #@! TF.GenerationSoftware,KiCad,Pcbnew,(6.0.9-0)*
G04 #@! TF.CreationDate,2023-02-07T08:36:10+01:00*
G04 #@! TF.ProjectId,fp_S5,66705f53-352e-46b6-9963-61645f706362,A*
G04 #@! TF.SameCoordinates,Original*
G04 #@! TF.FileFunction,Profile,NP*
%FSLAX46Y46*%
G04 Gerber Fmt 4.6, Leading zero omitted, Abs format (unit mm)*
G04 Created by KiCad (PCBNEW (6.0.9-0)) date 2023-02-07 08:36:10*
%MOMM*%
%LPD*%
G01*
G04 APERTURE LIST*
G04 #@! TA.AperFunction,Profile*
%ADD10C,0.100000*%
G04 #@! TD*
G04 #@! TA.AperFunction,Profile*
%ADD11C,0.120000*%
G04 #@! TD*
G04 APERTURE END LIST*
D10*
X116010000Y-147120000D02*
G75*
G03*
X116010000Y-147120000I-4250000J0D01*
G01*
X101600000Y-42205000D02*
X142240000Y-42205000D01*
X142240000Y-42205000D02*
X142240000Y-170755000D01*
X142240000Y-170755000D02*
X101600000Y-170755000D01*
X101600000Y-170755000D02*
X101600000Y-42205000D01*
D11*
X126580000Y-107800000D02*
X126580000Y-145800000D01*
X137580000Y-144800000D02*
X137580000Y-108800000D01*
X129080000Y-148300000D02*
X135080000Y-147300000D01*
X129080000Y-105300000D02*
X135080000Y-106300000D01*
X129080000Y-105300000D02*
G75*
G03*
X126580000Y-107800000I0J-2500000D01*
G01*
X126580000Y-145800000D02*
G75*
G03*
X129080000Y-148300000I2500000J0D01*
G01*
X135080000Y-147300000D02*
G75*
G03*
X137580000Y-144800000I0J2500000D01*
G01*
X137580000Y-108800000D02*
G75*
G03*
X135080000Y-106300000I-2500000J0D01*
G01*
X117260000Y-83000000D02*
X117260000Y-69000000D01*
X108760000Y-65500000D02*
X114760000Y-66500000D01*
X106260000Y-84000000D02*
X106260000Y-68000000D01*
X108760000Y-86500000D02*
X114760000Y-85500000D01*
X108760000Y-65500000D02*
G75*
G03*
X106260000Y-68000000I0J-2500000D01*
G01*
X106260000Y-84000000D02*
G75*
G03*
X108760000Y-86500000I2500000J0D01*
G01*
X114760000Y-85500000D02*
G75*
G03*
X117260000Y-83000000I0J2500000D01*
G01*
X117260000Y-69000000D02*
G75*
G03*
X114760000Y-66500000I-2500000J0D01*
G01*
X126580000Y-84000000D02*
X126580000Y-68000000D01*
X137580000Y-83000000D02*
X137580000Y-69000000D01*
X129080000Y-65500000D02*
X135080000Y-66500000D01*
X129080000Y-86500000D02*
X135080000Y-85500000D01*
X137580000Y-69000000D02*
G75*
G03*
X135080000Y-66500000I-2500000J0D01*
G01*
X135080000Y-85500000D02*
G75*
G03*
X137580000Y-83000000I0J2500000D01*
G01*
X129080000Y-65500000D02*
G75*
G03*
X126580000Y-68000000I0J-2500000D01*
G01*
X126580000Y-84000000D02*
G75*
G03*
X129080000Y-86500000I2500000J0D01*
G01*
X117260000Y-126180000D02*
X117260000Y-112180000D01*
X108760000Y-129680000D02*
X114760000Y-128680000D01*
X106260000Y-127180000D02*
X106260000Y-111180000D01*
X108760000Y-108680000D02*
X114760000Y-109680000D01*
X106260000Y-127180000D02*
G75*
G03*
X108760000Y-129680000I2500000J0D01*
G01*
X108760000Y-108680000D02*
G75*
G03*
X106260000Y-111180000I0J-2500000D01*
G01*
X114760000Y-128680000D02*
G75*
G03*
X117260000Y-126180000I0J2500000D01*
G01*
X117260000Y-112180000D02*
G75*
G03*
X114760000Y-109680000I-2500000J0D01*
G01*
M02*
