%TF.GenerationSoftware,KiCad,Pcbnew,(6.0.9-0)*%
%TF.CreationDate,2023-02-07T08:36:14+01:00*%
%TF.ProjectId,fp_S5,66705f53-352e-46b6-9963-61645f706362,A*%
%TF.SameCoordinates,Original*%
%TF.FileFunction,Drillmap*%
%TF.FilePolarity,Positive*%
%FSLAX45Y45*%
G04 Gerber Fmt 4.5, Leading zero omitted, Abs format (unit mm)*
G04 Created by KiCad (PCBNEW (6.0.9-0)) date 2023-02-07 08:36:14*
%MOMM*%
%LPD*%
G01*
G04 APERTURE LIST*
%ADD10C,0.100000*%
%ADD11C,0.200000*%
%ADD12C,0.300000*%
%ADD13C,0.320000*%
G04 APERTURE END LIST*
D10*
X11601000Y-14712000D02*
G75*
G03*
X11601000Y-14712000I-425000J0D01*
G01*
X10160000Y-4220500D02*
X14224000Y-4220500D01*
X14224000Y-4220500D02*
X14224000Y-17075500D01*
X14224000Y-17075500D02*
X10160000Y-17075500D01*
X10160000Y-17075500D02*
X10160000Y-4220500D01*
D11*
D12*
X11026000Y-6200000D02*
X11326000Y-6500000D01*
X11326000Y-6200000D02*
X11026000Y-6500000D01*
X11026000Y-8700000D02*
X11326000Y-9000000D01*
X11326000Y-8700000D02*
X11026000Y-9000000D01*
X11026000Y-10518000D02*
X11326000Y-10818000D01*
X11326000Y-10518000D02*
X11026000Y-10818000D01*
X11026000Y-13018000D02*
X11326000Y-13318000D01*
X11326000Y-13018000D02*
X11026000Y-13318000D01*
X13058000Y-6200000D02*
X13358000Y-6500000D01*
X13358000Y-6200000D02*
X13058000Y-6500000D01*
X13058000Y-8700000D02*
X13358000Y-9000000D01*
X13358000Y-8700000D02*
X13058000Y-9000000D01*
X13058000Y-10180000D02*
X13358000Y-10480000D01*
X13358000Y-10180000D02*
X13058000Y-10480000D01*
X13058000Y-14880000D02*
X13358000Y-15180000D01*
X13358000Y-14880000D02*
X13058000Y-15180000D01*
D13*
X11082000Y-4523000D02*
G75*
G03*
X11082000Y-4523000I-160000J0D01*
G01*
X11082000Y-16773000D02*
G75*
G03*
X11082000Y-16773000I-160000J0D01*
G01*
X13622000Y-4523000D02*
G75*
G03*
X13622000Y-4523000I-160000J0D01*
G01*
X13622000Y-16773000D02*
G75*
G03*
X13622000Y-16773000I-160000J0D01*
G01*
D11*
X10412619Y-17390976D02*
X10412619Y-17190976D01*
X10460238Y-17190976D01*
X10488810Y-17200500D01*
X10507857Y-17219548D01*
X10517381Y-17238595D01*
X10526905Y-17276690D01*
X10526905Y-17305262D01*
X10517381Y-17343357D01*
X10507857Y-17362405D01*
X10488810Y-17381452D01*
X10460238Y-17390976D01*
X10412619Y-17390976D01*
X10612619Y-17390976D02*
X10612619Y-17257643D01*
X10612619Y-17295738D02*
X10622143Y-17276690D01*
X10631667Y-17267167D01*
X10650714Y-17257643D01*
X10669762Y-17257643D01*
X10736429Y-17390976D02*
X10736429Y-17257643D01*
X10736429Y-17190976D02*
X10726905Y-17200500D01*
X10736429Y-17210024D01*
X10745952Y-17200500D01*
X10736429Y-17190976D01*
X10736429Y-17210024D01*
X10860238Y-17390976D02*
X10841190Y-17381452D01*
X10831667Y-17362405D01*
X10831667Y-17190976D01*
X10965000Y-17390976D02*
X10945952Y-17381452D01*
X10936429Y-17362405D01*
X10936429Y-17190976D01*
X11193571Y-17390976D02*
X11193571Y-17190976D01*
X11260238Y-17333833D01*
X11326905Y-17190976D01*
X11326905Y-17390976D01*
X11507857Y-17390976D02*
X11507857Y-17286214D01*
X11498333Y-17267167D01*
X11479286Y-17257643D01*
X11441190Y-17257643D01*
X11422143Y-17267167D01*
X11507857Y-17381452D02*
X11488809Y-17390976D01*
X11441190Y-17390976D01*
X11422143Y-17381452D01*
X11412619Y-17362405D01*
X11412619Y-17343357D01*
X11422143Y-17324310D01*
X11441190Y-17314786D01*
X11488809Y-17314786D01*
X11507857Y-17305262D01*
X11603095Y-17257643D02*
X11603095Y-17457643D01*
X11603095Y-17267167D02*
X11622143Y-17257643D01*
X11660238Y-17257643D01*
X11679286Y-17267167D01*
X11688809Y-17276690D01*
X11698333Y-17295738D01*
X11698333Y-17352881D01*
X11688809Y-17371929D01*
X11679286Y-17381452D01*
X11660238Y-17390976D01*
X11622143Y-17390976D01*
X11603095Y-17381452D01*
X11784048Y-17371929D02*
X11793571Y-17381452D01*
X11784048Y-17390976D01*
X11774524Y-17381452D01*
X11784048Y-17371929D01*
X11784048Y-17390976D01*
X11784048Y-17267167D02*
X11793571Y-17276690D01*
X11784048Y-17286214D01*
X11774524Y-17276690D01*
X11784048Y-17267167D01*
X11784048Y-17286214D01*
X9955000Y-17620500D02*
X10155000Y-17820500D01*
X10155000Y-17620500D02*
X9955000Y-17820500D01*
X10393571Y-17610976D02*
X10517381Y-17610976D01*
X10450714Y-17687167D01*
X10479286Y-17687167D01*
X10498333Y-17696690D01*
X10507857Y-17706214D01*
X10517381Y-17725262D01*
X10517381Y-17772881D01*
X10507857Y-17791929D01*
X10498333Y-17801452D01*
X10479286Y-17810976D01*
X10422143Y-17810976D01*
X10403095Y-17801452D01*
X10393571Y-17791929D01*
X10603095Y-17791929D02*
X10612619Y-17801452D01*
X10603095Y-17810976D01*
X10593571Y-17801452D01*
X10603095Y-17791929D01*
X10603095Y-17810976D01*
X10736429Y-17610976D02*
X10755476Y-17610976D01*
X10774524Y-17620500D01*
X10784048Y-17630024D01*
X10793571Y-17649071D01*
X10803095Y-17687167D01*
X10803095Y-17734786D01*
X10793571Y-17772881D01*
X10784048Y-17791929D01*
X10774524Y-17801452D01*
X10755476Y-17810976D01*
X10736429Y-17810976D01*
X10717381Y-17801452D01*
X10707857Y-17791929D01*
X10698333Y-17772881D01*
X10688810Y-17734786D01*
X10688810Y-17687167D01*
X10698333Y-17649071D01*
X10707857Y-17630024D01*
X10717381Y-17620500D01*
X10736429Y-17610976D01*
X10926905Y-17610976D02*
X10945952Y-17610976D01*
X10965000Y-17620500D01*
X10974524Y-17630024D01*
X10984048Y-17649071D01*
X10993571Y-17687167D01*
X10993571Y-17734786D01*
X10984048Y-17772881D01*
X10974524Y-17791929D01*
X10965000Y-17801452D01*
X10945952Y-17810976D01*
X10926905Y-17810976D01*
X10907857Y-17801452D01*
X10898333Y-17791929D01*
X10888810Y-17772881D01*
X10879286Y-17734786D01*
X10879286Y-17687167D01*
X10888810Y-17649071D01*
X10898333Y-17630024D01*
X10907857Y-17620500D01*
X10926905Y-17610976D01*
X11117381Y-17610976D02*
X11136429Y-17610976D01*
X11155476Y-17620500D01*
X11165000Y-17630024D01*
X11174524Y-17649071D01*
X11184048Y-17687167D01*
X11184048Y-17734786D01*
X11174524Y-17772881D01*
X11165000Y-17791929D01*
X11155476Y-17801452D01*
X11136429Y-17810976D01*
X11117381Y-17810976D01*
X11098333Y-17801452D01*
X11088810Y-17791929D01*
X11079286Y-17772881D01*
X11069762Y-17734786D01*
X11069762Y-17687167D01*
X11079286Y-17649071D01*
X11088810Y-17630024D01*
X11098333Y-17620500D01*
X11117381Y-17610976D01*
X11269762Y-17810976D02*
X11269762Y-17677643D01*
X11269762Y-17696690D02*
X11279286Y-17687167D01*
X11298333Y-17677643D01*
X11326905Y-17677643D01*
X11345952Y-17687167D01*
X11355476Y-17706214D01*
X11355476Y-17810976D01*
X11355476Y-17706214D02*
X11365000Y-17687167D01*
X11384048Y-17677643D01*
X11412619Y-17677643D01*
X11431667Y-17687167D01*
X11441190Y-17706214D01*
X11441190Y-17810976D01*
X11536428Y-17810976D02*
X11536428Y-17677643D01*
X11536428Y-17696690D02*
X11545952Y-17687167D01*
X11565000Y-17677643D01*
X11593571Y-17677643D01*
X11612619Y-17687167D01*
X11622143Y-17706214D01*
X11622143Y-17810976D01*
X11622143Y-17706214D02*
X11631667Y-17687167D01*
X11650714Y-17677643D01*
X11679286Y-17677643D01*
X11698333Y-17687167D01*
X11707857Y-17706214D01*
X11707857Y-17810976D01*
X12098333Y-17601452D02*
X11926905Y-17858595D01*
X12355476Y-17610976D02*
X12374524Y-17610976D01*
X12393571Y-17620500D01*
X12403095Y-17630024D01*
X12412619Y-17649071D01*
X12422143Y-17687167D01*
X12422143Y-17734786D01*
X12412619Y-17772881D01*
X12403095Y-17791929D01*
X12393571Y-17801452D01*
X12374524Y-17810976D01*
X12355476Y-17810976D01*
X12336428Y-17801452D01*
X12326905Y-17791929D01*
X12317381Y-17772881D01*
X12307857Y-17734786D01*
X12307857Y-17687167D01*
X12317381Y-17649071D01*
X12326905Y-17630024D01*
X12336428Y-17620500D01*
X12355476Y-17610976D01*
X12507857Y-17791929D02*
X12517381Y-17801452D01*
X12507857Y-17810976D01*
X12498333Y-17801452D01*
X12507857Y-17791929D01*
X12507857Y-17810976D01*
X12707857Y-17810976D02*
X12593571Y-17810976D01*
X12650714Y-17810976D02*
X12650714Y-17610976D01*
X12631667Y-17639548D01*
X12612619Y-17658595D01*
X12593571Y-17668119D01*
X12898333Y-17810976D02*
X12784048Y-17810976D01*
X12841190Y-17810976D02*
X12841190Y-17610976D01*
X12822143Y-17639548D01*
X12803095Y-17658595D01*
X12784048Y-17668119D01*
X13012619Y-17696690D02*
X12993571Y-17687167D01*
X12984048Y-17677643D01*
X12974524Y-17658595D01*
X12974524Y-17649071D01*
X12984048Y-17630024D01*
X12993571Y-17620500D01*
X13012619Y-17610976D01*
X13050714Y-17610976D01*
X13069762Y-17620500D01*
X13079286Y-17630024D01*
X13088809Y-17649071D01*
X13088809Y-17658595D01*
X13079286Y-17677643D01*
X13069762Y-17687167D01*
X13050714Y-17696690D01*
X13012619Y-17696690D01*
X12993571Y-17706214D01*
X12984048Y-17715738D01*
X12974524Y-17734786D01*
X12974524Y-17772881D01*
X12984048Y-17791929D01*
X12993571Y-17801452D01*
X13012619Y-17810976D01*
X13050714Y-17810976D01*
X13069762Y-17801452D01*
X13079286Y-17791929D01*
X13088809Y-17772881D01*
X13088809Y-17734786D01*
X13079286Y-17715738D01*
X13069762Y-17706214D01*
X13050714Y-17696690D01*
X13279286Y-17810976D02*
X13165000Y-17810976D01*
X13222143Y-17810976D02*
X13222143Y-17610976D01*
X13203095Y-17639548D01*
X13184048Y-17658595D01*
X13165000Y-17668119D01*
X13355476Y-17610976D02*
X13355476Y-17649071D01*
X13431667Y-17610976D02*
X13431667Y-17649071D01*
X13726905Y-17887167D02*
X13717381Y-17877643D01*
X13698333Y-17849071D01*
X13688809Y-17830024D01*
X13679286Y-17801452D01*
X13669762Y-17753833D01*
X13669762Y-17715738D01*
X13679286Y-17668119D01*
X13688809Y-17639548D01*
X13698333Y-17620500D01*
X13717381Y-17591929D01*
X13726905Y-17582405D01*
X13831667Y-17696690D02*
X13812619Y-17687167D01*
X13803095Y-17677643D01*
X13793571Y-17658595D01*
X13793571Y-17649071D01*
X13803095Y-17630024D01*
X13812619Y-17620500D01*
X13831667Y-17610976D01*
X13869762Y-17610976D01*
X13888809Y-17620500D01*
X13898333Y-17630024D01*
X13907857Y-17649071D01*
X13907857Y-17658595D01*
X13898333Y-17677643D01*
X13888809Y-17687167D01*
X13869762Y-17696690D01*
X13831667Y-17696690D01*
X13812619Y-17706214D01*
X13803095Y-17715738D01*
X13793571Y-17734786D01*
X13793571Y-17772881D01*
X13803095Y-17791929D01*
X13812619Y-17801452D01*
X13831667Y-17810976D01*
X13869762Y-17810976D01*
X13888809Y-17801452D01*
X13898333Y-17791929D01*
X13907857Y-17772881D01*
X13907857Y-17734786D01*
X13898333Y-17715738D01*
X13888809Y-17706214D01*
X13869762Y-17696690D01*
X14145952Y-17810976D02*
X14145952Y-17610976D01*
X14231667Y-17810976D02*
X14231667Y-17706214D01*
X14222143Y-17687167D01*
X14203095Y-17677643D01*
X14174524Y-17677643D01*
X14155476Y-17687167D01*
X14145952Y-17696690D01*
X14355476Y-17810976D02*
X14336428Y-17801452D01*
X14326905Y-17791929D01*
X14317381Y-17772881D01*
X14317381Y-17715738D01*
X14326905Y-17696690D01*
X14336428Y-17687167D01*
X14355476Y-17677643D01*
X14384048Y-17677643D01*
X14403095Y-17687167D01*
X14412619Y-17696690D01*
X14422143Y-17715738D01*
X14422143Y-17772881D01*
X14412619Y-17791929D01*
X14403095Y-17801452D01*
X14384048Y-17810976D01*
X14355476Y-17810976D01*
X14536428Y-17810976D02*
X14517381Y-17801452D01*
X14507857Y-17782405D01*
X14507857Y-17610976D01*
X14688809Y-17801452D02*
X14669762Y-17810976D01*
X14631667Y-17810976D01*
X14612619Y-17801452D01*
X14603095Y-17782405D01*
X14603095Y-17706214D01*
X14612619Y-17687167D01*
X14631667Y-17677643D01*
X14669762Y-17677643D01*
X14688809Y-17687167D01*
X14698333Y-17706214D01*
X14698333Y-17725262D01*
X14603095Y-17744310D01*
X14774524Y-17801452D02*
X14793571Y-17810976D01*
X14831667Y-17810976D01*
X14850714Y-17801452D01*
X14860238Y-17782405D01*
X14860238Y-17772881D01*
X14850714Y-17753833D01*
X14831667Y-17744310D01*
X14803095Y-17744310D01*
X14784048Y-17734786D01*
X14774524Y-17715738D01*
X14774524Y-17706214D01*
X14784048Y-17687167D01*
X14803095Y-17677643D01*
X14831667Y-17677643D01*
X14850714Y-17687167D01*
X14926905Y-17887167D02*
X14936428Y-17877643D01*
X14955476Y-17849071D01*
X14965000Y-17830024D01*
X14974524Y-17801452D01*
X14984048Y-17753833D01*
X14984048Y-17715738D01*
X14974524Y-17668119D01*
X14965000Y-17639548D01*
X14955476Y-17620500D01*
X14936428Y-17591929D01*
X14926905Y-17582405D01*
X10155000Y-18040500D02*
G75*
G03*
X10155000Y-18040500I-100000J0D01*
G01*
X10393571Y-17930976D02*
X10517381Y-17930976D01*
X10450714Y-18007167D01*
X10479286Y-18007167D01*
X10498333Y-18016690D01*
X10507857Y-18026214D01*
X10517381Y-18045262D01*
X10517381Y-18092881D01*
X10507857Y-18111929D01*
X10498333Y-18121452D01*
X10479286Y-18130976D01*
X10422143Y-18130976D01*
X10403095Y-18121452D01*
X10393571Y-18111929D01*
X10603095Y-18111929D02*
X10612619Y-18121452D01*
X10603095Y-18130976D01*
X10593571Y-18121452D01*
X10603095Y-18111929D01*
X10603095Y-18130976D01*
X10688810Y-17950024D02*
X10698333Y-17940500D01*
X10717381Y-17930976D01*
X10765000Y-17930976D01*
X10784048Y-17940500D01*
X10793571Y-17950024D01*
X10803095Y-17969071D01*
X10803095Y-17988119D01*
X10793571Y-18016690D01*
X10679286Y-18130976D01*
X10803095Y-18130976D01*
X10926905Y-17930976D02*
X10945952Y-17930976D01*
X10965000Y-17940500D01*
X10974524Y-17950024D01*
X10984048Y-17969071D01*
X10993571Y-18007167D01*
X10993571Y-18054786D01*
X10984048Y-18092881D01*
X10974524Y-18111929D01*
X10965000Y-18121452D01*
X10945952Y-18130976D01*
X10926905Y-18130976D01*
X10907857Y-18121452D01*
X10898333Y-18111929D01*
X10888810Y-18092881D01*
X10879286Y-18054786D01*
X10879286Y-18007167D01*
X10888810Y-17969071D01*
X10898333Y-17950024D01*
X10907857Y-17940500D01*
X10926905Y-17930976D01*
X11117381Y-17930976D02*
X11136429Y-17930976D01*
X11155476Y-17940500D01*
X11165000Y-17950024D01*
X11174524Y-17969071D01*
X11184048Y-18007167D01*
X11184048Y-18054786D01*
X11174524Y-18092881D01*
X11165000Y-18111929D01*
X11155476Y-18121452D01*
X11136429Y-18130976D01*
X11117381Y-18130976D01*
X11098333Y-18121452D01*
X11088810Y-18111929D01*
X11079286Y-18092881D01*
X11069762Y-18054786D01*
X11069762Y-18007167D01*
X11079286Y-17969071D01*
X11088810Y-17950024D01*
X11098333Y-17940500D01*
X11117381Y-17930976D01*
X11269762Y-18130976D02*
X11269762Y-17997643D01*
X11269762Y-18016690D02*
X11279286Y-18007167D01*
X11298333Y-17997643D01*
X11326905Y-17997643D01*
X11345952Y-18007167D01*
X11355476Y-18026214D01*
X11355476Y-18130976D01*
X11355476Y-18026214D02*
X11365000Y-18007167D01*
X11384048Y-17997643D01*
X11412619Y-17997643D01*
X11431667Y-18007167D01*
X11441190Y-18026214D01*
X11441190Y-18130976D01*
X11536428Y-18130976D02*
X11536428Y-17997643D01*
X11536428Y-18016690D02*
X11545952Y-18007167D01*
X11565000Y-17997643D01*
X11593571Y-17997643D01*
X11612619Y-18007167D01*
X11622143Y-18026214D01*
X11622143Y-18130976D01*
X11622143Y-18026214D02*
X11631667Y-18007167D01*
X11650714Y-17997643D01*
X11679286Y-17997643D01*
X11698333Y-18007167D01*
X11707857Y-18026214D01*
X11707857Y-18130976D01*
X12098333Y-17921452D02*
X11926905Y-18178595D01*
X12355476Y-17930976D02*
X12374524Y-17930976D01*
X12393571Y-17940500D01*
X12403095Y-17950024D01*
X12412619Y-17969071D01*
X12422143Y-18007167D01*
X12422143Y-18054786D01*
X12412619Y-18092881D01*
X12403095Y-18111929D01*
X12393571Y-18121452D01*
X12374524Y-18130976D01*
X12355476Y-18130976D01*
X12336428Y-18121452D01*
X12326905Y-18111929D01*
X12317381Y-18092881D01*
X12307857Y-18054786D01*
X12307857Y-18007167D01*
X12317381Y-17969071D01*
X12326905Y-17950024D01*
X12336428Y-17940500D01*
X12355476Y-17930976D01*
X12507857Y-18111929D02*
X12517381Y-18121452D01*
X12507857Y-18130976D01*
X12498333Y-18121452D01*
X12507857Y-18111929D01*
X12507857Y-18130976D01*
X12707857Y-18130976D02*
X12593571Y-18130976D01*
X12650714Y-18130976D02*
X12650714Y-17930976D01*
X12631667Y-17959548D01*
X12612619Y-17978595D01*
X12593571Y-17988119D01*
X12784048Y-17950024D02*
X12793571Y-17940500D01*
X12812619Y-17930976D01*
X12860238Y-17930976D01*
X12879286Y-17940500D01*
X12888809Y-17950024D01*
X12898333Y-17969071D01*
X12898333Y-17988119D01*
X12888809Y-18016690D01*
X12774524Y-18130976D01*
X12898333Y-18130976D01*
X13069762Y-17930976D02*
X13031667Y-17930976D01*
X13012619Y-17940500D01*
X13003095Y-17950024D01*
X12984048Y-17978595D01*
X12974524Y-18016690D01*
X12974524Y-18092881D01*
X12984048Y-18111929D01*
X12993571Y-18121452D01*
X13012619Y-18130976D01*
X13050714Y-18130976D01*
X13069762Y-18121452D01*
X13079286Y-18111929D01*
X13088809Y-18092881D01*
X13088809Y-18045262D01*
X13079286Y-18026214D01*
X13069762Y-18016690D01*
X13050714Y-18007167D01*
X13012619Y-18007167D01*
X12993571Y-18016690D01*
X12984048Y-18026214D01*
X12974524Y-18045262D01*
X13212619Y-17930976D02*
X13231667Y-17930976D01*
X13250714Y-17940500D01*
X13260238Y-17950024D01*
X13269762Y-17969071D01*
X13279286Y-18007167D01*
X13279286Y-18054786D01*
X13269762Y-18092881D01*
X13260238Y-18111929D01*
X13250714Y-18121452D01*
X13231667Y-18130976D01*
X13212619Y-18130976D01*
X13193571Y-18121452D01*
X13184048Y-18111929D01*
X13174524Y-18092881D01*
X13165000Y-18054786D01*
X13165000Y-18007167D01*
X13174524Y-17969071D01*
X13184048Y-17950024D01*
X13193571Y-17940500D01*
X13212619Y-17930976D01*
X13355476Y-17930976D02*
X13355476Y-17969071D01*
X13431667Y-17930976D02*
X13431667Y-17969071D01*
X13726905Y-18207167D02*
X13717381Y-18197643D01*
X13698333Y-18169071D01*
X13688809Y-18150024D01*
X13679286Y-18121452D01*
X13669762Y-18073833D01*
X13669762Y-18035738D01*
X13679286Y-17988119D01*
X13688809Y-17959548D01*
X13698333Y-17940500D01*
X13717381Y-17911929D01*
X13726905Y-17902405D01*
X13888809Y-17997643D02*
X13888809Y-18130976D01*
X13841190Y-17921452D02*
X13793571Y-18064310D01*
X13917381Y-18064310D01*
X14145952Y-18130976D02*
X14145952Y-17930976D01*
X14231667Y-18130976D02*
X14231667Y-18026214D01*
X14222143Y-18007167D01*
X14203095Y-17997643D01*
X14174524Y-17997643D01*
X14155476Y-18007167D01*
X14145952Y-18016690D01*
X14355476Y-18130976D02*
X14336428Y-18121452D01*
X14326905Y-18111929D01*
X14317381Y-18092881D01*
X14317381Y-18035738D01*
X14326905Y-18016690D01*
X14336428Y-18007167D01*
X14355476Y-17997643D01*
X14384048Y-17997643D01*
X14403095Y-18007167D01*
X14412619Y-18016690D01*
X14422143Y-18035738D01*
X14422143Y-18092881D01*
X14412619Y-18111929D01*
X14403095Y-18121452D01*
X14384048Y-18130976D01*
X14355476Y-18130976D01*
X14536428Y-18130976D02*
X14517381Y-18121452D01*
X14507857Y-18102405D01*
X14507857Y-17930976D01*
X14688809Y-18121452D02*
X14669762Y-18130976D01*
X14631667Y-18130976D01*
X14612619Y-18121452D01*
X14603095Y-18102405D01*
X14603095Y-18026214D01*
X14612619Y-18007167D01*
X14631667Y-17997643D01*
X14669762Y-17997643D01*
X14688809Y-18007167D01*
X14698333Y-18026214D01*
X14698333Y-18045262D01*
X14603095Y-18064310D01*
X14774524Y-18121452D02*
X14793571Y-18130976D01*
X14831667Y-18130976D01*
X14850714Y-18121452D01*
X14860238Y-18102405D01*
X14860238Y-18092881D01*
X14850714Y-18073833D01*
X14831667Y-18064310D01*
X14803095Y-18064310D01*
X14784048Y-18054786D01*
X14774524Y-18035738D01*
X14774524Y-18026214D01*
X14784048Y-18007167D01*
X14803095Y-17997643D01*
X14831667Y-17997643D01*
X14850714Y-18007167D01*
X14926905Y-18207167D02*
X14936428Y-18197643D01*
X14955476Y-18169071D01*
X14965000Y-18150024D01*
X14974524Y-18121452D01*
X14984048Y-18073833D01*
X14984048Y-18035738D01*
X14974524Y-17988119D01*
X14965000Y-17959548D01*
X14955476Y-17940500D01*
X14936428Y-17911929D01*
X14926905Y-17902405D01*
M02*
