G04 #@! TF.GenerationSoftware,KiCad,Pcbnew,(6.0.9-0)*
G04 #@! TF.CreationDate,2023-02-07T08:36:10+01:00*
G04 #@! TF.ProjectId,fp_S5,66705f53-352e-46b6-9963-61645f706362,A*
G04 #@! TF.SameCoordinates,Original*
G04 #@! TF.FileFunction,Legend,Top*
G04 #@! TF.FilePolarity,Positive*
%FSLAX46Y46*%
G04 Gerber Fmt 4.6, Leading zero omitted, Abs format (unit mm)*
G04 Created by KiCad (PCBNEW (6.0.9-0)) date 2023-02-07 08:36:10*
%MOMM*%
%LPD*%
G01*
G04 APERTURE LIST*
%ADD10C,0.150000*%
%ADD11C,0.400000*%
%ADD12C,0.300000*%
%ADD13C,0.500000*%
%ADD14C,5.600000*%
%ADD15C,5.000000*%
G04 APERTURE END LIST*
D10*
X107950000Y-157280000D02*
X110490000Y-157280000D01*
X110490000Y-157280000D02*
X110490000Y-159820000D01*
X110490000Y-159820000D02*
X107950000Y-159820000D01*
X107950000Y-159820000D02*
X107950000Y-157280000D01*
G36*
X107950000Y-157280000D02*
G01*
X110490000Y-157280000D01*
X110490000Y-159820000D01*
X107950000Y-159820000D01*
X107950000Y-157280000D01*
G37*
X107950000Y-153470000D02*
X110490000Y-153470000D01*
X110490000Y-153470000D02*
X110490000Y-156010000D01*
X110490000Y-156010000D02*
X107950000Y-156010000D01*
X107950000Y-156010000D02*
X107950000Y-153470000D01*
G36*
X107950000Y-153470000D02*
G01*
X110490000Y-153470000D01*
X110490000Y-156010000D01*
X107950000Y-156010000D01*
X107950000Y-153470000D01*
G37*
D11*
X105331428Y-101257142D02*
X105998095Y-101257142D01*
X106283809Y-102304761D02*
X105331428Y-102304761D01*
X105331428Y-100304761D01*
X106283809Y-100304761D01*
X107140952Y-102304761D02*
X107140952Y-100304761D01*
X108283809Y-102304761D01*
X108283809Y-100304761D01*
X110379047Y-102114285D02*
X110283809Y-102209523D01*
X109998095Y-102304761D01*
X109807619Y-102304761D01*
X109521904Y-102209523D01*
X109331428Y-102019047D01*
X109236190Y-101828571D01*
X109140952Y-101447619D01*
X109140952Y-101161904D01*
X109236190Y-100780952D01*
X109331428Y-100590476D01*
X109521904Y-100400000D01*
X109807619Y-100304761D01*
X109998095Y-100304761D01*
X110283809Y-100400000D01*
X110379047Y-100495238D01*
X111617142Y-100304761D02*
X111998095Y-100304761D01*
X112188571Y-100400000D01*
X112379047Y-100590476D01*
X112474285Y-100971428D01*
X112474285Y-101638095D01*
X112379047Y-102019047D01*
X112188571Y-102209523D01*
X111998095Y-102304761D01*
X111617142Y-102304761D01*
X111426666Y-102209523D01*
X111236190Y-102019047D01*
X111140952Y-101638095D01*
X111140952Y-100971428D01*
X111236190Y-100590476D01*
X111426666Y-100400000D01*
X111617142Y-100304761D01*
X113331428Y-102304761D02*
X113331428Y-100304761D01*
X113807619Y-100304761D01*
X114093333Y-100400000D01*
X114283809Y-100590476D01*
X114379047Y-100780952D01*
X114474285Y-101161904D01*
X114474285Y-101447619D01*
X114379047Y-101828571D01*
X114283809Y-102019047D01*
X114093333Y-102209523D01*
X113807619Y-102304761D01*
X113331428Y-102304761D01*
X115331428Y-101257142D02*
X115998095Y-101257142D01*
X116283809Y-102304761D02*
X115331428Y-102304761D01*
X115331428Y-100304761D01*
X116283809Y-100304761D01*
X118283809Y-102304761D02*
X117617142Y-101352380D01*
X117140952Y-102304761D02*
X117140952Y-100304761D01*
X117902857Y-100304761D01*
X118093333Y-100400000D01*
X118188571Y-100495238D01*
X118283809Y-100685714D01*
X118283809Y-100971428D01*
X118188571Y-101161904D01*
X118093333Y-101257142D01*
X117902857Y-101352380D01*
X117140952Y-101352380D01*
X105331428Y-58277142D02*
X105998095Y-58277142D01*
X106283809Y-59324761D02*
X105331428Y-59324761D01*
X105331428Y-57324761D01*
X106283809Y-57324761D01*
X107140952Y-59324761D02*
X107140952Y-57324761D01*
X108283809Y-59324761D01*
X108283809Y-57324761D01*
X110379047Y-59134285D02*
X110283809Y-59229523D01*
X109998095Y-59324761D01*
X109807619Y-59324761D01*
X109521904Y-59229523D01*
X109331428Y-59039047D01*
X109236190Y-58848571D01*
X109140952Y-58467619D01*
X109140952Y-58181904D01*
X109236190Y-57800952D01*
X109331428Y-57610476D01*
X109521904Y-57420000D01*
X109807619Y-57324761D01*
X109998095Y-57324761D01*
X110283809Y-57420000D01*
X110379047Y-57515238D01*
X111617142Y-57324761D02*
X111998095Y-57324761D01*
X112188571Y-57420000D01*
X112379047Y-57610476D01*
X112474285Y-57991428D01*
X112474285Y-58658095D01*
X112379047Y-59039047D01*
X112188571Y-59229523D01*
X111998095Y-59324761D01*
X111617142Y-59324761D01*
X111426666Y-59229523D01*
X111236190Y-59039047D01*
X111140952Y-58658095D01*
X111140952Y-57991428D01*
X111236190Y-57610476D01*
X111426666Y-57420000D01*
X111617142Y-57324761D01*
X113331428Y-59324761D02*
X113331428Y-57324761D01*
X113807619Y-57324761D01*
X114093333Y-57420000D01*
X114283809Y-57610476D01*
X114379047Y-57800952D01*
X114474285Y-58181904D01*
X114474285Y-58467619D01*
X114379047Y-58848571D01*
X114283809Y-59039047D01*
X114093333Y-59229523D01*
X113807619Y-59324761D01*
X113331428Y-59324761D01*
X115331428Y-58277142D02*
X115998095Y-58277142D01*
X116283809Y-59324761D02*
X115331428Y-59324761D01*
X115331428Y-57324761D01*
X116283809Y-57324761D01*
X118283809Y-59324761D02*
X117617142Y-58372380D01*
X117140952Y-59324761D02*
X117140952Y-57324761D01*
X117902857Y-57324761D01*
X118093333Y-57420000D01*
X118188571Y-57515238D01*
X118283809Y-57705714D01*
X118283809Y-57991428D01*
X118188571Y-58181904D01*
X118093333Y-58277142D01*
X117902857Y-58372380D01*
X117140952Y-58372380D01*
D12*
X114680952Y-153644761D02*
X113728571Y-153644761D01*
X113633333Y-154597142D01*
X113728571Y-154501904D01*
X113919047Y-154406666D01*
X114395238Y-154406666D01*
X114585714Y-154501904D01*
X114680952Y-154597142D01*
X114776190Y-154787619D01*
X114776190Y-155263809D01*
X114680952Y-155454285D01*
X114585714Y-155549523D01*
X114395238Y-155644761D01*
X113919047Y-155644761D01*
X113728571Y-155549523D01*
X113633333Y-155454285D01*
X115347619Y-153644761D02*
X116014285Y-155644761D01*
X116680952Y-153644761D01*
D13*
X106705714Y-53084285D02*
X107134285Y-53227142D01*
X107848571Y-53227142D01*
X108134285Y-53084285D01*
X108277142Y-52941428D01*
X108420000Y-52655714D01*
X108420000Y-52370000D01*
X108277142Y-52084285D01*
X108134285Y-51941428D01*
X107848571Y-51798571D01*
X107277142Y-51655714D01*
X106991428Y-51512857D01*
X106848571Y-51370000D01*
X106705714Y-51084285D01*
X106705714Y-50798571D01*
X106848571Y-50512857D01*
X106991428Y-50370000D01*
X107277142Y-50227142D01*
X107991428Y-50227142D01*
X108420000Y-50370000D01*
X111134285Y-50227142D02*
X109705714Y-50227142D01*
X109562857Y-51655714D01*
X109705714Y-51512857D01*
X109991428Y-51370000D01*
X110705714Y-51370000D01*
X110991428Y-51512857D01*
X111134285Y-51655714D01*
X111277142Y-51941428D01*
X111277142Y-52655714D01*
X111134285Y-52941428D01*
X110991428Y-53084285D01*
X110705714Y-53227142D01*
X109991428Y-53227142D01*
X109705714Y-53084285D01*
X109562857Y-52941428D01*
X116991428Y-50084285D02*
X114420000Y-53941428D01*
X121277142Y-51655714D02*
X120277142Y-51655714D01*
X120277142Y-53227142D02*
X120277142Y-50227142D01*
X121705714Y-50227142D01*
X124134285Y-51227142D02*
X124134285Y-53227142D01*
X122848571Y-51227142D02*
X122848571Y-52798571D01*
X122991428Y-53084285D01*
X123277142Y-53227142D01*
X123705714Y-53227142D01*
X123991428Y-53084285D01*
X124134285Y-52941428D01*
X125420000Y-53084285D02*
X125705714Y-53227142D01*
X126277142Y-53227142D01*
X126562857Y-53084285D01*
X126705714Y-52798571D01*
X126705714Y-52655714D01*
X126562857Y-52370000D01*
X126277142Y-52227142D01*
X125848571Y-52227142D01*
X125562857Y-52084285D01*
X125420000Y-51798571D01*
X125420000Y-51655714D01*
X125562857Y-51370000D01*
X125848571Y-51227142D01*
X126277142Y-51227142D01*
X126562857Y-51370000D01*
X129134285Y-53084285D02*
X128848571Y-53227142D01*
X128277142Y-53227142D01*
X127991428Y-53084285D01*
X127848571Y-52798571D01*
X127848571Y-51655714D01*
X127991428Y-51370000D01*
X128277142Y-51227142D01*
X128848571Y-51227142D01*
X129134285Y-51370000D01*
X129277142Y-51655714D01*
X129277142Y-51941428D01*
X127848571Y-52227142D01*
X130562857Y-53227142D02*
X130562857Y-50227142D01*
X130562857Y-51370000D02*
X130848571Y-51227142D01*
X131420000Y-51227142D01*
X131705714Y-51370000D01*
X131848571Y-51512857D01*
X131991428Y-51798571D01*
X131991428Y-52655714D01*
X131848571Y-52941428D01*
X131705714Y-53084285D01*
X131420000Y-53227142D01*
X130848571Y-53227142D01*
X130562857Y-53084285D01*
X133705714Y-53227142D02*
X133420000Y-53084285D01*
X133277142Y-52941428D01*
X133134285Y-52655714D01*
X133134285Y-51798571D01*
X133277142Y-51512857D01*
X133420000Y-51370000D01*
X133705714Y-51227142D01*
X134134285Y-51227142D01*
X134420000Y-51370000D01*
X134562857Y-51512857D01*
X134705714Y-51798571D01*
X134705714Y-52655714D01*
X134562857Y-52941428D01*
X134420000Y-53084285D01*
X134134285Y-53227142D01*
X133705714Y-53227142D01*
X135705714Y-53227142D02*
X137277142Y-51227142D01*
X135705714Y-51227142D02*
X137277142Y-53227142D01*
D11*
X127794285Y-95520000D02*
X127603809Y-95424761D01*
X127318095Y-95424761D01*
X127032380Y-95520000D01*
X126841904Y-95710476D01*
X126746666Y-95900952D01*
X126651428Y-96281904D01*
X126651428Y-96567619D01*
X126746666Y-96948571D01*
X126841904Y-97139047D01*
X127032380Y-97329523D01*
X127318095Y-97424761D01*
X127508571Y-97424761D01*
X127794285Y-97329523D01*
X127889523Y-97234285D01*
X127889523Y-96567619D01*
X127508571Y-96567619D01*
X128746666Y-97424761D02*
X128746666Y-95424761D01*
X129508571Y-95424761D01*
X129699047Y-95520000D01*
X129794285Y-95615238D01*
X129889523Y-95805714D01*
X129889523Y-96091428D01*
X129794285Y-96281904D01*
X129699047Y-96377142D01*
X129508571Y-96472380D01*
X128746666Y-96472380D01*
X130746666Y-97424761D02*
X130746666Y-95424761D01*
X132080000Y-95424761D02*
X132460952Y-95424761D01*
X132651428Y-95520000D01*
X132841904Y-95710476D01*
X132937142Y-96091428D01*
X132937142Y-96758095D01*
X132841904Y-97139047D01*
X132651428Y-97329523D01*
X132460952Y-97424761D01*
X132080000Y-97424761D01*
X131889523Y-97329523D01*
X131699047Y-97139047D01*
X131603809Y-96758095D01*
X131603809Y-96091428D01*
X131699047Y-95710476D01*
X131889523Y-95520000D01*
X132080000Y-95424761D01*
X135318095Y-97424761D02*
X135318095Y-95424761D01*
X136270476Y-97424761D02*
X136270476Y-95424761D01*
X137413333Y-97424761D01*
X137413333Y-95424761D01*
X125794285Y-58277142D02*
X125127619Y-58277142D01*
X125127619Y-59324761D02*
X125127619Y-57324761D01*
X126080000Y-57324761D01*
X126841904Y-59134285D02*
X126937142Y-59229523D01*
X126841904Y-59324761D01*
X126746666Y-59229523D01*
X126841904Y-59134285D01*
X126841904Y-59324761D01*
X129222857Y-59229523D02*
X129508571Y-59324761D01*
X129984761Y-59324761D01*
X130175238Y-59229523D01*
X130270476Y-59134285D01*
X130365714Y-58943809D01*
X130365714Y-58753333D01*
X130270476Y-58562857D01*
X130175238Y-58467619D01*
X129984761Y-58372380D01*
X129603809Y-58277142D01*
X129413333Y-58181904D01*
X129318095Y-58086666D01*
X129222857Y-57896190D01*
X129222857Y-57705714D01*
X129318095Y-57515238D01*
X129413333Y-57420000D01*
X129603809Y-57324761D01*
X130080000Y-57324761D01*
X130365714Y-57420000D01*
X131222857Y-58277142D02*
X131889523Y-58277142D01*
X132175238Y-59324761D02*
X131222857Y-59324761D01*
X131222857Y-57324761D01*
X132175238Y-57324761D01*
X133984761Y-59324761D02*
X133032380Y-59324761D01*
X133032380Y-57324761D01*
X134651428Y-58277142D02*
X135318095Y-58277142D01*
X135603809Y-59324761D02*
X134651428Y-59324761D01*
X134651428Y-57324761D01*
X135603809Y-57324761D01*
X137603809Y-59134285D02*
X137508571Y-59229523D01*
X137222857Y-59324761D01*
X137032380Y-59324761D01*
X136746666Y-59229523D01*
X136556190Y-59039047D01*
X136460952Y-58848571D01*
X136365714Y-58467619D01*
X136365714Y-58181904D01*
X136460952Y-57800952D01*
X136556190Y-57610476D01*
X136746666Y-57420000D01*
X137032380Y-57324761D01*
X137222857Y-57324761D01*
X137508571Y-57420000D01*
X137603809Y-57515238D01*
X138175238Y-57324761D02*
X139318095Y-57324761D01*
X138746666Y-59324761D02*
X138746666Y-57324761D01*
X105712380Y-139357142D02*
X106379047Y-139357142D01*
X106664761Y-140404761D02*
X105712380Y-140404761D01*
X105712380Y-138404761D01*
X106664761Y-138404761D01*
X107331428Y-138404761D02*
X108664761Y-140404761D01*
X108664761Y-138404761D02*
X107331428Y-140404761D01*
X109140952Y-138404761D02*
X110283809Y-138404761D01*
X109712380Y-140404761D02*
X109712380Y-138404761D01*
X112474285Y-140404761D02*
X112474285Y-138404761D01*
X113236190Y-138404761D01*
X113426666Y-138500000D01*
X113521904Y-138595238D01*
X113617142Y-138785714D01*
X113617142Y-139071428D01*
X113521904Y-139261904D01*
X113426666Y-139357142D01*
X113236190Y-139452380D01*
X112474285Y-139452380D01*
X114283809Y-138404761D02*
X114760000Y-140404761D01*
X115140952Y-138976190D01*
X115521904Y-140404761D01*
X115998095Y-138404761D01*
X117902857Y-140404761D02*
X117236190Y-139452380D01*
X116760000Y-140404761D02*
X116760000Y-138404761D01*
X117521904Y-138404761D01*
X117712380Y-138500000D01*
X117807619Y-138595238D01*
X117902857Y-138785714D01*
X117902857Y-139071428D01*
X117807619Y-139261904D01*
X117712380Y-139357142D01*
X117521904Y-139452380D01*
X116760000Y-139452380D01*
D12*
X113061904Y-159454761D02*
X111919047Y-159454761D01*
X112490476Y-159454761D02*
X112490476Y-157454761D01*
X112300000Y-157740476D01*
X112109523Y-157930952D01*
X111919047Y-158026190D01*
X113823809Y-157645238D02*
X113919047Y-157550000D01*
X114109523Y-157454761D01*
X114585714Y-157454761D01*
X114776190Y-157550000D01*
X114871428Y-157645238D01*
X114966666Y-157835714D01*
X114966666Y-158026190D01*
X114871428Y-158311904D01*
X113728571Y-159454761D01*
X114966666Y-159454761D01*
X115538095Y-157454761D02*
X116204761Y-159454761D01*
X116871428Y-157454761D01*
%LPC*%
D14*
X109220000Y-167730000D03*
X134620000Y-167730000D03*
D15*
X132080000Y-150300000D03*
X132080000Y-103300000D03*
X111760000Y-63500000D03*
X111760000Y-88500000D03*
X132080000Y-63500000D03*
X132080000Y-88500000D03*
D14*
X134620000Y-45230000D03*
D15*
X111760000Y-131680000D03*
X111760000Y-106680000D03*
D14*
X109220000Y-45230000D03*
M02*
