G04 #@! TF.GenerationSoftware,KiCad,Pcbnew,(6.0.9-0)*
G04 #@! TF.CreationDate,2023-02-07T08:36:10+01:00*
G04 #@! TF.ProjectId,fp_S5,66705f53-352e-46b6-9963-61645f706362,A*
G04 #@! TF.SameCoordinates,Original*
G04 #@! TF.FileFunction,Copper,L2,Bot*
G04 #@! TF.FilePolarity,Positive*
%FSLAX46Y46*%
G04 Gerber Fmt 4.6, Leading zero omitted, Abs format (unit mm)*
G04 Created by KiCad (PCBNEW (6.0.9-0)) date 2023-02-07 08:36:10*
%MOMM*%
%LPD*%
G01*
G04 APERTURE LIST*
G04 #@! TA.AperFunction,ComponentPad*
%ADD10C,5.600000*%
G04 #@! TD*
G04 #@! TA.AperFunction,ComponentPad*
%ADD11C,5.000000*%
G04 #@! TD*
G04 APERTURE END LIST*
D10*
X109220000Y-167730000D03*
X134620000Y-167730000D03*
D11*
X132080000Y-150300000D03*
X132080000Y-103300000D03*
X111760000Y-63500000D03*
X111760000Y-88500000D03*
X132080000Y-63500000D03*
X132080000Y-88500000D03*
D10*
X134620000Y-45230000D03*
D11*
X111760000Y-131680000D03*
X111760000Y-106680000D03*
D10*
X109220000Y-45230000D03*
G04 #@! TA.AperFunction,Conductor*
G36*
X141673621Y-42733502D02*
G01*
X141720114Y-42787158D01*
X141731500Y-42839500D01*
X141731500Y-170120500D01*
X141711498Y-170188621D01*
X141657842Y-170235114D01*
X141605500Y-170246500D01*
X102234500Y-170246500D01*
X102166379Y-170226498D01*
X102119886Y-170172842D01*
X102108500Y-170120500D01*
X102108500Y-146995311D01*
X106998336Y-146995311D01*
X107000382Y-147106940D01*
X107006103Y-147419090D01*
X107051511Y-147840500D01*
X107134200Y-148256205D01*
X107253515Y-148662915D01*
X107408513Y-149057407D01*
X107409768Y-149059918D01*
X107577328Y-149395259D01*
X107597964Y-149436559D01*
X107820370Y-149797370D01*
X108073970Y-150136981D01*
X108075831Y-150139059D01*
X108075832Y-150139060D01*
X108322777Y-150414768D01*
X108356755Y-150452704D01*
X108358792Y-150454607D01*
X108358799Y-150454614D01*
X108552823Y-150635860D01*
X108666487Y-150742039D01*
X109000712Y-151002695D01*
X109356786Y-151232609D01*
X109359265Y-151233913D01*
X109359268Y-151233915D01*
X109729387Y-151428644D01*
X109729393Y-151428647D01*
X109731887Y-151429959D01*
X109734485Y-151431043D01*
X109734489Y-151431045D01*
X110120463Y-151592106D01*
X110120468Y-151592108D01*
X110123047Y-151593184D01*
X110125713Y-151594027D01*
X110125718Y-151594029D01*
X110345871Y-151663654D01*
X110527168Y-151720991D01*
X110941051Y-151812367D01*
X110943825Y-151812725D01*
X110943826Y-151812725D01*
X111358647Y-151866233D01*
X111358657Y-151866234D01*
X111361418Y-151866590D01*
X111364205Y-151866700D01*
X111364211Y-151866700D01*
X111610786Y-151876388D01*
X111784940Y-151883231D01*
X111787731Y-151883092D01*
X111787737Y-151883092D01*
X112205462Y-151862296D01*
X112205471Y-151862295D01*
X112208266Y-151862156D01*
X112211043Y-151861768D01*
X112211045Y-151861768D01*
X112284570Y-151851500D01*
X112628042Y-151803534D01*
X112630752Y-151802906D01*
X112630762Y-151802904D01*
X113038218Y-151708460D01*
X113040945Y-151707828D01*
X113252549Y-151638461D01*
X113441052Y-151576667D01*
X113441058Y-151576665D01*
X113443705Y-151575797D01*
X113833135Y-151408485D01*
X114206149Y-151207217D01*
X114559795Y-150973587D01*
X114891273Y-150709445D01*
X115197958Y-150416883D01*
X115477421Y-150098216D01*
X115481742Y-150092302D01*
X115725792Y-149758238D01*
X115725795Y-149758233D01*
X115727450Y-149755968D01*
X115728894Y-149753570D01*
X115728901Y-149753559D01*
X115944615Y-149395259D01*
X115944620Y-149395250D01*
X115946066Y-149392848D01*
X116131537Y-149011733D01*
X116282395Y-148615639D01*
X116291905Y-148581921D01*
X116396679Y-148210415D01*
X116397444Y-148207703D01*
X116397963Y-148204944D01*
X116475260Y-147793900D01*
X116475261Y-147793892D01*
X116475776Y-147791154D01*
X116497459Y-147568007D01*
X116516553Y-147371509D01*
X116516554Y-147371497D01*
X116516768Y-147369292D01*
X116520280Y-147235186D01*
X116523238Y-147122233D01*
X116523238Y-147122220D01*
X116523296Y-147120000D01*
X116504438Y-146696570D01*
X116448015Y-146276493D01*
X116432563Y-146208203D01*
X116355089Y-145865823D01*
X116354472Y-145863095D01*
X116344055Y-145830745D01*
X116332133Y-145793724D01*
X126066309Y-145793724D01*
X126067472Y-145802625D01*
X126067452Y-145804296D01*
X126067788Y-145807970D01*
X126083874Y-146114905D01*
X126133204Y-146426361D01*
X126214820Y-146730954D01*
X126327826Y-147025347D01*
X126329324Y-147028287D01*
X126436723Y-147239068D01*
X126470987Y-147306315D01*
X126642732Y-147570779D01*
X126841180Y-147815842D01*
X127064158Y-148038820D01*
X127309221Y-148237268D01*
X127573686Y-148409013D01*
X127854653Y-148552174D01*
X128149046Y-148665180D01*
X128453639Y-148746796D01*
X128619060Y-148772996D01*
X128761847Y-148795612D01*
X128761855Y-148795613D01*
X128765095Y-148796126D01*
X129006656Y-148808785D01*
X129011770Y-148809053D01*
X129011696Y-148810457D01*
X129015614Y-148809974D01*
X129015652Y-148809257D01*
X129017486Y-148809353D01*
X129019713Y-148809470D01*
X129019714Y-148809470D01*
X129035892Y-148810318D01*
X129046394Y-148810868D01*
X129060689Y-148812439D01*
X129067448Y-148813576D01*
X129073832Y-148813654D01*
X129075135Y-148813670D01*
X129075139Y-148813670D01*
X129080000Y-148813729D01*
X129107926Y-148809730D01*
X129114526Y-148808785D01*
X129120095Y-148808142D01*
X129124522Y-148808094D01*
X129129319Y-148807295D01*
X129129325Y-148807294D01*
X129154722Y-148803061D01*
X129157464Y-148802635D01*
X129224187Y-148793080D01*
X129228625Y-148791062D01*
X129233759Y-148789888D01*
X131579631Y-148398909D01*
X135098254Y-147812472D01*
X135112357Y-147810933D01*
X135394905Y-147796126D01*
X135398145Y-147795613D01*
X135398153Y-147795612D01*
X135540940Y-147772996D01*
X135706361Y-147746796D01*
X136010954Y-147665180D01*
X136305347Y-147552174D01*
X136359287Y-147524690D01*
X136583376Y-147410511D01*
X136583383Y-147410507D01*
X136586315Y-147409013D01*
X136850779Y-147237268D01*
X137095842Y-147038820D01*
X137318820Y-146815842D01*
X137517268Y-146570779D01*
X137689013Y-146306315D01*
X137702792Y-146279274D01*
X137830676Y-146028287D01*
X137832174Y-146025347D01*
X137945180Y-145730954D01*
X138026796Y-145426361D01*
X138076126Y-145114905D01*
X138090868Y-144833606D01*
X138092439Y-144819311D01*
X138093576Y-144812552D01*
X138093729Y-144800000D01*
X138089773Y-144772376D01*
X138088500Y-144754514D01*
X138088500Y-108853250D01*
X138090246Y-108832345D01*
X138092770Y-108817344D01*
X138092770Y-108817341D01*
X138093576Y-108812552D01*
X138093729Y-108800000D01*
X138092798Y-108793497D01*
X138091697Y-108782225D01*
X138076126Y-108485095D01*
X138067056Y-108427826D01*
X138049157Y-108314820D01*
X138026796Y-108173639D01*
X137945180Y-107869046D01*
X137919686Y-107802630D01*
X137833358Y-107577738D01*
X137832174Y-107574653D01*
X137689013Y-107293686D01*
X137517268Y-107029221D01*
X137318820Y-106784158D01*
X137095842Y-106561180D01*
X136850779Y-106362732D01*
X136586315Y-106190987D01*
X136583383Y-106189493D01*
X136583376Y-106189489D01*
X136308287Y-106049324D01*
X136305347Y-106047826D01*
X136010954Y-105934820D01*
X135706361Y-105853204D01*
X135531686Y-105825538D01*
X135398153Y-105804388D01*
X135398145Y-105804387D01*
X135394905Y-105803874D01*
X135234934Y-105795491D01*
X135113606Y-105789132D01*
X135099311Y-105787561D01*
X135092552Y-105786424D01*
X135091826Y-105786415D01*
X135090760Y-105786279D01*
X129190336Y-104802875D01*
X129190146Y-104802843D01*
X129097347Y-104787230D01*
X129097338Y-104787229D01*
X129092552Y-104786424D01*
X129086276Y-104786348D01*
X129084859Y-104786330D01*
X129084856Y-104786330D01*
X129080000Y-104786271D01*
X129075191Y-104786960D01*
X129075187Y-104786960D01*
X129074127Y-104787112D01*
X129073497Y-104787202D01*
X129062233Y-104788302D01*
X129032216Y-104789875D01*
X129029625Y-104789913D01*
X129028176Y-104790087D01*
X129027487Y-104790123D01*
X129018837Y-104789925D01*
X129018823Y-104789925D01*
X129018829Y-104789648D01*
X129015727Y-104789128D01*
X129015811Y-104790735D01*
X128765095Y-104803874D01*
X128761855Y-104804387D01*
X128761847Y-104804388D01*
X128619060Y-104827004D01*
X128453639Y-104853204D01*
X128149046Y-104934820D01*
X127854653Y-105047826D01*
X127573686Y-105190987D01*
X127309221Y-105362732D01*
X127064158Y-105561180D01*
X126841180Y-105784158D01*
X126642732Y-106029221D01*
X126470987Y-106293686D01*
X126327826Y-106574653D01*
X126214820Y-106869046D01*
X126133204Y-107173639D01*
X126083874Y-107485095D01*
X126083702Y-107488385D01*
X126068743Y-107773827D01*
X126067704Y-107783841D01*
X126067692Y-107784846D01*
X126066309Y-107793724D01*
X126068771Y-107812552D01*
X126070436Y-107825283D01*
X126071500Y-107841621D01*
X126071500Y-145750633D01*
X126070000Y-145770018D01*
X126066309Y-145793724D01*
X116332133Y-145793724D01*
X116284583Y-145646066D01*
X116224552Y-145459648D01*
X116163487Y-145315438D01*
X116060375Y-145071930D01*
X116060369Y-145071918D01*
X116059281Y-145069348D01*
X115859969Y-144695285D01*
X115628194Y-144340420D01*
X115550941Y-144242424D01*
X115367521Y-144009757D01*
X115367519Y-144009755D01*
X115365792Y-144007564D01*
X115074839Y-143699352D01*
X115072748Y-143697499D01*
X115072740Y-143697491D01*
X114759739Y-143420085D01*
X114759737Y-143420083D01*
X114757639Y-143418224D01*
X114416705Y-143166406D01*
X114225795Y-143050102D01*
X114057124Y-142947347D01*
X114057117Y-142947343D01*
X114054735Y-142945892D01*
X113933451Y-142886081D01*
X113677110Y-142759668D01*
X113674596Y-142758428D01*
X113672000Y-142757424D01*
X113671987Y-142757418D01*
X113374196Y-142642212D01*
X113279298Y-142605499D01*
X113035305Y-142535304D01*
X112874650Y-142489085D01*
X112874644Y-142489083D01*
X112871969Y-142488314D01*
X112869232Y-142487785D01*
X112869226Y-142487783D01*
X112725914Y-142460056D01*
X112455837Y-142407803D01*
X112034194Y-142364602D01*
X112031404Y-142364565D01*
X112031396Y-142364565D01*
X111766380Y-142361096D01*
X111610381Y-142359054D01*
X111187753Y-142391203D01*
X111184990Y-142391663D01*
X111184989Y-142391663D01*
X110772430Y-142460331D01*
X110772427Y-142460332D01*
X110769655Y-142460793D01*
X110766944Y-142461497D01*
X110766933Y-142461499D01*
X110362117Y-142566569D01*
X110362106Y-142566572D01*
X110359399Y-142567275D01*
X110104428Y-142658317D01*
X109962875Y-142708860D01*
X109962870Y-142708862D01*
X109960232Y-142709804D01*
X109957692Y-142710975D01*
X109957687Y-142710977D01*
X109852069Y-142759668D01*
X109575316Y-142887253D01*
X109207698Y-143098216D01*
X109205406Y-143099818D01*
X109205398Y-143099823D01*
X108862584Y-143339419D01*
X108860289Y-143341023D01*
X108535839Y-143613752D01*
X108236918Y-143914242D01*
X107965892Y-144240115D01*
X107724908Y-144588791D01*
X107515872Y-144957509D01*
X107514713Y-144960058D01*
X107514711Y-144960062D01*
X107341598Y-145340803D01*
X107341593Y-145340814D01*
X107340441Y-145343349D01*
X107339519Y-145345975D01*
X107339514Y-145345987D01*
X107263616Y-145562114D01*
X107200004Y-145743256D01*
X107199313Y-145745976D01*
X107199312Y-145745980D01*
X107170244Y-145860436D01*
X107095672Y-146154064D01*
X107028271Y-146572520D01*
X106998336Y-146995311D01*
X102108500Y-146995311D01*
X102108500Y-127173724D01*
X105746309Y-127173724D01*
X105747472Y-127182625D01*
X105747452Y-127184296D01*
X105747788Y-127187970D01*
X105763874Y-127494905D01*
X105813204Y-127806361D01*
X105894820Y-128110954D01*
X106007826Y-128405347D01*
X106009324Y-128408287D01*
X106116723Y-128619068D01*
X106150987Y-128686315D01*
X106322732Y-128950779D01*
X106521180Y-129195842D01*
X106744158Y-129418820D01*
X106989221Y-129617268D01*
X107253686Y-129789013D01*
X107534653Y-129932174D01*
X107829046Y-130045180D01*
X108133639Y-130126796D01*
X108299060Y-130152996D01*
X108441847Y-130175612D01*
X108441855Y-130175613D01*
X108445095Y-130176126D01*
X108686656Y-130188785D01*
X108691770Y-130189053D01*
X108691696Y-130190457D01*
X108695614Y-130189974D01*
X108695652Y-130189257D01*
X108697486Y-130189353D01*
X108699713Y-130189470D01*
X108699714Y-130189470D01*
X108715892Y-130190318D01*
X108726394Y-130190868D01*
X108740689Y-130192439D01*
X108747448Y-130193576D01*
X108753832Y-130193654D01*
X108755135Y-130193670D01*
X108755139Y-130193670D01*
X108760000Y-130193729D01*
X108787926Y-130189730D01*
X108794526Y-130188785D01*
X108800095Y-130188142D01*
X108804522Y-130188094D01*
X108809319Y-130187295D01*
X108809325Y-130187294D01*
X108834722Y-130183061D01*
X108837464Y-130182635D01*
X108904187Y-130173080D01*
X108908625Y-130171062D01*
X108913759Y-130169888D01*
X111259631Y-129778909D01*
X114778254Y-129192472D01*
X114792357Y-129190933D01*
X115074905Y-129176126D01*
X115078145Y-129175613D01*
X115078153Y-129175612D01*
X115220940Y-129152996D01*
X115386361Y-129126796D01*
X115690954Y-129045180D01*
X115985347Y-128932174D01*
X116039287Y-128904690D01*
X116263376Y-128790511D01*
X116263383Y-128790507D01*
X116266315Y-128789013D01*
X116530779Y-128617268D01*
X116775842Y-128418820D01*
X116998820Y-128195842D01*
X117197268Y-127950779D01*
X117369013Y-127686315D01*
X117512174Y-127405347D01*
X117625180Y-127110954D01*
X117706796Y-126806361D01*
X117756126Y-126494905D01*
X117770868Y-126213606D01*
X117772439Y-126199311D01*
X117773576Y-126192552D01*
X117773729Y-126180000D01*
X117769773Y-126152376D01*
X117768500Y-126134514D01*
X117768500Y-112233250D01*
X117770246Y-112212345D01*
X117772770Y-112197344D01*
X117772770Y-112197341D01*
X117773576Y-112192552D01*
X117773729Y-112180000D01*
X117772798Y-112173497D01*
X117771697Y-112162225D01*
X117756126Y-111865095D01*
X117706796Y-111553639D01*
X117625180Y-111249046D01*
X117599686Y-111182630D01*
X117513358Y-110957738D01*
X117512174Y-110954653D01*
X117369013Y-110673686D01*
X117197268Y-110409221D01*
X116998820Y-110164158D01*
X116775842Y-109941180D01*
X116530779Y-109742732D01*
X116266315Y-109570987D01*
X116263383Y-109569493D01*
X116263376Y-109569489D01*
X115988287Y-109429324D01*
X115985347Y-109427826D01*
X115690954Y-109314820D01*
X115386361Y-109233204D01*
X115211686Y-109205538D01*
X115078153Y-109184388D01*
X115078145Y-109184387D01*
X115074905Y-109183874D01*
X114914934Y-109175491D01*
X114793606Y-109169132D01*
X114779311Y-109167561D01*
X114772552Y-109166424D01*
X114771826Y-109166415D01*
X114770760Y-109166279D01*
X108870336Y-108182875D01*
X108870146Y-108182843D01*
X108777347Y-108167230D01*
X108777338Y-108167229D01*
X108772552Y-108166424D01*
X108766276Y-108166348D01*
X108764859Y-108166330D01*
X108764856Y-108166330D01*
X108760000Y-108166271D01*
X108755191Y-108166960D01*
X108755187Y-108166960D01*
X108754127Y-108167112D01*
X108753497Y-108167202D01*
X108742233Y-108168302D01*
X108712216Y-108169875D01*
X108709625Y-108169913D01*
X108708176Y-108170087D01*
X108707487Y-108170123D01*
X108698837Y-108169925D01*
X108698823Y-108169925D01*
X108698829Y-108169648D01*
X108695727Y-108169128D01*
X108695811Y-108170735D01*
X108445095Y-108183874D01*
X108441855Y-108184387D01*
X108441847Y-108184388D01*
X108299060Y-108207004D01*
X108133639Y-108233204D01*
X107829046Y-108314820D01*
X107534653Y-108427826D01*
X107253686Y-108570987D01*
X106989221Y-108742732D01*
X106744158Y-108941180D01*
X106521180Y-109164158D01*
X106322732Y-109409221D01*
X106150987Y-109673686D01*
X106007826Y-109954653D01*
X105894820Y-110249046D01*
X105813204Y-110553639D01*
X105763874Y-110865095D01*
X105763702Y-110868385D01*
X105748743Y-111153827D01*
X105747704Y-111163841D01*
X105747692Y-111164846D01*
X105746309Y-111173724D01*
X105748771Y-111192552D01*
X105750436Y-111205283D01*
X105751500Y-111221621D01*
X105751500Y-127130633D01*
X105750000Y-127150018D01*
X105746309Y-127173724D01*
X102108500Y-127173724D01*
X102108500Y-83993724D01*
X105746309Y-83993724D01*
X105747472Y-84002625D01*
X105747452Y-84004296D01*
X105747788Y-84007970D01*
X105763874Y-84314905D01*
X105813204Y-84626361D01*
X105894820Y-84930954D01*
X106007826Y-85225347D01*
X106009324Y-85228287D01*
X106116723Y-85439068D01*
X106150987Y-85506315D01*
X106322732Y-85770779D01*
X106521180Y-86015842D01*
X106744158Y-86238820D01*
X106989221Y-86437268D01*
X107253686Y-86609013D01*
X107534653Y-86752174D01*
X107829046Y-86865180D01*
X108133639Y-86946796D01*
X108299060Y-86972996D01*
X108441847Y-86995612D01*
X108441855Y-86995613D01*
X108445095Y-86996126D01*
X108686656Y-87008785D01*
X108691770Y-87009053D01*
X108691696Y-87010457D01*
X108695614Y-87009974D01*
X108695652Y-87009257D01*
X108697486Y-87009353D01*
X108699713Y-87009470D01*
X108699714Y-87009470D01*
X108715892Y-87010318D01*
X108726394Y-87010868D01*
X108740689Y-87012439D01*
X108747448Y-87013576D01*
X108753832Y-87013654D01*
X108755135Y-87013670D01*
X108755139Y-87013670D01*
X108760000Y-87013729D01*
X108787926Y-87009730D01*
X108794526Y-87008785D01*
X108800095Y-87008142D01*
X108804522Y-87008094D01*
X108809319Y-87007295D01*
X108809325Y-87007294D01*
X108834722Y-87003061D01*
X108837464Y-87002635D01*
X108904187Y-86993080D01*
X108908625Y-86991062D01*
X108913759Y-86989888D01*
X111259631Y-86598909D01*
X114778254Y-86012472D01*
X114792357Y-86010933D01*
X115074905Y-85996126D01*
X115078145Y-85995613D01*
X115078153Y-85995612D01*
X115220940Y-85972996D01*
X115386361Y-85946796D01*
X115690954Y-85865180D01*
X115985347Y-85752174D01*
X116039287Y-85724690D01*
X116263376Y-85610511D01*
X116263383Y-85610507D01*
X116266315Y-85609013D01*
X116530779Y-85437268D01*
X116775842Y-85238820D01*
X116998820Y-85015842D01*
X117197268Y-84770779D01*
X117369013Y-84506315D01*
X117512174Y-84225347D01*
X117601085Y-83993724D01*
X126066309Y-83993724D01*
X126067472Y-84002625D01*
X126067452Y-84004296D01*
X126067788Y-84007970D01*
X126083874Y-84314905D01*
X126133204Y-84626361D01*
X126214820Y-84930954D01*
X126327826Y-85225347D01*
X126329324Y-85228287D01*
X126436723Y-85439068D01*
X126470987Y-85506315D01*
X126642732Y-85770779D01*
X126841180Y-86015842D01*
X127064158Y-86238820D01*
X127309221Y-86437268D01*
X127573686Y-86609013D01*
X127854653Y-86752174D01*
X128149046Y-86865180D01*
X128453639Y-86946796D01*
X128619060Y-86972996D01*
X128761847Y-86995612D01*
X128761855Y-86995613D01*
X128765095Y-86996126D01*
X129006656Y-87008785D01*
X129011770Y-87009053D01*
X129011696Y-87010457D01*
X129015614Y-87009974D01*
X129015652Y-87009257D01*
X129017486Y-87009353D01*
X129019713Y-87009470D01*
X129019714Y-87009470D01*
X129035892Y-87010318D01*
X129046394Y-87010868D01*
X129060689Y-87012439D01*
X129067448Y-87013576D01*
X129073832Y-87013654D01*
X129075135Y-87013670D01*
X129075139Y-87013670D01*
X129080000Y-87013729D01*
X129107926Y-87009730D01*
X129114526Y-87008785D01*
X129120095Y-87008142D01*
X129124522Y-87008094D01*
X129129319Y-87007295D01*
X129129325Y-87007294D01*
X129154722Y-87003061D01*
X129157464Y-87002635D01*
X129224187Y-86993080D01*
X129228625Y-86991062D01*
X129233759Y-86989888D01*
X131579631Y-86598909D01*
X135098254Y-86012472D01*
X135112357Y-86010933D01*
X135394905Y-85996126D01*
X135398145Y-85995613D01*
X135398153Y-85995612D01*
X135540940Y-85972996D01*
X135706361Y-85946796D01*
X136010954Y-85865180D01*
X136305347Y-85752174D01*
X136359287Y-85724690D01*
X136583376Y-85610511D01*
X136583383Y-85610507D01*
X136586315Y-85609013D01*
X136850779Y-85437268D01*
X137095842Y-85238820D01*
X137318820Y-85015842D01*
X137517268Y-84770779D01*
X137689013Y-84506315D01*
X137832174Y-84225347D01*
X137945180Y-83930954D01*
X138026796Y-83626361D01*
X138076126Y-83314905D01*
X138090868Y-83033606D01*
X138092439Y-83019311D01*
X138093576Y-83012552D01*
X138093729Y-83000000D01*
X138089773Y-82972376D01*
X138088500Y-82954514D01*
X138088500Y-69053250D01*
X138090246Y-69032345D01*
X138092770Y-69017344D01*
X138092770Y-69017341D01*
X138093576Y-69012552D01*
X138093729Y-69000000D01*
X138092798Y-68993497D01*
X138091697Y-68982225D01*
X138076126Y-68685095D01*
X138026796Y-68373639D01*
X137945180Y-68069046D01*
X137919686Y-68002630D01*
X137833358Y-67777738D01*
X137832174Y-67774653D01*
X137689013Y-67493686D01*
X137517268Y-67229221D01*
X137318820Y-66984158D01*
X137095842Y-66761180D01*
X136850779Y-66562732D01*
X136586315Y-66390987D01*
X136583383Y-66389493D01*
X136583376Y-66389489D01*
X136308287Y-66249324D01*
X136305347Y-66247826D01*
X136010954Y-66134820D01*
X135706361Y-66053204D01*
X135531686Y-66025538D01*
X135398153Y-66004388D01*
X135398145Y-66004387D01*
X135394905Y-66003874D01*
X135234934Y-65995491D01*
X135113606Y-65989132D01*
X135099311Y-65987561D01*
X135092552Y-65986424D01*
X135091826Y-65986415D01*
X135090760Y-65986279D01*
X129190336Y-65002875D01*
X129190146Y-65002843D01*
X129097347Y-64987230D01*
X129097338Y-64987229D01*
X129092552Y-64986424D01*
X129086276Y-64986348D01*
X129084859Y-64986330D01*
X129084856Y-64986330D01*
X129080000Y-64986271D01*
X129075191Y-64986960D01*
X129075187Y-64986960D01*
X129074127Y-64987112D01*
X129073497Y-64987202D01*
X129062233Y-64988302D01*
X129032216Y-64989875D01*
X129029625Y-64989913D01*
X129028176Y-64990087D01*
X129027487Y-64990123D01*
X129018837Y-64989925D01*
X129018823Y-64989925D01*
X129018829Y-64989648D01*
X129015727Y-64989128D01*
X129015811Y-64990735D01*
X128765095Y-65003874D01*
X128761855Y-65004387D01*
X128761847Y-65004388D01*
X128619060Y-65027004D01*
X128453639Y-65053204D01*
X128149046Y-65134820D01*
X127854653Y-65247826D01*
X127573686Y-65390987D01*
X127309221Y-65562732D01*
X127064158Y-65761180D01*
X126841180Y-65984158D01*
X126642732Y-66229221D01*
X126470987Y-66493686D01*
X126327826Y-66774653D01*
X126214820Y-67069046D01*
X126133204Y-67373639D01*
X126083874Y-67685095D01*
X126083702Y-67688385D01*
X126068743Y-67973827D01*
X126067704Y-67983841D01*
X126067692Y-67984846D01*
X126066309Y-67993724D01*
X126068771Y-68012552D01*
X126070436Y-68025283D01*
X126071500Y-68041621D01*
X126071500Y-83950633D01*
X126070000Y-83970018D01*
X126066309Y-83993724D01*
X117601085Y-83993724D01*
X117625180Y-83930954D01*
X117706796Y-83626361D01*
X117756126Y-83314905D01*
X117770868Y-83033606D01*
X117772439Y-83019311D01*
X117773576Y-83012552D01*
X117773729Y-83000000D01*
X117769773Y-82972376D01*
X117768500Y-82954514D01*
X117768500Y-69053250D01*
X117770246Y-69032345D01*
X117772770Y-69017344D01*
X117772770Y-69017341D01*
X117773576Y-69012552D01*
X117773729Y-69000000D01*
X117772798Y-68993497D01*
X117771697Y-68982225D01*
X117756126Y-68685095D01*
X117706796Y-68373639D01*
X117625180Y-68069046D01*
X117599686Y-68002630D01*
X117513358Y-67777738D01*
X117512174Y-67774653D01*
X117369013Y-67493686D01*
X117197268Y-67229221D01*
X116998820Y-66984158D01*
X116775842Y-66761180D01*
X116530779Y-66562732D01*
X116266315Y-66390987D01*
X116263383Y-66389493D01*
X116263376Y-66389489D01*
X115988287Y-66249324D01*
X115985347Y-66247826D01*
X115690954Y-66134820D01*
X115386361Y-66053204D01*
X115211686Y-66025538D01*
X115078153Y-66004388D01*
X115078145Y-66004387D01*
X115074905Y-66003874D01*
X114914934Y-65995491D01*
X114793606Y-65989132D01*
X114779311Y-65987561D01*
X114772552Y-65986424D01*
X114771826Y-65986415D01*
X114770760Y-65986279D01*
X108870336Y-65002875D01*
X108870146Y-65002843D01*
X108777347Y-64987230D01*
X108777338Y-64987229D01*
X108772552Y-64986424D01*
X108766276Y-64986348D01*
X108764859Y-64986330D01*
X108764856Y-64986330D01*
X108760000Y-64986271D01*
X108755191Y-64986960D01*
X108755187Y-64986960D01*
X108754127Y-64987112D01*
X108753497Y-64987202D01*
X108742233Y-64988302D01*
X108712216Y-64989875D01*
X108709625Y-64989913D01*
X108708176Y-64990087D01*
X108707487Y-64990123D01*
X108698837Y-64989925D01*
X108698823Y-64989925D01*
X108698829Y-64989648D01*
X108695727Y-64989128D01*
X108695811Y-64990735D01*
X108445095Y-65003874D01*
X108441855Y-65004387D01*
X108441847Y-65004388D01*
X108299060Y-65027004D01*
X108133639Y-65053204D01*
X107829046Y-65134820D01*
X107534653Y-65247826D01*
X107253686Y-65390987D01*
X106989221Y-65562732D01*
X106744158Y-65761180D01*
X106521180Y-65984158D01*
X106322732Y-66229221D01*
X106150987Y-66493686D01*
X106007826Y-66774653D01*
X105894820Y-67069046D01*
X105813204Y-67373639D01*
X105763874Y-67685095D01*
X105763702Y-67688385D01*
X105748743Y-67973827D01*
X105747704Y-67983841D01*
X105747692Y-67984846D01*
X105746309Y-67993724D01*
X105748771Y-68012552D01*
X105750436Y-68025283D01*
X105751500Y-68041621D01*
X105751500Y-83950633D01*
X105750000Y-83970018D01*
X105746309Y-83993724D01*
X102108500Y-83993724D01*
X102108500Y-42839500D01*
X102128502Y-42771379D01*
X102182158Y-42724886D01*
X102234500Y-42713500D01*
X141605500Y-42713500D01*
X141673621Y-42733502D01*
G37*
G04 #@! TD.AperFunction*
M02*
